<svg id="Capa_1" enable-background="new 0 0 512 512" height="512" viewBox="0 0 512 512" width="512" xmlns="http://www.w3.org/2000/svg"><g><path d="m197 92c-8.284 0-15-6.716-15-15v-47h-70v47c0 8.284-6.716 15-15 15s-15-6.716-15-15v-62c0-8.284 6.716-15 15-15h100c8.284 0 15 6.716 15 15v62c0 8.284-6.716 15-15 15z" fill="#ffc178"/><path d="m197 0h-50v30h35v47c0 8.284 6.716 15 15 15s15-6.716 15-15v-62c0-8.284-6.716-15-15-15z" fill="#ff9d21"/><path d="m77 212h-62c-8.284 0-15-6.716-15-15v-100c0-8.284 6.716-15 15-15h62c8.284 0 15 6.716 15 15s-6.716 15-15 15h-47v70h47c8.284 0 15 6.716 15 15s-6.716 15-15 15z" fill="#ffc178"/><path d="m365.287 206.371-68.287-85.359-68.287 85.359-23.426-18.742 80-100h23.426l63.92 79.9 30.44-76.1 27.854 11.142-40 100z" fill="#ff9d21"/><path d="m456.94 371.992c-2.647 0-5.312-.229-7.971-.696-18.165-3.188-33.078-18.101-36.266-36.266-3.701-21.09 7.446-41.498 27.111-49.628 1.245-.515 2.185-2.32 2.185-4.198v-84.204c0-8.284 6.716-15 15-15s15 6.716 15 15v84.204c0 14.188-8.135 26.718-20.724 31.923-5.369 2.22-10.484 8.398-9.023 16.718 1.029 5.868 6.035 10.874 11.902 11.904 4.594.807 9.023-.349 12.479-3.25 3.41-2.863 5.365-7.054 5.365-11.498 0-8.284 6.716-15 15-15s15 6.716 15 15c0 13.329-5.858 25.894-16.072 34.471-8.164 6.857-18.416 10.52-28.986 10.52z" fill="#e2dff4"/><path d="m497 212h-280c-8.284 0-15-6.716-15-15s6.716-15 15-15h265v-17.5l-70-52.5h-195c-8.284 0-15-6.716-15-15s6.716-15 15-15h200c3.245 0 6.403 1.053 9 3l80 60c3.777 2.833 6 7.279 6 12v40c0 8.284-6.716 15-15 15z" fill="#ff9d21"/><path d="m188.13 449.096-100-73.333v-24.193l83.505-61.237-83.505-61.237 17.74-24.192 100 73.333v24.193l-83.505 61.237 83.505 61.237z" fill="#ffc178"/><g fill="#ff9d21"><path d="m205.87 424.904-58.87-43.172v37.202l41.13 30.162z"/><path d="m147 272.268 24.635 18.065-24.635 18.066v37.202l58.87-43.171v-24.193l-58.87-43.171z"/></g><path d="m182 202h30v250h-30z" fill="#ff9d21"/><path d="m82 202h30v250h-30z" fill="#ffc178"/><path d="m217 232h-140c-8.284 0-15-6.716-15-15v-140c0-8.284 6.716-15 15-15h140c8.284 0 15 6.716 15 15v140c0 8.284-6.716 15-15 15z" fill="#ffe278"/><path d="m217 62h-70v170h70c8.284 0 15-6.716 15-15v-140c0-8.284-6.716-15-15-15z" fill="#ffc178"/><path d="m247 512h-200c-8.284 0-15-6.716-15-15v-20c0-19.33 15.67-35 35-35h160c19.33 0 35 15.67 35 35v20c0 8.284-6.716 15-15 15z" fill="#0d8ebc"/><path d="m227 442h-80v70h100c8.284 0 15-6.716 15-15v-20c0-19.33-15.67-35-35-35z" fill="#0a617d"/></g></svg>