<?xml version="1.0" encoding="iso-8859-1"?>
<!-- Generator: Adobe Illustrator 19.0.0, SVG Export Plug-In . SVG Version: 6.00 Build 0)  -->
<svg version="1.1" id="Layer_1" xmlns="http://www.w3.org/2000/svg" xmlns:xlink="http://www.w3.org/1999/xlink" x="0px" y="0px"
	 viewBox="0 0 360.2 360.2" style="enable-background:new 0 0 360.2 360.2;" xml:space="preserve">
<g>
	<path style="fill:#A47D73;" d="M91.349,360.199c0.757,0,1.508,0,2.244-0.001c4.103-0.001,6.588-4.536,4.368-7.987
		c-5.555-8.639-13.38-22.661-13.861-33.741c-0.63-14.515,5.104-29.049,17.016-43.314c2.162-2.589,4.502-5.17,7.071-7.739
		c22.258-22.258,32.212-44.53,29.587-66.197c-0.871-7.191-3.075-13.597-5.928-19.203h-23.884c4.57,5.463,8.932,12.822,9.975,21.761
		c1.519,13.003-4.139,27.058-16.822,41.875c-2.156,2.519-4.509,5.06-7.071,7.622c-20.926,20.927-30.991,43.231-29.915,66.292
		c0.476,10.195,3.11,19.39,6.651,27.343C74.389,355.016,82.475,360.202,91.349,360.199z"/>
</g>
<g>
	<path style="fill:#80635B;" d="M84.711,360.2c2.631-0.002,5.263-0.003,7.894-0.004c-0.815-0.851-1.69-1.795-2.49-2.72
		c-6.674-7.726-16.266-21.723-17.016-39.005c-0.63-14.515,5.104-29.049,17.016-43.314c2.162-2.589,4.502-5.17,7.071-7.739
		c22.258-22.258,32.212-44.53,29.587-66.197c-0.871-7.191-3.075-13.597-5.928-19.203h-12.884c4.57,5.463,8.932,12.822,9.975,21.761
		c1.519,13.003-4.139,27.058-16.822,41.875c-2.156,2.519-4.509,5.06-7.071,7.622c-20.926,20.927-30.991,43.231-29.915,66.292
		c0.63,13.495,5.04,25.237,10.328,34.664C76.533,357.933,80.465,360.203,84.711,360.2z"/>
</g>
<g>
	<path style="fill:#A47D73;" d="M227.408,360.199c0.757,0,1.508,0,2.244-0.001c4.104-0.001,6.588-4.536,4.368-7.987
		c-5.555-8.639-13.38-22.661-13.861-33.741c-0.63-14.515,5.104-29.049,17.016-43.314c2.162-2.589,4.502-5.17,7.071-7.739
		c22.258-22.258,32.212-44.53,29.587-66.197c-0.871-7.191-3.075-13.597-5.928-19.203h-23.884c4.57,5.463,8.932,12.822,9.975,21.761
		c1.519,13.003-4.139,27.058-16.822,41.875c-2.156,2.519-4.509,5.06-7.071,7.622c-20.926,20.927-30.991,43.231-29.915,66.292
		c0.476,10.195,3.11,19.39,6.651,27.343C210.448,355.016,218.534,360.202,227.408,360.199z"/>
</g>
<g>
	<path style="fill:#80635B;" d="M220.77,360.2c2.631-0.002,5.263-0.003,7.894-0.004c-0.815-0.851-1.69-1.795-2.49-2.72
		c-6.674-7.726-16.266-21.723-17.016-39.005c-0.63-14.515,5.104-29.049,17.016-43.314c2.162-2.589,4.502-5.17,7.071-7.739
		c22.258-22.258,32.212-44.53,29.587-66.197c-0.871-7.191-3.075-13.597-5.928-19.203H244.02c4.57,5.463,8.932,12.822,9.975,21.761
		c1.519,13.003-4.139,27.058-16.822,41.875c-2.156,2.519-4.509,5.06-7.071,7.622c-20.926,20.927-30.991,43.231-29.915,66.292
		c0.63,13.495,5.04,25.237,10.328,34.664C212.592,357.933,216.524,360.203,220.77,360.2z"/>
</g>
<polygon style="fill:#C76A6C;" points="281.301,187.326 237.177,187.326 259.239,152.444 "/>
<polygon style="fill:#B56162;" points="259.239,187.326 237.177,187.326 259.239,152.444 "/>
<circle style="fill:#E27879;" cx="259.239" cy="111.993" r="65.695"/>
<path style="fill:#C76A6C;" d="M259.239,177.688c-36.282,0-65.695-29.413-65.695-65.695s29.413-65.695,65.695-65.695V177.688z"/>
<polygon style="fill:#C8E2DD;" points="151.833,187.326 93.223,187.326 122.528,140.993 "/>
<polygon style="fill:#BBD4CF;" points="122.528,187.326 93.223,187.326 122.528,140.993 "/>
<circle style="fill:#C8F9EC;" cx="122.528" cy="87.262" r="87.262"/>
<path style="fill:#C9E4DF;" d="M122.528,174.524c-48.194,0-87.262-39.069-87.262-87.262S74.334,0,122.528,0V174.524z"/>
<g>
</g>
<g>
</g>
<g>
</g>
<g>
</g>
<g>
</g>
<g>
</g>
<g>
</g>
<g>
</g>
<g>
</g>
<g>
</g>
<g>
</g>
<g>
</g>
<g>
</g>
<g>
</g>
<g>
</g>
</svg>
