<svg id="Capa_1" enable-background="new 0 0 512 512" height="512" viewBox="0 0 512 512" width="512" xmlns="http://www.w3.org/2000/svg"><g><g><g><path d="m497 351.602h-482c-8.284 0-15-6.716-15-15v-161.204c0-8.284 6.716-15 15-15h482c8.284 0 15 6.716 15 15v161.203c0 8.285-6.716 15.001-15 15.001z" fill="#edbdab"/><path d="m497 160.398h-241v191.203h241c8.284 0 15-6.716 15-15v-161.203c0-8.284-6.716-15-15-15z" fill="#de9382"/></g><g><g fill="#dc7367"><path d="m421.46 241c-6.252 0-12.017-4.053-14.11-9.946-2.093-5.892-.263-12.684 4.6-16.654 4.864-3.971 11.831-4.465 17.218-1.26 5.367 3.193 8.25 9.661 7.003 15.79-1.411 6.926-7.622 12.07-14.711 12.07z"/><path d="m421.46 301c-6.252 0-12.017-4.053-14.11-9.946-2.093-5.892-.263-12.684 4.6-16.654 4.868-3.974 11.827-4.467 17.218-1.26 5.367 3.194 8.25 9.661 7.003 15.79-1.411 6.926-7.622 12.07-14.711 12.07z"/></g><g fill="#e7a491"><path d="m90.54 241c-6.276 0-11.997-4.052-14.119-9.948-2.117-5.883-.242-12.688 4.599-16.652 4.859-3.98 11.838-4.465 17.221-1.26 5.378 3.202 8.231 9.657 6.999 15.79-1.391 6.921-7.627 12.07-14.7 12.07z"/><path d="m90.54 301c-6.285 0-11.985-4.054-14.119-9.946-2.128-5.877-.235-12.695 4.599-16.654 4.856-3.977 11.842-4.463 17.221-1.26 5.379 3.202 8.23 9.656 6.999 15.79-1.39 6.921-7.628 12.07-14.7 12.07z"/></g></g></g><g><g><path d="m351.602 15v482c0 8.284-6.716 15-15 15h-161.204c-8.284 0-15-6.716-15-15v-482c0-8.284 6.716-15 15-15h161.203c8.285 0 15.001 6.716 15.001 15z" fill="#f5dfbb"/><path d="m336.602 0h-80.602v512h80.602c8.284 0 15-6.716 15-15v-482c0-8.284-6.716-15-15-15z" fill="#edbdab"/></g><g><g><g><path d="m226 90c-6.283 0-11.981-4.055-14.115-9.946-2.128-5.875-.236-12.703 4.605-16.654 4.876-3.979 11.813-4.456 17.217-1.264 5.379 3.178 8.231 9.681 7.004 15.794-1.392 6.924-7.643 12.07-14.711 12.07z" fill="#edbdab"/><path d="m286 90c-6.282 0-11.981-4.056-14.115-9.946-2.129-5.876-.238-12.702 4.605-16.654 4.868-3.973 11.827-4.469 17.218-1.26 5.372 3.198 8.233 9.662 7.003 15.79-1.392 6.924-7.642 12.07-14.711 12.07z" fill="#e7a491"/><path d="m226 150c-6.282 0-11.981-4.056-14.115-9.946-2.128-5.876-.236-12.703 4.605-16.654 4.879-3.982 11.812-4.454 17.217-1.26 5.38 3.179 8.232 9.674 7.004 15.79-1.392 6.923-7.643 12.07-14.711 12.07z" fill="#edbdab"/><path d="m286 150c-6.274 0-11.994-4.055-14.115-9.948-2.117-5.882-.245-12.695 4.605-16.652 4.864-3.97 11.83-4.467 17.218-1.26 5.372 3.198 8.234 9.662 7.003 15.79-1.392 6.924-7.642 12.07-14.711 12.07z" fill="#e7a491"/></g><g><path d="m226 391.93c-6.286 0-11.981-4.064-14.115-9.952-2.126-5.865-.24-12.709 4.605-16.647 4.867-3.956 11.826-4.494 17.217-1.265 5.367 3.215 8.238 9.654 7.004 15.795-1.391 6.917-7.646 12.069-14.711 12.069z" fill="#edbdab"/><path d="m286 391.93c-6.286 0-11.98-4.064-14.115-9.952-2.126-5.866-.242-12.708 4.605-16.647 4.855-3.946 11.841-4.509 17.218-1.265 5.359 3.234 8.239 9.64 7.003 15.795-1.391 6.919-7.645 12.069-14.711 12.069z" fill="#e7a491"/><path d="m226 451.93c-6.286 0-11.981-4.064-14.115-9.952-2.126-5.865-.24-12.709 4.605-16.647 4.867-3.956 11.826-4.494 17.217-1.265 5.367 3.215 8.238 9.654 7.004 15.795-1.391 6.918-7.646 12.069-14.711 12.069z" fill="#edbdab"/><path d="m286 451.93c-6.286 0-11.981-4.064-14.115-9.952-2.129-5.874-.236-12.697 4.605-16.647 4.846-3.954 11.849-4.505 17.218-1.265 5.357 3.232 8.243 9.642 7.003 15.795-1.396 6.918-7.642 12.069-14.711 12.069z" fill="#e7a491"/></g></g><g><path d="m234.237 183.192h43.526c8.284 0 15 6.716 15 15v115.615c0 8.284-6.716 15-15 15h-43.526c-8.284 0-15-6.716-15-15v-115.615c0-8.284 6.715-15 15-15z" fill="#fbf4f4"/><path d="m256 183.193v145.615h21.763c8.284 0 15-6.716 15-15v-115.615c0-8.284-6.716-15-15-15z" fill="#e2dff4"/></g></g></g></g></svg>