<svg id="Layer_1" enable-background="new 0 0 512 512" height="512" viewBox="0 0 512 512" width="512" xmlns="http://www.w3.org/2000/svg"><g><path d="m439.802 292.801c-28.699 31.035-78.905 39.74-132.524-2.525l-83 80.796s48.893 34.067 50.383 70.41c.115 2.796 2.51 4.962 5.309 4.806 15.789-.879 61.821.032 82.438 36.324 1.206 2.123 3.782 3.058 6.082 2.232 17.622-6.319 88.667-27.062 141.232 26.744.966.988 2.61.045 2.221-1.28l-63.256-215.487c-1.15-3.912-6.115-5.016-8.885-2.02z" fill="#454045"/><path d="m216.661 62.747-214.19-62.662c-1.916-.561-3.302 1.79-1.898 3.207 53.419 53.947 30.022 126.327 24.568 140.819-.552 1.467.079 3.111 1.462 3.85 38.769 20.72 38.753 71.073 37.676 84.898-.142 1.827 1.288 3.402 3.124 3.399 37.051-.055 72.397 49.864 72.397 49.864l80.787-82.391c-47.654-61.59-28.163-108.451-2-132.659 2.811-2.599 1.751-7.249-1.926-8.325z" fill="#544f57"/><path d="m220.587 203.733c-16.463-21.277-24.909-40.794-27.838-58.229l-167.767-.751c-.189 1.28.437 2.576 1.622 3.209 38.769 20.72 38.753 71.073 37.676 84.898-.142 1.827 1.288 3.402 3.124 3.399 37.051-.056 72.397 49.864 72.397 49.864z" fill="#665e66"/><path d="m307.278 290.277-83 80.796s48.893 34.067 50.383 70.41c.115 2.796 2.51 4.962 5.309 4.806 15.789-.879 61.821.032 82.438 36.324.515.907 1.287 1.58 2.174 2.009l12.037-165.616c-21.274-.83-44.955-9.507-69.341-28.729z" fill="#544f57"/><path d="m360.114 205.056-.472-1.675c-7.367-26.15-28.31-46.621-54.656-53.422-26.187-6.76-54.336.903-73.462 19.996l-89.869 89.717c-24.363 24.322-41.134 54.94-48.499 88.542l-13.443 61.336c-1.162 5.3.418 10.829 4.206 14.72.054.055.108.11.162.164 3.781 3.775 9.192 5.446 14.456 4.452l59.931-11.313c35.653-6.73 68.059-23.827 93.716-49.44l88.323-88.174c19.598-19.563 27.112-48.264 19.607-74.903z" fill="#454040"/><g><g><path d="m252.911 179.023c-6.323-6.312-6.323-16.546 0-22.858l37.259-37.196c6.323-6.312 16.574-6.312 22.897 0s6.323 16.546 0 22.858l-37.259 37.196c-6.322 6.312-16.574 6.312-22.897 0z" fill="#454045"/></g></g><g><g><path d="m331.72 257.698c-6.323-6.312-6.323-16.546 0-22.858l37.259-37.196c6.323-6.312 16.574-6.312 22.897 0s6.323 16.546 0 22.858l-37.259 37.196c-6.323 6.312-16.574 6.312-22.897 0z" fill="#1e1205"/></g></g><path d="m360.06 205.111-.472-1.675c-3.537-12.557-10.212-23.799-19.106-32.852l-255.341 254.909c3.689 3.056 8.573 4.349 13.342 3.449l59.931-11.313c35.653-6.73 68.059-23.827 93.716-49.44l88.323-88.174c19.598-19.564 27.111-48.265 19.607-74.904z" fill="#1e1205"/><path d="m360.114 205.056-.472-1.675c-7.367-26.15-28.31-46.621-54.656-53.422-26.187-6.76-54.336.903-73.462 19.996l-22.256 22.218c4.83 58.114 51.119 104.542 109.621 109.368l21.618-21.581c19.598-19.564 27.112-48.265 19.607-74.904z" fill="#544f57"/><path d="m360.124 205.047-.472-1.675c-3.537-12.557-10.212-23.799-19.106-32.852l-96.528 96.365c19.483 19.444 45.658 32.236 74.881 34.647l21.618-21.581c19.597-19.564 27.111-48.265 19.607-74.904z" fill="#454045"/></g></svg>