<?xml version="1.0" encoding="UTF-8" standalone="no"?>
<svg
   xmlns:dc="http://purl.org/dc/elements/1.1/"
   xmlns:cc="http://creativecommons.org/ns#"
   xmlns:rdf="http://www.w3.org/1999/02/22-rdf-syntax-ns#"
   xmlns:svg="http://www.w3.org/2000/svg"
   xmlns="http://www.w3.org/2000/svg"
   xmlns:sodipodi="http://sodipodi.sourceforge.net/DTD/sodipodi-0.dtd"
   xmlns:inkscape="http://www.inkscape.org/namespaces/inkscape"
   sodipodi:docname="bowling-8.svg"
   inkscape:version="1.0 (4035a4fb49, 2020-05-01)"
   id="svg1573"
   version="1.1"
   viewBox="0 0 89.405236 89.405236"
   height="89.405235mm"
   width="89.405235mm">
  <defs
     id="defs1567" />
  <sodipodi:namedview
     inkscape:window-maximized="1"
     inkscape:window-y="-8"
     inkscape:window-x="-8"
     inkscape:window-height="1017"
     inkscape:window-width="1920"
     showgrid="false"
     inkscape:document-rotation="0"
     inkscape:current-layer="layer1"
     inkscape:document-units="mm"
     inkscape:cy="196.11564"
     inkscape:cx="123.59354"
     inkscape:zoom="1.9275568"
     inkscape:pageshadow="2"
     inkscape:pageopacity="0.0"
     borderopacity="1.0"
     bordercolor="#666666"
     pagecolor="#ffffff"
     id="base" />
  <metadata
     id="metadata1570">
    <rdf:RDF>
      <cc:Work
         rdf:about="">
        <dc:format>image/svg+xml</dc:format>
        <dc:type
           rdf:resource="http://purl.org/dc/dcmitype/StillImage" />
        <dc:title></dc:title>
      </cc:Work>
    </rdf:RDF>
  </metadata>
  <g
     transform="translate(-128.96114,19.728788)"
     id="layer1"
     inkscape:groupmode="layer"
     inkscape:label="Calque 1">
    <g
       id="g1601">
      <circle
         r="44.702618"
         cy="24.973829"
         cx="173.66376"
         id="path703"
         style="fill:#000000;stroke:none;stroke-width:1.465;stroke-linecap:round;stroke-linejoin:round;stroke-dasharray:1.465, 2.92999" />
      <g
         transform="matrix(0.26466139,0,0,0.26466139,130.75153,-68.970023)"
         id="g1544">
        <ellipse
           id="ellipse456"
           transform="rotate(-6.5425601)"
           ry="72.314285"
           rx="72.315285"
           fill="#f9fbfc"
           cy="371.12143"
           cx="120.63974"
           style="fill:#ffffff;stroke-width:1.00052" />
        <g
           id="g1531"
           transform="translate(-0.61853173,-2.4741082)"
           style="fill:#000000">
          <path
             d="m 182.453,348.8 c 4.591,-4.897 7.411,-11.475 7.411,-18.701 0,-15.093 -12.279,-27.372 -27.372,-27.372 -15.093,0 -27.372,12.279 -27.372,27.372 0,7.227 2.82,13.804 7.411,18.701 -8.94,6.295 -14.797,16.688 -14.797,28.428 0,19.165 15.592,34.757 34.757,34.757 19.165,0 34.757,-15.592 34.757,-34.757 0.002,-11.74 -5.856,-22.132 -14.795,-28.428 z M 150.12,330.099 c 0,-6.822 5.55,-12.372 12.372,-12.372 6.822,0 12.372,5.55 12.372,12.372 0,6.822 -5.55,12.372 -12.372,12.372 -6.821,0 -12.372,-5.55 -12.372,-12.372 z m 12.372,66.886 c -10.894,0 -19.757,-8.863 -19.757,-19.757 0,-10.894 8.863,-19.757 19.757,-19.757 10.894,0 19.757,8.863 19.757,19.757 0.001,10.894 -8.863,19.757 -19.757,19.757 z"
             fill="#31373d"
             id="path458"
             style="fill:#000000" />
        </g>
      </g>
    </g>
  </g>
</svg>
