<?xml version="1.0" encoding="iso-8859-1"?>
<!-- Generator: Adobe Illustrator 19.0.0, SVG Export Plug-In . SVG Version: 6.00 Build 0)  -->
<svg version="1.1" id="Layer_1" xmlns="http://www.w3.org/2000/svg" xmlns:xlink="http://www.w3.org/1999/xlink" x="0px" y="0px"
	 viewBox="0 0 381.102 381.102" style="enable-background:new 0 0 381.102 381.102;" xml:space="preserve">
<path style="fill:#A47D73;" d="M283.922,210.649c-5.522,0-10-4.477-10-10v-59.282c0-5.523,4.478-10,10-10s10,4.477,10,10v59.282
	C293.922,206.172,289.445,210.649,283.922,210.649z"/>
<path style="fill:#A47D73;" d="M97.18,210.649c-5.522,0-10-4.477-10-10v-59.282c0-5.523,4.478-10,10-10s10,4.477,10,10v59.282
	C107.18,206.172,102.703,210.649,97.18,210.649z"/>
<path style="fill:#80635B;" d="M97.18,210.649c-5.522,0-10-4.477-10-10v-59.282c0-5.523,4.478-10,10-10V210.649z"/>
<path style="fill:#A47D73;" d="M190.551,322.99c-5.522,0-10-4.477-10-10V47.587c0-5.523,4.478-10,10-10s10,4.477,10,10V312.99
	C200.551,318.513,196.074,322.99,190.551,322.99z"/>
<path style="fill:#80635B;" d="M190.551,322.99c-5.522,0-10-4.477-10-10V47.587c0-5.523,4.478-10,10-10V322.99z"/>
<circle style="fill:#91C8F5;" cx="190.551" cy="23.065" r="23.065"/>
<path style="fill:#89B9DB;" d="M190.551,46.129c-12.738,0-23.065-10.326-23.065-23.065S177.813,0,190.551,0V46.129z"/>
<path style="fill:#C8F9EC;" d="M196.583,336.295c0-17.969,10.582-33.458,25.849-40.599c-5.758-2.693-12.179-4.206-18.956-4.206
	c-24.745,0-44.806,20.06-44.806,44.806s20.06,44.806,44.806,44.806c6.777,0,13.198-1.513,18.956-4.206
	C207.165,369.753,196.583,354.264,196.583,336.295z"/>
<path style="fill:#C9E4DF;" d="M190.55,293.382c-18.444,5.548-31.879,22.661-31.879,42.913c0,20.254,13.439,37.369,31.885,42.915
	L190.55,293.382z"/>
<polygon style="fill:#E27879;" points="97.18,179.089 111.086,207.265 142.179,211.783 119.68,233.714 124.991,264.682 
	97.18,250.061 69.369,264.682 74.681,233.714 52.181,211.783 83.275,207.265 "/>
<polygon style="fill:#C26869;" points="97.18,179.089 97.18,250.061 69.369,264.682 74.681,233.714 52.181,211.783 83.275,207.265 
	"/>
<polygon style="fill:#E27879;" points="283.922,179.089 297.828,207.265 328.921,211.783 306.422,233.714 311.733,264.682 
	283.922,250.061 256.112,264.682 261.423,233.714 238.924,211.783 270.017,207.265 "/>
<polygon style="fill:#C26869;" points="283.922,179.089 283.922,250.061 256.112,264.682 261.423,233.714 238.924,211.783 
	270.017,207.265 "/>
<path style="fill:#A47D73;" d="M343.601,189.218c-2.56,0-5.118-0.976-7.071-2.929c-80.492-80.493-211.465-80.493-291.957,0
	c-3.906,3.905-10.236,3.905-14.143,0c-3.905-3.905-3.905-10.237,0-14.143c42.771-42.77,99.636-66.324,160.121-66.324
	s117.351,23.555,160.121,66.324c3.905,3.905,3.905,10.237,0,14.143C348.719,188.242,346.161,189.218,343.601,189.218z"/>
<path style="fill:#80635B;" d="M190.552,125.92c-52.866,0-105.733,20.123-145.979,60.37c-3.906,3.905-10.236,3.905-14.143,0
	c-3.905-3.905-3.905-10.237,0-14.143c42.771-42.77,99.636-66.324,160.121-66.324L190.552,125.92z"/>
<g>
</g>
<g>
</g>
<g>
</g>
<g>
</g>
<g>
</g>
<g>
</g>
<g>
</g>
<g>
</g>
<g>
</g>
<g>
</g>
<g>
</g>
<g>
</g>
<g>
</g>
<g>
</g>
<g>
</g>
</svg>
