<?xml version="1.0" encoding="UTF-8" standalone="no"?>
<svg
   xmlns:dc="http://purl.org/dc/elements/1.1/"
   xmlns:cc="http://creativecommons.org/ns#"
   xmlns:rdf="http://www.w3.org/1999/02/22-rdf-syntax-ns#"
   xmlns:svg="http://www.w3.org/2000/svg"
   xmlns="http://www.w3.org/2000/svg"
   xmlns:sodipodi="http://sodipodi.sourceforge.net/DTD/sodipodi-0.dtd"
   xmlns:inkscape="http://www.inkscape.org/namespaces/inkscape"
   sodipodi:docname="bowling-ball.svg"
   inkscape:version="1.0 (4035a4fb49, 2020-05-01)"
   id="svg1155"
   version="1.1"
   viewBox="0 0 97.490379 97.49012"
   height="97.49012mm"
   width="97.490379mm">
  <defs
     id="defs1149" />
  <sodipodi:namedview
     inkscape:window-maximized="1"
     inkscape:window-y="-8"
     inkscape:window-x="-8"
     inkscape:window-height="1017"
     inkscape:window-width="1920"
     showgrid="false"
     inkscape:document-rotation="0"
     inkscape:current-layer="layer1"
     inkscape:document-units="mm"
     inkscape:cy="453.69526"
     inkscape:cx="-369.5527"
     inkscape:zoom="0.34074713"
     inkscape:pageshadow="2"
     inkscape:pageopacity="0.0"
     borderopacity="1.0"
     bordercolor="#666666"
     pagecolor="#ffffff"
     id="base" />
  <metadata
     id="metadata1152">
    <rdf:RDF>
      <cc:Work
         rdf:about="">
        <dc:format>image/svg+xml</dc:format>
        <dc:type
           rdf:resource="http://purl.org/dc/dcmitype/StillImage" />
        <dc:title></dc:title>
      </cc:Work>
    </rdf:RDF>
  </metadata>
  <g
     transform="translate(-203.61082,-28.126463)"
     id="layer1"
     inkscape:groupmode="layer"
     inkscape:label="Calque 1">
    <g
       id="g444"
       transform="matrix(0.26465414,0,0,0.26465414,167.22008,-9.8500826)">
      <circle
         id="circle224"
         r="180.18401"
         fill="#e9c278"
         cy="327.67899"
         cx="321.68799" />
      <g
         id="g432"
         fill="#f9fbfc">
        <path
           id="path226"
           d="m 500.73,321.958 c 0,0.944 0.431,1.78 1.098,2.349 -0.028,-1.532 -0.077,-3.059 -0.142,-4.581 -0.588,0.564 -0.956,1.354 -0.956,2.232 z" />
        <path
           id="path228"
           d="m 500.73,341.958 c 0,0.575 0.167,1.107 0.44,1.569 0.102,-1.173 0.194,-2.349 0.274,-3.528 -0.439,0.536 -0.714,1.212 -0.714,1.959 z" />
        <path
           id="path230"
           d="m 483.832,258.856 c -1.713,0 -3.102,1.389 -3.102,3.103 0,1.713 1.389,3.102 3.102,3.102 1.713,0 3.102,-1.389 3.102,-3.102 10e-4,-1.714 -1.389,-3.103 -3.102,-3.103 z" />
        <path
           id="path232"
           d="m 491.106,271.582 c 0,1.617 1.241,2.929 2.82,3.074 -0.557,-1.811 -1.142,-3.61 -1.755,-5.397 -0.647,0.569 -1.065,1.393 -1.065,2.323 z" />
        <path
           id="path234"
           d="m 483.832,278.856 c -1.713,0 -3.102,1.389 -3.102,3.103 0,1.713 1.389,3.102 3.102,3.102 1.713,0 3.102,-1.389 3.102,-3.102 10e-4,-1.714 -1.389,-3.103 -3.102,-3.103 z" />
        <path
           id="path236"
           d="m 494.209,288.479 c -1.713,0 -3.102,1.389 -3.102,3.102 0,1.713 1.389,3.103 3.102,3.103 1.713,0 3.102,-1.389 3.102,-3.103 0,-1.712 -1.389,-3.102 -3.102,-3.102 z" />
        <path
           id="path238"
           d="m 483.832,298.856 c -1.713,0 -3.102,1.389 -3.102,3.103 0,1.713 1.389,3.102 3.102,3.102 1.713,0 3.102,-1.389 3.102,-3.102 10e-4,-1.714 -1.389,-3.103 -3.102,-3.103 z" />
        <path
           id="path240"
           d="m 494.209,308.479 c -1.713,0 -3.102,1.389 -3.102,3.102 0,1.713 1.389,3.103 3.102,3.103 1.713,0 3.102,-1.389 3.102,-3.103 0,-1.712 -1.389,-3.102 -3.102,-3.102 z" />
        <path
           id="path242"
           d="m 483.832,318.856 c -1.713,0 -3.102,1.389 -3.102,3.103 0,1.713 1.389,3.102 3.102,3.102 1.713,0 3.102,-1.389 3.102,-3.102 10e-4,-1.714 -1.389,-3.103 -3.102,-3.103 z" />
        <path
           id="path244"
           d="m 494.209,328.479 c -1.713,0 -3.102,1.389 -3.102,3.102 0,1.713 1.389,3.103 3.102,3.103 1.713,0 3.102,-1.389 3.102,-3.103 0,-1.712 -1.389,-3.102 -3.102,-3.102 z" />
        <path
           id="path246"
           d="m 483.832,338.856 c -1.713,0 -3.102,1.389 -3.102,3.103 0,1.713 1.389,3.102 3.102,3.102 1.713,0 3.102,-1.389 3.102,-3.102 10e-4,-1.714 -1.389,-3.103 -3.102,-3.103 z" />
        <path
           id="path248"
           d="m 494.209,348.479 c -1.713,0 -3.102,1.389 -3.102,3.102 0,1.713 1.389,3.103 3.102,3.103 1.713,0 3.102,-1.389 3.102,-3.103 0,-1.712 -1.389,-3.102 -3.102,-3.102 z" />
        <path
           id="path250"
           d="m 483.832,358.856 c -1.713,0 -3.102,1.389 -3.102,3.103 0,1.713 1.389,3.102 3.102,3.102 1.713,0 3.102,-1.389 3.102,-3.102 10e-4,-1.714 -1.389,-3.103 -3.102,-3.103 z" />
        <path
           id="path252"
           d="m 494.209,368.479 c -1.713,0 -3.102,1.389 -3.102,3.102 0,1.713 1.389,3.103 3.102,3.103 0.578,0 1.113,-0.169 1.577,-0.444 0.376,-1.408 0.734,-2.823 1.076,-4.244 -0.542,-0.905 -1.522,-1.517 -2.653,-1.517 z" />
        <path
           id="path254"
           d="m 483.832,378.856 c -1.713,0 -3.102,1.389 -3.102,3.103 0,1.713 1.389,3.102 3.102,3.102 1.713,0 3.102,-1.389 3.102,-3.102 10e-4,-1.714 -1.389,-3.103 -3.102,-3.103 z" />
        <path
           id="path256"
           d="m 483.832,398.856 c -1.713,0 -3.102,1.389 -3.102,3.103 0,1.713 1.389,3.102 3.102,3.102 0.222,0 0.438,-0.026 0.648,-0.07 0.709,-1.491 1.396,-2.995 2.065,-4.508 -0.526,-0.965 -1.537,-1.627 -2.713,-1.627 z" />
        <path
           id="path258"
           d="m 460.73,221.958 c 0,1.713 1.389,3.102 3.102,3.102 1.713,0 3.102,-1.389 3.102,-3.102 0,-0.45 -0.1,-0.875 -0.273,-1.261 -0.253,-0.342 -0.499,-0.69 -0.754,-1.031 -0.551,-0.499 -1.274,-0.811 -2.075,-0.811 -1.713,0.001 -3.102,1.39 -3.102,3.103 z" />
        <path
           id="path260"
           d="m 471.106,231.581 c 0,1.713 1.389,3.103 3.102,3.103 0.573,0 1.102,-0.166 1.562,-0.437 -1.072,-1.764 -2.181,-3.502 -3.312,-5.226 -0.815,0.56 -1.352,1.497 -1.352,2.56 z" />
        <path
           id="path262"
           d="m 463.832,238.856 c -0.017,0 -0.034,0.005 -0.051,0.005 0.565,1.91 1.098,3.834 1.602,5.77 0.923,-0.538 1.551,-1.527 1.551,-2.672 10e-4,-1.714 -1.389,-3.103 -3.102,-3.103 z" />
        <path
           id="path264"
           d="m 474.209,248.48 c -1.713,0 -3.102,1.389 -3.102,3.102 0,1.713 1.389,3.103 3.102,3.103 1.713,0 3.102,-1.389 3.102,-3.103 0,-1.713 -1.389,-3.102 -3.102,-3.102 z" />
        <path
           id="path266"
           d="m 474.209,268.479 c -1.713,0 -3.102,1.389 -3.102,3.102 0,1.713 1.389,3.103 3.102,3.103 1.713,0 3.102,-1.389 3.102,-3.103 0,-1.712 -1.389,-3.102 -3.102,-3.102 z" />
        <path
           id="path268"
           d="m 474.209,288.479 c -1.493,0 -2.739,1.056 -3.034,2.461 -0.002,0.391 -0.01,0.779 -0.015,1.169 0.251,1.461 1.517,2.575 3.049,2.575 1.713,0 3.102,-1.389 3.102,-3.103 0,-1.712 -1.389,-3.102 -3.102,-3.102 z" />
        <path
           id="path270"
           d="m 474.209,308.479 c -1.713,0 -3.102,1.389 -3.102,3.102 0,1.713 1.389,3.103 3.102,3.103 1.713,0 3.102,-1.389 3.102,-3.103 0,-1.712 -1.389,-3.102 -3.102,-3.102 z" />
        <path
           id="path272"
           d="m 474.209,328.479 c -1.713,0 -3.102,1.389 -3.102,3.102 0,1.713 1.389,3.103 3.102,3.103 1.713,0 3.102,-1.389 3.102,-3.103 0,-1.712 -1.389,-3.102 -3.102,-3.102 z" />
        <path
           id="path274"
           d="m 463.832,345.06 c 1.713,0 3.102,-1.389 3.102,-3.102 0,-1.493 -1.055,-2.737 -2.458,-3.034 -0.558,1.986 -1.155,3.956 -1.779,5.914 0.352,0.14 0.733,0.222 1.135,0.222 z" />
        <path
           id="path276"
           d="m 474.209,348.479 c -1.713,0 -3.102,1.389 -3.102,3.102 0,1.713 1.389,3.103 3.102,3.103 1.713,0 3.102,-1.389 3.102,-3.103 0,-1.712 -1.389,-3.102 -3.102,-3.102 z" />
        <path
           id="path278"
           d="m 463.832,358.856 c -1.713,0 -3.102,1.389 -3.102,3.103 0,1.713 1.389,3.102 3.102,3.102 1.713,0 3.102,-1.389 3.102,-3.102 10e-4,-1.714 -1.389,-3.103 -3.102,-3.103 z" />
        <path
           id="path280"
           d="m 474.209,368.479 c -1.713,0 -3.102,1.389 -3.102,3.102 0,1.713 1.389,3.103 3.102,3.103 1.713,0 3.102,-1.389 3.102,-3.103 0,-1.712 -1.389,-3.102 -3.102,-3.102 z" />
        <path
           id="path282"
           d="m 463.832,378.856 c -1.713,0 -3.102,1.389 -3.102,3.103 0,1.713 1.389,3.102 3.102,3.102 1.713,0 3.102,-1.389 3.102,-3.102 10e-4,-1.714 -1.389,-3.103 -3.102,-3.103 z" />
        <path
           id="path284"
           d="m 474.209,388.479 c -1.713,0 -3.102,1.389 -3.102,3.102 0,1.713 1.389,3.103 3.102,3.103 1.713,0 3.102,-1.389 3.102,-3.103 0,-1.712 -1.389,-3.102 -3.102,-3.102 z" />
        <path
           id="path286"
           d="m 463.832,398.856 c -1.713,0 -3.102,1.389 -3.102,3.103 0,1.713 1.389,3.102 3.102,3.102 1.713,0 3.102,-1.389 3.102,-3.102 10e-4,-1.714 -1.389,-3.103 -3.102,-3.103 z" />
        <path
           id="path288"
           d="m 474.209,408.479 c -1.713,0 -3.102,1.389 -3.102,3.102 0,1.713 1.389,3.103 3.102,3.103 1.713,0 3.102,-1.389 3.102,-3.103 0,-1.712 -1.389,-3.102 -3.102,-3.102 z" />
        <path
           id="path290"
           d="m 463.832,418.856 c -1.713,0 -3.102,1.389 -3.102,3.103 0,1.713 1.389,3.102 3.102,3.102 1.713,0 3.102,-1.389 3.102,-3.102 10e-4,-1.714 -1.389,-3.103 -3.102,-3.103 z" />
        <path
           id="path292"
           d="m 460.73,441.958 c 0,0.101 0.02,0.195 0.03,0.293 0.914,-1.109 1.816,-2.228 2.704,-3.359 -1.538,0.186 -2.734,1.479 -2.734,3.066 z" />
        <path
           id="path294"
           d="m 454.653,214.639 c 1.501,-0.217 2.658,-1.496 2.658,-3.058 0,-1.713 -1.389,-3.102 -3.102,-3.102 -0.82,0 -1.561,0.325 -2.116,0.845 0.881,1.756 1.735,3.527 2.56,5.315 z" />
        <path
           id="path296"
           d="m 454.209,374.684 c 1.713,0 3.102,-1.389 3.102,-3.103 0,-1.713 -1.389,-3.102 -3.102,-3.102 -0.365,0 -0.709,0.075 -1.034,0.19 -0.624,1.285 -1.262,2.561 -1.915,3.828 0.392,1.264 1.556,2.187 2.949,2.187 z" />
        <path
           id="path298"
           d="m 446.935,381.958 c 0,-0.416 -0.085,-0.811 -0.233,-1.173 -0.834,1.428 -1.688,2.841 -2.56,4.244 1.565,-0.157 2.793,-1.464 2.793,-3.071 z" />
        <path
           id="path300"
           d="m 454.209,388.479 c -1.713,0 -3.102,1.389 -3.102,3.102 0,1.713 1.389,3.103 3.102,3.103 1.713,0 3.102,-1.389 3.102,-3.103 0,-1.712 -1.389,-3.102 -3.102,-3.102 z" />
        <path
           id="path302"
           d="m 443.832,398.856 c -1.713,0 -3.102,1.389 -3.102,3.103 0,1.713 1.389,3.102 3.102,3.102 1.713,0 3.102,-1.389 3.102,-3.102 10e-4,-1.714 -1.389,-3.103 -3.102,-3.103 z" />
        <path
           id="path304"
           d="m 454.209,408.479 c -1.713,0 -3.102,1.389 -3.102,3.102 0,1.713 1.389,3.103 3.102,3.103 1.713,0 3.102,-1.389 3.102,-3.103 0,-1.712 -1.389,-3.102 -3.102,-3.102 z" />
        <path
           id="path306"
           d="m 443.832,418.856 c -1.713,0 -3.102,1.389 -3.102,3.103 0,1.713 1.389,3.102 3.102,3.102 1.713,0 3.102,-1.389 3.102,-3.102 10e-4,-1.714 -1.389,-3.103 -3.102,-3.103 z" />
        <path
           id="path308"
           d="m 454.209,428.479 c -1.713,0 -3.102,1.389 -3.102,3.102 0,1.713 1.389,3.103 3.102,3.103 1.713,0 3.102,-1.389 3.102,-3.103 0,-1.712 -1.389,-3.102 -3.102,-3.102 z" />
        <path
           id="path310"
           d="m 443.832,438.856 c -1.713,0 -3.102,1.389 -3.102,3.103 0,1.713 1.389,3.102 3.102,3.102 1.713,0 3.102,-1.389 3.102,-3.102 10e-4,-1.714 -1.389,-3.103 -3.102,-3.103 z" />
        <path
           id="path312"
           d="m 451.106,451.582 c 0,0.426 0.086,0.832 0.242,1.201 1.308,-1.356 2.601,-2.726 3.866,-4.122 -0.317,-0.109 -0.652,-0.181 -1.006,-0.181 -1.713,-0.001 -3.102,1.389 -3.102,3.102 z" />
        <path
           id="path314"
           d="m 440.73,461.958 c 0,0.297 0.055,0.578 0.133,0.85 1.386,-1.224 2.754,-2.467 4.102,-3.732 -0.352,-0.139 -0.731,-0.221 -1.132,-0.221 -1.714,10e-4 -3.103,1.39 -3.103,3.103 z" />
        <path
           id="path316"
           d="m 434.209,408.479 c -1.713,0 -3.102,1.389 -3.102,3.102 0,1.713 1.389,3.103 3.102,3.103 1.713,0 3.102,-1.389 3.102,-3.103 0,-1.712 -1.389,-3.102 -3.102,-3.102 z" />
        <path
           id="path318"
           d="m 423.832,418.856 c -1.713,0 -3.102,1.389 -3.102,3.103 0,1.713 1.389,3.102 3.102,3.102 1.713,0 3.102,-1.389 3.102,-3.102 10e-4,-1.714 -1.389,-3.103 -3.102,-3.103 z" />
        <path
           id="path320"
           d="m 434.209,428.479 c -1.713,0 -3.102,1.389 -3.102,3.102 0,1.713 1.389,3.103 3.102,3.103 1.713,0 3.102,-1.389 3.102,-3.103 0,-1.712 -1.389,-3.102 -3.102,-3.102 z" />
        <path
           id="path322"
           d="m 423.832,438.856 c -1.713,0 -3.102,1.389 -3.102,3.103 0,1.713 1.389,3.102 3.102,3.102 1.713,0 3.102,-1.389 3.102,-3.102 10e-4,-1.714 -1.389,-3.103 -3.102,-3.103 z" />
        <path
           id="path324"
           d="m 434.209,448.479 c -1.713,0 -3.102,1.389 -3.102,3.102 0,1.713 1.389,3.103 3.102,3.103 1.713,0 3.102,-1.389 3.102,-3.103 0,-1.712 -1.389,-3.102 -3.102,-3.102 z" />
        <path
           id="path326"
           d="m 423.832,465.06 c 1.713,0 3.102,-1.389 3.102,-3.102 0,-1.713 -1.389,-3.103 -3.102,-3.103 -1.713,0 -3.102,1.389 -3.102,3.103 0,1.713 1.389,3.102 3.102,3.102 z" />
        <path
           id="path328"
           d="m 431.24,470.728 c 0.961,-0.737 1.915,-1.482 2.86,-2.238 -1.366,0.049 -2.497,0.977 -2.86,2.238 z" />
        <path
           id="path330"
           d="m 414.209,428.479 c -1.713,0 -3.102,1.389 -3.102,3.102 0,1.713 1.389,3.103 3.102,3.103 1.713,0 3.102,-1.389 3.102,-3.103 0,-1.712 -1.389,-3.102 -3.102,-3.102 z" />
        <path
           id="path332"
           d="m 403.832,438.856 c -1.713,0 -3.102,1.389 -3.102,3.103 0,1.713 1.389,3.102 3.102,3.102 1.713,0 3.102,-1.389 3.102,-3.102 10e-4,-1.714 -1.389,-3.103 -3.102,-3.103 z" />
        <path
           id="path334"
           d="m 414.209,448.479 c -1.713,0 -3.102,1.389 -3.102,3.102 0,1.713 1.389,3.103 3.102,3.103 1.713,0 3.102,-1.389 3.102,-3.103 0,-1.712 -1.389,-3.102 -3.102,-3.102 z" />
        <path
           id="path336"
           d="m 403.832,458.856 c -1.713,0 -3.102,1.389 -3.102,3.103 0,1.713 1.389,3.102 3.102,3.102 1.713,0 3.102,-1.389 3.102,-3.102 10e-4,-1.714 -1.389,-3.103 -3.102,-3.103 z" />
        <path
           id="path338"
           d="m 414.209,468.479 c -1.713,0 -3.102,1.389 -3.102,3.102 0,1.713 1.389,3.103 3.102,3.103 1.713,0 3.102,-1.389 3.102,-3.103 0,-1.712 -1.389,-3.102 -3.102,-3.102 z" />
        <path
           id="path340"
           d="m 403.832,478.856 c -1.713,0 -3.102,1.389 -3.102,3.103 0,1.713 1.389,3.102 3.102,3.102 1.713,0 3.102,-1.389 3.102,-3.102 10e-4,-1.714 -1.389,-3.103 -3.102,-3.103 z" />
        <path
           id="path342"
           d="m 386.85,442.653 c -1.245,0.784 -2.5,1.553 -3.766,2.307 0.241,0.06 0.489,0.101 0.748,0.101 1.474,-10e-4 2.701,-1.03 3.018,-2.408 z" />
        <path
           id="path344"
           d="m 394.209,448.479 c -1.713,0 -3.102,1.389 -3.102,3.102 0,1.713 1.389,3.103 3.102,3.103 1.713,0 3.102,-1.389 3.102,-3.103 0,-1.712 -1.389,-3.102 -3.102,-3.102 z" />
        <path
           id="path346"
           d="m 383.832,458.856 c -1.713,0 -3.102,1.389 -3.102,3.103 0,1.713 1.389,3.102 3.102,3.102 1.713,0 3.102,-1.389 3.102,-3.102 10e-4,-1.714 -1.389,-3.103 -3.102,-3.103 z" />
        <path
           id="path348"
           d="m 394.209,468.479 c -1.713,0 -3.102,1.389 -3.102,3.102 0,1.713 1.389,3.103 3.102,3.103 1.713,0 3.102,-1.389 3.102,-3.103 0,-1.712 -1.389,-3.102 -3.102,-3.102 z" />
        <path
           id="path350"
           d="m 383.832,478.856 c -1.713,0 -3.102,1.389 -3.102,3.103 0,1.713 1.389,3.102 3.102,3.102 1.713,0 3.102,-1.389 3.102,-3.102 10e-4,-1.714 -1.389,-3.103 -3.102,-3.103 z" />
        <path
           id="path352"
           d="m 394.209,488.479 c -1.713,0 -3.102,1.389 -3.102,3.102 0,0.804 0.313,1.528 0.814,2.079 1.804,-0.764 3.587,-1.566 5.36,-2.387 -0.158,-1.566 -1.465,-2.794 -3.072,-2.794 z" />
        <path
           id="path354"
           d="m 374.209,454.684 c 1.713,0 3.102,-1.389 3.102,-3.103 0,-1.075 -0.547,-2.021 -1.378,-2.578 -1.591,0.852 -3.198,1.678 -4.817,2.483 -10e-4,0.032 -0.01,0.062 -0.01,0.095 0,1.714 1.389,3.103 3.103,3.103 z" />
        <path
           id="path356"
           d="m 363.832,458.856 c -1.713,0 -3.102,1.389 -3.102,3.103 0,1.713 1.389,3.102 3.102,3.102 1.713,0 3.102,-1.389 3.102,-3.102 10e-4,-1.714 -1.389,-3.103 -3.102,-3.103 z" />
        <path
           id="path358"
           d="m 374.209,468.479 c -1.713,0 -3.102,1.389 -3.102,3.102 0,1.713 1.389,3.103 3.102,3.103 1.713,0 3.102,-1.389 3.102,-3.103 0,-1.712 -1.389,-3.102 -3.102,-3.102 z" />
        <path
           id="path360"
           d="m 363.832,478.856 c -1.713,0 -3.102,1.389 -3.102,3.103 0,1.713 1.389,3.102 3.102,3.102 1.713,0 3.102,-1.389 3.102,-3.102 10e-4,-1.714 -1.389,-3.103 -3.102,-3.103 z" />
        <path
           id="path362"
           d="m 374.209,488.479 c -1.713,0 -3.102,1.389 -3.102,3.102 0,1.713 1.389,3.103 3.102,3.103 1.713,0 3.102,-1.389 3.102,-3.103 0,-1.712 -1.389,-3.102 -3.102,-3.102 z" />
        <path
           id="path364"
           d="m 363.832,498.856 c -1.713,0 -3.102,1.389 -3.102,3.103 0,0.57 0.164,1.097 0.433,1.556 1.929,-0.431 3.849,-0.885 5.754,-1.377 0.003,-0.06 0.018,-0.117 0.018,-0.178 0,-1.715 -1.39,-3.104 -3.103,-3.104 z" />
        <path
           id="path366"
           d="m 343.832,465.06 c 1.713,0 3.102,-1.389 3.102,-3.102 0,-0.191 -0.023,-0.376 -0.056,-0.557 -1.946,0.634 -3.905,1.242 -5.879,1.811 0.482,1.088 1.567,1.848 2.833,1.848 z" />
        <path
           id="path368"
           d="m 354.209,468.479 c -1.713,0 -3.102,1.389 -3.102,3.102 0,1.713 1.389,3.103 3.102,3.103 1.713,0 3.102,-1.389 3.102,-3.103 0,-1.712 -1.389,-3.102 -3.102,-3.102 z" />
        <path
           id="path370"
           d="m 343.832,478.856 c -1.713,0 -3.102,1.389 -3.102,3.103 0,1.713 1.389,3.102 3.102,3.102 1.713,0 3.102,-1.389 3.102,-3.102 10e-4,-1.714 -1.389,-3.103 -3.102,-3.103 z" />
        <path
           id="path372"
           d="m 354.209,488.479 c -1.713,0 -3.102,1.389 -3.102,3.102 0,1.713 1.389,3.103 3.102,3.103 1.713,0 3.102,-1.389 3.102,-3.103 0,-1.712 -1.389,-3.102 -3.102,-3.102 z" />
        <path
           id="path374"
           d="m 343.832,498.856 c -1.713,0 -3.102,1.389 -3.102,3.103 0,1.713 1.389,3.102 3.102,3.102 1.713,0 3.102,-1.389 3.102,-3.102 10e-4,-1.714 -1.389,-3.103 -3.102,-3.103 z" />
        <path
           id="path376"
           d="m 334.209,468.479 c -1.713,0 -3.102,1.389 -3.102,3.102 0,1.713 1.389,3.103 3.102,3.103 1.713,0 3.102,-1.389 3.102,-3.103 0,-1.712 -1.389,-3.102 -3.102,-3.102 z" />
        <path
           id="path378"
           d="m 323.832,478.856 c -1.713,0 -3.102,1.389 -3.102,3.103 0,1.713 1.389,3.102 3.102,3.102 1.713,0 3.102,-1.389 3.102,-3.102 10e-4,-1.714 -1.389,-3.103 -3.102,-3.103 z" />
        <path
           id="path380"
           d="m 334.209,488.479 c -1.713,0 -3.102,1.389 -3.102,3.102 0,1.713 1.389,3.103 3.102,3.103 1.713,0 3.102,-1.389 3.102,-3.103 0,-1.712 -1.389,-3.102 -3.102,-3.102 z" />
        <path
           id="path382"
           d="m 323.832,498.856 c -1.713,0 -3.102,1.389 -3.102,3.103 0,1.713 1.389,3.102 3.102,3.102 1.713,0 3.102,-1.389 3.102,-3.102 10e-4,-1.714 -1.389,-3.103 -3.102,-3.103 z" />
        <path
           id="path384"
           d="m 311.106,471.582 c 0,1.713 1.389,3.103 3.102,3.103 1.713,0 3.102,-1.389 3.102,-3.103 0,-1.39 -0.92,-2.552 -2.18,-2.947 -0.852,0.114 -1.706,0.221 -2.561,0.323 -0.876,0.548 -1.463,1.514 -1.463,2.624 z" />
        <path
           id="path386"
           d="m 303.832,478.856 c -1.713,0 -3.102,1.389 -3.102,3.103 0,1.713 1.389,3.102 3.102,3.102 1.713,0 3.102,-1.389 3.102,-3.102 10e-4,-1.714 -1.389,-3.103 -3.102,-3.103 z" />
        <path
           id="path388"
           d="m 314.209,488.479 c -1.713,0 -3.102,1.389 -3.102,3.102 0,1.713 1.389,3.103 3.102,3.103 1.713,0 3.102,-1.389 3.102,-3.103 0,-1.712 -1.389,-3.102 -3.102,-3.102 z" />
        <path
           id="path390"
           d="m 303.832,498.856 c -1.713,0 -3.102,1.389 -3.102,3.103 0,1.713 1.389,3.102 3.102,3.102 1.713,0 3.102,-1.389 3.102,-3.102 10e-4,-1.714 -1.389,-3.103 -3.102,-3.103 z" />
        <path
           id="path392"
           d="m 294.209,474.684 c 1.713,0 3.102,-1.389 3.102,-3.103 0,-0.523 -0.142,-1.009 -0.371,-1.442 -1.833,0.06 -3.671,0.098 -5.518,0.103 -0.196,0.407 -0.315,0.857 -0.315,1.339 -0.001,1.714 1.388,3.103 3.102,3.103 z" />
        <path
           id="path394"
           d="m 280.73,481.958 c 0,1.713 1.389,3.102 3.102,3.102 1.713,0 3.102,-1.389 3.102,-3.102 0,-1.713 -1.389,-3.103 -3.102,-3.103 -1.713,10e-4 -3.102,1.39 -3.102,3.103 z" />
        <path
           id="path396"
           d="m 294.209,494.684 c 1.713,0 3.102,-1.389 3.102,-3.103 0,-1.713 -1.389,-3.102 -3.102,-3.102 -1.713,0 -3.102,1.389 -3.102,3.102 -0.001,1.714 1.388,3.103 3.102,3.103 z" />
        <path
           id="path398"
           d="m 286.935,501.958 c 0,-1.713 -1.389,-3.103 -3.102,-3.103 -1.713,0 -3.102,1.389 -3.102,3.103 0,0.459 0.106,0.892 0.285,1.284 1.605,0.37 3.215,0.726 4.836,1.053 0.657,-0.568 1.083,-1.399 1.083,-2.337 z" />
        <path
           id="path400"
           d="m 271.106,471.582 c 0,1.713 1.389,3.103 3.102,3.103 1.713,0 3.102,-1.389 3.102,-3.103 0,-0.724 -0.258,-1.381 -0.674,-1.909 -1.496,-0.118 -2.986,-0.255 -4.472,-0.409 -0.643,0.568 -1.058,1.391 -1.058,2.318 z" />
        <path
           id="path402"
           d="m 260.73,481.958 c 0,1.713 1.389,3.102 3.102,3.102 1.713,0 3.102,-1.389 3.102,-3.102 0,-1.713 -1.389,-3.103 -3.102,-3.103 -1.713,10e-4 -3.102,1.39 -3.102,3.103 z" />
        <path
           id="path404"
           d="m 274.209,488.479 c -1.713,0 -3.102,1.389 -3.102,3.102 0,1.713 1.389,3.103 3.102,3.103 1.713,0 3.102,-1.389 3.102,-3.103 0,-1.712 -1.389,-3.102 -3.102,-3.102 z" />
        <path
           id="path406"
           d="m 243.832,465.06 c 0.675,0 1.295,-0.222 1.805,-0.588 -1.556,-0.404 -3.104,-0.826 -4.643,-1.271 0.479,1.094 1.568,1.859 2.838,1.859 z" />
        <path
           id="path408"
           d="m 251.106,471.582 c 0,1.713 1.389,3.103 3.102,3.103 1.713,0 3.102,-1.389 3.102,-3.103 0,-1.713 -1.389,-3.102 -3.102,-3.102 -1.713,-0.001 -3.102,1.389 -3.102,3.102 z" />
        <path
           id="path410"
           d="m 240.73,481.958 c 0,1.713 1.389,3.102 3.102,3.102 1.713,0 3.102,-1.389 3.102,-3.102 0,-1.713 -1.389,-3.103 -3.102,-3.103 -1.713,10e-4 -3.102,1.39 -3.102,3.103 z" />
        <path
           id="path412"
           d="m 257.311,491.582 c 0,-1.713 -1.389,-3.102 -3.102,-3.102 -1.713,0 -3.102,1.389 -3.102,3.102 0,0.986 0.469,1.854 1.186,2.423 0.527,0.22 1.058,0.431 1.588,0.646 0.109,0.012 0.216,0.033 0.328,0.033 1.713,0 3.102,-1.389 3.102,-3.102 z" />
        <path
           id="path414"
           d="m 220.73,461.958 c 0,1.713 1.389,3.102 3.102,3.102 1.713,0 3.102,-1.389 3.102,-3.102 0,-1.713 -1.389,-3.103 -3.102,-3.103 -1.713,10e-4 -3.102,1.39 -3.102,3.103 z" />
        <path
           id="path416"
           d="m 231.106,471.582 c 0,1.713 1.389,3.103 3.102,3.103 1.713,0 3.102,-1.389 3.102,-3.103 0,-1.713 -1.389,-3.102 -3.102,-3.102 -1.713,-0.001 -3.102,1.389 -3.102,3.102 z" />
        <path
           id="path418"
           d="m 223.832,478.856 c -0.056,0 -0.108,0.014 -0.163,0.017 1.008,0.654 2.019,1.303 3.04,1.938 -0.457,-1.144 -1.57,-1.955 -2.877,-1.955 z" />
        <path
           id="path420"
           d="m 214.209,454.684 c 0.732,0 1.396,-0.264 1.926,-0.688 -1.691,-0.774 -3.365,-1.581 -5.027,-2.405 0.005,1.709 1.391,3.093 3.101,3.093 z" />
        <path
           id="path422"
           d="m 206.935,461.958 c 0,-1.713 -1.389,-3.103 -3.102,-3.103 -1.48,0 -2.714,1.039 -3.023,2.426 1.341,1.213 2.698,2.41 4.074,3.583 1.193,-0.431 2.051,-1.563 2.051,-2.906 z" />
        <path
           id="path424"
           d="m 217.311,471.582 c 0,-1.713 -1.389,-3.102 -3.102,-3.102 -1.208,0 -2.244,0.698 -2.756,1.707 1.605,1.243 3.229,2.461 4.876,3.65 0.601,-0.566 0.982,-1.364 0.982,-2.255 z" />
        <path
           id="path426"
           d="m 186.935,441.958 c 0,-1.713 -1.389,-3.103 -3.102,-3.103 -1.155,0 -2.151,0.639 -2.685,1.576 1.207,1.503 2.439,2.984 3.693,4.447 1.214,-0.419 2.094,-1.561 2.094,-2.92 z" />
        <path
           id="path428"
           d="m 194.209,454.684 c 1.713,0 3.102,-1.389 3.102,-3.103 0,-1.713 -1.389,-3.102 -3.102,-3.102 -1.713,0 -3.102,1.389 -3.102,3.102 0,0.085 0.018,0.165 0.025,0.248 0.905,0.952 1.823,1.89 2.749,2.822 0.109,0.012 0.215,0.033 0.328,0.033 z" />
        <path
           id="path430"
           d="m 177.311,431.582 c 0,-1.713 -1.389,-3.102 -3.102,-3.102 -0.573,0 -1.102,0.166 -1.563,0.436 1.155,1.698 2.338,3.375 3.549,5.03 0.677,-0.569 1.116,-1.411 1.116,-2.364 z" />
      </g>
      <g
         id="g442"
         fill="#31373d">
        <path
           id="path434"
           d="m 321.687,511.863 c -101.559,0 -184.184,-82.625 -184.184,-184.184 0,-101.559 82.624,-184.184 184.184,-184.184 101.56,0 184.185,82.625 184.185,184.184 0,101.559 -82.625,184.184 -184.185,184.184 z m 0,-360.369 c -97.148,0 -176.184,79.036 -176.184,176.184 0,97.148 79.035,176.184 176.184,176.184 97.148,0 176.185,-79.036 176.185,-176.184 0,-97.148 -79.036,-176.184 -176.185,-176.184 z" />
        <path
           id="path436"
           d="m 230.435,287.688 c -15.769,0 -28.598,12.829 -28.598,28.598 0,15.769 12.829,28.598 28.598,28.598 15.77,0 28.599,-12.829 28.599,-28.598 0,-15.769 -12.829,-28.598 -28.599,-28.598 z" />
        <path
           id="path438"
           d="m 300.662,236.815 c 0,-15.769 -12.829,-28.598 -28.599,-28.598 -15.77,0 -28.599,12.829 -28.599,28.598 0,15.77 12.829,28.599 28.599,28.599 15.77,0 28.599,-12.83 28.599,-28.599 z" />
        <path
           id="path440"
           d="m 319.368,283.904 c -15.77,0 -28.599,12.829 -28.599,28.599 0,15.769 12.829,28.598 28.599,28.598 15.768,0 28.598,-12.829 28.598,-28.598 0,-15.77 -12.829,-28.599 -28.598,-28.599 z" />
      </g>
    </g>
  </g>
</svg>
