<svg id="Capa_1" enable-background="new 0 0 507.04 507.04" height="512" viewBox="0 0 507.04 507.04" width="512" xmlns="http://www.w3.org/2000/svg"><g><path d="m417.327 437.135c-.73-3.436-1.984-6.671-3.687-9.63-2.57-4.467-6.173-8.298-10.621-11.187-5.537-3.596-11.765-5.315-17.923-5.315-10.812 0-21.415 5.294-27.729 15.019-9.911 15.262-5.558 35.742 9.704 45.653 4.447 2.888 9.412 4.621 14.539 5.152 3.395.352 6.861.181 10.297-.549 8.623-1.833 16.016-6.914 20.816-14.307 4.802-7.393 6.437-16.213 4.604-24.836z" fill="#946742"/><path d="m446.671 430.898c-3.499-16.461-13.199-30.574-27.313-39.739-29.136-18.919-68.23-10.61-87.152 18.524-18.92 29.136-10.61 68.232 18.524 87.152 10.341 6.715 22.142 10.185 34.188 10.185 4.396 0 8.825-.462 13.226-1.398 16.461-3.499 30.574-13.198 39.739-27.312 9.166-14.114 12.286-30.951 8.788-47.412zm-29.344 6.237c1.833 8.623.198 17.443-4.604 24.836-4.801 7.393-12.193 12.474-20.816 14.307-3.436.73-6.901.901-10.297.549-5.127-.531-10.092-2.264-14.539-5.152-15.262-9.911-19.615-30.391-9.704-45.653 6.314-9.724 16.918-15.019 27.729-15.019 6.158 0 12.386 1.719 17.923 5.315 4.448 2.888 8.051 6.719 10.621 11.187 1.702 2.959 2.956 6.194 3.687 9.63z" fill="#855936"/><g><path d="m275.214 269.38-187.552 121.798c-6.947 4.512-8.922 13.802-4.41 20.75l52.288 80.517c2.167 3.336 5.57 5.676 9.461 6.503 1.033.219 2.079.328 3.119.328 2.878 0 5.719-.829 8.17-2.42l118.925-77.231v-150.245z" fill="#c47e4e"/><circle cx="121.975" cy="444.016" fill="#a05f4b" r="48.003"/><path d="m174.814 409.702c-18.921-29.134-58.015-37.444-87.152-18.524-14.113 9.166-23.813 23.278-27.313 39.739-3.498 16.461-.378 33.299 8.788 47.413 9.165 14.114 23.278 23.813 39.739 27.312 4.401.936 8.829 1.398 13.226 1.398 12.045 0 23.848-3.47 34.188-10.185 29.133-18.92 37.444-58.017 18.524-87.153zm-34.864 61.993c-7.391 4.801-16.211 6.438-24.836 4.603-8.623-1.833-16.016-6.914-20.816-14.307-4.802-7.393-6.437-16.213-4.604-24.836s6.914-16.015 14.308-20.816c5.538-3.597 11.764-5.315 17.923-5.315 10.811 0 21.415 5.296 27.729 15.019 9.911 15.261 5.557 35.741-9.704 45.652z" fill="#e1bb78"/><path d="m437.903 238.827c-9.165-14.114-23.278-23.813-39.739-27.313-16.459-3.498-33.299-.378-47.413 8.788l-97.23 63.142v150.244l165.858-107.71c14.113-9.166 23.813-23.279 27.313-39.739 3.497-16.461.377-33.299-8.789-47.412z" fill="#724435"/></g><g><path d="m267.676 309.156-13.815-25.466-97.572-63.364c-14.114-9.166-30.952-12.284-47.413-8.788-16.461 3.499-30.574 13.199-39.739 27.312-9.166 14.114-12.286 30.952-8.788 47.413 3.499 16.46 13.199 30.574 27.313 39.739l165.847 107.703 14.168-34.305v-90.244z" fill="#e1bb78"/><path d="m332.226 409.679c18.922-29.134 58.017-37.444 87.152-18.524l-165.858-107.711v150.244l97.23 63.143c-29.134-18.92-37.444-58.017-18.524-87.152z" fill="#a05f4b"/><path d="m432.006 434.011c-1.062-4.996-2.885-9.701-5.361-14.005-3.738-6.497-8.978-12.068-15.446-16.268-8.053-5.23-17.109-7.729-26.065-7.729-15.723 0-31.144 7.7-40.327 21.841-14.414 22.195-8.082 51.978 14.112 66.392 6.468 4.2 13.688 6.72 21.144 7.493 4.938.511 9.978.263 14.974-.798 12.54-2.666 23.291-10.054 30.273-20.806 0 0 0 0 0-.001 6.985-10.753 9.362-23.58 6.696-36.119z" fill="#724435"/><path d="m446.691 430.893c-3.499-16.461-13.199-30.574-27.313-39.739-29.136-18.919-68.23-10.61-87.152 18.524-18.92 29.136-10.61 68.232 18.524 87.152 10.341 6.715 22.142 10.185 34.188 10.185 4.396 0 8.825-.462 13.226-1.398 16.461-3.499 30.574-13.198 39.739-27.312 9.166-14.113 12.286-30.951 8.788-47.412zm-29.345 6.238c1.833 8.623.198 17.443-4.604 24.836-4.801 7.393-12.193 12.474-20.816 14.307-3.436.73-6.901.901-10.297.549-5.127-.531-10.092-2.264-14.539-5.152-15.262-9.911-19.615-30.391-9.704-45.653 6.314-9.724 16.918-15.019 27.729-15.019 6.158 0 12.386 1.719 17.923 5.315 4.448 2.888 8.051 6.719 10.621 11.187 1.703 2.959 2.957 6.194 3.687 9.63z" fill="#c47e4e"/></g><g><path d="m262.344 12.805-8.824-12.805c-3.736 0-7.474 1.394-10.406 4.186-3.033 2.889-4.594 7-4.594 11.189v79.516c0 2.907-1.935 4.142-3.087 4.62-1.105.459-5.199-.846-5.199-.846l-27.916-31.812c-5.311-6.05-14.447-6.831-20.705-1.771-22.965 18.567-40.447 39.074-51.964 60.951-11.753 22.328-17.713 46.822-17.713 72.803 0 78.07 63.515 141.584 141.584 141.584.089 0 8.824-10.286 8.824-10.286z" fill="#ffc373"/><path d="m327.524 55.388c-32.663-33.322-65.038-52.522-66.4-53.324-2.345-1.379-4.974-2.059-7.604-2.059v340.406c.089 0 .178.003.267.003 77.758-.145 141.313-63.818 141.317-141.576.003-48.74-23.367-98.344-67.58-143.45z" fill="#fda028"/></g></g></svg>