<?xml version="1.0" encoding="iso-8859-1"?>
<!-- Generator: Adobe Illustrator 19.0.0, SVG Export Plug-In . SVG Version: 6.00 Build 0)  -->
<svg version="1.1" id="Layer_1" xmlns="http://www.w3.org/2000/svg" xmlns:xlink="http://www.w3.org/1999/xlink" x="0px" y="0px"
	 viewBox="0 0 306.816 306.816" style="enable-background:new 0 0 306.816 306.816;" xml:space="preserve">
<g>
	<path style="fill:#D7143A;" d="M302.421,183.341c-1.243-1.244-2.656-2.207-4.157-2.922c-0.728-1.523-1.697-2.934-2.913-4.148
		L164.016,44.933c-2.813-2.813-6.628-4.395-10.606-4.395c-0.001,0-0.002,0-0.003,0c-3.978,0.002-7.792,1.582-10.604,4.395
		L11.466,176.269c-1.241,1.24-2.203,2.65-2.919,4.15c-1.5,0.715-2.911,1.678-4.153,2.92c-5.858,5.857-5.858,15.355,0,21.213
		c39.804,39.803,92.725,61.725,149.015,61.725c0.003,0-0.003,0,0.001,0c56.286,0,109.212-21.923,149.012-61.723
		C308.28,198.696,308.28,189.199,302.421,183.341z"/>
	<g>
		<path style="fill:#75B26D;" d="M298.264,180.419c-5.574-2.656-12.441-1.693-17.056,2.922
			c-34.137,34.136-79.524,52.936-127.8,52.936c-48.277,0-93.663-18.801-127.801-52.938c0,0,0,0-0.001,0
			c-4.615-4.617-11.485-5.579-17.06-2.92c-1.5,0.715-2.911,1.678-4.153,2.92c-5.858,5.857-5.858,15.355,0,21.213
			c39.804,39.803,92.725,61.725,149.015,61.725c0.003,0-0.003,0,0.001,0c56.286,0,109.212-21.923,149.012-61.723
			c5.858-5.858,5.858-15.355,0-21.213C301.178,182.097,299.766,181.134,298.264,180.419z"/>
	</g>
	<g>
		<path style="fill:#222224;" d="M164.311,116.511c-2.8-2.791-6.66-4.391-10.61-4.391s-7.81,1.6-10.6,4.391
			c-2.8,2.789-4.4,6.659-4.4,10.609c0,3.95,1.601,7.81,4.4,10.609c2.79,2.791,6.649,4.391,10.6,4.391c3.95,0,7.811-1.6,10.61-4.391
			c2.79-2.799,4.39-6.67,4.39-10.609C168.7,123.17,167.101,119.3,164.311,116.511z"/>
		<path style="fill:#222224;" d="M183.7,170.701c-3.95,0-7.81,1.6-10.61,4.391c-2.789,2.789-4.39,6.659-4.39,10.6
			c0,3.949,1.601,7.82,4.39,10.609c2.801,2.791,6.66,4.4,10.61,4.4s7.811-1.609,10.61-4.4c2.79-2.789,4.39-6.66,4.39-10.609
			c0-3.94-1.6-7.811-4.39-10.6C191.51,172.3,187.65,170.701,183.7,170.701z"/>
		<path style="fill:#222224;" d="M123.41,170.691c-3.95,0-7.82,1.609-10.609,4.4c-2.79,2.789-4.391,6.649-4.391,10.6
			c0,3.949,1.601,7.82,4.391,10.609c2.789,2.791,6.659,4.4,10.609,4.4c3.95,0,7.811-1.609,10.6-4.4c2.79-2.789,4.4-6.66,4.4-10.609
			c0-3.95-1.609-7.811-4.4-10.6C131.221,172.3,127.36,170.691,123.41,170.691z"/>
	</g>
	<path style="fill:#B4002C;" d="M143.101,137.73c-2.8-2.799-4.4-6.659-4.4-10.609c0-3.95,1.601-7.82,4.4-10.609
		c2.721-2.721,6.459-4.299,10.306-4.376V40.538c-3.978,0.002-7.792,1.582-10.604,4.395L11.466,176.269
		c-1.241,1.24-2.203,2.65-2.919,4.15c5.574-2.659,12.444-1.697,17.06,2.92c0.001,0,0.001,0,0.001,0
		c34.137,34.137,79.521,52.936,127.798,52.938v-94.171C149.56,142.029,145.822,140.451,143.101,137.73z M134.01,196.3
		c-2.79,2.791-6.65,4.4-10.6,4.4s-7.82-1.609-10.609-4.4c-2.79-2.789-4.391-6.66-4.391-10.609c0-3.95,1.601-7.811,4.391-10.6
		c2.789-2.791,6.659-4.4,10.609-4.4c3.95,0,7.811,1.609,10.6,4.4c2.79,2.789,4.4,6.649,4.4,10.6
		C138.411,189.64,136.801,193.511,134.01,196.3z"/>
</g>
<g>
</g>
<g>
</g>
<g>
</g>
<g>
</g>
<g>
</g>
<g>
</g>
<g>
</g>
<g>
</g>
<g>
</g>
<g>
</g>
<g>
</g>
<g>
</g>
<g>
</g>
<g>
</g>
<g>
</g>
</svg>
