<svg id="Capa_1" enable-background="new 0 0 512 512" height="512" viewBox="0 0 512 512" width="512" xmlns="http://www.w3.org/2000/svg"><g><path d="m241 60v47c0 8.28-6.72 15-15 15s-15-6.72-15-15v-47c0-16.54-13.46-30-30-30l-9.5-13.978 9.5-16.022c33.08 0 60 26.92 60 60z" fill="#61729b"/><path d="m421 60v47c0 8.28-6.72 15-15 15s-15-6.72-15-15v-47c0-16.54-13.46-30-30-30l-9.5-18.5 9.5-11.5c33.08 0 60 26.92 60 60z" fill="#47568c"/><g><g><path d="m497 92h-482c-8.28 0-15 6.72-15 15v240c0 3.79 1.43 7.43 4.01 10.21 1.32 1.42 32.76 34.79 71.99 34.79 25.63 0 47.5-14.21 60-24.53 12.5 10.32 34.37 24.53 60 24.53s47.5-14.21 60-24.53c12.5 10.32 34.37 24.53 60 24.53s47.5-14.21 60-24.53c12.5 10.32 34.37 24.53 60 24.53 39.23 0 70.67-33.37 71.99-34.79 2.58-2.78 4.01-6.42 4.01-10.21v-240c0-8.28-6.72-15-15-15z" fill="#edf5ff"/></g></g><path d="m512 107v240c0 3.79-1.43 7.43-4.01 10.21-1.32 1.42-32.76 34.79-71.99 34.79-25.63 0-47.5-14.21-60-24.53-12.5 10.32-34.37 24.53-60 24.53s-47.5-14.21-60-24.53v-275.47h241c8.28 0 15 6.72 15 15z" fill="#d5e8fe"/><path d="m181 0v30c-16.54 0-30 13.46-30 30v287c0 8.28-6.72 15-15 15s-15-6.72-15-15v-287c0-33.08 26.92-60 60-60z" fill="#61729b"/><path d="m361 0v30c-16.54 0-30 13.46-30 30v309.36c0 8.29-6.72 15-15 15s-15-6.71-15-15v-309.36c0-33.08 26.92-60 60-60z" fill="#47568c"/><g><g><path d="m331 287c0 8.28-6.72 15-15 15h-180c-8.28 0-15-6.72-15-15s6.72-15 15-15h180c8.28 0 15 6.72 15 15z" fill="#61729b"/></g></g><g><g><path d="m331 227c0 8.28-6.72 15-15 15h-180c-8.28 0-15-6.72-15-15s6.72-15 15-15h180c8.28 0 15 6.72 15 15z" fill="#61729b"/></g></g><g><g><path d="m331 167c0 8.28-6.72 15-15 15h-180c-8.28 0-15-6.72-15-15s6.72-15 15-15h180c8.28 0 15 6.72 15 15z" fill="#61729b"/></g></g><g fill="#47568c"><path d="m331 287c0 8.28-6.72 15-15 15h-60v-30h60c8.28 0 15 6.72 15 15z"/><path d="m331 227c0 8.28-6.72 15-15 15h-60v-30h60c8.28 0 15 6.72 15 15z"/><path d="m316 182h-60v-30h60c8.28 0 15 6.72 15 15s-6.72 15-15 15z"/></g><g><g><path d="m486.04 336.76c-30.95 32.9-68.65 33.48-98.86.23-5.93-6.62-16.34-6.63-22.33-.03-29.87 32.93-67.73 32.99-97.67.03-2.97-3.32-7.08-4.98-11.18-4.97-4.08.01-8.16 1.65-11.15 4.94-29.87 32.93-67.73 32.99-97.67.03-5.91-6.59-16.33-6.64-22.33-.03-29.16 32.14-66.81 33.82-98.86-.17-9.26-9.97-25.99-3.38-25.99 10.21v60c0 3.79 1.43 7.43 4.01 10.21 38.56 41.52 87.4 47.07 131.99 10.26 40.87 33.74 81.88 31.47 120 0 40.87 33.74 81.88 31.47 120 0 44.43 36.67 93.28 31.42 131.99-10.26 2.58-2.78 4.01-6.42 4.01-10.21v-60c0-13.47-16.61-20.19-25.96-10.24z" fill="#6aa9ff"/></g></g><path d="m512 347v60c0 3.79-1.43 7.43-4.01 10.21-38.71 41.68-87.56 46.93-131.99 10.26-38.12 31.47-79.13 33.74-120 0v-95.45c4.1-.01 8.21 1.65 11.18 4.97 29.94 32.96 67.8 32.9 97.67-.03 5.99-6.6 16.4-6.59 22.33.03 30.21 33.25 67.91 32.67 98.86-.23 9.35-9.95 25.96-3.23 25.96 10.24z" fill="#4895ff"/><g><path d="m486.04 396.76c-30.95 32.9-68.65 33.48-98.86.23-5.93-6.62-16.34-6.63-22.33-.03-29.87 32.93-67.73 32.99-97.67.03-2.97-3.32-7.08-4.98-11.18-4.97-4.08.01-8.16 1.65-11.15 4.94-29.87 32.93-67.73 32.99-97.67.03-5.81-6.47-16.21-6.78-22.33-.03-29.16 32.14-66.81 33.82-98.86-.17-9.26-9.97-25.99-3.38-25.99 10.21v90c0 8.28 6.72 15 15 15h482c8.28 0 15-6.72 15-15v-90c0-13.47-16.61-20.19-25.96-10.24z" fill="#80d4ff"/></g><path d="m512 407v90c0 8.28-6.72 15-15 15h-241v-119.98c4.1-.01 8.21 1.65 11.18 4.97 29.94 32.96 67.8 32.9 97.67-.03 5.99-6.6 16.4-6.59 22.33.03 30.21 33.25 67.91 32.67 98.86-.23 9.35-9.95 25.96-3.23 25.96 10.24z" fill="#6aa9ff"/></g></svg>