<svg id="Capa_1" enable-background="new 0 0 512 512" height="512" viewBox="0 0 512 512" width="512" xmlns="http://www.w3.org/2000/svg"><g><path d="m497 271h-68.294c-8.284 0-15-6.716-15-15s6.716-15 15-15h68.294c8.284 0 15 6.716 15 15s-6.716 15-15 15z" fill="#fda028"/><path d="m256 0c-8.284 0-15 6.716-15 15v68.293c0 8.284 6.716 15 15 15s15-6.716 15-15v-68.293c0-8.284-6.716-15-15-15z" fill="#fda028"/><path d="m256 413.706c-8.284 0-15 6.716-15 15v68.294c0 8.284 6.716 15 15 15s15-6.716 15-15v-68.294c0-8.284-6.716-15-15-15z" fill="#ffc373"/><path d="m83.294 271h-68.294c-8.284 0-15-6.716-15-15s6.716-15 15-15h68.294c8.284 0 15 6.716 15 15s-6.716 15-15 15z" fill="#ffc373"/><path d="m126.5 256c0 71.406 58.093 129.5 129.5 129.5l10-36.236v-170.874l-10-51.89c-71.407 0-129.5 58.093-129.5 129.5z" fill="#fede54"/><path d="m256 126.5v259c71.407 0 129.5-58.093 129.5-129.5s-58.093-129.5-129.5-129.5z" fill="#fecd2f"/><path d="m395.924 131.909c-3.839 0-7.678-1.464-10.606-4.394-5.858-5.858-5.858-15.355 0-21.213l36.852-36.852c5.857-5.858 15.355-5.858 21.213 0s5.858 15.355 0 21.213l-36.852 36.852c-2.929 2.93-6.768 4.394-10.607 4.394z" fill="#fda028"/><path d="m432.776 448.61c-3.839 0-7.678-1.464-10.606-4.394l-36.852-36.852c-5.858-5.858-5.858-15.355 0-21.213 5.857-5.858 15.355-5.858 21.213 0l36.852 36.852c5.858 5.858 5.858 15.355 0 21.213-2.929 2.93-6.768 4.394-10.607 4.394z" fill="#fda028"/><g fill="#ffc373"><path d="m79.224 448.61c-3.839 0-7.678-1.464-10.606-4.394-5.858-5.858-5.858-15.355 0-21.213l36.852-36.852c5.857-5.858 15.355-5.858 21.213 0s5.858 15.355 0 21.213l-36.853 36.853c-2.929 2.929-6.767 4.393-10.606 4.393z"/><path d="m116.076 131.909c-3.839 0-7.678-1.464-10.606-4.394l-36.853-36.851c-5.858-5.858-5.858-15.355 0-21.213 5.857-5.858 15.355-5.858 21.213 0l36.852 36.852c5.858 5.858 5.858 15.355 0 21.213-2.929 2.929-6.767 4.393-10.606 4.393z"/></g></g></svg>