<?xml version="1.0" encoding="iso-8859-1"?>
<!-- Generator: Adobe Illustrator 19.0.0, SVG Export Plug-In . SVG Version: 6.00 Build 0)  -->
<svg version="1.1" id="Layer_1" xmlns="http://www.w3.org/2000/svg" xmlns:xlink="http://www.w3.org/1999/xlink" x="0px" y="0px"
	 viewBox="0 0 330 330" style="enable-background:new 0 0 330 330;" xml:space="preserve">
<g>
	<path style="fill:#A7A6AC;" d="M330,45c0-12.02-4.682-23.319-13.18-31.819C308.322,4.682,297.021,0,285.002,0
		C272.98,0,261.68,4.68,253.18,13.181c-5.859,5.858-5.857,15.354,0,21.213c5.857,5.858,15.355,5.857,21.213,0
		C277.225,31.56,280.994,29.999,285,30c4.006,0,7.773,1.56,10.605,4.394c2.834,2.833,4.395,6.6,4.395,10.605
		c-0.002,4.007-1.561,7.774-4.395,10.606c-2.834,2.833-6.6,4.395-10.608,4.394c-4.004,0.001-7.77-1.559-10.602-4.389
		c0-0.001,0-0.002-0.002-0.004c-0.824-0.822-1.719-1.53-2.666-2.124c-0.316-0.197-0.639-0.381-0.965-0.553
		c-0.352-0.185-0.715-0.345-1.076-0.5c-0.086-0.036-0.168-0.082-0.256-0.117c-1.904-0.772-3.934-1.133-5.957-1.088
		c-0.81,0.019-1.619,0.103-2.418,0.251c-0.398,0.073-0.797,0.163-1.191,0.269c-0.115,0.032-0.232,0.052-0.348,0.087
		c-0.172,0.049-0.338,0.12-0.508,0.177c-0.289,0.098-0.582,0.187-0.867,0.304c-0.172,0.068-0.336,0.159-0.508,0.235
		c-0.275,0.124-0.553,0.239-0.822,0.382c-0.268,0.141-0.525,0.307-0.787,0.465c-0.162,0.098-0.332,0.184-0.49,0.29
		c-0.832,0.55-1.621,1.19-2.354,1.923L30.85,277.935l0,0l-2.621,2.621l-11.723,11.723l0,0L4.394,304.393
		c-5.859,5.859-5.859,15.356,0,21.215C7.322,328.535,11.162,329.999,15,330c3.84,0,7.678-1.466,10.607-4.394l26.455-26.455v-0.001
		l213.53-213.529C271.576,88.485,278.172,90,285,90c12.02,0,23.318-4.682,31.816-13.18C325.318,68.322,329.998,57.021,330,45z"/>
	<path style="fill:#AD2E08;" d="M221.566,208.285c3.979,0,7.795-1.58,10.607-4.394c11.633-11.633,18.963-26.417,21.217-42.425
		c2.928,2.928,6.766,4.391,10.603,4.392c3.84,0,7.678-1.464,10.608-4.395c5.857-5.856,5.857-15.354,0-21.212l-31.82-31.82
		l-21.215-21.213l-31.818-31.82c-5.857-5.857-15.355-5.857-21.213,0.001c-5.857,5.857-5.859,15.353-0.004,21.21
		c-16.008,2.252-30.791,9.584-42.424,21.217c-5.857,5.857-5.857,15.354,0.002,21.213l5.34,5.34
		c-4.547,2.178-8.742,5.131-12.414,8.803c-3.717,3.718-6.639,7.932-8.779,12.429l-5.359-5.36c-5.857-5.857-15.355-5.856-21.215,0
		c-5.855,5.857-5.857,15.354,0,21.212c-16.01,2.253-30.793,9.584-42.428,21.216c-2.813,2.813-4.393,6.63-4.393,10.607
		c0,3.979,1.58,7.794,4.393,10.606l5.342,5.341c-4.547,2.178-8.742,5.131-12.412,8.803c-16.348,16.35-17.453,42.249-3.334,59.9
		c1.033,1.29,2.139,2.541,3.334,3.736l14.143,14.145c1.191,1.189,2.441,2.296,3.736,3.335c7.947,6.374,17.748,9.843,28.084,9.843
		c12.021,0,23.32-4.68,31.82-13.18c3.719-3.719,6.639-7.934,8.781-12.431l5.359,5.359c2.93,2.93,6.77,4.395,10.607,4.395
		c3.84-0.001,7.678-1.464,10.607-4.395c11.93-11.93,18.988-26.911,21.184-42.454l0.029,0.027c2.928,2.931,6.768,4.395,10.605,4.395
		c3.84,0,7.678-1.465,10.607-4.394c5.857-5.858,5.857-15.354,0-21.214l-5.342-5.34c4.547-2.177,8.742-5.131,12.41-8.801
		c3.719-3.718,6.641-7.934,8.785-12.432l5.359,5.359C213.773,206.705,217.588,208.284,221.566,208.285z"/>
	<path style="fill:#689F5F;" d="M184.406,219.764l-11.646-11.646l-18.363-18.365l-7.074-7.074l-7.088-7.087l-18.352-18.353
		l-11.627-11.628l-5.359-5.36c-5.857-5.857-15.355-5.856-21.215,0c-5.855,5.857-5.857,15.354,0,21.212c0,0.001,0,0.001,0,0.001
		l14.381,14.381l20.924,20.924l7.123,7.123l7.096,7.097l20.953,20.95l14.348,14.352l0.029,0.027
		c2.928,2.931,6.768,4.395,10.605,4.395c3.84,0,7.678-1.465,10.607-4.394c5.857-5.858,5.857-15.354,0-21.214L184.406,219.764z"/>
	<path style="fill:#689F5F;" d="M274.602,140.252l-31.82-31.82l-21.215-21.213l-31.818-31.82
		c-5.857-5.857-15.355-5.857-21.213,0.001c-5.857,5.857-5.859,15.353-0.004,21.21c0.002,0.001,0.002,0.002,0.004,0.002
		l14.379,14.379l28.031,28.032l0.029,0.029l28.033,28.034l14.381,14.379l0.002,0.002c2.928,2.928,6.766,4.391,10.603,4.392
		c3.84,0,7.678-1.464,10.608-4.395C280.459,155.607,280.459,146.109,274.602,140.252z"/>
	<path style="fill:#D7143A;" d="M165.271,158.201l-22.176-22.176l-11.646-11.647c-4.547,2.178-8.742,5.131-12.414,8.803
		c-3.717,3.718-6.639,7.932-8.779,12.429l11.627,11.628l18.352,18.353l7.088,7.087l7.074,7.074l18.363,18.365l11.646,11.646
		c4.547-2.177,8.742-5.131,12.41-8.801c3.719-3.718,6.641-7.934,8.785-12.432l-11.627-11.627l-18.354-18.354L165.271,158.201z"/>
	<path style="fill:#D7143A;" d="M34.184,281.672l14.143,14.145c1.191,1.189,2.441,2.296,3.736,3.335
		c7.947,6.374,17.748,9.843,28.084,9.843c12.021,0,23.32-4.68,31.82-13.18c3.719-3.719,6.639-7.934,8.781-12.431l-11.627-11.628
		l-50.879-50.878l-11.646-11.645c-4.547,2.178-8.742,5.131-12.412,8.803c-16.348,16.35-17.453,42.249-3.334,59.9
		C31.883,279.226,32.988,280.477,34.184,281.672z"/>
</g>
<g>
</g>
<g>
</g>
<g>
</g>
<g>
</g>
<g>
</g>
<g>
</g>
<g>
</g>
<g>
</g>
<g>
</g>
<g>
</g>
<g>
</g>
<g>
</g>
<g>
</g>
<g>
</g>
<g>
</g>
</svg>
