<?xml version="1.0" encoding="iso-8859-1"?>
<!-- Generator: Adobe Illustrator 19.0.0, SVG Export Plug-In . SVG Version: 6.00 Build 0)  -->
<svg version="1.1" id="Layer_1" xmlns="http://www.w3.org/2000/svg" xmlns:xlink="http://www.w3.org/1999/xlink" x="0px" y="0px"
	 viewBox="0 0 286.021 286.021" style="enable-background:new 0 0 286.021 286.021;" xml:space="preserve">
<g>
	<path style="fill:#A47D73;" d="M94.985,145.004H30.872C13.822,145.004,0,158.826,0,175.876v71.403
		c0,17.05,13.822,30.872,30.872,30.872h64.114c17.05,0,30.872-13.822,30.872-30.872v-71.403
		C125.857,158.826,112.036,145.004,94.985,145.004z"/>
	<path style="fill:#80635B;" d="M62.99,145.004H30.872C13.822,145.004,0,158.826,0,175.876v71.403
		c0,17.05,13.822,30.872,30.872,30.872h32.057L62.99,145.004z"/>
</g>
<path style="fill:#FAD0B0;" d="M82.414,207.723c3.96-4.336,5.449-10.708,5.449-15.842c0-16.905-9.38-25.476-27.881-25.476H46.278
	c-5.102,0-9.252,4.15-9.252,9.252v71.841c0,5.102,4.15,9.252,9.252,9.252H65.48c18.534,0,29.599-9.909,29.599-26.506
	C95.078,221.174,91.128,211.321,82.414,207.723z M57.86,202.363v-18.445h0.176c7.296,0,10.139,2.554,10.139,9.107
	c0,7.156-2.396,9.338-10.253,9.338L57.86,202.363L57.86,202.363z M74.244,228.87c0,8.765-4.996,10.368-14.834,10.368h-1.55v-20.049
	h0.748C69.202,219.189,74.244,220.638,74.244,228.87z"/>
<g>
	<path style="fill:#A47D73;" d="M255.149,145.004h-64.114c-17.05,0-30.872,13.822-30.872,30.872v71.403
		c0,17.05,13.822,30.872,30.872,30.872h64.114c17.05,0,30.872-13.822,30.872-30.872v-71.403
		C286.021,158.826,272.199,145.004,255.149,145.004z"/>
	<path style="fill:#80635B;" d="M223.154,145.004h-32.118c-17.05,0-30.872,13.822-30.872,30.872v71.403
		c0,17.05,13.822,30.872,30.872,30.872h32.057L223.154,145.004z"/>
</g>
<path style="fill:#A47D73;" d="M175.067,7.87h-64.114c-17.05,0-30.872,13.822-30.872,30.872v71.403
	c0,17.05,13.822,30.872,30.872,30.872h64.114c17.05,0,30.872-13.822,30.872-30.872V38.742C205.939,21.692,192.117,7.87,175.067,7.87
	z"/>
<path style="fill:#80635B;" d="M143.072,7.87h-32.118c-17.05,0-30.872,13.822-30.872,30.872v71.403
	c0,17.05,13.822,30.872,30.872,30.872h32.057L143.072,7.87z"/>
<path style="fill:#E27879;" d="M180.426,106.862l-26.338-71.278c-1.648-4.461-5.952-7.459-10.708-7.459
	c-4.711,0-9,2.958-10.672,7.362l-27.079,71.288c-1.205,3.172-0.774,6.733,1.153,9.526s5.103,4.46,8.496,4.46
	c4.285,0,8.06-2.579,9.617-6.571l4.538-11.637h27.237l4.167,11.424c1.48,4.058,5.377,6.784,9.697,6.784h0.21
	c3.375,0,6.541-1.653,8.469-4.422S181.595,110.028,180.426,106.862z M150.573,84.812h-15.002l7.501-23.224L150.573,84.812z"/>
<path style="fill:#C76A6C;" d="M143.063,28.13c-4.586,0.129-8.721,3.053-10.355,7.358l-27.079,71.288
	c-1.205,3.172-0.774,6.733,1.153,9.526s5.103,4.46,8.496,4.46c4.285,0,8.06-2.579,9.617-6.571l4.538-11.637h13.595l0.008-17.742
	h-7.466l7.439-22.932L143.063,28.13z"/>
<path style="fill:#D9B69B;" d="M62.964,201.88c-1.353,0.338-3.016,0.483-5.043,0.483H57.86v-18.445h0.176
	c1.955,0,3.59,0.183,4.936,0.578l0.009-18.011c-0.971-0.053-1.971-0.079-2.998-0.079H46.278c-5.102,0-9.252,4.15-9.252,9.252v71.841
	c0,5.102,4.15,9.252,9.252,9.252h16.66l0.008-17.603c-1.099,0.064-2.278,0.09-3.536,0.09h-1.55v-20.049h0.748
	c1.571,0,3.02,0.032,4.348,0.113L62.964,201.88z"/>
<path style="fill:#91C8F5;" d="M234.429,259.041c4.912,0,9.743-0.979,15.201-3.083c3.877-1.494,6.382-5.121,6.382-9.246
	c0-3.278-1.542-6.22-4.231-8.071c-2.723-1.875-6.213-2.28-9.338-1.086c-2.528,0.965-5.07,1.455-7.555,1.455
	c-14.59,0-23.308-13.772-23.308-27.087c0-13.464,8.209-27.774,23.423-27.774c2.541,0,5.078,0.46,7.542,1.369
	c3.122,1.151,6.592,0.716,9.285-1.161c2.659-1.854,4.184-4.782,4.184-8.036v-0.155c0-4.06-2.558-7.773-6.366-9.239
	c-4.845-1.865-9.849-2.81-14.874-2.81c-25.01,0-44.601,21.15-44.601,48.15C190.173,238.057,210.026,259.041,234.429,259.041z"/>
<path style="fill:#81ADCD;" d="M223.091,235.458c-7.363-4.949-11.511-14.352-11.511-23.537c0-9.365,3.971-19.14,11.509-24.223
	l0.042-0.029l0.013-21.966l-0.177,0.05c-19.104,5.456-32.795,23.939-32.795,46.511c0,21.578,13.895,39.79,32.725,45.166l0.204,0.058
	l0.01-22.015L223.091,235.458z"/>
<g>
</g>
<g>
</g>
<g>
</g>
<g>
</g>
<g>
</g>
<g>
</g>
<g>
</g>
<g>
</g>
<g>
</g>
<g>
</g>
<g>
</g>
<g>
</g>
<g>
</g>
<g>
</g>
<g>
</g>
</svg>
