<svg id="Layer_1" enable-background="new 0 0 512 512" height="512" viewBox="0 0 512 512" width="512" xmlns="http://www.w3.org/2000/svg"><g><path d="m497 303.133c-8.284 0-15-6.716-15-15v-65.333h-48.584c-8.284 0-15-6.716-15-15s6.716-15 15-15h63.584c8.284 0 15 6.716 15 15v80.333c0 8.284-6.716 15-15 15z" fill="#a7a7c1"/><path d="m448.8 447.733h-208.867c-8.284 0-15-6.716-15-15v-44.609c0-36.132 8.545-72.375 24.711-104.811 5.083-10.198 9.037-18.016 9.037-18.016 2.553-5.048 7.729-8.231 13.386-8.231h144.6c5.701 0 10.909 3.232 13.44 8.34.039.077 3.891 7.85 8.94 17.822 16.208 32.519 24.753 68.761 24.753 104.895v44.609c0 8.286-6.716 15.001-15 15.001z" fill="#f4f1f1"/><path d="m463.8 432.733v-44.609c0-36.133-8.545-72.376-24.753-104.895-5.049-9.973-8.901-17.745-8.94-17.822-2.531-5.108-7.739-8.34-13.44-8.34h-72.3v190.667h104.433c8.284-.001 15-6.716 15-15.001z" fill="#e4e4e7"/><path d="m416.667 158.533h-160.667c-5.682 0-10.875-3.21-13.417-8.292l-32.133-64.266c-2.325-4.649-2.076-10.172.657-14.594s7.561-7.114 12.76-7.114h224.933c5.199 0 10.027 2.692 12.76 7.114s2.981 9.944.657 14.594l-32.133 64.267c-2.542 5.081-7.736 8.291-13.417 8.291z" fill="#463c46"/><path d="m430.083 150.241 32.133-64.267c2.325-4.649 2.076-10.172-.657-14.594s-7.561-7.114-12.76-7.114h-104.433v94.267h72.3c5.682 0 10.876-3.21 13.417-8.292z" fill="#231428"/><path d="m497 512h-482c-8.284 0-15-6.716-15-15v-482c0-8.284 6.716-15 15-15h482c8.284 0 15 6.716 15 15v64.267c0 8.284-6.716 15-15 15h-306.333v323.467h306.333c8.284 0 15 6.716 15 15v64.266c0 8.284-6.716 15-15 15z" fill="#696464"/><g clip-rule="evenodd" fill="#231428" fill-rule="evenodd"><circle cx="95.333" cy="368.467" r="15"/><circle cx="95.333" cy="304.2" r="15"/><circle cx="95.333" cy="432.733" r="15"/></g><path d="m95.333 254.933c-8.284 0-15-6.716-15-15v-160.666c0-8.284 6.716-15 15-15s15 6.716 15 15v160.667c0 8.283-6.715 14.999-15 14.999z" fill="#463c46"/><path d="m255.284 272.043h178.132v-79.243h-193.132c-3.996 0-7.923 1.423-10.783 4.214-4.803 4.688-5.854 11.756-2.985 17.495z" fill="#dddddf"/><path d="m497 94.267c8.284 0 15-6.716 15-15v-64.267c0-8.284-6.716-15-15-15h-152.634v94.267z" fill="#463c46"/><path d="m512 497v-64.267c0-8.284-6.716-15-15-15h-152.634v94.267h152.634c8.284 0 15-6.716 15-15z" fill="#463c46"/><path d="m344.366 192.8h89.05v79.243h-89.05z" fill="#d0d0d5"/></g></svg>