<svg id="Capa_1" enable-background="new 0 0 512 512" height="512" viewBox="0 0 512 512" width="512" xmlns="http://www.w3.org/2000/svg"><g><path d="m446.61 136.82-42.43 42.43c-5.86 5.85-15.36 5.85-21.21 0l-10.51-10.51c-7.75-7.75-20.86-4.77-24.65 5.51-7.87 21.38-16.81 38.4-16.81 50.75 0 42.28 9.96 62.92 22.56 89.04 16.68 34.56 37.44 77.57 37.44 182.96 0 8.28-6.72 15-15 15h-240c-8.28 0-15-6.72-15-15 0-105.39 20.76-148.4 37.44-182.96 12.6-26.12 22.56-46.76 22.56-89.04 0-12.35-8.95-29.39-16.81-50.75-3.8-10.3-16.91-13.25-24.65-5.51l-10.51 10.51c-5.85 5.85-15.35 5.85-21.21 0l-42.43-42.43c-5.85-5.86-5.85-15.36 0-21.21l23.79-23.79c20.52-20.52 47.8-31.82 76.82-31.82h180c29.02 0 56.3 11.3 76.82 31.82l23.79 23.79c5.85 5.85 5.85 15.35 0 21.21z" fill="#65d6a9"/><path d="m446.61 136.82-42.43 42.43c-5.86 5.85-15.36 5.85-21.21 0l-10.51-10.51c-7.75-7.75-20.86-4.77-24.65 5.51-7.87 21.38-16.81 38.4-16.81 50.75 0 42.28 9.96 62.92 22.56 89.04 16.68 34.56 37.44 77.57 37.44 182.96 0 8.28-6.72 15-15 15h-120v-452h90c29.02 0 56.3 11.3 76.82 31.82l23.79 23.79c5.85 5.85 5.85 15.35 0 21.21z" fill="#26bfa6"/><path d="m326.6 4.4-22.1 53.1-48.5 17.5-52.5-22.5-18.1-48.1c2.77-2.77 6.56-4.4 10.6-4.4h120c4.04 0 7.83 1.63 10.6 4.4z" fill="#704c55"/><path d="m326.6 4.4-22.1 53.1-48.5 17.5v-75h60c4.04 0 7.83 1.63 10.6 4.4z" fill="#5b362a"/><path d="m182.584 8.292c-20.241 40.482-3.773 89.884 36.708 110.125 5.795 2.898 12.767 1.738 17.314-2.81l19.394-40.607-70.601-70.601c-1.123 1.122-2.082 2.427-2.815 3.893z" fill="#fff2fb"/><path d="m329.417 8.292c-.733-1.466-1.693-2.77-2.816-3.893l-70.601 70.601 19.394 40.607c4.565 4.565 11.539 5.697 17.314 2.81 40.482-20.241 56.949-69.643 36.709-110.125z" fill="#ffdfea"/></g></svg>