<svg id="Capa_1" enable-background="new 0 0 512 512" height="512" viewBox="0 0 512 512" width="512" xmlns="http://www.w3.org/2000/svg"><g id="XMLID_7_"><g id="XMLID_1096_"><path id="XMLID_1122_" d="m358.439 427.073h-204.878c-8.304 0-15.036-6.732-15.036-15.036s6.731-15.037 15.036-15.037h204.878c8.304 0 15.036 6.732 15.036 15.036s-6.732 15.037-15.036 15.037z" fill="#c0d9dd"/></g><g id="XMLID_146_"><path id="XMLID_1149_" d="m358.439 397h-102.439v30.073h102.439c8.304 0 15.036-6.732 15.036-15.036s-6.732-15.037-15.036-15.037z" fill="#b3d1d6"/></g><g id="XMLID_1108_"><g id="XMLID_1103_"><path id="XMLID_1128_" d="m256 511.996c-8.304 0-15.036-6.732-15.036-15.036v-164.684c0-8.304 6.732-15.036 15.036-15.036s15.036 6.732 15.036 15.036v164.684c0 8.304-6.732 15.036-15.036 15.036z" fill="#cee1e4"/></g></g><g id="XMLID_1097_"><g id="XMLID_1099_"><path id="XMLID_1127_" d="m117.09 512c-1.645 0-3.316-.271-4.956-.844-7.84-2.737-11.977-11.312-9.241-19.152l67.235-192.604c2.737-7.841 11.312-11.977 19.152-9.241 7.84 2.737 11.977 11.312 9.241 19.152l-67.235 192.604c-2.165 6.201-7.981 10.085-14.196 10.085z" fill="#cee1e4"/></g></g><g id="XMLID_130_"><path id="XMLID_1151_" d="m256 317.24v194.756c8.304 0 15.036-6.732 15.036-15.036v-164.684c0-8.304-6.732-15.036-15.036-15.036z" fill="#c0d9dd"/></g><g id="XMLID_1098_"><path id="XMLID_1125_" d="m394.91 512c-6.216 0-12.031-3.884-14.196-10.085l-67.236-192.604c-2.737-7.84 1.4-16.415 9.241-19.152 7.841-2.736 16.415 1.4 19.152 9.241l67.236 192.604c2.737 7.84-1.4 16.415-9.241 19.152-1.639.572-3.311.844-4.956.844z" fill="#c0d9dd"/></g><g id="XMLID_142_"><g id="XMLID_1095_"><path id="XMLID_1121_" d="m309.003 85.225c-8.304 0-15.036-6.732-15.036-15.036v-35.368c0-2.618-2.13-4.748-4.749-4.748h-66.437c-2.618 0-4.748 2.13-4.748 4.748v35.367c0 8.304-6.732 15.036-15.036 15.036s-15.036-6.732-15.036-15.036v-35.367c-.001-19.2 15.62-34.821 34.82-34.821h66.437c19.201 0 34.822 15.621 34.822 34.821v35.367c0 8.305-6.732 15.037-15.037 15.037z" fill="#cee1e4"/></g><g id="XMLID_145_"><path id="XMLID_1159_" d="m289.218 0h-33.218v30.073h33.218c2.619 0 4.749 2.13 4.749 4.748v35.367c0 8.304 6.732 15.036 15.036 15.036s15.036-6.732 15.036-15.036v-35.367c.001-19.2-15.62-34.821-34.821-34.821z" fill="#c0d9dd"/></g><path id="XMLID_1107_" d="m256 48.579c-82.938 0-150.413 60.56-150.413 135 0 36.158 16.212 76.291 43.367 107.354 29.825 34.118 67.842 52.908 107.047 52.908s77.222-18.79 107.047-52.908c27.155-31.064 43.367-71.196 43.367-107.354-.002-74.439-67.477-135-150.415-135z" fill="#07485e"/><g id="XMLID_89_"><path id="XMLID_1155_" d="m256 48.579v295.262c39.205 0 77.222-18.79 107.047-52.908 27.155-31.064 43.367-71.196 43.367-107.354-.001-74.439-67.476-135-150.414-135z" fill="#04303e"/></g><g id="XMLID_1106_"><path id="XMLID_1131_" d="m417.111 198.615h-322.222c-8.304 0-15.036-6.732-15.036-15.036s6.732-15.036 15.036-15.036h322.223c8.304 0 15.036 6.732 15.036 15.036s-6.732 15.036-15.037 15.036z" fill="#09607d"/></g><g id="XMLID_1105_"><path id="XMLID_1130_" d="m295.326 148.248h-78.653c-8.304 0-15.036-6.732-15.036-15.036s6.732-15.036 15.036-15.036h78.653c8.304 0 15.036 6.732 15.036 15.036s-6.731 15.036-15.036 15.036z" fill="#cee1e4"/></g><g id="XMLID_144_"><path id="XMLID_1164_" d="m417.111 168.542h-161.111v30.073h161.111c8.304 0 15.036-6.732 15.036-15.036s-6.731-15.037-15.036-15.037z" fill="#07485e"/><path id="XMLID_1160_" d="m310.363 133.211c0-8.304-6.732-15.036-15.036-15.036h-39.327v30.073h39.326c8.305 0 15.037-6.733 15.037-15.037z" fill="#c0d9dd"/></g></g></g></svg>