<svg id="Capa_1" enable-background="new 0 0 512 512" height="512" viewBox="0 0 512 512" width="512" xmlns="http://www.w3.org/2000/svg"><g><g><path d="m256 451c-84.062 0-147.315-28.411-177.538-45.346-49.13-27.53-78.462-61.046-78.462-89.654 0-13.087 6.289-31.722 36.249-46.173 18.256-8.806 44.33-15.702 77.497-20.496.71-.103 1.428-.154 2.146-.154h280.217c.718 0 1.436.052 2.146.154 33.167 4.793 59.241 11.689 77.497 20.496 29.959 14.451 36.248 33.086 36.248 46.173 0 28.608-29.332 62.124-78.462 89.654-30.223 16.935-93.476 45.346-177.538 45.346z" fill="#6b5c59"/><path d="m475.751 269.827c-18.256-8.806-44.33-15.702-77.497-20.496-.71-.103-1.428-.154-2.146-.154h-140.108v201.823c84.062 0 147.315-28.411 177.538-45.346 49.13-27.53 78.462-61.046 78.462-89.654 0-13.087-6.289-31.722-36.249-46.173z" fill="#4f4540"/><g><path d="m417.913 305.516-7.103-44.391h-309.621l-7.103 44.391c-2.886 18.036 8.656 35.408 26.277 39.55 45 10.577 90.318 15.865 135.636 15.865s90.636-5.288 135.636-15.865h.001c17.621-4.142 29.163-21.514 26.277-39.55z" fill="#ffe278"/><g><g><path d="m410.811 261.125h-154.811v99.806c45.317 0 90.636-5.288 135.636-15.865h.001c17.62-4.142 29.162-21.515 26.276-39.55z" fill="#ffc178"/></g></g><path d="m256 281.714c48.249 0 96.499-5.995 144.411-17.985l10.399-2.603-26.287-164.295c-3.321-20.762-20.993-35.831-42.018-35.831-6.572 0-13.153 1.554-19.031 4.493-42.249 21.125-92.697 21.125-134.948 0-5.879-2.94-12.459-4.493-19.031-4.493-21.025 0-38.697 15.069-42.019 35.831l-26.287 164.295 10.399 2.603c47.913 11.989 96.163 17.985 144.412 17.985z" fill="#9d5e4a"/><path d="m342.505 61c-6.572 0-13.153 1.554-19.031 4.493-21.125 10.562-44.299 15.843-67.474 15.843v200.377c48.249 0 96.499-5.995 144.411-17.985l10.399-2.603-26.287-164.294c-3.321-20.762-20.993-35.831-42.018-35.831z" fill="#6b5c59"/></g></g></g></svg>