<svg id="Capa_1" enable-background="new 0 0 511.753 511.753" height="512" viewBox="0 0 511.753 511.753" width="512" xmlns="http://www.w3.org/2000/svg"><g><g><g><path d="m505.613 423.766-123-90c-6.88-5.03-16.6-3.33-21.34 3.79-9.94 14.91-26.55 23.36-44.46 22.65-19.01-.77-37.38-11.2-45.22-34.9-3.46-10.46-8.35-25.24-15.84-43.64-22.61-55.49-68.94-143.94-171.39-246.4-5.86-5.85-15.36-5.85-21.22 0-31.7 31.71-51.94 70.64-60.15 115.72-14.02 77.01 25.76 86.18 25.76 202.94v111.95c0 8.28 6.72 15 15 15h30c8.28 0 15-6.72 15-15v-22.72c0-64.99 21.69-128.04 61.35-179.16 28.572 34.061-1.875 116.201 105.65 182.38 36.46 22.44 79.79 34.5 125.6 34.5h115.4c8.28 0 15-6.72 15-15v-30c0-4.781-2.28-9.281-6.14-12.11z" fill="#ff8fb8"/></g></g><path d="m511.753 435.875v30c0 8.28-6.72 15-15 15h-115.4c-45.81 0-89.14-12.06-125.6-34.5v-164.71c7.49 18.4 12.38 33.18 15.84 43.64 7.84 23.7 26.21 34.13 45.22 34.9 17.91.71 34.52-7.74 44.46-22.65 4.74-7.12 14.46-8.82 21.34-3.79l123 90c3.86 2.83 6.14 7.33 6.14 12.11z" fill="#ff5f96"/></g></svg>