<svg id="Layer_1" enable-background="new 0 0 512 512" height="512" viewBox="0 0 512 512" width="512" xmlns="http://www.w3.org/2000/svg"><g><path d="m416.667 319.2c-8.284 0-15-6.716-15-15v-32.133c0-9.448-7.686-17.134-17.133-17.134h-64.267c-9.447 0-17.133 7.686-17.133 17.134v32.133c0 8.284-6.716 15-15 15s-15-6.716-15-15v-32.133c0-25.99 21.144-47.134 47.133-47.134h64.267c25.989 0 47.133 21.144 47.133 47.134v32.133c0 8.284-6.716 15-15 15z" fill="#e4e4e7"/><path d="m431.667 304.2v-32.133c0-25.99-21.144-47.134-47.133-47.134h-32.134v30h32.133c9.447 0 17.133 7.686 17.133 17.134v32.133c0 8.284 6.716 15 15 15s15.001-6.716 15.001-15z" fill="#dddddf"/><path d="m352.4 319.2c-8.284 0-15-6.716-15-15v-128.533c0-8.284 6.716-15 15-15s15 6.716 15 15v128.533c0 8.284-6.716 15-15 15z" fill="#d0d0d5"/><path d="m432.733 190.667h-160.666c-8.284 0-15-6.716-15-15v-64.267c0-8.284 6.716-15 15-15h160.667c8.284 0 15 6.716 15 15v64.267c-.001 8.284-6.716 15-15.001 15z" fill="#e36ba0"/><path d="m447.733 175.667v-64.267c0-8.284-6.716-15-15-15h-80.333v94.267h80.333c8.285 0 15-6.716 15-15z" fill="#c63f82"/><path d="m416.667 447.733h-128.534c-3.978 0-7.793-1.581-10.606-4.394l-48.2-48.2c-2.813-2.813-4.394-6.628-4.394-10.606v-80.333c0-8.284 6.716-15 15-15h224.934c8.284 0 15 6.716 15 15v80.333c0 3.978-1.581 7.793-4.394 10.606l-48.2 48.2c-2.813 2.814-6.628 4.394-10.606 4.394z" fill="#f4f1f1"/><path d="m175.667 206.733h-128.534c-8.26 0-14.96-6.676-15-14.927 0-.024 0-.048 0-.073v-144.6c0-3.978 1.581-7.793 4.394-10.606l32.133-32.133c2.813-2.813 6.629-4.394 10.607-4.394h353.467c3.978 0 7.793 1.581 10.606 4.394l32.133 32.133c2.813 2.813 4.394 6.628 4.394 10.606v64.267c0 8.284-6.716 15-15 15h-274.2v65.333c0 8.285-6.716 15-15 15z" fill="#ff96be"/><path d="m175.667 447.733h-128.534c-8.284 0-15-6.716-15-15v-241c0-43.708 35.559-79.267 79.267-79.267s79.267 35.559 79.267 79.267v241c0 8.285-6.716 15-15 15z" fill="#e36ba0"/><path d="m479.867 111.4v-64.267c0-3.978-1.581-7.793-4.394-10.606l-32.133-32.133c-2.813-2.813-6.629-4.394-10.607-4.394h-80.333v126.4h112.467c8.284 0 15-6.716 15-15z" fill="#e36ba0"/><path d="m427.273 443.34 48.2-48.2c2.813-2.813 4.394-6.628 4.394-10.606v-80.334c0-8.284-6.716-15-15-15h-112.467v158.533h64.266c3.979 0 7.794-1.58 10.607-4.393z" fill="#e4e4e7"/><path d="m464.867 512h-417.734c-8.284 0-15-6.716-15-15v-64.267c0-8.284 6.716-15 15-15h417.733c8.284 0 15 6.716 15 15v64.267c.001 8.284-6.715 15-14.999 15z" fill="#c63f82"/><g fill="#aa1464"><path d="m479.867 497v-64.267c0-8.284-6.716-15-15-15h-112.467v94.267h112.467c8.284 0 15-6.716 15-15z"/><circle clip-rule="evenodd" cx="111.4" cy="368.467" fill-rule="evenodd" r="15"/></g></g></svg>