<svg id="Capa_1" enable-background="new 0 0 512 512" height="512" viewBox="0 0 512 512" width="512" xmlns="http://www.w3.org/2000/svg"><g><g><path d="m504.269 32.892-45.269 44.401-113 18.708h-180l-113-18.708-45.269-44.401c-4.695 2.603-7.731 7.578-7.731 13.109v55.279c0 31.567 7.46 63.177 21.599 91.46 12.308 24.62 19.129 51.048 20.275 78.549l.188 4.502c2.311 55.47 25.649 107.183 65.715 145.614s92.706 59.596 148.224 59.596 108.158-21.165 148.223-59.596c40.066-38.431 63.404-90.145 65.715-145.614l.188-4.5c1.146-27.513 7.973-53.952 20.291-78.581 14.118-28.235 21.582-59.845 21.582-91.414v-55.295c0-5.531-3.036-10.506-7.731-13.109z" fill="#e6a551"/><path d="m504.269 32.892-45.269 44.401-113 18.708h-90v385c55.518 0 108.158-21.165 148.223-59.596 40.066-38.431 63.404-90.145 65.715-145.614l.188-4.5c1.146-27.513 7.973-53.952 20.291-78.581 14.119-28.235 21.583-59.845 21.583-91.414v-55.295c0-5.531-3.036-10.506-7.731-13.109z" fill="#c36f50"/><path d="m256 351.001c-4.721 0-9.167-2.223-12-6l-54.039-72.052c-1.947-2.596-3-5.754-3-9v-75.948c0-8.284 6.716-15 15-15h108.078c8.284 0 15 6.716 15 15v75.948c0 3.246-1.053 6.404-3 9l-54.039 72.052c-2.833 3.777-7.279 6-12 6z" fill="#fff58c"/><path d="m310.039 173.001h-54.039v178c4.721 0 9.167-2.223 12-6l54.039-72.052c1.947-2.596 3-5.754 3-9v-75.948c0-8.284-6.716-15-15-15z" fill="#ffc85a"/><path d="m166 156.001c33.137 0 60 26.863 60 60h60c0-33.137 26.863-60 60-60 55.542 0 106.711-30.135 133.647-78.708l24.622-44.401c-.916-.508-1.89-.935-2.923-1.248-6.324-1.917-13.161.536-16.828 6.036-19.664 29.495-56.58 41.401-89.772 28.956l-54.091-20.284c-27.163-10.186-55.645-15.351-84.655-15.351s-57.492 5.165-84.656 15.351l-54.092 20.284c-33.192 12.447-70.107.54-89.771-28.956-3.667-5.5-10.5-7.951-16.828-6.036-1.033.313-2.006.74-2.923 1.248l24.622 44.401c26.937 48.573 78.106 78.708 133.648 78.708z" fill="#c36f50"/><g><g><path d="m286 216.001c0-33.137 26.863-60 60-60 55.542 0 106.711-30.135 133.647-78.708l24.622-44.401c-.916-.508-1.89-.935-2.923-1.248-6.324-1.917-13.161.536-16.828 6.036-19.664 29.495-56.58 41.401-89.772 28.956l-54.091-20.284c-27.163-10.186-55.645-15.351-84.655-15.351v185z" fill="#7d5343"/></g></g></g><path d="m346 291.001c-41.355 0-75-33.645-75-75s33.645-75 75-75 75 33.645 75 75-33.645 75-75 75z" fill="#d2e6fb"/><circle cx="346" cy="216.001" fill="#2e2654" r="45"/><path d="m166 291.001c-41.355 0-75-33.645-75-75s33.645-75 75-75 75 33.645 75 75-33.645 75-75 75z" fill="#f0f9ff"/><circle cx="166" cy="216.001" fill="#453d81" r="45"/><circle cx="346" cy="216.001" fill="#d2e6fb" r="15"/><circle cx="166" cy="216.001" fill="#f0f9ff" r="15"/></g></svg>