<svg id="Capa_1" enable-background="new 0 0 511.998 511.998" height="512" viewBox="0 0 511.998 511.998" width="512" xmlns="http://www.w3.org/2000/svg"><g><g><path d="m129.293 300.986-120-60c-7.41-3.705-10.413-12.715-6.708-20.125s12.716-10.413 20.125-6.708l69.48 34.74-28.67-43.004c-4.595-6.893-2.732-16.206 4.161-20.801 6.891-4.595 16.206-2.732 20.801 4.161l60 90c3.772 5.659 3.266 13.148-1.236 18.248-4.493 5.089-11.86 6.535-17.953 3.489z" fill="#ffdfea"/></g><path d="m371.251 332.569c-65.955 0-104.928 28.399-121.996 36.993-11.001 5.539-10.97 21.247-.025 26.782 29.954 15.152 63.43 23.074 97.268 23.074 81.931 0 125.775-42.917 158.221-58.986z" fill="#e30a6c"/><path d="m391.001 227.569v51l-135 19.57c-150.3-21.788-133.733-19.386-135-19.57v-51c1.167-.172-14.599 2.147 135-19.85z" fill="#fff2fb"/><path d="m391.001 227.569v51l-135 19.57v-90.42z" fill="#ffdfea"/><path d="m391.001 227.569h-270c0-74.44 60.56-135 135-135s135 60.56 135 135z" fill="#ff8fb8"/><path d="m391.001 227.569h-135v-135c74.44 0 135 60.56 135 135z" fill="#ff5f96"/><g><path d="m503.661 334.129-112.66-55.56h-270c-33.16 31.34-67.49 46.02-108.94 54.29-6.1 1.22-10.82 6.08-11.85 12.22-1.04 6.13 1.83 12.27 7.19 15.42 36.15 18.1 78.86 58.93 158.53 58.93 31.06 0 61.92-6.79 90.07-19.81 23.44-10.74 55.52-37.05 115.25-37.05h125.75c6.97 0 13.02-4.8 14.6-11.58 1.59-6.78-1.7-13.76-7.94-16.86z" fill="#ff8fb8"/></g><path d="m511.601 350.989c-1.58 6.78-7.63 11.58-14.6 11.58h-125.75c-59.73 0-91.81 26.31-115.25 37.05v-121.05h135l112.66 55.56c6.24 3.1 9.53 10.08 7.94 16.86z" fill="#ff5f96"/></g></svg>