<svg id="Capa_1" enable-background="new 0 0 529.202 529.202" height="512" viewBox="0 0 529.202 529.202" width="512" xmlns="http://www.w3.org/2000/svg"><path d="" fill="none" stroke="#c47e4e" stroke-miterlimit="10"/><g><path d="m316.614 451.354v53.551c0 13.397-10.899 24.297-24.297 24.297h-55.434c-13.397 0-24.297-10.899-24.297-24.297v-72.125h38.243l13.771 18.577 52.014.001" fill="#c47e4e"/><g><path d="m422.376 414.911-136.733-236.831c-4.327-7.493-12.39-12.147-21.042-12.147-8.653.001-16.715 4.655-21.041 12.148l-136.736 236.831c-4.326 7.493-4.326 16.804.001 24.297s12.389 12.148 21.042 12.148h273.468c8.652 0 16.716-4.655 21.042-12.149s4.326-16.804-.001-24.297z" fill="#a5ffb4"/><path d="m396.904 298.265c-.001-.001-.001-.001 0 0l-111.261-192.711c-4.326-7.494-12.39-12.149-21.042-12.148-8.653 0-16.716 4.655-21.041 12.148l-111.261 192.71c-4.327 7.493-4.327 16.804 0 24.297s12.389 12.148 21.042 12.148h222.522c8.652 0 16.716-4.654 21.042-12.147s4.325-16.804-.001-24.297z" fill="#00e092"/><path d="m375.676 185.292-90.033-155.942c-4.326-7.494-12.39-12.148-21.042-12.148s-16.715 4.655-21.041 12.148l-90.035 155.944c-4.326 7.493-4.326 16.803.001 24.296 4.326 7.493 12.389 12.148 21.042 12.148h180.068c8.653 0 16.716-4.655 21.042-12.149 4.325-7.493 4.324-16.803-.002-24.297z" fill="#00b7a5"/></g><g><path d="m281.6 432.78-16.999 18.577v77.845h27.717c13.397 0 24.297-10.899 24.297-24.297v-72.125z" fill="#a05f4b"/></g><g><path d="m422.376 414.911-136.733-236.831c-4.327-7.493-12.389-12.147-21.042-12.147v285.425h136.734c8.652 0 16.716-4.655 21.042-12.149s4.326-16.805-.001-24.298z" fill="#00e092"/></g><g><path d="m396.905 298.265c-.001-.001-.001-.001 0 0l-111.262-192.711c-4.326-7.494-12.389-12.149-21.042-12.148v241.304h111.261c8.652 0 16.716-4.654 21.042-12.147s4.326-16.805.001-24.298z" fill="#00b7a5"/></g><g><path d="m375.676 185.292-90.033-155.942c-4.326-7.494-12.389-12.148-21.042-12.148v204.537h90.034c8.653 0 16.716-4.655 21.042-12.149s4.325-16.804-.001-24.298z" fill="#00848a"/></g></g></svg>