<svg id="Capa_1" enable-background="new 0 0 512 512" height="512" viewBox="0 0 512 512" width="512" xmlns="http://www.w3.org/2000/svg"><g><g><path d="m136 300h-60c-8.284 0-15-6.716-15-15s6.716-15 15-15h60c8.284 0 15 6.716 15 15s-6.716 15-15 15z" fill="#b5dbff"/></g><g><path d="m76 512c-8.284 0-15-6.716-15-15v-482c0-8.284 6.716-15 15-15h90c3.978 0 7.793 1.581 10.606 4.394l38.787 38.787c5.858 5.858 5.858 15.355 0 21.213-5.857 5.858-15.355 5.858-21.213 0l-34.393-34.394h-68.787v467c0 8.284-6.716 15-15 15z" fill="#d5e8fe"/></g><g><path d="m300.25 21.97-54.25 71.03-1.13.87-71.9 55.38 8.1-8.11c4.04-4.04 5.43-9.92 3.62-15.35l-9.48-28.46c-5.43-16.27-1.26-33.92 10.87-46.05l16.2-16.2c12.13-12.13 29.78-16.3 46.05-10.87l28.46 9.48c5.43 1.81 11.31.42 15.35-3.62z" fill="#47568c"/></g><path d="m300.25 21.97-54.25 71.03-1.13.87-50.69-50.69 8.1-8.1c12.13-12.13 29.78-16.3 46.05-10.87l28.46 9.48c5.43 1.81 11.31.42 15.35-3.62z" fill="#29376d"/><g><path d="m321.46 43.18-63.64 63.64-63.64 63.64c-5.86 5.86-15.36 5.86-21.21 0-5.86-5.86-5.86-15.36 0-21.21l127.28-127.28c5.85-5.86 15.35-5.86 21.21 0s5.86 15.35 0 21.21z" fill="#61729b"/></g><path d="m321.46 43.18-63.64 63.64-21.21-21.21 63.64-63.64c5.85-5.86 15.35-5.86 21.21 0s5.86 15.35 0 21.21z" fill="#47568c"/><g><path d="m257.819 212.886-21.213-21.213c-5.857-5.858-5.857-15.355 0-21.213 5.858-5.857 15.354-5.857 21.213 0l21.213 21.213c5.857 5.858 5.857 15.355 0 21.213-5.857 5.857-15.353 5.858-21.213 0z" fill="#80d4ff"/></g><g><path d="m321.46 170.46c-5.86 5.86-15.36 5.86-21.21 0l-21.22-21.21c-5.85-5.86-5.85-15.36 0-21.22 5.86-5.85 15.36-5.85 21.22 0l21.21 21.22c5.86 5.85 5.86 15.35 0 21.21z" fill="#80d4ff"/></g><path d="m321.46 170.46-42.43-42.43c5.86-5.85 15.36-5.85 21.22 0l21.21 21.22c5.86 5.85 5.86 15.35 0 21.21z" fill="#6aa9ff"/><g><path d="m342.673 128.033-21.213-21.213c-5.858-5.858-5.858-15.355 0-21.213 5.857-5.858 15.355-5.858 21.213 0l21.213 21.213c5.858 5.858 5.858 15.355 0 21.213-5.857 5.857-15.356 5.858-21.213 0z" fill="#6aa9ff"/></g><g><path d="m427.525 170.459-21.213-21.213c-5.858-5.858-5.858-15.355 0-21.213 5.858-5.857 15.356-5.857 21.213 0l21.213 21.213c5.858 5.858 5.858 15.355 0 21.213-5.857 5.858-15.355 5.859-21.213 0z" fill="#6aa9ff"/></g><g><path d="m300.246 297.738-21.213-21.213c-5.858-5.858-5.858-15.355 0-21.213 5.857-5.858 15.355-5.858 21.213 0l21.213 21.213c5.858 5.858 5.858 15.355 0 21.213-5.857 5.858-15.355 5.859-21.213 0z" fill="#80d4ff"/></g><g><path d="m342.673 255.312-21.213-21.213c-5.858-5.858-5.858-15.355 0-21.213 5.858-5.857 15.356-5.857 21.213 0l21.213 21.213c5.858 5.858 5.858 15.355 0 21.213-5.858 5.857-15.356 5.859-21.213 0z" fill="#80d4ff"/></g><g><path d="m385.1 212.886-21.214-21.213c-5.858-5.858-5.858-15.355 0-21.213 5.857-5.858 15.355-5.858 21.213 0l21.214 21.213c5.858 5.858 5.858 15.355 0 21.213-5.857 5.857-15.355 5.858-21.213 0z" fill="#6aa9ff"/></g><g><path d="m136 330c-8.284 0-15-6.716-15-15v-60c0-8.284 6.716-15 15-15s15 6.716 15 15v60c0 8.284-6.716 15-15 15z" fill="#61729b"/></g><g><path d="m512 497c0 8.28-6.72 15-15 15h-482c-8.28 0-15-6.72-15-15s6.72-15 15-15h482c8.28 0 15 6.72 15 15z" fill="#61729b"/></g></g></svg>