<svg id="Capa_1" enable-background="new 0 0 512 512" height="512" viewBox="0 0 512 512" width="512" xmlns="http://www.w3.org/2000/svg"><g><g><path d="m374.28 281.962c-4.185 0-8.188-1.75-11.033-4.839-2.953-3.207-4.365-7.541-3.868-11.872l5.255-45.775c.396-3.45 1.978-6.656 4.474-9.071 28.103-27.18 66.435-39.754 105.182-34.497l3.828.52c8.319 1.129 15.477 5.961 19.635 13.257s4.668 15.917 1.398 23.652l-11.872 28.085c-9.617 22.749-31.78 37.956-56.464 38.743l-56.055 1.79c-.16.004-.321.007-.48.007z" fill="#64422a"/></g><g><path d="m137.72 281.962c-.16 0-.319-.003-.479-.008l-56.054-1.79c-24.684-.787-46.847-15.995-56.463-38.743l-11.872-28.085c-3.27-7.734-2.76-16.355 1.397-23.651 4.158-7.296 11.316-12.129 19.638-13.258l3.825-.52c38.743-5.254 77.08 7.317 105.182 34.497 2.497 2.415 4.078 5.621 4.474 9.071l5.255 45.775c.497 4.331-.915 8.665-3.868 11.872-2.846 3.09-6.85 4.84-11.035 4.84z" fill="#895d3c"/></g><g><path d="m278.672 512h-43.813c-19.402 0-37.028-11.457-44.904-29.189l-51.485-117.578c-12.042-27.501-20.99-56.4-26.596-85.895l-2.292-12.059c-8.35-43.939 6.15-88.427 38.79-119.007 24.154-22.628 55.683-35.09 88.78-35.09h39.228c33.097 0 64.626 12.462 88.779 35.09 32.639 30.579 47.14 75.067 38.789 119.007l-2.291 12.058c-5.606 29.498-14.555 58.397-26.597 85.896l-51.453 117.506c-7.906 17.804-25.532 29.261-44.935 29.261z" fill="#ae774e"/></g><g><path d="m365.16 148.272c-24.153-22.628-55.683-35.09-88.779-35.09h-19.614v398.818h21.906c19.402 0 37.028-11.457 44.936-29.262l51.453-117.506c12.042-27.498 20.99-56.397 26.597-85.896l2.291-12.058c8.349-43.938-6.152-88.426-38.79-119.006z" fill="#966641"/></g><path d="m193.266 260c-8.284 0-15 6.716-15 15v30c0 8.284 6.716 15 15 15s15-6.716 15-15v-30c0-8.284-6.716-15-15-15z" fill="#444"/><path d="m320.266 260c-8.284 0-15 6.716-15 15v30c0 8.284 6.716 15 15 15s15-6.716 15-15v-30c0-8.284-6.716-15-15-15z" fill="#292929"/><path d="m273.522 416.887-16.756 11.352-16.756-11.352c-6.859-4.646-16.186-2.852-20.832 4.006s-2.853 16.186 4.005 20.832l18.583 12.589v57.686h30v-57.687l18.582-12.588c6.858-4.646 8.652-13.974 4.006-20.832-4.647-6.86-13.975-8.652-20.832-4.006z" fill="#7e5436"/><g><path d="m294.354 420.893c-4.647-6.859-13.975-8.651-20.832-4.006l-16.756 11.352v83.761h15v-57.687l18.582-12.588c6.859-4.647 8.653-13.974 4.006-20.832z" fill="#523522"/></g><g><path d="m198.397 183.848-63.433-44.631c-9.709-6.831-21.115-10.442-32.986-10.442h-14.126c-11.931 0-22.39-7.635-26.024-18.999l-2.836-8.867 24.325-17.883c11.849-8.71 18.922-22.689 18.922-37.396v-30.625c0-8.284-6.716-15-15-15s-15 6.716-15 15v30.626c0 5.2-2.501 10.144-6.691 13.224l-16.198 11.908-19.297-60.328c-2.524-7.891-10.968-12.242-18.857-9.717-7.89 2.523-12.24 10.966-9.717 18.856l25.752 80.511c.002.007.004.014.007.02l6.016 18.809c7.625 23.841 29.566 39.86 54.598 39.86h14.126c5.658 0 11.095 1.721 15.723 4.977l63.433 44.631c2.625 1.847 5.636 2.734 8.618 2.734 4.717 0 9.36-2.219 12.281-6.37 4.768-6.774 3.14-16.131-3.636-20.898z" fill="#966641"/><path d="m510.521 19.574c2.523-7.891-1.827-16.333-9.718-18.857-7.889-2.522-16.332 1.826-18.856 9.717l-19.296 60.328-16.199-11.908c-4.19-3.08-6.691-8.023-6.691-13.224v-30.625c0-8.284-6.716-15-15-15s-15 6.716-15 15v30.626c0 14.706 7.073 28.686 18.922 37.396l24.326 17.883-2.836 8.867c-3.635 11.364-14.093 18.999-26.024 18.999h-14.126c-11.872 0-23.278 3.611-32.986 10.442l-63.434 44.631c-6.775 4.767-8.403 14.124-3.636 20.899 2.921 4.151 7.563 6.37 12.28 6.37 2.982 0 5.994-.887 8.619-2.734l63.434-44.632c4.627-3.256 10.063-4.977 15.723-4.977h14.126c25.032 0 46.974-16.019 54.599-39.859l6.017-18.811c.002-.005.003-.01.005-.014z" fill="#714c2f"/></g></g></svg>