<svg id="Capa_1" enable-background="new 0 0 512 512" height="512" viewBox="0 0 512 512" width="512" xmlns="http://www.w3.org/2000/svg"><g><path d="m303 15v472c0 8.28-6.72 15-15 15h-64c-8.28 0-15-6.72-15-15v-472c0-8.28 6.72-15 15-15h64c8.28 0 15 6.72 15 15z" fill="#bc8173"/><path d="m303 15v472c0 8.28-6.72 15-15 15h-32v-502h32c8.28 0 15 6.72 15 15z" fill="#865240"/><path d="m383 497c0 8.28-6.72 15-15 15h-224c-8.28 0-15-6.72-15-15s6.72-15 15-15h224c8.28 0 15 6.72 15 15z" fill="#bee75e"/><path d="m383 497c0 8.28-6.72 15-15 15h-112v-30h112c8.28 0 15 6.72 15 15z" fill="#57c126"/><path d="m506.49 139.62-49 40c-2.68 2.19-6.03 3.38-9.49 3.38h-288c-8.28 0-15-6.72-15-15v-80c0-8.28 6.72-15 15-15h288c3.46 0 6.81 1.19 9.49 3.38l49 40c7.339 5.993 7.344 17.242 0 23.24z" fill="#ffe278"/><path d="m506.49 139.62-49 40c-2.68 2.19-6.03 3.38-9.49 3.38h-192v-110h192c3.46 0 6.81 1.19 9.49 3.38l49 40c7.339 5.993 7.344 17.242 0 23.24z" fill="#ffb454"/><path d="m367 264v80c0 8.28-6.72 15-15 15h-288c-3.46 0-6.81-1.19-9.49-3.38l-49-40c-7.339-5.993-7.344-17.242 0-23.24l49-40c2.68-2.19 6.03-3.38 9.49-3.38h288c8.28 0 15 6.72 15 15z" fill="#ffe278"/><path d="m352 359h-96v-110h96c8.28 0 15 6.72 15 15v80c0 8.28-6.72 15-15 15z" fill="#ffb454"/></g></svg>