<svg id="Capa_1" enable-background="new 0 0 512.299 512.299" height="512" viewBox="0 0 512.299 512.299" width="512" xmlns="http://www.w3.org/2000/svg"><g><g><g><path d="m373.503 321.604h-234.707c-8.284 0-8.284-30 0-30h234.707c8.284 0 8.284 30 0 30z" fill="#00da80"/><path d="m373.503 291.604h-117.354v30h117.353c8.285 0 8.285-30 .001-30z" fill="#00a78e"/></g><g><path d="m373.503 223.648h-234.707c-8.284 0-8.284-30 0-30h234.707c8.284 0 8.284 30 0 30z" fill="#00da80"/><path d="m373.503 193.648h-117.354v30h117.353c8.285 0 8.285-30 .001-30z" fill="#00a78e"/></g></g><g><path d="m285.156 417.442c39.025-25.843 116.384-86.34 116.384-159.815 0-73.722-77.88-134.38-116.776-160.076 22.026-14.572 56.618-40.382 82.406-73.299 5.109-6.521 3.964-15.95-2.558-21.059-6.521-5.109-15.95-3.965-21.059 2.557-28.55 36.443-70.688 64.204-87.412 74.414-16.716-10.189-58.768-37.87-87.397-74.414-5.109-6.521-14.538-7.666-21.059-2.557-6.521 5.108-7.667 14.537-2.558 21.059 25.788 32.917 60.38 58.727 82.406 73.299-38.896 25.697-116.776 86.354-116.776 160.076 0 73.475 77.359 133.972 116.384 159.815-21.969 14.039-55.97 38.675-81.519 70.458-5.19 6.456-4.164 15.898 2.293 21.089 6.457 5.19 15.898 4.164 21.089-2.294 28.621-35.605 70.678-62.173 87.144-71.794 16.473 9.625 58.525 36.192 87.144 71.794 2.963 3.686 7.312 5.604 11.7 5.604 3.298 0 6.618-1.083 9.389-3.31 6.457-5.19 7.483-14.633 2.293-21.089-25.548-31.783-59.549-56.419-81.518-70.458zm-144.397-159.815c0-39.947 32.49-77.3 59.745-101.6 22.099-19.703 44.511-34.272 55.651-41.065 11.052 6.731 33.187 21.114 55.226 40.697 27.444 24.387 60.159 61.872 60.159 101.969 0 39.946-32.49 77.299-59.745 101.6-22.099 19.703-44.511 34.272-55.651 41.065-11.052-6.731-33.187-21.114-55.226-40.697-27.444-24.388-60.159-61.874-60.159-101.969z" fill="#0d8ebc"/><path d="m285.156 417.442c39.025-25.843 116.384-86.34 116.384-159.815 0-73.722-77.88-134.38-116.776-160.076 22.026-14.572 56.618-40.382 82.406-73.299 5.109-6.521 3.964-15.95-2.558-21.059-6.521-5.109-15.95-3.965-21.059 2.557-28.546 36.438-70.676 64.196-87.404 74.41v34.805c.002-.001.004-.003.006-.004 11.052 6.731 33.187 21.114 55.226 40.697 27.444 24.387 60.159 61.872 60.159 101.969 0 39.946-32.49 77.299-59.745 101.6-22.095 19.7-44.503 34.267-55.645 41.062v34.613c16.473 9.625 58.525 36.192 87.144 71.794 2.963 3.686 7.312 5.604 11.7 5.604 3.298 0 6.618-1.083 9.389-3.31 6.457-5.19 7.483-14.633 2.293-21.089-25.55-31.784-59.551-56.42-81.52-70.459z" fill="#0a617d"/></g></g></svg>