<svg id="Capa_1" enable-background="new 0 0 512 512" height="512" viewBox="0 0 512 512" width="512" xmlns="http://www.w3.org/2000/svg"><g><path d="m505.491 254.63c-5.932-4.039-13.671-3.315-18.726 1.404l-49.765 46.447v-35.115c0-5.042-2.339-9.894-6.506-12.733-5.931-4.042-13.672-3.318-18.729 1.401l-49.765 46.447v-35.12c0-5.043-2.342-9.895-6.511-12.733-5.932-4.038-13.668-3.313-18.723 1.405l-49.766 46.448v-45.058c0-5.602-2.898-10.927-7.823-13.597-6.077-3.295-13.496-2.019-18.121 2.915l-75 80c-2.605 2.78-4.056 6.448-4.056 10.259v145c0 16.569 13.431 30 30 30h30l45-20 45 20h30l45-20 45 20h45c8.284 0 15-6.716 15-15v-229.637c0-5.043-2.341-9.894-6.509-12.733z" fill="#ffe278"/><path d="m502.979 253.243c-5.478-2.381-11.847-1.285-16.213 2.791l-49.766 46.447v-35.481c0-5.973-3.544-11.377-9.021-13.757-5.477-2.381-11.846-1.285-16.213 2.791l-49.766 46.447v-35.481c0-5.973-3.544-11.377-9.021-13.757-1.925-.837-3.959-1.235-5.979-1.234v259.991h15l45-20 45 20h45c8.284 0 15-6.716 15-15v-230c0-5.973-3.544-11.377-9.021-13.757z" fill="#ffc178"/><path d="m437 402h-60c-8.284 0-15 6.716-15 15v95h30l15-10 15 10h30v-95c0-8.284-6.716-15-15-15z" fill="#0a617d"/><path d="m392 432h30v80h-30z" fill="#e2dff4"/><path d="m317 402h-60c-8.284 0-15 6.716-15 15v95h30l15-10 15 10h30v-95c0-8.284-6.716-15-15-15z" fill="#0d8ebc"/><path d="m272 432h30v80h-30z" fill="#f6f9f9"/><path d="m106 70c-8.284 0-15-6.716-15-15v-10c0-24.813 20.187-45 45-45h80c8.284 0 15 6.716 15 15s-6.716 15-15 15h-80c-8.271 0-15 6.729-15 15v10c0 8.284-6.716 15-15 15z" fill="#e2dff4"/><g><path d="m128.5 102h-45c-7.565 0-13.946 5.633-14.884 13.139l-5.858 46.861 43.242 20 43.242-20-5.858-46.861c-.938-7.506-7.319-13.139-14.884-13.139z" fill="#0d8ebc"/><path d="m128.5 102h-22.5v80l43.242-20-5.858-46.861c-.938-7.506-7.319-13.139-14.884-13.139z" fill="#0a617d"/><path d="m62.758 162-16.25 130h118.984l-16.25-130z" fill="#f6f9f9"/><path d="m106 292h59.492l-16.25-130h-43.242z" fill="#e2dff4"/></g><path d="m197 262h-182c-8.284 0-15 6.716-15 15v220c0 8.284 6.716 15 15 15h46l45-20 45 20h61v-235c0-8.284-6.716-15-15-15z" fill="#ffe278"/><path d="m197 262h-91v230l45 20h61v-235c0-8.284-6.716-15-15-15z" fill="#ffc178"/><path d="m136 352h-60c-8.284 0-15-6.716-15-15s6.716-15 15-15h60c8.284 0 15 6.716 15 15s-6.716 15-15 15z" fill="#0d8ebc"/><path d="m136 322h-30v30h30c8.284 0 15-6.716 15-15s-6.716-15-15-15z" fill="#0a617d"/><g><path d="m136 382h-60c-8.284 0-15 6.716-15 15v115h30l15-10 15 10h30v-115c0-8.284-6.716-15-15-15z" fill="#0d8ebc"/></g><path d="m136 382h-30v120l15 10h30v-115c0-8.284-6.716-15-15-15z" fill="#0a617d"/><path d="m91 412h30v100h-30z" fill="#f6f9f9"/><path d="m106 412h15v100h-15z" fill="#e2dff4"/></g></svg>