<svg id="Capa_1" enable-background="new 0 0 512 512" height="512" viewBox="0 0 512 512" width="512" xmlns="http://www.w3.org/2000/svg"><g><path d="m133.5 102h-55c-7.565 0-13.946 5.633-14.884 13.139l-5.858 46.861 48.242 20 48.242-20-5.858-46.861c-.938-7.506-7.319-13.139-14.884-13.139z" fill="#ffe278"/><path d="m133.5 102h-27.5v80l48.242-20-5.858-46.861c-.938-7.506-7.319-13.139-14.884-13.139z" fill="#ffc178"/><path d="m57.758 162-21.25 170h138.984l-21.25-170z" fill="#e2dff4"/><path d="m106 332h69.492l-21.25-170h-48.242z" fill="#bebcdd"/><path d="m466 202h-30l-15 20-15-20h-45l-15 20-15-20h-45l-15 20-15-20h-30c-8.284 0-15 6.716-15 15v100c0 8.284 6.716 15 15 15h240c8.284 0 15-6.716 15-15v-100c0-8.284-6.716-15-15-15z" fill="#0d8ebc"/><path d="m466 332c8.284 0 15-6.716 15-15v-100c0-8.284-6.716-15-15-15h-30l-15 20-15-20h-45l-15 20v110z" fill="#0a617d"/><path d="m421 272c-8.284 0-15-6.716-15-15v-55h30v55c0 8.284-6.716 15-15 15z" fill="#05303d"/><path d="m346 272c-8.284 0-15-6.716-15-15v-55h30v55c0 8.284-6.716 15-15 15z" fill="#0a617d"/><path d="m346 272c8.284 0 15-6.716 15-15v-55h-15z" fill="#05303d"/><path d="m271 272c-8.284 0-15-6.716-15-15v-55h30v55c0 8.284-6.716 15-15 15z" fill="#0a617d"/><path d="m497 302h-482c-8.284 0-15 6.716-15 15v180c0 8.284 6.716 15 15 15h286l75-20 75 20h46c8.284 0 15-6.716 15-15v-180c0-8.284-6.716-15-15-15z" fill="#f6f9f9"/><path d="m497 302h-121v210h75 46c8.284 0 15-6.716 15-15v-180c0-8.284-6.716-15-15-15z" fill="#e2dff4"/><path d="m436 362h-120c-8.284 0-15 6.716-15 15v135h30l15-10 15 10h30l15-10 15 10h30v-135c0-8.284-6.716-15-15-15z" fill="#0d8ebc"/><path d="m436 362h-60v150h15l15-10 15 10h30v-135c0-8.284-6.716-15-15-15z" fill="#0a617d"/><path d="m106 70c-8.284 0-15-6.716-15-15v-10c0-24.813 20.187-45 45-45h80c8.284 0 15 6.716 15 15s-6.716 15-15 15h-80c-8.271 0-15 6.729-15 15v10c0 8.284-6.716 15-15 15z" fill="#e2dff4"/><path d="m256 452h-60c-8.284 0-15-6.716-15-15v-60c0-8.284 6.716-15 15-15h60c8.284 0 15 6.716 15 15v60c0 8.284-6.716 15-15 15z" fill="#0d8ebc"/><path d="m211 392h30v30h-30z" fill="#ffe278"/><path d="m136 452h-60c-8.284 0-15-6.716-15-15v-60c0-8.284 6.716-15 15-15h60c8.284 0 15 6.716 15 15v60c0 8.284-6.716 15-15 15z" fill="#0d8ebc"/><path d="m91 392h30v30h-30z" fill="#ffe278"/><g fill="#ffc178"><path d="m331 392h30v120h-30z"/><path d="m391 392h30v120h-30z"/></g></g></svg>