<svg id="Capa_1" enable-background="new 0 0 512 512" height="512" viewBox="0 0 512 512" width="512" xmlns="http://www.w3.org/2000/svg"><g><path d="m380.18 505.75c-2.93 4.08-7.53 6.25-12.19 6.25-3.03 0-6.09-.92-8.74-2.82l-103.25-74.21-103.25 74.21c-2.65 1.9-5.71 2.82-8.74 2.82-4.66 0-9.26-2.17-12.19-6.25-4.84-6.72-3.3-16.09 3.43-20.93l95.05-68.32-95.05-68.32c-6.73-4.84-8.27-14.21-3.43-20.93 4.83-6.73 14.21-8.26 20.93-3.43l103.25 74.21 103.25-74.21c6.72-4.84 16.1-3.301 20.93 3.43 4.84 6.72 3.3 16.09-3.43 20.93l-95.05 68.32 95.05 68.32c6.73 4.84 8.27 14.21 3.43 20.93z" fill="#bc8173"/><path d="m380.18 505.75c-2.93 4.08-7.53 6.25-12.19 6.25-3.03 0-6.09-.92-8.74-2.82l-103.25-74.21v-36.94l103.25-74.21c6.72-4.84 16.1-3.301 20.93 3.43 4.84 6.72 3.3 16.09-3.43 20.93l-95.05 68.32 95.05 68.32c6.73 4.84 8.27 14.21 3.43 20.93z" fill="#865240"/><path d="m144 287c-8.284 0-15-6.716-15-15v-257c0-8.284 6.716-15 15-15s15 6.716 15 15v257c0 8.284-6.716 15-15 15z" fill="#bc8173"/><path d="m368 287c-8.284 0-15-6.716-15-15v-257c0-8.284 6.716-15 15-15s15 6.716 15 15v257c0 8.284-6.716 15-15 15z" fill="#865240"/><path d="m415 78v100c0 24.81-20.19 45-45 45h-229c-24.81 0-45-20.19-45-45v-100c0-24.81 20.19-45 45-45h229c24.81 0 45 20.19 45 45z" fill="#ffe278"/><path d="m439 304c0 25.92-21.08 47-47 47h-272c-25.92 0-47-21.08-47-47s21.08-47 47-47h272c25.92 0 47 21.08 47 47z" fill="#ffe278"/><g fill="#ffb454"><path d="m370 33h-114.5v190h114.5c24.81 0 45-20.19 45-45v-100c0-24.81-20.19-45-45-45z"/><path d="m392 257h-136v94h136c25.92 0 47-21.08 47-47s-21.08-47-47-47z"/></g></g></svg>