<svg id="Capa_1" enable-background="new 0 0 512 512" height="512" viewBox="0 0 512 512" width="512" xmlns="http://www.w3.org/2000/svg"><g><g><path d="m396.97 95.147-40.681-84.123c-5.751-11.893-21.435-14.766-30.995-5.648-67.874 64.73-64.622 225.013 71.676 225.013s139.55-160.284 71.676-225.013c-9.56-9.117-25.243-6.245-30.995 5.648z" fill="#7c8388"/><g><path d="m468.646 5.376c-9.56-9.117-25.243-6.245-30.995 5.648l-40.681 84.123v135.241c136.298.001 139.55-160.283 71.676-225.012z" fill="#676e74"/></g></g><g><path d="m115.03 376.758-40.681-84.123c-5.751-11.893-21.435-14.766-30.995-5.648-67.874 64.73-64.622 225.013 71.676 225.013s139.55-160.283 71.676-225.013c-9.56-9.117-25.243-6.245-30.995 5.648z" fill="#7c8388"/><g><path d="m186.706 286.987c-9.56-9.117-25.243-6.245-30.995 5.648l-40.681 84.123v135.242c136.298 0 139.55-160.283 71.676-225.013z" fill="#676e74"/></g></g></g></svg>