<?xml version="1.0" encoding="iso-8859-1"?>
<!-- Generator: Adobe Illustrator 19.0.0, SVG Export Plug-In . SVG Version: 6.00 Build 0)  -->
<svg version="1.1" id="Layer_1" xmlns="http://www.w3.org/2000/svg" xmlns:xlink="http://www.w3.org/1999/xlink" x="0px" y="0px"
	 viewBox="0 0 357.425 357.425" style="enable-background:new 0 0 357.425 357.425;" xml:space="preserve">
<g>
	<rect x="152.811" y="121.449" style="fill:#FDFADD;" width="51.807" height="74.869"/>
	<rect x="152.811" y="121.449" style="fill:#F4F1D7;" width="26.904" height="74.869"/>
	<path style="fill:#E27879;" d="M203.357,62.869c6.61,16.863-4.642,35.986-22.713,37.208c-0.638,0.043-1.282,0.065-1.931,0.065
		s-1.293-0.022-1.931-0.065c-18.071-1.222-29.323-20.345-22.713-37.208L178.714,0L203.357,62.869z"/>
	<path style="fill:#C76B6B;" d="M178.714,100.142c-0.649,0-1.293-0.022-1.931-0.065c-18.071-1.222-29.323-20.345-22.713-37.208
		L178.714,0V100.142z"/>
</g>
<path style="fill:#FAD0B0;" d="M29.575,357.425V226.818c0-20.158,16.342-36.5,36.5-36.5h225.277c20.158,0,36.5,16.342,36.5,36.5
	v130.607H29.575z"/>
<path style="fill:#EBC5A7;" d="M179.714,190.318H66.075c-20.158,0-36.5,16.342-36.5,36.5v130.607h150.139L179.714,190.318
	L179.714,190.318z"/>
<path style="fill:#E27879;" d="M327.853,357.425v-95.44c-5.523,0-10,4.477-10,10c0,10.933-8.895,19.828-19.828,19.828
	s-19.828-8.895-19.828-19.828c0-5.523-4.477-10-10-10s-10,4.477-10,10c0,10.933-8.895,19.828-19.828,19.828
	s-19.828-8.895-19.828-19.828c0-5.523-4.477-10-10-10s-10,4.477-10,10c0,10.933-8.895,19.828-19.828,19.828
	s-19.828-8.895-19.828-19.828c0-5.523-4.477-10-10-10s-10,4.477-10,10c0,10.933-8.895,19.828-19.828,19.828
	s-19.828-8.895-19.828-19.828c0-5.523-4.477-10-10-10c-5.523,0-10,4.477-10,10c0,10.933-8.895,19.828-19.828,19.828
	s-19.828-8.895-19.828-19.828c0-5.523-4.477-10-10-10v95.44h149.139H327.853z"/>
<path style="fill:#C76B6B;" d="M178.714,291.813c-10.933,0-19.828-8.895-19.828-19.828c0-5.523-4.477-10-10-10s-10,4.477-10,10
	c0,10.933-8.895,19.828-19.828,19.828s-19.828-8.895-19.828-19.828c0-5.523-4.477-10-10-10c-5.523,0-10,4.477-10,10
	c0,10.933-8.895,19.828-19.828,19.828s-19.828-8.895-19.828-19.828c0-5.523-4.477-10-10-10v95.44h149.139L178.714,291.813
	L178.714,291.813z"/>
<g>
</g>
<g>
</g>
<g>
</g>
<g>
</g>
<g>
</g>
<g>
</g>
<g>
</g>
<g>
</g>
<g>
</g>
<g>
</g>
<g>
</g>
<g>
</g>
<g>
</g>
<g>
</g>
<g>
</g>
</svg>
