<svg id="Capa_1" enable-background="new 0 0 512.002 512.002" height="512" viewBox="0 0 512.002 512.002" width="512" xmlns="http://www.w3.org/2000/svg"><g><path d="m396.718 53.504-17.11-17.11c-5.858-5.858-15.355-5.858-21.213 0-5.858 5.857-5.858 15.354 0 21.213l17.11 17.11c5.856 5.857 15.354 5.859 21.213 0 5.857-5.857 5.857-15.354 0-21.213z" fill="#ff6378"/><path d="m429.917 22.704-18.31-18.31c-5.858-5.857-15.355-5.857-21.213 0-5.857 5.858-5.857 15.355 0 21.213l18.31 18.31c5.859 5.859 15.355 5.858 21.213 0 5.858-5.859 5.858-15.356 0-21.213z" fill="#ff6378"/><path d="m475.608 132.394-17.11-17.11c-5.857-5.858-15.355-5.858-21.213 0-5.858 5.857-5.858 15.354 0 21.213l17.11 17.11c5.856 5.857 15.354 5.859 21.213 0 5.857-5.858 5.857-15.355 0-21.213z" fill="#e20059"/><path d="m507.607 100.394-18.31-18.31c-5.857-5.857-15.355-5.857-21.213 0-5.857 5.858-5.857 15.355 0 21.213l18.31 18.31c5.859 5.859 15.355 5.858 21.213 0s5.858-15.356 0-21.213z" fill="#e20059"/><path d="m320.231 336.52c-18.36 14.67-31.2 36.06-36.14 60.25-13.812 67.58-74.6 115.23-140.09 115.23-77.13 0-144-65.7-144-144 0-65.366 47.536-126.25 115.23-140.09 24.19-4.94 45.58-17.78 60.25-36.14 38.28-47.955 109.605-52.165 153.26-8.51h.01c43.496 43.497 39.631 114.824-8.52 153.26z" fill="#ffe278"/><path d="m328.751 183.26c43.496 43.497 39.631 114.824-8.52 153.26-18.36 14.67-31.2 36.06-36.14 60.25-5.61 27.45-19.09 52.46-38.97 72.35-57.155 57.134-145.002 57.217-202.24 0 289.137-289.137 285.77-285.86 285.87-285.86z" fill="#ffb454"/><path d="m451.611 121.61-265 265c-5.824 5.825-15.339 5.882-21.22 0l-40-40c-5.85-5.86-5.85-15.36 0-21.22l265-265c5.86-5.85 15.36-5.85 21.22 0l40 40c5.85 5.86 5.85 15.36 0 21.22z" fill="#bc8173"/><path d="m451.611 121.61-265 265c-5.824 5.825-15.339 5.882-21.22 0l-20-20 286.22-286.22 20 20c5.85 5.86 5.85 15.36 0 21.22z" fill="#865240"/><path d="m239.001 336c0 35.05-28.381 62.97-63 62.97-34.627 0-63-27.934-63-62.97 0-16.83 6.55-32.65 18.45-44.55 24.57-24.56 64.53-24.56 89.1 0 11.9 11.901 18.45 27.72 18.45 44.55z" fill="#ffb454"/><path d="m239.001 336c0 35.05-28.381 62.97-63 62.97-16.13 0-32.26-6.14-44.55-18.42l89.1-89.1c11.9 11.901 18.45 27.72 18.45 44.55z" fill="#ff8659"/><path d="m138.611 442.61c-5.824 5.825-15.339 5.882-21.22 0l-48-48c-5.85-5.86-5.85-15.36 0-21.22 5.86-5.85 15.36-5.85 21.22 0l48 48c5.85 5.86 5.85 15.36 0 21.22z" fill="#bc8173"/><path d="m138.611 421.391c9.41 9.426 2.705 25.61-10.61 25.61-3.84 0-7.68-1.46-10.61-4.39l-24-24 21.22-21.22z" fill="#865240"/><path d="m511.641 42.25-4.14 18.65c-8.503 38.265-33.48 70.36-68.68 87.96l-28.93 14.47c-7.453-7.453-53.762-53.762-61.22-61.22l14.47-28.93c17.56-35.13 49.62-60.16 87.96-68.68l18.65-4.14c5-1.12 10.23.41 13.86 4.03l24 24c3.62 3.63 5.15 8.86 4.03 13.86z" fill="#ffe278"/><path d="m511.641 42.25-4.14 18.65c-8.503 38.265-33.48 70.36-68.68 87.96l-28.93 14.47-30.61-30.61 116.33-116.33 12 12c3.62 3.63 5.15 8.86 4.03 13.86z" fill="#ffb454"/></g></svg>