<svg id="Capa_1" enable-background="new 0 0 512 512" height="512" viewBox="0 0 512 512" width="512" xmlns="http://www.w3.org/2000/svg"><g><path d="m305.68 448.865c-1.108 6.508-6.332 11.328-12.18 12.26-12.168 2.132-24.272 3.681-36.14 4.77-.893.079-1.801.082-2.72 0-81.428-7.408-160.769-36.151-203.09-105.71-28.17-46.3-26.62-89.96-26.54-91.79.35-8.02 6.96-14.35 14.99-14.35h120c6.65 0 12.51 4.38 14.39 10.77.25.83 24.42 80.83 81.61 136.521 12.761 12.439 26.915 23.364 42.22 31.93 5.53 3.099 8.52 9.338 7.46 15.599z" fill="#ff6378"/><path d="m464.89 352.475c-34.564 63.541-99.581 95.883-170.81 108.54-.785.165-1.533.265-2.48.311 0 .379-29.858 4.63-35.6 4.63v-64.62c57.38-55.82 81.36-135.68 81.61-136.521 1.88-6.39 7.74-10.77 14.39-10.77h120c8.03 0 14.64 6.33 14.99 14.35.07 1.64 1.47 40.72-22.1 84.08z" fill="#e20059"/><path d="m152.013 220.046c-4.681 0-9.29-2.183-12.218-6.281l-61.4-85.95c-4.816-6.741-3.255-16.109 3.485-20.925 6.741-4.816 16.108-3.256 20.925 3.485l61.4 85.95c7.124 9.971-.125 23.721-12.192 23.721z" fill="#865240"/><path d="m40.008 220.049c-9.983 0-17.163-9.564-14.431-19.125l23.21-81.22c2.276-7.967 10.586-12.576 18.544-10.302 7.966 2.276 12.578 10.579 10.302 18.544l-23.21 81.22c-1.883 6.589-7.889 10.883-14.415 10.883z" fill="#865240"/><path d="m359.987 220.046c-12.063 0-19.32-13.745-12.192-23.721l61.4-85.95c4.816-6.739 14.183-8.303 20.925-3.485 6.74 4.815 8.302 14.184 3.485 20.925l-61.4 85.95c-2.928 4.097-7.538 6.281-12.218 6.281z" fill="#5c381f"/><path d="m471.992 220.049c-6.527 0-12.532-4.294-14.415-10.883l-23.21-81.22c-2.276-7.965 2.336-16.268 10.302-18.544 7.96-2.277 16.267 2.335 18.544 10.302l23.21 81.22c2.732 9.56-4.447 19.125-14.431 19.125z" fill="#5c381f"/><path d="m72 140.045c-25.916 0-47-21.084-47-47s21.084-47 47-47 47 21.084 47 47-21.084 47-47 47zm0-64c-9.374 0-17 7.626-17 17s7.626 17 17 17 17-7.626 17-17-7.626-17-17-17z" fill="#bc8173"/><path d="m440 140.045c-25.916 0-47-21.084-47-47s21.084-47 47-47 47 21.084 47 47-21.084 47-47 47zm0-64c-9.374 0-17 7.626-17 17s7.626 17 17 17 17-7.626 17-17-7.626-17-17-17z" fill="#865240"/><path d="m184 190.045h-169c-8.284 0-15 6.716-15 15v64c0 8.284 6.716 15 15 15h169c8.284 0 15-6.716 15-15v-64c0-8.284-6.716-15-15-15z" fill="#bee75e"/><path d="m497 190.045h-169c-8.284 0-15 6.716-15 15v64c0 8.284 6.716 15 15 15h169c8.284 0 15-6.716 15-15v-64c0-8.284-6.716-15-15-15z" fill="#57c126"/></g></svg>