<svg id="Capa_1" enable-background="new 0 0 512.011 512.011" height="512" viewBox="0 0 512.011 512.011" width="512" xmlns="http://www.w3.org/2000/svg"><g><path d="m335.011 128.006v328c0 8.28-6.72 15-15 15h-128c-8.28 0-15-6.72-15-15v-328c0-2.72.74-5.39 2.14-7.72l24-40c2.71-4.521 7.59-7.28 12.86-7.28h80c5.27 0 10.15 2.76 12.86 7.28l24 40c1.4 2.33 2.14 5 2.14 7.72z" fill="#e2dff4"/><path d="m335.011 128.006v328c0 8.28-6.72 15-15 15h-64v-398h40c5.27 0 10.15 2.76 12.86 7.28l24 40c1.4 2.33 2.14 5 2.14 7.72z" fill="#bebcdd"/><path d="m192.011 168.006h128v64h-128z" fill="#bc8173"/><path d="m256.011 168.006h64v64h-64z" fill="#865240"/><path d="m192.011 312.006h128v64h-128z" fill="#bc8173"/><path d="m256.011 312.006h64v64h-64z" fill="#865240"/><path d="m256.011 103.006h-31.51l-23.935 5.785 6.445 23.365v334.85c0 24.81-20.19 45-45 45h-20c-24.81 0-45-20.19-45-45v-331.03c0-1.328.059-2.652.176-3.97l65.631-47.331 7.962-78.535c6.773-3.95 14.564-6.134 22.642-6.134h62.59l32 60.203z" fill="#ff6378"/><path d="m415.011 135.975v331.03c0 24.81-20.19 45-45 45h-20c-24.81 0-45-20.19-45-45v-334.85l4.487-22.55-21.977-6.601h-31.51v-103h62.59c7.945 0 15.767 2.127 22.644 6.131l1.807 66.869 71.788 58.999c.114 1.31.171 2.633.171 3.972z" fill="#e20059"/><path d="m146.662 189.443c-5.834-5.883-15.332-5.92-21.213-.088l-121 120c-9.515 9.436-2.733 25.65 10.562 25.65 3.818 0 7.638-1.449 10.563-4.35l121-120c5.882-5.832 5.922-15.33.088-21.212z" fill="#bc8173"/><path d="m146.662 333.443c-5.834-5.883-15.332-5.92-21.213-.088l-121 120c-9.515 9.436-2.733 25.65 10.562 25.65 3.818 0 7.638-1.449 10.563-4.35l121-120c5.882-5.832 5.922-15.33.088-21.212z" fill="#bc8173"/><path d="m507.574 309.355-121-120c-5.88-5.834-15.378-5.794-21.213.088-5.834 5.882-5.794 15.38.088 21.213l121 120c5.878 5.83 15.376 5.798 21.213-.088 5.834-5.882 5.794-15.38-.088-21.213z" fill="#865240"/><path d="m507.574 453.355-121-120c-5.88-5.833-15.378-5.794-21.213.088-5.834 5.882-5.794 15.38.088 21.213l121 120c5.878 5.83 15.376 5.798 21.213-.088 5.834-5.882 5.794-15.38-.088-21.213z" fill="#865240"/><path d="m97.191 132.006h109.91c8.521-14.202 10.12-16.867 17.4-29l-53.73-96.88c-.557.271-2.685 1.689-3.62 2.36-5.268 3.763-9.629 8.656-12.81 14.21-54.803 96.961-51.693 91.433-52.15 92.31-2.937 5.706-4.5 11.271-5 17z" fill="#f9f9f9"/><path d="m414.832 132.006h-109.91c-8.521-14.202-10.12-16.867-17.4-29l53.73-96.88c.557.271 2.685 1.689 3.62 2.36 5.268 3.763 9.629 8.656 12.81 14.21 54.803 96.961 51.693 91.433 52.15 92.31 2.937 5.706 4.499 11.271 5 17z" fill="#e2dff4"/></g></svg>