<svg id="Capa_1" enable-background="new 0 0 512.251 512.251" height="512" viewBox="0 0 512.251 512.251" width="512" xmlns="http://www.w3.org/2000/svg"><g><path d="m503.299 112.095c-.151.303 2.601-4.639-50.15 89.88-58.85 105.45-145.69 192.29-251.14 251.14l-89.59 50c-9.75 5.432-22.829 9.1-36.09 9.1-56.038 0-94.743-60.198-67.29-112.04.151-.303-2.601 4.639 50.15-89.88 58.85-105.45 145.69-192.29 251.14-251.14l89.59-50c27.66-15.408 65.003-11.577 89.91 13.32 23.82 23.83 29.24 59.84 13.47 89.62z" fill="#ffe278"/><path d="m503.299 112.095c-.151.303 2.601-4.639-50.15 89.88-58.85 105.45-145.69 192.29-251.14 251.14l-89.59 50c-27.063 15.076-64.571 12.019-89.91-13.32l467.32-467.32c23.82 23.83 29.24 59.84 13.47 89.62z" fill="#ffb454"/><path d="m333.56 263.955-69.57 69.57c-17.585 17.585-46.05 17.59-63.64 0-7.475-7.474-13.908-13.908-21.57-21.57-17.55-17.55-17.55-46.09 0-63.64l69.57-69.57c17.585-17.585 46.05-17.59 63.64 0l21.57 21.57c17.549 17.55 17.549 46.09 0 63.64z" fill="#ffb454"/><path d="m333.56 263.955-69.57 69.57c-17.585 17.585-46.05 17.59-63.64 0l-10.78-10.78 133.21-133.21 10.78 10.78c17.549 17.55 17.549 46.09 0 63.64z" fill="#ff8659"/><path d="m418.779 418.745c-5.822 5.823-15.337 5.883-21.22 0l-304-304c-5.85-5.86-5.85-15.36 0-21.22 5.86-5.85 15.36-5.85 21.22 0l304 304c5.85 5.86 5.85 15.36 0 21.22z" fill="#2e5292"/><path d="m418.779 418.745c-5.822 5.823-15.337 5.883-21.22 0l-152-152 21.22-21.22 152 152c5.85 5.86 5.85 15.36 0 21.22z" fill="#20396f"/><path d="m74.858 4.611c-5.84-5.93-15.403-5.974-21.295-.083l-49 49c-5.879 5.879-5.861 15.442.082 21.295l43.788 43.114c17.535 17.266 45.974 17.172 63.394-.247l5.899-5.9c17.411-17.41 17.521-45.848.246-63.392z" fill="#ff6378"/><path d="m507.694 437.446-43.788-43.114c-17.544-17.274-45.981-17.165-63.394.247-.127.127-6.003 6.003-5.899 5.9-17.411 17.41-17.521 45.848-.246 63.392l43.114 43.788c5.84 5.93 15.403 5.974 21.295.083l49-49c5.879-5.88 5.861-15.443-.082-21.296z" fill="#e20059"/></g></svg>