<svg id="Capa_1" enable-background="new 0 0 512 512" height="512" viewBox="0 0 512 512" width="512" xmlns="http://www.w3.org/2000/svg"><g><path d="m255.99 416c-79.66 0-136.678-76.925-113.59-153.12l33.6-110.88h160l33.6 110.88c23.149 76.352-34.107 153.12-113.61 153.12z" fill="#ffe278"/><path d="m255.99 416v-264h80.01l33.6 110.88c23.149 76.352-34.107 153.12-113.61 153.12z" fill="#ffb454"/><path d="m399 448v49c0 8.28-6.72 15-15 15h-256c-8.28 0-15-6.72-15-15v-49c0-8.28 6.72-15 15-15h17.37c10.59 0 20.54-4.12 28.02-11.61 13.13-13.13 30.59-20.37 49.15-20.39h66.83c18.6 0 36.09 7.24 49.24 20.39 7.48 7.49 17.43 11.61 28.02 11.61h17.37c8.28 0 15 6.72 15 15z" fill="#20396f"/><path d="m399 448v49c0 8.28-6.72 15-15 15h-128.01v-111h33.38c18.6 0 36.09 7.24 49.24 20.39 7.48 7.49 17.43 11.61 28.02 11.61h17.37c8.28 0 15 6.72 15 15z" fill="#142349"/><path d="m295.07 16.79c-10.756-11.126-24.745-16.79-39.08-16.79-30.318 0-54.99 25.521-54.99 56 0 25.13 16.94 46.36 40 52.9v43.1c0 8.279 6.715 15 15 15 8.28 0 15-6.72 15-15v-43.1c40.063-11.362 53.602-61.543 24.07-92.11zm-39.07 64.21c-13.723 0-25-11.139-25-25 0-14.1 11.456-26 25-26 13.55 0 25 11.91 25 26 0 13.79-11.21 25-25 25z" fill="#2e5292"/><path d="m311 56c0 25.13-16.94 46.36-40 52.9v43.1c0 8.239-6.676 15-15.01 15 0-86.891-.09-86 .01-86 13.79 0 25-11.21 25-25 0-14.09-11.45-26-25-26-.1 0-.01.379-.01-30 30.706 0 55.01 25.902 55.01 56z" fill="#20396f"/><path d="m256.03 344c-40.053 0-64.332-47.589-35.16-78.86 4.67-5 12.86-4.3 16.55 1.46 7.27 11.37 14.58 13.45 14.58 13.45s1.65-.53 3.99-2.27c4.67-3.45 12.1-11.67 14.9-29.98 1.12-7.35 10.43-9.89 15.23-4.22 9.75 11.5 17.3 29.12 17.85 50.01.71 27.25-20.68 50.4-47.94 50.41z" fill="#ff6378"/><path d="m256.03 344c-.1 0-.04 3.171-.04-66.22 4.67-3.45 12.1-11.67 14.9-29.98 1.12-7.35 10.43-9.89 15.23-4.22 9.75 11.5 17.3 29.12 17.85 50.01.71 27.25-20.68 50.4-47.94 50.41z" fill="#e20059"/><path d="m383.95 258.53-33.59-110.88c-1.92-6.32-7.75-10.65-14.36-10.65h-160c-6.61 0-12.44 4.33-14.36 10.65l-33.59 110.88c-26.061 85.934 38.188 172.47 127.95 172.47 89.778 0 154.013-86.532 127.95-172.47zm-37.86 90.17-15.48-15.31c-2.82-2.81-6.63-4.39-10.61-4.39h-128c-3.98 0-7.79 1.58-10.61 4.39l-15.44 15.37c-14.21-24.68-17.61-53.77-9.19-81.53l30.37-100.23h137.74l30.37 100.23c8.41 27.74 5.03 56.81-9.15 81.47z" fill="#2e5292"/><path d="m255.99 431v-102h64.01c3.98 0 7.79 1.58 10.61 4.39l15.48 15.31c14.18-24.66 17.56-53.73 9.15-81.47l-30.37-100.23h-68.88v-30h80.01c6.61 0 12.44 4.33 14.36 10.65l33.59 110.88c26.052 85.902-38.156 172.47-127.96 172.47z" fill="#20396f"/><path d="m383 152c0 8.28-6.72 15-15 15h-224c-8.28 0-15-6.72-15-15s6.72-15 15-15h224c8.28 0 15 6.72 15 15z" fill="#20396f"/><path d="m383 152c0 8.28-6.72 15-15 15h-112.01v-30h112.01c8.28 0 15 6.72 15 15z" fill="#142349"/></g></svg>