<svg id="Capa_1" enable-background="new 0 0 512.003 512.003" height="512" viewBox="0 0 512.003 512.003" width="512" xmlns="http://www.w3.org/2000/svg"><g><path d="m500.642 470.548c-7.923 2.014-16.168-2.809-18.19-10.91-15.29-61.14-76.79-260.64-226.45-260.64s-211.16 199.5-226.45 260.64c-2.01 8.03-10.15 12.92-18.19 10.91-8.03-2.01-12.92-10.15-10.91-18.19 32.168-128.646 107.916-272.38 240.55-282.76v-34.6c0-8.28 6.72-15 15-15s15 6.72 15 15v34.6c132.888 10.4 208.5 154.585 240.55 282.76 2.01 8.04-2.881 16.18-10.91 18.19z" fill="#2e5292"/><path d="m500.642 470.548c-7.923 2.014-16.168-2.809-18.19-10.91-15.29-61.14-76.79-260.64-226.45-260.64v-79c8.28 0 15 6.72 15 15v34.6c132.582 10.376 208.376 154.09 240.55 282.76 2.01 8.04-2.881 16.18-10.91 18.19z" fill="#20396f"/><path d="m335.652 134.998h-94.65v-79c0-8.28 6.72-15 15-15h80c10.931 0 18.55 11.47 13.29 21.96l-12.52 25.04 12.65 25.29c4.878 9.756-1.903 21.71-13.77 21.71z" fill="#ff6378"/><path d="m335.652 134.998h-79.65v-94h80c10.931 0 18.55 11.47 13.29 21.96l-12.52 25.04 12.65 25.29c4.878 9.756-1.903 21.71-13.77 21.71z" fill="#e20059"/><path d="m447.002 455.998c0 8.28-6.72 15-15 15h-352c-8.28 0-15-6.72-15-15 0-52.26 21.01-122.87 53.52-179.88 39.39-69.08 88.22-107.12 137.48-107.12 108.809 0 191 184.516 191 287z" fill="#bee75e"/><path d="m447.002 455.998c0 8.28-6.72 15-15 15h-176v-302c108.809 0 191 184.516 191 287z" fill="#57c126"/><path d="m412.292 470.998h-312.581c4.836-3.695 35.869-27.414 35.97-27.48 66.31-44.21 105.38-197.62 105.77-199.16 1.67-6.67 7.67-11.36 14.55-11.36s12.88 4.69 14.55 11.36c.39 1.54 39.46 154.95 105.77 199.16.101.066 31.452 24.027 35.971 27.48z" fill="#57c126"/><path d="m412.292 470.998h-156.29v-238c6.88 0 12.88 4.69 14.55 11.36.39 1.54 39.46 154.95 105.77 199.16.1.066 31.451 24.027 35.97 27.48z" fill="#009859"/></g></svg>