<svg id="Capa_1" enable-background="new 0 0 512 512" height="512" viewBox="0 0 512 512" width="512" xmlns="http://www.w3.org/2000/svg"><g><path d="m459.71 246.63c-59.92-74.9-60.71-230.08-60.71-231.63 0-8.28-6.72-15-15-15h-64c-5.04 0-9.74 2.53-12.52 6.74-51.668 78.304-51.48 77.923-51.48 78.023l-51.479-78.024c-2.777-4.207-7.48-6.739-12.521-6.739h-64c-8.28 0-14.995 6.715-15 14.996-.001 1.559-.79 156.73-60.713 231.634-2.128 2.659-3.287 5.964-3.287 9.37v241c0 8.284 6.716 15 15 15h384c8.28 0 15-6.72 15-15v-241c0-3.41-1.16-6.71-3.29-9.37z" fill="#ffe278"/><path d="m463 256v241c0 8.28-6.72 15-15 15h-192v-427.24l51.48-78.02c2.78-4.21 7.48-6.74 12.52-6.74h64c8.28 0 15 6.72 15 15 0 1.55.79 156.73 60.71 231.63 2.13 2.66 3.29 5.96 3.29 9.37z" fill="#ffb454"/><path d="m360 239h-48c-8.284 0-15-6.716-15-15s6.716-15 15-15h48c8.284 0 15 6.716 15 15s-6.716 15-15 15z" fill="#865240"/><path d="m200 239h-48c-8.284 0-15-6.716-15-15s6.716-15 15-15h48c8.284 0 15 6.716 15 15s-6.716 15-15 15z" fill="#bc8173"/><path d="m360 415h-48c-8.284 0-15-6.716-15-15s6.716-15 15-15h48c8.284 0 15 6.716 15 15s-6.716 15-15 15z" fill="#865240"/><path d="m200 415h-48c-8.284 0-15-6.716-15-15s6.716-15 15-15h48c8.284 0 15 6.716 15 15s-6.716 15-15 15z" fill="#bc8173"/><path d="m327 192v64c0 8.28-6.72 15-15 15h-112c-8.28 0-15-6.72-15-15v-64c0-8.28 6.72-15 15-15h112c8.28 0 15 6.72 15 15z" fill="#ff6378"/><path d="m327 192v64c0 8.28-6.72 15-15 15h-56v-94h56c8.28 0 15 6.72 15 15z" fill="#e20059"/><path d="m327 368v64c0 8.28-6.72 15-15 15h-112c-8.28 0-15-6.72-15-15v-64c0-8.28 6.72-15 15-15h112c8.28 0 15 6.72 15 15z" fill="#ff6378"/><path d="m327 368v64c0 8.28-6.72 15-15 15h-56v-94h56c8.28 0 15 6.72 15 15z" fill="#e20059"/></g></svg>