<svg id="Capa_1" enable-background="new 0 0 512.022 512.022" height="512" viewBox="0 0 512.022 512.022" width="512" xmlns="http://www.w3.org/2000/svg"><g><path d="m494.087 81.288-161 32c-7.02 1.395-12.076 7.555-12.076 14.712v369c0 8.285 6.722 15 15 15 2.178 0-8.599 2.002 163.924-32.288 7.02-1.395 12.076-7.555 12.076-14.712v-369c0-9.448-8.65-16.557-17.924-14.712z" fill="#5c381f"/><path d="m173.087 81.288-161 32c-7.02 1.395-12.076 7.555-12.076 14.712v369c0 8.285 6.722 15 15 15 2.178 0-8.599 2.002 163.924-32.288 7.02-1.395 12.076-7.555 12.076-14.712v-369c0-9.448-8.651-16.557-17.924-14.712z" fill="#865240"/><path d="m336.011 112.7v399.3c-2.241 0 7.705 1.841-160-31.7v-399.3c2.241 0-7.705-1.841 160 31.7z" fill="#bc8173"/><path d="m336.011 112.7v399.3c-2.129 0 4.181 1.134-80-15.7v-399.6z" fill="#865240"/><path d="m245.161 106.43-55.33 131.39c-5.142 12.218-22.5 12.214-27.64 0l-55.33-131.39c-20.661-49.108 14.293-106.43 69.15-106.43 54.906 0 89.793 57.383 69.15 106.43z" fill="#bee75e"/><path d="m245.161 106.43-55.33 131.39c-2.34 5.56-7.78 9.18-13.82 9.18v-247c54.906 0 89.793 57.383 69.15 106.43z" fill="#57c126"/><path d="m191.011 80c0 11.884-13.253 19.116-23.33 12.47-10.186-6.865-8.557-22.738 3.97-26.82 9.886-2.948 19.36 4.527 19.36 14.35z" fill="#ffe278"/><path d="m191.011 80c0 8.245-6.704 15-15 15v-30c8.353.021 15 6.81 15 15z" fill="#ffb454"/><path d="m290.621 389.39c9.41 9.426 2.705 25.61-10.61 25.61-3.84 0-7.68-1.46-10.61-4.39l-13.39-13.4-13.39 13.4c-2.93 2.93-6.77 4.39-10.61 4.39-13.311 0-20.024-16.18-10.61-25.61l13.4-13.39-13.4-13.39c-5.85-5.86-5.85-15.36 0-21.22 5.86-5.85 15.36-5.85 21.22 0l13.39 13.4 13.39-13.4c5.86-5.85 15.36-5.85 21.22 0 5.85 5.86 5.85 15.36 0 21.22l-13.4 13.39z" fill="#ff6378"/><path d="m290.621 389.39c9.41 9.426 2.705 25.61-10.61 25.61-3.84 0-7.68-1.46-10.61-4.39l-13.39-13.4v-42.42l13.39-13.4c5.86-5.85 15.36-5.85 21.22 0 5.85 5.86 5.85 15.36 0 21.22l-13.4 13.39z" fill="#e20059"/><path d="m445.224 216 13.394-13.394c5.858-5.857 5.858-15.355 0-21.213-5.857-5.857-15.355-5.857-21.213 0l-13.394 13.394-13.394-13.394c-5.857-5.857-15.355-5.857-21.213 0s-5.858 15.355 0 21.213l13.394 13.394-13.394 13.394c-5.858 5.857-5.858 15.355 0 21.213s15.355 5.858 21.213 0l13.394-13.394 13.394 13.394c5.858 5.858 15.355 5.858 21.213 0 5.858-5.857 5.858-15.355 0-21.213z" fill="#ffb454"/></g></svg>