<svg id="Capa_1" enable-background="new 0 0 512.031 512.031" height="512" viewBox="0 0 512.031 512.031" width="512" xmlns="http://www.w3.org/2000/svg"><g><g><g><g><path d="m159.22 393.518c-5.268 0-10.378-2.78-13.121-7.71-4.028-7.239-1.424-16.373 5.815-20.4l193.619-107.728c7.241-4.028 16.374-1.423 20.401 5.814 4.028 7.239 1.424 16.373-5.815 20.4l-193.62 107.729c-2.309 1.285-4.812 1.895-7.279 1.895z" fill="#d5d3ea"/><path d="m365.933 263.495c-4.027-7.237-13.16-9.843-20.401-5.814l-89.516 49.806v34.33l104.102-57.921c7.239-4.028 9.843-13.162 5.815-20.401z" fill="#bebcdd"/></g><g><path d="m352.811 393.518c-2.468 0-4.97-.61-7.279-1.896l-193.619-107.726c-7.239-4.027-9.843-13.161-5.815-20.4s13.161-9.843 20.401-5.814l193.619 107.728c7.239 4.027 9.843 13.161 5.815 20.4-2.743 4.928-7.854 7.708-13.122 7.708z" fill="#e2dff4"/><path d="m360.118 365.408-104.102-57.922v34.33l89.516 49.806c2.309 1.285 4.811 1.896 7.279 1.896 5.268 0 10.378-2.78 13.122-7.71 4.028-7.239 1.424-16.373-5.815-20.4z" fill="#d5d3ea"/></g></g><g><g><g><path d="m151.5 453.516c-24.813 0-45-20.186-45-45s20.187-45 45-45 45 20.186 45 45-20.188 45-45 45z" fill="#0d8ebc"/><path d="m151.5 363.516c-.001 0-.001 0 0 0v90c24.813 0 45-20.186 45-45s-20.188-45-45-45z" fill="#0a617d"/></g><g><circle cx="151.499" cy="408.516" fill="#e2dff4" r="15.07"/><path d="m151.499 393.445v30.14c8.323 0 15.07-6.747 15.07-15.07s-6.747-15.07-15.07-15.07z" fill="#d5d3ea"/></g></g><g><g><path d="m360.532 453.516c-24.813 0-45-20.186-45-45s20.187-45 45-45 45 20.186 45 45-20.187 45-45 45z" fill="#0d8ebc"/><path d="m360.532 363.516v90c24.813 0 45-20.186 45-45s-20.187-45-45-45z" fill="#0a617d"/></g><g><circle cx="360.531" cy="408.516" fill="#e2dff4" r="15.07"/><path d="m360.531 393.445v30.14c8.323 0 15.07-6.747 15.07-15.07s-6.747-15.07-15.07-15.07z" fill="#d5d3ea"/></g></g></g></g><g><g><path d="m497.016 286.822h-482c-8.284 0-15-6.716-15-15v-67.779h512v67.779c0 8.285-6.716 15-15 15z" fill="#00da80"/><path d="m512.016 204.043h-256v82.779h241c8.284 0 15-6.716 15-15z" fill="#00a78e"/></g><g><path d="m466.603 133.115h-436.587v-59.6c0-8.284-6.716-15-15-15s-15 6.716-15 15l-.016 150.936h512.031v-45.908c0-25.089-20.338-45.428-45.428-45.428zm-345.587 61.336h-91.016v-19.787c.002-.104.016-.205.016-.309v-11.239h91zm120 0h-90v-31.336h90zm120 0h-90v-31.336h90zm121.015 0h-91.016v-31.336h75.588c8.521 0 15.428 6.907 15.428 15.428z" fill="#e2dff4"/><path d="m466.603 133.115h-210.587v91.336h256.016v-45.908c-.001-25.089-20.339-45.428-45.429-45.428zm-105.587 61.336h-90v-31.336h90zm121.015 0h-91.016v-31.336h75.588c8.521 0 15.428 6.907 15.428 15.428z" fill="#d5d3ea"/></g></g></g></svg>