<svg id="Capa_1" enable-background="new 0 0 512.006 512.006" height="512" viewBox="0 0 512.006 512.006" width="512" xmlns="http://www.w3.org/2000/svg"><g><path d="m219.592 434.854c-23.483 25.368-63.725 25.38-87.22 0-11.22-12.11-16.93-28.5-15.67-44.96l9.09-118.15c.29-3.74 1.97-7.23 4.7-9.79 4.06-3.81 7.521-4.01 15.1-4.45 20.184-1.151 44.707-1.12 66.57.28 7.46.48 13.42 6.37 14 13.82l9.1 118.29c1.26 16.46-4.45 32.85-15.67 44.96z" fill="#bc8173"/><path d="m175.982 453.904v-197.22c10.4 0 22.9.25 36.18 1.1 7.46.48 13.42 6.37 14 13.82l9.1 118.29c2.64 34.495-24.682 64.01-59.28 64.01z" fill="#865240"/><path d="m269.832 295.024c-61.497-11.178-124.015-11.21-185.63 0-54.739 9.897-99.001-44.381-77.89-95.92 29.517-72.013 91.959-142.554 169.67-143.19 30.477-.85 68.676 11.782 104.28 44.18 27.66 25.18 51.62 60.34 67.46 99.02 21.061 51.397-23.032 105.884-77.89 95.91z" fill="#ffe278"/><path d="m269.832 295.024c-31.14-5.66-62.5-8.46-93.85-8.39v-230.72c.35-.01.69-.01 1.04-.01 78.279 0 141.141 71.029 170.7 143.21 21.061 51.397-23.032 105.884-77.89 95.91z" fill="#ffb454"/><path d="m281.142 124.344c-11.348 9.152-22.624 21.974-39.39 28-24.191 8.71-47.996-.702-65.77 4.93-7.351 2.29-9.265 5.539-13.12 11.73-2.68 4.31-5.72 9.19-10.39 13.55-16.974 15.864-46.778 14.997-63.36 2.55-11.09-8.36-15.51-20.2-19.41-30.64-3.014-8.09-4.974-13.315-10.729-20.07-4.93-5.771-4.78-14.31.36-19.89 67.204-73.066 152.204-78.333 222.63-12.83 6.686 6.205 6.297 16.937-.821 22.67z" fill="#ff6378"/><path d="m281.142 124.344c-11.348 9.152-22.624 21.974-39.39 28-24.191 8.71-47.996-.702-65.77 4.93v-101.36c30.892-.888 69.804 12.113 105.98 45.76 6.687 6.205 6.298 16.937-.82 22.67z" fill="#e20059"/><path d="m61.371 233.504c-8.897-8.897-3.517-24.191 9.13-25.53 9.092-.825 16.48 6.297 16.48 14.931.001 13.345-16.206 20.002-25.61 10.599z" fill="#ff6378"/><path d="m239.982 213.904c-8.253 0-15-6.749-15-15 0-8.976 7.854-15.808 16.479-14.931 8.454.894 14.245 8.335 13.44 16.41-.623 7.489-7.144 13.521-14.919 13.521z" fill="#e20059"/><path d="m424.832 440.284c-17.758 18.931-47.927 18.947-65.7 0-8.48-9.03-12.9-21.3-12.12-33.66l5.07-81.7c.486-7.846 6.973-14.07 15-14.07 31.351.05 19.838.03 49.87.09 7.91.01 14.45 6.17 14.94 14.07l5.06 81.62c.78 12.35-3.64 24.62-12.12 33.65z" fill="#bc8173"/><path d="m391.982 454.504v-143.61l24.97.05c7.91.01 14.45 6.17 14.94 14.07l5.06 81.62c1.634 25.879-18.993 47.87-44.97 47.87z" fill="#865240"/><path d="m452.652 348.124c-38.342-10.938-80.52-11.879-122.12 0-35.66 10.166-67.575-24.615-54.63-59.229 18.78-50.18 61.83-100.82 115.69-100.82 53.832 0 96.898 50.594 115.69 100.82 12.973 34.664-19.017 69.398-54.63 59.229z" fill="#865240"/><path d="m452.652 348.124c-19.84-5.66-40.26-8.52-60.67-8.56v-151.48c53.68.23 96.57 50.75 115.3 100.81 12.973 34.665-19.017 69.399-54.63 59.23z" fill="#5c381f"/><path d="m415.982 277.904c-8.267 0-15-6.729-15-15 0-13.108 15.828-20.118 25.609-10.61 9.427 9.46 2.691 25.61-10.609 25.61z" fill="#ffb454"/><path d="m502.312 421.554-63.21 23.92c-30.22 11.63-63.74 12.03-94.31 1.11l-27.67-9.88c-19.71-7.04-41-8.04-61.14-3.01-8.083 1.986-12.208 3.83-31.25 11.16-31.42 12.08-66.04 12.08-97.46 0-37.87-14.57-74.47-12.28-100.43 6.26-3.82 2.718-6.517 5.02-11.83 5.02-4.68 0-9.29-2.18-12.22-6.28-4.81-6.74-3.25-16.11 3.49-20.93l3.12-2.23c37.496-26.771 86.364-26.117 128.64-9.84 24.48 9.41 51.44 9.41 75.92 0 19.414-7.473 27.545-11.108 42.02-13.87 23.67-4.54 48.28-2.73 71.23 5.47l27.67 9.88c23.81 8.51 49.93 8.19 73.53-.89l63.28-23.95c7.75-2.94 16.41.97 19.34 8.72 2.93 7.74-.97 16.4-8.72 19.34z" fill="#bee75e"/><path d="m502.312 421.554-63.21 23.92c-30.22 11.63-63.74 12.03-94.31 1.11l-27.67-9.88c-19.71-7.04-41-8.04-61.14-3.01v-30.71c23.67-4.54 48.28-2.73 71.23 5.47l27.67 9.88c23.81 8.51 49.93 8.19 73.53-.89l63.28-23.95c7.75-2.94 16.41.97 19.34 8.72 2.93 7.74-.97 16.4-8.72 19.34z" fill="#57c126"/></g></svg>