<svg id="Capa_1" enable-background="new 0 0 512.152 512.152" height="512" viewBox="0 0 512.152 512.152" width="512" xmlns="http://www.w3.org/2000/svg"><g><path d="m492.531 158.132c-26.16-63.158-75.352-112.349-138.51-138.511-31.311-12.969-64.232-19.545-97.849-19.545-50.016 0-98.639 14.545-140.612 42.062-43.011 28.198-76.187 68.309-95.94 115.997-26.161 63.158-26.16 132.725.001 195.884 26.162 63.16 75.353 112.352 138.512 138.513 31.31 12.969 64.23 19.545 97.846 19.545 50.016 0 98.638-14.545 140.61-42.062 43.011-28.197 76.187-68.309 95.94-115.996 26.163-63.162 26.164-132.728.002-195.887zm-200.336 112.902c-6.076 14.666-20.258 24.142-36.131 24.142-5.142 0-10.17-1.003-14.945-2.98-9.649-3.996-17.164-11.511-21.16-21.158-3.997-9.648-3.997-20.274-.001-29.921 6.072-14.664 20.255-24.141 36.131-24.141 5.142 0 10.17 1.003 14.945 2.979 19.916 8.253 29.406 31.166 21.161 51.079z" fill="#dce6eb"/><path d="m492.531 158.132c-26.16-63.158-75.352-112.349-138.51-138.511-31.311-12.969-64.232-19.545-97.849-19.545v216.901c5.113.011 10.113 1.012 14.863 2.977 19.915 8.253 29.405 31.166 21.16 51.079-6.061 14.633-20.194 24.095-36.023 24.138v216.902c49.948-.037 98.499-14.578 140.418-42.06 43.011-28.197 76.187-68.309 95.94-115.996 26.162-63.16 26.163-132.726.001-195.885z" fill="#b9c3cd"/><g><g><g><g><path d="m345.123 234.199c-5.886 0-11.471-3.486-13.864-9.264-3.17-7.653.464-16.428 8.117-19.599l133.551-55.323c7.654-3.17 16.428.464 19.599 8.118 3.171 7.653-.464 16.428-8.117 19.599l-133.551 55.323c-1.878.778-3.823 1.146-5.735 1.146z" fill="#60a9b0"/></g></g><g><g><path d="m33.486 363.281c-5.887 0-11.471-3.487-13.864-9.264-3.17-7.654.465-16.429 8.119-19.599l133.56-55.318c7.653-3.173 16.428.465 19.598 8.118 3.17 7.654-.465 16.429-8.119 19.599l-133.56 55.319c-1.876.777-3.822 1.145-5.734 1.145z" fill="#79d6de"/></g></g><g><g><path d="m292.95 182.042c-1.913 0-3.857-.368-5.734-1.146-7.654-3.17-11.288-11.944-8.118-19.599l55.32-133.559c3.17-7.655 11.944-11.288 19.599-8.118 7.654 3.17 11.288 11.944 8.118 19.599l-55.32 133.559c-2.393 5.777-7.979 9.264-13.865 9.264z" fill="#60a9b0"/></g></g><g><g><path d="m163.866 493.677c-1.913 0-3.857-.368-5.734-1.146-7.654-3.17-11.288-11.944-8.118-19.599l55.32-133.559c3.17-7.655 11.945-11.288 19.599-8.118s11.288 11.944 8.118 19.599l-55.32 133.559c-2.393 5.776-7.979 9.264-13.865 9.264z" fill="#79d6de"/></g></g></g></g><path d="m437.089 75.057c-5.857-5.859-15.354-5.858-21.213 0l-92.344 92.348c-7.541-5.717-15.86-10.508-24.834-14.225-13.623-5.643-27.952-8.504-42.587-8.504-45.225 0-85.628 26.998-102.933 68.779-11.385 27.483-11.386 57.756-.001 85.241 3.717 8.974 8.509 17.295 14.226 24.836l-92.343 92.344c-5.857 5.857-5.857 15.355 0 21.213 2.929 2.929 6.768 4.394 10.607 4.394s7.678-1.465 10.606-4.394l92.342-92.344c7.542 5.718 15.864 10.51 24.839 14.228 13.622 5.643 27.95 8.504 42.585 8.504 45.224 0 85.626-26.997 102.931-68.777 11.386-27.484 11.387-57.758.002-85.243-3.718-8.976-8.51-17.297-14.228-24.839l92.344-92.348c5.86-5.859 5.86-15.356.001-21.213zm-144.894 195.977c-6.076 14.666-20.258 24.142-36.131 24.142-5.142 0-10.17-1.003-14.945-2.98-9.649-3.996-17.164-11.511-21.16-21.158-3.997-9.648-3.997-20.274-.001-29.921 6.072-14.664 20.255-24.141 36.131-24.141 5.142 0 10.17 1.003 14.945 2.979 19.916 8.253 29.406 31.166 21.161 51.079z" fill="#faf3f4"/><path d="m437.089 75.057c-5.857-5.859-15.354-5.858-21.213 0l-92.344 92.348c-7.541-5.717-15.86-10.508-24.834-14.225-13.604-5.635-27.912-8.495-42.527-8.503v72.301c5.113.011 10.113 1.012 14.863 2.977 19.915 8.253 29.405 31.166 21.16 51.079-6.061 14.633-20.194 24.095-36.023 24.138v72.303c45.17-.053 85.512-27.035 102.8-68.775 11.386-27.484 11.387-57.758.002-85.243-3.718-8.976-8.51-17.297-14.228-24.839l92.344-92.348c5.859-5.859 5.859-15.356 0-21.213z" fill="#daebeb"/></g></svg>