<svg id="Capa_1" enable-background="new 0 0 510.55 510.55" height="512" viewBox="0 0 510.55 510.55" width="512" xmlns="http://www.w3.org/2000/svg"><g><path d="m465.718 0c-.967 0-1.95.046-2.927.139l-305.409 29.088c-16.583 1.577-29.574 15.863-29.574 32.523v259.673c-5.615-1.022-11.337-1.537-17.134-1.537-52.567 0-95.333 42.765-95.333 95.33 0 52.567 42.766 95.334 95.333 95.334s95.333-42.767 95.333-95.335v-261.256c0-1.132 1.335-2.603 2.461-2.714l208.538-20.55v158.594c-5.615-1.022-11.335-1.536-17.132-1.536-52.567 0-95.333 42.765-95.333 95.33 0 52.567 42.766 95.334 95.333 95.334s95.333-42.768 95.333-95.336v-353.465c.001-16.607-12.952-29.616-29.489-29.616z" fill="#39659f"/><path d="m465.718 0c-.967 0-1.95.046-2.927.139l-207.516 19.764v126.729l161.732-15.938v158.594c-5.615-1.022-11.335-1.536-17.132-1.536-52.567 0-95.333 42.765-95.333 95.33 0 52.567 42.766 95.334 95.333 95.334s95.333-42.768 95.333-95.336v-353.464c0-16.607-12.953-29.616-29.49-29.616z" fill="#152659"/></g></svg>