<svg id="Capa_1" enable-background="new 0 0 512 512" height="512" viewBox="0 0 512 512" width="512" xmlns="http://www.w3.org/2000/svg"><g><path d="m456.833 56.233h-401.666c-30.419 0-55.167 24.748-55.167 55.167v289.2c0 30.419 24.748 55.167 55.167 55.167h401.666c30.419 0 55.167-24.748 55.167-55.167v-289.2c0-30.419-24.748-55.167-55.167-55.167zm-89.433 247.967c0 8.284-6.716 15-15 15h-192.8c-8.284 0-15-6.716-15-15v-96.4c0-8.284 6.716-15 15-15h192.8c8.284 0 15 6.716 15 15z" fill="#39659f"/><path d="m456.833 56.233h-200.823v136.567h96.39c8.284 0 15 6.716 15 15v96.4c0 8.284-6.716 15-15 15h-96.39v136.566h200.823c30.419 0 55.167-24.748 55.167-55.167v-289.199c0-30.419-24.748-55.167-55.167-55.167z" fill="#152659"/><g><path d="m497 120.5h-482c-8.284 0-15 6.716-15 15v241c0 8.284 6.716 15 15 15h482c8.284 0 15-6.716 15-15v-241c0-8.284-6.716-15-15-15zm-129.6 183.7c0 8.284-6.716 15-15 15h-192.8c-8.284 0-15-6.716-15-15v-96.4c0-8.284 6.716-15 15-15h192.8c8.284 0 15 6.716 15 15z" fill="#dd4a4a"/><path d="m497 120.5h-240.99v72.3h96.39c8.284 0 15 6.716 15 15v96.4c0 8.284-6.716 15-15 15h-96.39v72.3h240.99c8.284 0 15-6.716 15-15v-241c0-8.284-6.716-15-15-15z" fill="#cf0050"/><g><path d="m159.601 192.8c-34.849 0-63.2 28.352-63.2 63.2s28.352 63.2 63.2 63.2 63.199-28.352 63.199-63.2-28.351-63.2-63.199-63.2z" fill="#dce6eb"/><circle cx="352.4" cy="256" fill="#b9c3cd" r="63.2"/></g></g><path d="m429.736 433.365-31.787-63.573c-2.541-5.082-7.734-8.292-13.416-8.292h-257.066c-5.682 0-10.876 3.21-13.417 8.292l-32.134 64.267c-2.325 4.649-2.076 10.172.657 14.594 2.733 4.423 7.561 7.114 12.76 7.114h321.334c.006-.001.014-.001.021 0 8.283 0 15-6.716 15-15 0-2.692-.71-5.218-1.952-7.402z" fill="#dce6eb"/><path d="m429.736 433.365-31.787-63.573c-2.541-5.082-7.734-8.292-13.416-8.292h-128.523v94.267h160.657c.006-.001.014-.001.021 0 8.283 0 15-6.716 15-15 0-2.692-.71-5.218-1.952-7.402z" fill="#b9c3cd"/></g></svg>