<svg id="Capa_1" enable-background="new 0 0 512 512" height="512" viewBox="0 0 512 512" width="512" xmlns="http://www.w3.org/2000/svg"><g><g><path d="m209.925 395.013c6.205 9.298 31.402 30.558 31.471 30.626 10.862 10.696 13.475 28.153 6.648 42.271-9.948 20.574-29.12 51.177-52.177 42.614-4.547-1.689-13.598-5.013-22.027-8.104-12.209-4.477-25.421-4.477-37.63 0-8.428 3.091-17.48 6.415-22.027 8.104-23.057 8.563-42.229-22.04-52.177-42.614-6.827-14.118-4.214-31.575 6.648-42.271.069-.068 24.73-21.783 31.471-30.626 22.719-29.798 90.841-28.409 109.8 0z" fill="#ae774e"/><g><path d="m241.396 425.639c-.069-.068-25.266-21.328-31.471-30.626-9.68-14.504-32.175-21.961-54.899-21.824v125.874c6.355 0 12.711 1.119 18.815 3.358 8.428 3.091 17.48 6.415 22.027 8.104 23.057 8.563 42.228-22.04 52.177-42.614 6.826-14.119 4.213-31.576-6.649-42.272z" fill="#966641"/></g><ellipse cx="38.865" cy="386.04" fill="#ae774e" rx="35.704" ry="50.269" transform="matrix(.901 -.434 .434 .901 -163.535 55.024)"/><ellipse cx="110.272" cy="327.262" fill="#ae774e" rx="35.704" ry="50.269" transform="matrix(.962 -.273 .273 .962 -85.197 42.565)"/><g fill="#966641"><ellipse cx="271.187" cy="386.04" rx="50.269" ry="35.704" transform="matrix(.434 -.901 .901 .434 -194.261 463.034)"/><ellipse cx="199.78" cy="327.262" rx="50.269" ry="35.704" transform="matrix(.273 -.962 .962 .273 -169.606 430.055)"/></g></g><g><path d="m411.873 117.092c6.205 9.298 31.402 30.558 31.471 30.626 10.862 10.696 13.475 28.153 6.648 42.271-9.948 20.574-29.12 51.177-52.177 42.614-4.547-1.689-13.598-5.013-22.027-8.104-12.209-4.477-25.421-4.477-37.63 0-8.428 3.091-17.48 6.415-22.027 8.104-23.057 8.563-42.229-22.04-52.177-42.614-6.827-14.118-4.214-31.575 6.648-42.271.069-.068 24.73-21.783 31.471-30.626 22.719-29.798 90.842-28.409 109.8 0z" fill="#ae774e"/><g><path d="m443.345 147.718c-.069-.068-25.266-21.328-31.471-30.626-9.68-14.504-32.175-21.961-54.899-21.824v125.874c6.355 0 12.711 1.119 18.815 3.358 8.428 3.091 17.48 6.415 22.027 8.104 23.057 8.563 42.228-22.04 52.177-42.614 6.825-14.12 4.213-31.576-6.649-42.272z" fill="#966641"/></g><ellipse cx="240.813" cy="108.119" fill="#ae774e" rx="35.704" ry="50.269" transform="matrix(.901 -.434 .434 .901 -23.066 115.102)"/><ellipse cx="312.22" cy="49.341" fill="#ae774e" rx="35.704" ry="50.269" transform="matrix(.962 -.273 .273 .962 -1.604 87.158)"/><g fill="#966641"><ellipse cx="473.135" cy="108.119" rx="50.269" ry="35.704" transform="matrix(.434 -.901 .901 .434 170.567 487.592)"/><ellipse cx="401.728" cy="49.341" rx="50.269" ry="35.704" transform="matrix(.273 -.962 .962 .273 244.534 422.315)"/></g></g></g></svg>