<svg id="Capa_1" enable-background="new 0 0 512 512" height="512" viewBox="0 0 512 512" width="512" xmlns="http://www.w3.org/2000/svg"><g><path d="m96 151c-8.284 0-15-6.716-15-15v-32c0-8.284 6.716-15 15-15s15 6.716 15 15v32c0 8.284-6.716 15-15 15z" fill="#865240"/><path d="m344 151h-176c-10.648 0-17.853-10.776-13.93-20.57l24.46-61.14c6.87-17.19 23.27-28.29 41.78-28.29h71.38c18.51 0 34.91 11.1 41.78 28.29l24.46 61.14c3.927 9.805-3.297 20.57-13.93 20.57z" fill="#bc8173"/><path d="m344 151h-88v-110h35.69c18.51 0 34.91 11.1 41.78 28.29l24.46 61.14c3.927 9.805-3.297 20.57-13.93 20.57z" fill="#865240"/><path d="m512 264v162c0 24.81-20.19 45-45 45h-422c-24.81 0-45-20.19-45-45v-162s41.77-79 256-79 256 79 256 79z" fill="#bc8173"/><path d="m512 264v162c0 24.81-20.19 45-45 45h-211v-286c214.23 0 256 79 256 79z" fill="#865240"/><path d="m512 166v98h-512v-98c0-24.81 20.19-45 45-45h422c24.81 0 45 20.19 45 45z" fill="#ffe278"/><path d="m512 166v98h-256v-143h211c24.81 0 45 20.19 45 45z" fill="#ffb454"/><circle cx="256" cy="296" fill="#e2dff4" r="96"/><path d="m352 296c0 53.02-42.98 96-96 96v-192c53.02 0 96 42.98 96 96z" fill="#bebcdd"/><circle cx="256" cy="296" fill="#f9f9f9" r="47"/><path d="m303 296c0 25.92-21.08 47-47 47v-94c25.92 0 47 21.08 47 47z" fill="#e2dff4"/><path d="m256 185c-61.21 0-111 49.79-111 111s49.79 111 111 111 111-49.79 111-111-49.79-111-111-111zm0 192c-44.66 0-81-36.34-81-81s36.34-81 81-81 81 36.34 81 81-36.34 81-81 81z" fill="#865240"/><path d="m367 296c0 61.21-49.79 111-111 111v-30c44.66 0 81-36.34 81-81s-36.34-81-81-81v-30c61.21 0 111 49.79 111 111z" fill="#5c381f"/><path d="m424 215h-32c-8.284 0-15-6.716-15-15s6.716-15 15-15h32c8.284 0 15 6.716 15 15s-6.716 15-15 15z" fill="#ff6378"/><path d="m128 407h-48c-8.284 0-15-6.716-15-15s6.716-15 15-15h48c8.284 0 15 6.716 15 15s-6.716 15-15 15z" fill="#865240"/></g></svg>