<svg id="Capa_1" enable-background="new 0 0 512 512" height="512" viewBox="0 0 512 512" width="512" xmlns="http://www.w3.org/2000/svg"><g><path d="m512 200c0 8.28-6.72 15-15 15h-21.54l-20.99 76.95c-1.78 6.52-7.71 11.05-14.47 11.05h-368c-6.76 0-12.69-4.53-14.47-11.05l-20.99-76.95h-21.54c-8.28 0-15-6.72-15-15s6.72-15 15-15h65c8.28 0 15 6.72 15 15s-6.72 15-15 15h-12.36l15.82 58h345.08l15.82-58h-12.36c-8.28 0-15-6.72-15-15s6.72-15 15-15h65c8.28 0 15 6.72 15 15z" fill="#bc8173"/><path d="m512 200c0 8.28-6.72 15-15 15h-21.54l-20.99 76.95c-1.78 6.52-7.71 11.05-14.47 11.05h-184v-30h172.54l15.82-58h-12.36c-8.28 0-15-6.72-15-15s6.72-15 15-15h65c8.28 0 15 6.72 15 15z" fill="#865240"/><path d="m406.37 116.31-24 80c-1.91 6.35-7.75 10.69-14.37 10.69h-224c-6.62 0-12.46-4.34-14.37-10.69l-24-80c-2.885-9.631 4.349-19.31 14.37-19.31h272c10.012 0 17.257 9.672 14.37 19.31z" fill="#bc8173"/><path d="m368 207h-112v-110h136c10.012 0 17.257 9.672 14.37 19.31l-24 80c-1.91 6.35-7.75 10.69-14.37 10.69z" fill="#865240"/><path d="m271 191.94c.01 2.46-.59 4.93-1.79 7.17-21.983 40.821-109.872 204.048-112 208-2.62 4.86-7.69 7.89-13.21 7.89h-64c-10.09 0-17.303-9.779-14.34-19.41l62.66-203.64c146.418 0 121.389.004 142.68-.01z" fill="#ffe278"/><path d="m432 415h-64c-5.52 0-10.59-3.03-13.21-7.89l-98.79-183.47v-31.69c20.853-.014-1.981-.01 127.68-.01l62.66 203.65c2.965 9.637-4.255 19.41-14.34 19.41z" fill="#ffb454"/><path d="m487 112c0 8.28-6.72 15-15 15h-432c-8.28 0-15-6.72-15-15s6.72-15 15-15h432c8.28 0 15 6.72 15 15z" fill="#ffe278"/><path d="m487 112c0 8.28-6.72 15-15 15h-216v-30h216c8.28 0 15 6.72 15 15z" fill="#ffb454"/></g></svg>