<?xml version="1.0" encoding="UTF-8" standalone="no"?>
<svg
   xmlns:dc="http://purl.org/dc/elements/1.1/"
   xmlns:cc="http://creativecommons.org/ns#"
   xmlns:rdf="http://www.w3.org/1999/02/22-rdf-syntax-ns#"
   xmlns:svg="http://www.w3.org/2000/svg"
   xmlns="http://www.w3.org/2000/svg"
   xmlns:sodipodi="http://sodipodi.sourceforge.net/DTD/sodipodi-0.dtd"
   xmlns:inkscape="http://www.inkscape.org/namespaces/inkscape"
   sodipodi:docname="pin.svg"
   inkscape:version="1.0 (4035a4fb49, 2020-05-01)"
   id="svg802"
   version="1.1"
   viewBox="0 0 51.716858 135.44417"
   height="135.44417mm"
   width="51.716858mm">
  <defs
     id="defs796" />
  <sodipodi:namedview
     inkscape:window-maximized="1"
     inkscape:window-y="-8"
     inkscape:window-x="-8"
     inkscape:window-height="1017"
     inkscape:window-width="1920"
     showgrid="false"
     inkscape:document-rotation="0"
     inkscape:current-layer="layer1"
     inkscape:document-units="mm"
     inkscape:cy="311.18433"
     inkscape:cx="110.3486"
     inkscape:zoom="0.34074713"
     inkscape:pageshadow="2"
     inkscape:pageopacity="0.0"
     borderopacity="1.0"
     bordercolor="#666666"
     pagecolor="#ffffff"
     id="base" />
  <metadata
     id="metadata799">
    <rdf:RDF>
      <cc:Work
         rdf:about="">
        <dc:format>image/svg+xml</dc:format>
        <dc:type
           rdf:resource="http://purl.org/dc/dcmitype/StillImage" />
        <dc:title></dc:title>
      </cc:Work>
    </rdf:RDF>
  </metadata>
  <g
     transform="translate(-76.636932,-65.832479)"
     id="layer1"
     inkscape:groupmode="layer"
     inkscape:label="Calque 1">
    <g
       id="g222"
       transform="matrix(0.26465414,0,0,0.26465414,75.051389,65.832479)">
      <path
         id="path2"
         fill="#f9fbfc"
         d="M 172.961,216.965 C 159.599,186.696 142.24,174.74 142.24,155.714 c 0,-19.026 10.521,-29.768 13.526,-34.576 3.005,-4.808 11.822,-21.143 11.822,-39.717 0,-18.542 -11.802,-77.214 -63.717,-77.416 L 103.651,4 C 51.735,4.202 39.807,62.879 39.807,81.421 c 0,18.574 8.817,34.909 11.822,39.717 3.005,4.808 13.526,15.549 13.526,34.576 0,19.027 -17.359,30.982 -30.721,61.251 -13.362,30.268 -24.442,61.587 -24.442,107.537 0,45.95 17.327,150.394 43.452,183.276 h 50.113 0.283 50.113 c 26.124,-32.881 43.452,-137.326 43.452,-183.276 -0.001,-45.95 -11.082,-77.269 -24.444,-107.537 z" />
      <g
         id="g196"
         fill="#eaa895">
        <g
           id="g190">
          <path
             id="path4"
             d="m 194.612,300.919 c 0,1.322 0.831,2.444 1.997,2.89 -0.147,-1.869 -0.312,-3.714 -0.498,-5.534 -0.895,0.544 -1.499,1.52 -1.499,2.644 z" />
          <path
             id="path6"
             d="m 197.399,323.989 c -0.004,-2.076 -0.034,-4.116 -0.083,-6.132 -1.523,0.197 -2.704,1.485 -2.704,3.062 0,1.605 1.224,2.91 2.787,3.07 z" />
          <path
             id="path8"
             d="m 194.612,340.919 c 0,1.332 0.845,2.459 2.024,2.898 0.143,-2.025 0.265,-3.995 0.369,-5.912 -1.37,0.323 -2.393,1.546 -2.393,3.014 z" />
          <path
             id="path10"
             d="m 194.612,360.919 c 0,0.491 0.124,0.949 0.328,1.362 0.122,-1.102 0.241,-2.196 0.354,-3.281 -0.421,0.529 -0.682,1.19 -0.682,1.919 z" />
          <path
             id="path12"
             d="m 184.988,250.542 c 0,1.307 0.811,2.42 1.956,2.877 -0.3,-0.967 -0.6,-1.935 -0.909,-2.891 h -1.045 c 0,0.005 -0.002,0.01 -0.002,0.014 z" />
          <path
             id="path14"
             d="m 177.714,257.816 c -1.713,0 -3.102,1.389 -3.102,3.103 0,1.713 1.389,3.102 3.102,3.102 1.713,0 3.102,-1.389 3.102,-3.102 0,-1.713 -1.389,-3.103 -3.102,-3.103 z" />
          <path
             id="path16"
             d="m 188.091,267.44 c -1.713,0 -3.102,1.389 -3.102,3.103 0,1.713 1.389,3.102 3.102,3.102 1.713,0 3.102,-1.389 3.102,-3.102 0,-1.714 -1.389,-3.103 -3.102,-3.103 z" />
          <path
             id="path18"
             d="m 177.714,277.816 c -1.713,0 -3.102,1.389 -3.102,3.103 0,1.713 1.389,3.102 3.102,3.102 1.713,0 3.102,-1.389 3.102,-3.102 0,-1.713 -1.389,-3.103 -3.102,-3.103 z" />
          <path
             id="path20"
             d="m 188.091,287.44 c -1.713,0 -3.102,1.389 -3.102,3.103 0,1.713 1.389,3.102 3.102,3.102 1.713,0 3.102,-1.389 3.102,-3.102 0,-1.714 -1.389,-3.103 -3.102,-3.103 z" />
          <path
             id="path22"
             d="m 177.714,297.816 c -1.713,0 -3.102,1.389 -3.102,3.103 0,1.713 1.389,3.102 3.102,3.102 1.713,0 3.102,-1.389 3.102,-3.102 0,-1.713 -1.389,-3.103 -3.102,-3.103 z" />
          <path
             id="path24"
             d="m 188.091,307.44 c -1.713,0 -3.102,1.389 -3.102,3.103 0,1.713 1.389,3.102 3.102,3.102 1.713,0 3.102,-1.389 3.102,-3.102 0,-1.714 -1.389,-3.103 -3.102,-3.103 z" />
          <path
             id="path26"
             d="m 177.714,317.816 c -1.713,0 -3.102,1.389 -3.102,3.103 0,1.713 1.389,3.102 3.102,3.102 1.713,0 3.102,-1.389 3.102,-3.102 0,-1.713 -1.389,-3.103 -3.102,-3.103 z" />
          <path
             id="path28"
             d="m 188.091,327.44 c -1.713,0 -3.102,1.389 -3.102,3.103 0,1.713 1.389,3.102 3.102,3.102 1.713,0 3.102,-1.389 3.102,-3.102 0,-1.714 -1.389,-3.103 -3.102,-3.103 z" />
          <path
             id="path30"
             d="m 177.714,337.816 c -1.713,0 -3.102,1.389 -3.102,3.103 0,1.713 1.389,3.102 3.102,3.102 1.713,0 3.102,-1.389 3.102,-3.102 0,-1.713 -1.389,-3.103 -3.102,-3.103 z" />
          <path
             id="path32"
             d="m 188.091,347.44 c -1.713,0 -3.102,1.389 -3.102,3.103 0,1.713 1.389,3.102 3.102,3.102 1.713,0 3.102,-1.389 3.102,-3.102 0,-1.714 -1.389,-3.103 -3.102,-3.103 z" />
          <path
             id="path34"
             d="m 177.714,357.816 c -1.713,0 -3.102,1.389 -3.102,3.103 0,1.713 1.389,3.102 3.102,3.102 1.713,0 3.102,-1.389 3.102,-3.102 0,-1.713 -1.389,-3.103 -3.102,-3.103 z" />
          <path
             id="path36"
             d="m 188.091,367.44 c -1.713,0 -3.102,1.389 -3.102,3.103 0,1.713 1.389,3.102 3.102,3.102 1.713,0 3.102,-1.389 3.102,-3.102 0,-1.714 -1.389,-3.103 -3.102,-3.103 z" />
          <path
             id="path38"
             d="m 177.714,377.816 c -1.713,0 -3.102,1.389 -3.102,3.103 0,1.713 1.389,3.102 3.102,3.102 1.713,0 3.102,-1.389 3.102,-3.102 0,-1.713 -1.389,-3.103 -3.102,-3.103 z" />
          <path
             id="path40"
             d="m 188.091,387.44 c -1.713,0 -3.102,1.389 -3.102,3.103 0,1.713 1.389,3.102 3.102,3.102 1.244,0 2.31,-0.737 2.804,-1.795 0.088,-0.548 0.177,-1.097 0.264,-1.644 -0.17,-1.553 -1.47,-2.766 -3.068,-2.766 z" />
          <path
             id="path42"
             d="m 177.714,397.816 c -1.713,0 -3.102,1.389 -3.102,3.103 0,1.713 1.389,3.102 3.102,3.102 1.713,0 3.102,-1.389 3.102,-3.102 0,-1.713 -1.389,-3.103 -3.102,-3.103 z" />
          <path
             id="path44"
             d="m 184.988,410.543 c 0,1.337 0.851,2.466 2.037,2.902 0.395,-1.998 0.781,-3.998 1.155,-5.996 -0.03,-0.001 -0.059,-0.009 -0.089,-0.009 -1.714,0 -3.103,1.389 -3.103,3.103 z" />
          <path
             id="path46"
             d="m 177.714,417.816 c -1.713,0 -3.102,1.389 -3.102,3.103 0,1.713 1.389,3.102 3.102,3.102 1.713,0 3.102,-1.389 3.102,-3.102 0,-1.713 -1.389,-3.103 -3.102,-3.103 z" />
          <path
             id="path48"
             d="m 177.714,437.816 c -1.713,0 -3.102,1.389 -3.102,3.103 0,1.713 1.389,3.102 3.102,3.102 1.287,0 2.391,-0.784 2.86,-1.901 0.066,-0.259 0.133,-0.516 0.199,-0.776 0.02,-0.14 0.043,-0.28 0.043,-0.425 0,-1.713 -1.389,-3.103 -3.102,-3.103 z" />
          <path
             id="path50"
             d="m 174.612,460.919 c 0,0.465 0.11,0.902 0.293,1.298 0.407,-1.301 0.808,-2.616 1.205,-3.942 -0.895,0.545 -1.498,1.52 -1.498,2.644 z" />
          <path
             id="path52"
             d="m 164.988,250.542 c 0,1.713 1.389,3.102 3.102,3.102 1.713,0 3.102,-1.389 3.102,-3.102 0,-0.005 -0.002,-0.009 -0.002,-0.014 h -6.202 c 0.002,0.005 0,0.01 0,0.014 z" />
          <path
             id="path54"
             d="m 157.714,257.816 c -1.713,0 -3.102,1.389 -3.102,3.103 0,1.713 1.389,3.102 3.102,3.102 1.713,0 3.102,-1.389 3.102,-3.102 0,-1.713 -1.389,-3.103 -3.102,-3.103 z" />
          <path
             id="path56"
             d="m 168.091,267.44 c -1.713,0 -3.102,1.389 -3.102,3.103 0,1.713 1.389,3.102 3.102,3.102 1.713,0 3.102,-1.389 3.102,-3.102 0,-1.714 -1.389,-3.103 -3.102,-3.103 z" />
          <path
             id="path58"
             d="m 157.714,277.816 c -1.713,0 -3.102,1.389 -3.102,3.103 0,1.713 1.389,3.102 3.102,3.102 1.713,0 3.102,-1.389 3.102,-3.102 0,-1.713 -1.389,-3.103 -3.102,-3.103 z" />
          <path
             id="path60"
             d="m 168.091,287.44 c -1.713,0 -3.102,1.389 -3.102,3.103 0,1.713 1.389,3.102 3.102,3.102 1.713,0 3.102,-1.389 3.102,-3.102 0,-1.714 -1.389,-3.103 -3.102,-3.103 z" />
          <path
             id="path62"
             d="m 157.714,297.816 c -1.713,0 -3.102,1.389 -3.102,3.103 0,1.713 1.389,3.102 3.102,3.102 1.713,0 3.102,-1.389 3.102,-3.102 0,-1.713 -1.389,-3.103 -3.102,-3.103 z" />
          <path
             id="path64"
             d="m 168.091,307.44 c -1.713,0 -3.102,1.389 -3.102,3.103 0,1.713 1.389,3.102 3.102,3.102 1.713,0 3.102,-1.389 3.102,-3.102 0,-1.714 -1.389,-3.103 -3.102,-3.103 z" />
          <path
             id="path66"
             d="m 157.714,317.816 c -1.713,0 -3.102,1.389 -3.102,3.103 0,1.713 1.389,3.102 3.102,3.102 1.713,0 3.102,-1.389 3.102,-3.102 0,-1.713 -1.389,-3.103 -3.102,-3.103 z" />
          <path
             id="path68"
             d="m 168.091,327.44 c -1.713,0 -3.102,1.389 -3.102,3.103 0,1.713 1.389,3.102 3.102,3.102 1.713,0 3.102,-1.389 3.102,-3.102 0,-1.714 -1.389,-3.103 -3.102,-3.103 z" />
          <path
             id="path70"
             d="m 157.714,337.816 c -1.713,0 -3.102,1.389 -3.102,3.103 0,1.713 1.389,3.102 3.102,3.102 1.713,0 3.102,-1.389 3.102,-3.102 0,-1.713 -1.389,-3.103 -3.102,-3.103 z" />
          <path
             id="path72"
             d="m 168.091,347.44 c -1.713,0 -3.102,1.389 -3.102,3.103 0,1.713 1.389,3.102 3.102,3.102 1.713,0 3.102,-1.389 3.102,-3.102 0,-1.714 -1.389,-3.103 -3.102,-3.103 z" />
          <path
             id="path74"
             d="m 157.714,357.816 c -1.713,0 -3.102,1.389 -3.102,3.103 0,1.713 1.389,3.102 3.102,3.102 1.713,0 3.102,-1.389 3.102,-3.102 0,-1.713 -1.389,-3.103 -3.102,-3.103 z" />
          <path
             id="path76"
             d="m 168.091,367.44 c -1.713,0 -3.102,1.389 -3.102,3.103 0,1.713 1.389,3.102 3.102,3.102 1.713,0 3.102,-1.389 3.102,-3.102 0,-1.714 -1.389,-3.103 -3.102,-3.103 z" />
          <path
             id="path78"
             d="m 157.714,377.816 c -1.713,0 -3.102,1.389 -3.102,3.103 0,1.713 1.389,3.102 3.102,3.102 1.713,0 3.102,-1.389 3.102,-3.102 0,-1.713 -1.389,-3.103 -3.102,-3.103 z" />
          <path
             id="path80"
             d="m 168.091,387.44 c -1.713,0 -3.102,1.389 -3.102,3.103 0,1.713 1.389,3.102 3.102,3.102 1.713,0 3.102,-1.389 3.102,-3.102 0,-1.714 -1.389,-3.103 -3.102,-3.103 z" />
          <path
             id="path82"
             d="m 157.714,397.816 c -1.713,0 -3.102,1.389 -3.102,3.103 0,1.713 1.389,3.102 3.102,3.102 1.713,0 3.102,-1.389 3.102,-3.102 0,-1.713 -1.389,-3.103 -3.102,-3.103 z" />
          <path
             id="path84"
             d="m 168.091,407.44 c -1.713,0 -3.102,1.389 -3.102,3.103 0,1.713 1.389,3.102 3.102,3.102 1.713,0 3.102,-1.389 3.102,-3.102 0,-1.714 -1.389,-3.103 -3.102,-3.103 z" />
          <path
             id="path86"
             d="m 157.714,417.816 c -1.713,0 -3.102,1.389 -3.102,3.103 0,1.713 1.389,3.102 3.102,3.102 1.713,0 3.102,-1.389 3.102,-3.102 0,-1.713 -1.389,-3.103 -3.102,-3.103 z" />
          <path
             id="path88"
             d="m 168.091,427.44 c -1.713,0 -3.102,1.389 -3.102,3.103 0,1.713 1.389,3.102 3.102,3.102 1.713,0 3.102,-1.389 3.102,-3.102 0,-1.714 -1.389,-3.103 -3.102,-3.103 z" />
          <path
             id="path90"
             d="m 157.714,437.816 c -1.713,0 -3.102,1.389 -3.102,3.103 0,1.713 1.389,3.102 3.102,3.102 1.713,0 3.102,-1.389 3.102,-3.102 0,-1.713 -1.389,-3.103 -3.102,-3.103 z" />
          <path
             id="path92"
             d="m 168.091,447.44 c -1.713,0 -3.102,1.389 -3.102,3.103 0,1.713 1.389,3.102 3.102,3.102 1.713,0 3.102,-1.389 3.102,-3.102 0,-1.714 -1.389,-3.103 -3.102,-3.103 z" />
          <path
             id="path94"
             d="m 157.714,457.816 c -1.713,0 -3.102,1.389 -3.102,3.103 0,1.713 1.389,3.102 3.102,3.102 1.713,0 3.102,-1.389 3.102,-3.102 0,-1.713 -1.389,-3.103 -3.102,-3.103 z" />
          <path
             id="path96"
             d="m 168.091,467.44 c -1.713,0 -3.102,1.389 -3.102,3.103 0,1.713 1.389,3.102 3.102,3.102 1.713,0 3.102,-1.389 3.102,-3.102 0,-1.714 -1.389,-3.103 -3.102,-3.103 z" />
          <path
             id="path98"
             d="m 157.714,477.816 c -1.713,0 -3.102,1.389 -3.102,3.103 0,1.713 1.389,3.102 3.102,3.102 1.713,0 3.102,-1.389 3.102,-3.102 0,-1.713 -1.389,-3.103 -3.102,-3.103 z" />
          <path
             id="path100"
             d="m 157.714,497.816 c -1.713,0 -3.102,1.389 -3.102,3.103 0,1.389 0.919,2.551 2.178,2.946 1.066,-1.589 2.118,-3.285 3.152,-5.099 -0.565,-0.583 -1.352,-0.95 -2.228,-0.95 z" />
          <path
             id="path102"
             d="m 144.988,250.542 c 0,1.713 1.389,3.102 3.102,3.102 1.713,0 3.102,-1.389 3.102,-3.102 0,-0.005 -0.002,-0.009 -0.002,-0.014 h -6.202 c 0.002,0.005 0,0.01 0,0.014 z" />
          <path
             id="path104"
             d="m 134.612,260.919 c 0,1.713 1.389,3.102 3.102,3.102 1.713,0 3.102,-1.389 3.102,-3.102 0,-1.713 -1.389,-3.103 -3.102,-3.103 -1.713,0 -3.102,1.39 -3.102,3.103 z" />
          <path
             id="path106"
             d="m 148.091,267.44 c -1.713,0 -3.102,1.389 -3.102,3.103 0,1.713 1.389,3.102 3.102,3.102 1.713,0 3.102,-1.389 3.102,-3.102 0,-1.714 -1.389,-3.103 -3.102,-3.103 z" />
          <path
             id="path108"
             d="m 137.714,277.816 c -1.713,0 -3.102,1.389 -3.102,3.103 0,1.713 1.389,3.102 3.102,3.102 1.713,0 3.102,-1.389 3.102,-3.102 0,-1.713 -1.389,-3.103 -3.102,-3.103 z" />
          <path
             id="path110"
             d="m 148.091,287.44 c -1.713,0 -3.102,1.389 -3.102,3.103 0,1.713 1.389,3.102 3.102,3.102 1.713,0 3.102,-1.389 3.102,-3.102 0,-1.714 -1.389,-3.103 -3.102,-3.103 z" />
          <path
             id="path112"
             d="m 137.714,297.816 c -1.713,0 -3.102,1.389 -3.102,3.103 0,1.713 1.389,3.102 3.102,3.102 1.713,0 3.102,-1.389 3.102,-3.102 0,-1.713 -1.389,-3.103 -3.102,-3.103 z" />
          <path
             id="path114"
             d="m 148.091,307.44 c -1.713,0 -3.102,1.389 -3.102,3.103 0,1.713 1.389,3.102 3.102,3.102 1.713,0 3.102,-1.389 3.102,-3.102 0,-1.714 -1.389,-3.103 -3.102,-3.103 z" />
          <path
             id="path116"
             d="m 137.714,317.816 c -1.713,0 -3.102,1.389 -3.102,3.103 0,1.713 1.389,3.102 3.102,3.102 1.713,0 3.102,-1.389 3.102,-3.102 0,-1.713 -1.389,-3.103 -3.102,-3.103 z" />
          <path
             id="path118"
             d="m 148.091,327.44 c -1.713,0 -3.102,1.389 -3.102,3.103 0,1.713 1.389,3.102 3.102,3.102 1.713,0 3.102,-1.389 3.102,-3.102 0,-1.714 -1.389,-3.103 -3.102,-3.103 z" />
          <path
             id="path120"
             d="m 137.714,337.816 c -1.713,0 -3.102,1.389 -3.102,3.103 0,1.713 1.389,3.102 3.102,3.102 1.713,0 3.102,-1.389 3.102,-3.102 0,-1.713 -1.389,-3.103 -3.102,-3.103 z" />
          <path
             id="path122"
             d="m 148.091,347.44 c -1.713,0 -3.102,1.389 -3.102,3.103 0,1.713 1.389,3.102 3.102,3.102 1.713,0 3.102,-1.389 3.102,-3.102 0,-1.714 -1.389,-3.103 -3.102,-3.103 z" />
          <path
             id="path124"
             d="m 137.714,357.816 c -1.713,0 -3.102,1.389 -3.102,3.103 0,1.713 1.389,3.102 3.102,3.102 1.713,0 3.102,-1.389 3.102,-3.102 0,-1.713 -1.389,-3.103 -3.102,-3.103 z" />
          <path
             id="path126"
             d="m 148.091,367.44 c -1.713,0 -3.102,1.389 -3.102,3.103 0,1.713 1.389,3.102 3.102,3.102 1.713,0 3.102,-1.389 3.102,-3.102 0,-1.714 -1.389,-3.103 -3.102,-3.103 z" />
          <path
             id="path128"
             d="m 137.714,377.816 c -1.713,0 -3.102,1.389 -3.102,3.103 0,1.713 1.389,3.102 3.102,3.102 1.713,0 3.102,-1.389 3.102,-3.102 0,-1.713 -1.389,-3.103 -3.102,-3.103 z" />
          <path
             id="path130"
             d="m 148.091,387.44 c -1.713,0 -3.102,1.389 -3.102,3.103 0,1.713 1.389,3.102 3.102,3.102 1.713,0 3.102,-1.389 3.102,-3.102 0,-1.714 -1.389,-3.103 -3.102,-3.103 z" />
          <path
             id="path132"
             d="m 137.714,397.816 c -1.713,0 -3.102,1.389 -3.102,3.103 0,1.713 1.389,3.102 3.102,3.102 1.713,0 3.102,-1.389 3.102,-3.102 0,-1.713 -1.389,-3.103 -3.102,-3.103 z" />
          <path
             id="path134"
             d="m 148.091,407.44 c -1.713,0 -3.102,1.389 -3.102,3.103 0,1.713 1.389,3.102 3.102,3.102 1.713,0 3.102,-1.389 3.102,-3.102 0,-1.714 -1.389,-3.103 -3.102,-3.103 z" />
          <path
             id="path136"
             d="m 137.714,417.816 c -1.713,0 -3.102,1.389 -3.102,3.103 0,1.713 1.389,3.102 3.102,3.102 1.713,0 3.102,-1.389 3.102,-3.102 0,-1.713 -1.389,-3.103 -3.102,-3.103 z" />
          <path
             id="path138"
             d="m 148.091,427.44 c -1.713,0 -3.102,1.389 -3.102,3.103 0,1.713 1.389,3.102 3.102,3.102 1.713,0 3.102,-1.389 3.102,-3.102 0,-1.714 -1.389,-3.103 -3.102,-3.103 z" />
          <path
             id="path140"
             d="m 137.714,437.816 c -1.713,0 -3.102,1.389 -3.102,3.103 0,1.713 1.389,3.102 3.102,3.102 1.713,0 3.102,-1.389 3.102,-3.102 0,-1.713 -1.389,-3.103 -3.102,-3.103 z" />
          <path
             id="path142"
             d="m 148.091,447.44 c -1.713,0 -3.102,1.389 -3.102,3.103 0,1.713 1.389,3.102 3.102,3.102 1.713,0 3.102,-1.389 3.102,-3.102 0,-1.714 -1.389,-3.103 -3.102,-3.103 z" />
          <path
             id="path144"
             d="m 137.714,457.816 c -1.713,0 -3.102,1.389 -3.102,3.103 0,1.713 1.389,3.102 3.102,3.102 1.713,0 3.102,-1.389 3.102,-3.102 0,-1.713 -1.389,-3.103 -3.102,-3.103 z" />
          <path
             id="path146"
             d="m 148.091,467.44 c -1.713,0 -3.102,1.389 -3.102,3.103 0,1.713 1.389,3.102 3.102,3.102 1.713,0 3.102,-1.389 3.102,-3.102 0,-1.714 -1.389,-3.103 -3.102,-3.103 z" />
          <path
             id="path148"
             d="m 137.714,477.816 c -1.713,0 -3.102,1.389 -3.102,3.103 0,1.713 1.389,3.102 3.102,3.102 1.713,0 3.102,-1.389 3.102,-3.102 0,-1.713 -1.389,-3.103 -3.102,-3.103 z" />
          <path
             id="path150"
             d="m 148.091,487.44 c -1.713,0 -3.102,1.389 -3.102,3.103 0,1.713 1.389,3.102 3.102,3.102 1.713,0 3.102,-1.389 3.102,-3.102 0,-1.714 -1.389,-3.103 -3.102,-3.103 z" />
          <path
             id="path152"
             d="m 137.714,497.816 c -1.713,0 -3.102,1.389 -3.102,3.103 0,1.713 1.389,3.102 3.102,3.102 1.713,0 3.102,-1.389 3.102,-3.102 0,-1.713 -1.389,-3.103 -3.102,-3.103 z" />
          <path
             id="path154"
             d="m 131.193,270.543 c 0,-0.884 -0.374,-1.677 -0.968,-2.242 -0.613,1.756 -1.199,3.525 -1.758,5.306 1.533,-0.188 2.726,-1.48 2.726,-3.064 z" />
          <path
             id="path156"
             d="m 128.091,287.44 c -1.713,0 -3.102,1.389 -3.102,3.103 0,1.713 1.389,3.102 3.102,3.102 1.713,0 3.102,-1.389 3.102,-3.102 0,-1.714 -1.389,-3.103 -3.102,-3.103 z" />
          <path
             id="path158"
             d="m 128.091,307.44 c -1.713,0 -3.102,1.389 -3.102,3.103 0,1.713 1.389,3.102 3.102,3.102 1.713,0 3.102,-1.389 3.102,-3.102 0,-1.714 -1.389,-3.103 -3.102,-3.103 z" />
          <path
             id="path160"
             d="m 120.816,320.919 c 0,-0.555 -0.158,-1.068 -0.413,-1.519 -0.049,1.09 -0.104,2.179 -0.134,3.274 0.344,-0.5 0.547,-1.103 0.547,-1.755 z" />
          <path
             id="path162"
             d="m 128.091,327.44 c -1.713,0 -3.102,1.389 -3.102,3.103 0,1.713 1.389,3.102 3.102,3.102 1.713,0 3.102,-1.389 3.102,-3.102 0,-1.714 -1.389,-3.103 -3.102,-3.103 z" />
          <path
             id="path164"
             d="m 120.733,341.609 c 0.051,-0.223 0.083,-0.452 0.083,-0.69 0,-0.375 -0.077,-0.73 -0.199,-1.062 0.04,0.583 0.072,1.169 0.116,1.752 z" />
          <path
             id="path166"
             d="m 128.091,347.44 c -1.713,0 -3.102,1.389 -3.102,3.103 0,1.713 1.389,3.102 3.102,3.102 1.713,0 3.102,-1.389 3.102,-3.102 0,-1.714 -1.389,-3.103 -3.102,-3.103 z" />
          <path
             id="path168"
             d="m 128.091,367.44 c -1.624,0 -2.941,1.252 -3.076,2.84 0.085,0.501 0.156,1.003 0.237,1.505 0.479,1.094 1.569,1.859 2.839,1.859 1.713,0 3.102,-1.389 3.102,-3.102 0,-1.713 -1.389,-3.102 -3.102,-3.102 z" />
          <path
             id="path170"
             d="m 128.091,387.44 c -0.313,0 -0.61,0.061 -0.895,0.147 0.165,2.001 0.3,4.004 0.405,6.008 0.161,0.025 0.322,0.049 0.489,0.049 1.713,0 3.102,-1.389 3.102,-3.102 0.001,-1.713 -1.388,-3.102 -3.101,-3.102 z" />
          <path
             id="path172"
             d="m 128.091,407.44 c -0.088,0 -0.17,0.019 -0.256,0.026 -0.035,2.046 -0.102,4.09 -0.201,6.133 0.15,0.022 0.3,0.046 0.457,0.046 1.713,0 3.102,-1.389 3.102,-3.102 0,-1.714 -1.389,-3.103 -3.102,-3.103 z" />
          <path
             id="path174"
             d="m 128.091,427.44 c -0.623,0 -1.2,0.188 -1.686,0.503 -0.191,1.55 -0.402,3.098 -0.631,4.644 0.568,0.643 1.39,1.058 2.317,1.058 1.713,0 3.102,-1.389 3.102,-3.102 0,-1.714 -1.389,-3.103 -3.102,-3.103 z" />
          <path
             id="path176"
             d="m 128.091,447.44 c -1.713,0 -3.102,1.389 -3.102,3.103 0,1.713 1.389,3.102 3.102,3.102 1.713,0 3.102,-1.389 3.102,-3.102 0,-1.714 -1.389,-3.103 -3.102,-3.103 z" />
          <path
             id="path178"
             d="m 120.816,460.919 c 0,-0.821 -0.325,-1.562 -0.845,-2.117 -0.094,0.314 -0.175,0.63 -0.27,0.943 -0.431,1.415 -0.868,2.811 -1.309,4.196 1.386,-0.31 2.424,-1.543 2.424,-3.022 z" />
          <path
             id="path180"
             d="m 128.091,467.44 c -1.713,0 -3.102,1.389 -3.102,3.103 0,1.713 1.389,3.102 3.102,3.102 1.713,0 3.102,-1.389 3.102,-3.102 0,-1.714 -1.389,-3.103 -3.102,-3.103 z" />
          <path
             id="path182"
             d="m 117.714,477.816 c -1.713,0 -3.102,1.389 -3.102,3.103 0,1.713 1.389,3.102 3.102,3.102 1.713,0 3.102,-1.389 3.102,-3.102 0,-1.713 -1.389,-3.103 -3.102,-3.103 z" />
          <path
             id="path184"
             d="m 128.091,487.44 c -1.713,0 -3.102,1.389 -3.102,3.103 0,1.713 1.389,3.102 3.102,3.102 1.713,0 3.102,-1.389 3.102,-3.102 0,-1.714 -1.389,-3.103 -3.102,-3.103 z" />
          <path
             id="path186"
             d="m 117.714,497.816 c -1.713,0 -3.102,1.389 -3.102,3.103 0,1.713 1.389,3.102 3.102,3.102 1.713,0 3.102,-1.389 3.102,-3.102 0,-1.713 -1.389,-3.103 -3.102,-3.103 z" />
          <path
             id="path188"
             d="m 111.193,490.543 c 0,-1.212 -0.702,-2.251 -1.715,-2.761 -0.865,1.939 -1.743,3.809 -2.636,5.597 0.383,0.169 0.804,0.266 1.249,0.266 1.713,0 3.102,-1.389 3.102,-3.102 z" />
        </g>
        <path
           id="path192"
           d="m 51.981,127.27 c 4.663,8.22 13.217,16.654 13.118,28.291 -0.04,4.73 -1.383,9.26 -3.383,13.618 h 84.066 c -2.29,-4.774 -3.857,-9.699 -3.889,-14.723 -0.076,-11.774 8.701,-19.288 13.564,-27.187 H 51.981 Z" />
        <path
           id="path194"
           d="m 34.401,211.911 c -6.296,11.016 -11.57,23.964 -15.593,38.76 h 169.919 c -4.036,-14.842 -9.33,-27.825 -15.652,-38.864 -0.592,-1.035 -1.197,-2.046 -1.807,-3.046 h -135 c -0.631,1.035 -1.255,2.08 -1.867,3.15 z" />
      </g>
      <g
         id="g218"
         fill="#f9fbfc">
        <path
           id="path198"
           d="m 175.684,223.247 c -0.352,-0.825 -0.702,-1.65 -1.058,-2.473 -0.003,0.049 -0.015,0.095 -0.015,0.144 0.001,0.934 0.421,1.761 1.073,2.329 z" />
        <path
           id="path200"
           d="m 177.714,244.021 c 1.713,0 3.102,-1.389 3.102,-3.102 0,-1.713 -1.389,-3.102 -3.102,-3.102 -1.713,0 -3.102,1.389 -3.102,3.102 0,1.713 1.389,3.102 3.102,3.102 z" />
        <path
           id="path202"
           d="m 185.481,248.876 c -0.308,0.482 -0.492,1.051 -0.492,1.666 0,0.04 0.01,0.076 0.012,0.116 h 1.074 c -0.195,-0.599 -0.398,-1.187 -0.594,-1.782 z" />
        <path
           id="path204"
           d="m 164.988,210.542 c 0,1.713 1.389,3.102 3.102,3.102 1.119,0 2.091,-0.598 2.637,-1.486 -0.785,-1.618 -1.578,-3.18 -2.378,-4.692 -0.087,-0.007 -0.17,-0.026 -0.259,-0.026 -1.713,0 -3.102,1.389 -3.102,3.102 z" />
        <path
           id="path206"
           d="m 157.714,224.021 c 1.713,0 3.102,-1.389 3.102,-3.102 0,-1.713 -1.389,-3.102 -3.102,-3.102 -0.042,0 -0.08,0.011 -0.122,0.012 -0.972,1.263 -1.948,2.523 -2.887,3.812 0.327,1.363 1.546,2.38 3.009,2.38 z" />
        <path
           id="path208"
           d="m 168.091,227.44 c -1.713,0 -3.102,1.389 -3.102,3.103 0,1.713 1.389,3.102 3.102,3.102 1.713,0 3.102,-1.389 3.102,-3.102 0,-1.714 -1.389,-3.103 -3.102,-3.103 z" />
        <path
           id="path210"
           d="m 157.714,237.816 c -1.713,0 -3.102,1.389 -3.102,3.102 0,1.713 1.389,3.102 3.102,3.102 1.713,0 3.102,-1.389 3.102,-3.102 0,-1.713 -1.389,-3.102 -3.102,-3.102 z" />
        <path
           id="path212"
           d="m 171.193,250.542 c 0,-1.713 -1.389,-3.103 -3.102,-3.103 -1.713,0 -3.102,1.389 -3.102,3.103 0,0.04 0.01,0.076 0.012,0.116 h 6.181 c 0.001,-0.039 0.011,-0.076 0.011,-0.116 z" />
        <path
           id="path214"
           d="m 151.193,230.542 c 0,-0.922 -0.41,-1.741 -1.048,-2.309 -1.125,1.697 -2.229,3.41 -3.298,5.147 0.381,0.167 0.8,0.263 1.243,0.263 1.714,0.002 3.103,-1.387 3.103,-3.101 z" />
        <path
           id="path216"
           d="m 151.193,250.542 c 0,-1.713 -1.389,-3.103 -3.102,-3.103 -1.713,0 -3.102,1.389 -3.102,3.103 0,0.04 0.01,0.076 0.012,0.116 h 6.181 c 0.001,-0.039 0.011,-0.076 0.011,-0.116 z" />
      </g>
      <path
         id="path220"
         fill="#31373d"
         d="M 155.883,511.778 H 51.513 l -1.201,-1.512 C 34.157,489.932 23.138,446.154 18.007,421.868 10.708,387.314 5.991,349.096 5.991,324.502 c 0,-48.914 12.793,-81.99 24.784,-109.152 5.804,-13.148 12.204,-22.717 17.851,-31.159 7.273,-10.873 12.528,-18.729 12.528,-28.477 0,-14.66 -6.759,-23.902 -10.797,-29.425 -0.838,-1.146 -1.562,-2.135 -2.121,-3.031 -2.076,-3.321 -12.43,-20.944 -12.43,-41.837 0,-9.01 2.729,-29.161 12.958,-47.534 C 61.058,11.81 80.03,0.092 103.635,0 l 0.325,0.006 c 23.53,0.091 42.483,11.81 54.735,33.889 10.177,18.34 12.893,38.503 12.893,47.526 0,20.893 -10.354,38.516 -12.43,41.837 -0.561,0.896 -1.283,1.886 -2.121,3.031 -4.038,5.522 -10.797,14.765 -10.797,29.425 0,9.748 5.255,17.604 12.528,28.477 5.648,8.442 12.048,18.011 17.852,31.159 11.991,27.162 24.784,60.238 24.784,109.152 0,24.594 -4.717,62.812 -12.016,97.366 -5.131,24.286 -16.149,68.065 -32.305,88.398 z m -100.465,-8 h 96.559 c 25.335,-34.312 41.427,-136.254 41.427,-179.276 0,-47.358 -12.441,-79.506 -24.103,-105.922 -5.522,-12.51 -11.717,-21.771 -17.183,-29.941 -7.754,-11.592 -13.879,-20.748 -13.879,-32.925 0,-17.273 8.027,-28.25 12.34,-34.147 0.745,-1.019 1.389,-1.899 1.795,-2.549 1.147,-1.836 11.213,-18.492 11.213,-37.597 0,-15.458 -10.138,-73.223 -59.732,-73.416 L 103.619,8 c -49.66,0.229 -59.812,57.966 -59.812,73.421 0,19.104 10.065,35.76 11.213,37.597 0.406,0.65 1.05,1.53 1.795,2.549 4.312,5.897 12.34,16.874 12.34,34.147 0,12.177 -6.125,21.333 -13.879,32.925 -5.466,8.171 -11.66,17.432 -17.183,29.941 -11.661,26.416 -24.103,58.564 -24.103,105.922 10e-4,43.021 16.093,144.964 41.428,179.276 z" />
    </g>
  </g>
</svg>
