<svg id="Capa_1" enable-background="new 0 0 512 512" height="512" viewBox="0 0 512 512" width="512" xmlns="http://www.w3.org/2000/svg"><g><path d="m349.633 512h-187.266c-39.511 0-72.39-30.889-74.854-70.321l-15.75-251.986c-17.856-5.97-30.763-22.853-30.763-42.693v-30c0-8.284 6.716-15 15-15h400c8.284 0 15 6.716 15 15v30c0 19.84-12.907 36.723-30.764 42.692l-15.75 251.986c-2.464 39.433-35.342 70.322-74.853 70.322z" fill="#00ff94"/><path d="m456 102h-200v410h93.633c39.511 0 72.39-30.889 74.854-70.321l15.75-251.986c17.856-5.97 30.763-22.853 30.763-42.693v-30c0-8.284-6.716-15-15-15z" fill="#00cc76"/><path d="m334.68 362.67c-6.384-5.281-15.838-4.387-21.119 1.997-14.369 17.37-35.349 27.333-57.561 27.333-41.355 0-75-33.645-75-75h-30c0 57.897 47.103 105 105 105 31.184 0 60.59-13.928 80.677-38.212 5.281-6.383 4.386-15.838-1.997-21.118z" fill="#f6f9f9"/><path d="m336.677 383.788c5.281-6.383 4.387-15.838-1.997-21.118-6.384-5.281-15.838-4.387-21.119 1.997-14.369 17.37-35.349 27.333-57.561 27.333v30c31.184 0 60.59-13.928 80.677-38.212z" fill="#e2dff4"/><path d="m256 212c-31.184 0-60.59 13.928-80.677 38.212-5.281 6.383-4.387 15.838 1.997 21.118 6.384 5.281 15.838 4.386 21.119-1.997 14.369-17.37 35.349-27.333 57.561-27.333 41.355 0 75 33.645 75 75h30c0-57.897-47.103-105-105-105z" fill="#f6f9f9"/><path d="m331 317h30c0-57.897-47.103-105-105-105v30c41.355 0 75 33.645 75 75z" fill="#e2dff4"/><path d="m345.986 332.003c-2.545 0-5.124-.648-7.486-2.013l-36.742-21.213c-7.175-4.142-9.633-13.315-5.49-20.49 4.142-7.174 13.315-9.634 20.49-5.49l23.752 13.713 13.713-23.752c4.142-7.174 13.315-9.635 20.49-5.49 7.175 4.142 9.633 13.315 5.49 20.49l-21.213 36.742c-2.778 4.812-7.82 7.503-13.004 7.503z" fill="#e2dff4"/><path d="m144.773 368.745c-2.545 0-5.124-.648-7.486-2.013-7.175-4.142-9.633-13.315-5.49-20.49l21.213-36.742c4.143-7.174 13.315-9.634 20.49-5.49l36.742 21.213c7.175 4.142 9.633 13.315 5.49 20.49-4.143 7.174-13.316 9.632-20.49 5.49l-23.752-13.713-13.713 23.752c-2.778 4.812-7.82 7.502-13.004 7.503z" fill="#f6f9f9"/><path d="m426 42h-80.529l-10.499-22.049c-5.773-12.12-18.176-19.951-31.6-19.951h-94.744c-13.424 0-25.827 7.831-31.601 19.952l-10.498 22.048h-80.529c-24.813 0-45 20.187-45 45v30h430v-30c0-24.813-20.187-45-45-45z" fill="#00cc76"/><path d="m426 42h-80.529l-10.499-22.049c-5.773-12.12-18.176-19.951-31.6-19.951h-47.372v117h215v-30c0-24.813-20.187-45-45-45z" fill="#00aa63"/></g></svg>