<?xml version="1.0" encoding="iso-8859-1"?>
<!-- Generator: Adobe Illustrator 19.0.0, SVG Export Plug-In . SVG Version: 6.00 Build 0)  -->
<svg version="1.1" id="Layer_1" xmlns="http://www.w3.org/2000/svg" xmlns:xlink="http://www.w3.org/1999/xlink" x="0px" y="0px"
	 viewBox="0 0 378 378" style="enable-background:new 0 0 378 378;" xml:space="preserve">
<polygon style="fill:#FAD0B0;" points="115.165,41.639 140.743,7.66 144.579,41.404 173.531,38.112 159.488,63.563 "/>
<rect x="163" y="155.954" style="fill:#E27879;" width="95.333" height="61.711"/>
<rect x="163" y="155.954" style="fill:#C76B6B;" width="26" height="61.711"/>
<path style="fill:#A47D73;" d="M166.831,120.273V80.934l0,0c0-27.782-26.087-48.181-53.049-41.483l-58.26,14.473
	c-15.013,3.729-25.553,17.208-25.553,32.677l0,0c0,18.596,15.075,33.671,33.671,33.671h40.691v32.803v9.859v53.965l-44.276,76.688
	l40.356,23.299l39.133-67.78H261.67l19.57,68.213l44.792-12.85l-16.424-57.248v-125.21c0-11.628-14.624-16.786-21.92-7.732
	l-31.309,38.858L235,209.075h-57L166.831,120.273z"/>
<path style="fill:#80635B;" d="M166.831,120.273V80.934l0,0c0-27.782-26.087-48.181-53.049-41.483l-58.26,14.473
	c-15.013,3.729-25.553,17.208-25.553,32.677l0,0c0,18.596,15.075,33.671,33.671,33.671h40.691v32.803v9.859v53.965l-44.276,76.688
	l40.356,23.299l39.133-67.78H189v-40.031h-11L166.831,120.273z"/>
<path style="fill:#D1B096;" d="M372.707,273.311c-8.315-10.368-23.462-12.033-33.832-3.716
	c-42.912,34.417-94.738,52.61-149.875,52.61c-55.136,0-106.962-18.192-149.875-52.609c-10.368-8.317-25.515-6.652-33.832,3.717
	c-8.316,10.369-6.652,25.516,3.717,33.832c24.996,20.047,52.903,35.666,82.947,46.422c31.09,11.13,63.739,16.773,97.042,16.773
	s65.953-5.643,97.043-16.773c30.045-10.756,57.952-26.374,82.948-46.422C379.359,298.827,381.023,283.679,372.707,273.311z"/>
<path style="fill:#BFA28A;" d="M189,322.205c-55.136,0-106.962-18.192-149.875-52.609c-10.368-8.317-25.515-6.652-33.832,3.717
	c-8.316,10.369-6.652,25.516,3.717,33.832c24.996,20.047,52.903,35.666,82.947,46.422c31.09,11.13,63.739,16.773,97.042,16.773
	v-48.135H189z"/>
<circle style="fill:#FAD0B0;" cx="115.165" cy="78.617" r="11.087"/>
<path style="fill:#EBC5A7;" d="M115.165,89.704c-6.123,0-11.087-4.964-11.087-11.087s4.964-11.087,11.087-11.087V89.704z"/>
<g>
</g>
<g>
</g>
<g>
</g>
<g>
</g>
<g>
</g>
<g>
</g>
<g>
</g>
<g>
</g>
<g>
</g>
<g>
</g>
<g>
</g>
<g>
</g>
<g>
</g>
<g>
</g>
<g>
</g>
</svg>
