<svg id="Capa_1" enable-background="new 0 0 512 512" height="512" viewBox="0 0 512 512" width="512" xmlns="http://www.w3.org/2000/svg"><g><path d="m477.11 135.289-18.07 32.53c-40.84 73.51-118.46 119.18-202.56 119.18h-169.68c-20.11 0-37.92-13.52-43.34-32.89l-34.88-121.99c-2.746-9.549 4.447-19.12 14.42-19.12h441c11.425 0 18.657 12.291 13.11 22.29z" fill="#bc8173"/><path d="m477.11 135.289-18.07 32.53c-40.84 73.51-118.46 119.18-202.56 119.18-.747 0-.48 13.392-.48-174h208c11.425 0 18.657 12.291 13.11 22.29z" fill="#865240"/><path d="m428.97 210.009c-43.87 48.931-106.74 76.99-172.49 76.99h-169.68c-20.12 0-37.93-13.52-43.34-32.89l-12.61-44.101h398.12z" fill="#865240"/><path d="m256 210.009h172.97c-43.012 47.974-105.305 76.99-172.97 76.99z" fill="#5c381f"/><path d="m512 127.999c0 8.28-6.72 15-15 15h-482c-8.28 0-15-6.72-15-15s6.72-15 15-15h482c8.28 0 15 6.72 15 15z" fill="#865240"/><path d="m512 127.999c0 8.28-6.72 15-15 15h-241v-30h241c8.28 0 15 6.72 15 15z" fill="#5c381f"/><path d="m370.61 98.609-248 248c-2.93 2.93-6.77 4.39-10.61 4.39-13.312 0-20.024-16.179-10.61-25.61l248-248c5.86-5.85 15.36-5.85 21.22 0 5.85 5.86 5.85 15.36 0 21.22z" fill="#ffe278"/><path d="m370.61 98.609-248 248c-5.812 5.811-15.325 5.894-21.22 0l269.22-269.221c5.85 5.861 5.85 15.361 0 21.221z" fill="#ffb454"/><path d="m127 335.999v48c0 3.98-1.58 7.79-4.39 10.61l-40 40c-5.812 5.811-15.325 5.894-21.22 0l-48-48c-5.85-5.86-5.85-15.36 0-21.221l40-40c2.82-2.81 6.63-4.39 10.61-4.39h48c8.265.001 15 6.72 15 15.001z" fill="#ff6378"/><path d="m127 335.999v48c0 3.98-1.58 7.79-4.39 10.61l-40 40c-5.812 5.811-15.325 5.894-21.22 0l-24-24 85.21-85.21c2.72 2.71 4.4 6.46 4.4 10.6z" fill="#e20059"/></g></svg>