<svg id="Layer_1" enable-background="new 0 0 512.081 512.081" height="512" viewBox="0 0 512.081 512.081" width="512" xmlns="http://www.w3.org/2000/svg"><g><g><path d="m256.037 90.977c-8.284 0-15-6.716-15-15v-60.406c0-8.284 6.716-15 15-15s15 6.716 15 15v60.406c0 8.284-6.716 15-15 15z" fill="#eceae7"/></g><path d="m256.916.571v90.317c7.872-.458 15.12-6.968 15.12-14.956v-60.406c.001-7.987-7.247-14.497-15.12-14.955z" fill="#e7dfdd"/><path d="m256.037 62.16c-75.284 0-136.533 61.396-136.533 136.862 0 28.713 7.602 55.494 21.984 77.447 13.849 21.14 33.682 37.367 57.547 47.135l45.004 55.177c2.942 3.606 7.348 5.698 12.002 5.698s9.061-2.093 12.002-5.699l45.064-55.257c49.128-20.815 79.462-68.131 79.462-124.5 0-75.467-61.248-136.863-136.532-136.863z" fill="#544f57"/><g><path d="m285.435 466.915c-8.284 0-15-6.716-15-15v-38.153c0-8.284 6.716-15 15-15s15 6.716 15 15v38.153c0 8.284-6.716 15-15 15z" fill="#ffe494"/></g><g><path d="m380.257 511.51c-8.284 0-15-6.716-15-15v-54.362c0-7.808-4.278-14.905-11.164-18.524l-45.949-24.144c-7.333-3.854-10.154-12.922-6.301-20.256 3.853-7.333 12.921-10.155 20.256-6.301l45.948 24.144c16.783 8.819 27.209 26.093 27.209 45.081v54.362c.001 8.284-6.714 15-14.999 15z" fill="#454040"/></g><g><path d="m438.669 511.51c-8.284 0-15-6.716-15-15v-86.207c0-9.455-6.35-17.76-15.443-20.198l-87.888-23.561c-8.001-2.145-12.749-10.371-10.604-18.373 2.146-8.001 10.37-12.752 18.373-10.604l87.888 23.561c22.182 5.947 37.674 26.168 37.674 49.174v86.207c0 8.285-6.716 15.001-15 15.001z" fill="#1e1205"/></g><g><path d="m322.736 352.898c-7.245 0-13.619-5.261-14.795-12.644-1.303-8.181 4.273-15.869 12.455-17.172l144.135-22.949c10.169-1.619 17.55-10.302 17.55-20.646v-87.598c0-8.284 6.716-15 15-15s15 6.716 15 15v87.598c0 25.178-18.014 46.321-42.833 50.273l-144.135 22.949c-.798.127-1.593.189-2.377.189z" fill="#1e1205"/></g><g><path d="m315.136 332.914c-5.137 0-10.139-2.64-12.936-7.385-4.207-7.137-1.832-16.333 5.304-20.54l105.888-62.421c6.339-3.737 10.277-10.646 10.277-18.03v-208.625c0-8.284 6.716-15 15-15s15 6.716 15 15v208.625c0 17.957-9.595 34.768-25.042 43.874l-105.887 62.421c-2.392 1.41-5.015 2.081-7.604 2.081z" fill="#1e1205"/></g><g><g><path d="m131.824 511.51c-8.284 0-15-6.716-15-15v-54.362c0-18.988 10.426-36.262 27.21-45.081l45.948-24.144c7.334-3.853 16.403-1.032 20.256 6.301 3.854 7.333 1.032 16.402-6.301 20.256l-45.948 24.144c-6.887 3.619-11.165 10.716-11.165 18.524v54.362c0 8.284-6.716 15-15 15z" fill="#544f57"/></g><g><path d="m73.412 511.51c-8.284 0-15-6.716-15-15v-86.207c0-23.006 15.492-43.228 37.674-49.174l87.888-23.561c8.003-2.146 16.228 2.602 18.373 10.604s-2.603 16.228-10.604 18.373l-87.888 23.561c-9.093 2.438-15.443 10.743-15.443 20.198v86.207c0 8.283-6.716 14.999-15 14.999z" fill="#454040"/></g><g><path d="m189.345 352.898c-.784 0-1.578-.062-2.377-.189l-144.135-22.949c-24.819-3.952-42.833-25.095-42.833-50.273v-87.598c0-8.284 6.716-15 15-15s15 6.716 15 15v87.598c0 10.344 7.381 19.027 17.55 20.646l144.134 22.949c8.182 1.303 13.758 8.991 12.455 17.172-1.175 7.383-7.55 12.644-14.794 12.644z" fill="#454040"/></g><g><path d="m196.945 332.914c-2.589 0-5.211-.671-7.604-2.081l-105.887-62.421c-15.446-9.105-25.042-25.917-25.042-43.874v-208.625c0-8.284 6.716-15 15-15s15 6.716 15 15v208.625c0 7.384 3.938 14.293 10.277 18.03l105.888 62.421c7.136 4.207 9.511 13.403 5.304 20.54-2.797 4.744-7.8 7.385-12.936 7.385z" fill="#454040"/></g></g><path d="m256.916 62.16v322.258c4.326-.246 8.371-2.271 11.127-5.65l45.064-55.257c49.128-20.815 79.462-68.13 79.462-124.5 0-75.172-60.773-136.374-135.653-136.851z" fill="#454040"/><g><path d="m226.551 466.915c-8.284 0-15-6.716-15-15v-38.153c0-8.284 6.716-15 15-15s15 6.716 15 15v38.153c0 8.284-6.716 15-15 15z" fill="#fff2cb"/></g><ellipse cx="224.557" cy="215.079" fill="#ff4a4a" rx="14.959" ry="15"/><ellipse cx="289.276" cy="215.079" fill="#c30047" rx="14.959" ry="15"/><ellipse cx="256.916" cy="149.324" fill="#ff4a4a" rx="14.959" ry="15"/><path d="m271.876 149.324c0-8.284-6.698-15-14.959-15v30c8.261 0 14.959-6.716 14.959-15z" fill="#c30047"/><ellipse cx="256.037" cy="352.056" fill="#544f57" rx="83.186" ry="83.371"/><path d="m256.916 268.73v166.698c45.464-.477 82.307-37.673 82.307-83.349s-36.843-82.873-82.307-83.349z" fill="#454040"/><path d="m311.394 289.967c-14.727-13.222-34.159-21.282-55.441-21.282-21.344 0-40.83 8.105-55.572 21.397l19.004 23.276c.035-.033.072-.064.106-.097l32.035 38.426c2.782 3.337 7.926 3.278 10.631-.121l35.584-44.711c.171-.214.322-.437.463-.664z" fill="#454040"/><path d="m311.394 289.956c-14.504-13.022-33.575-21.019-54.478-21.26v30.001h.005v55.455c1.947-.035 3.88-.89 5.222-2.561l35.753-44.942c.117-.159.222-.323.324-.489z" fill="#1e1205"/></g></svg>