<svg id="Layer_1" enable-background="new 0 0 511.261 511.261" height="512" viewBox="0 0 511.261 511.261" width="512" xmlns="http://www.w3.org/2000/svg"><g><path d="m496.26 240.63h-21.63c-28.856-35.717-45.428-89.454-43.099-139.688l18.524-18.524c5.858-5.858 5.858-15.355 0-21.213-5.857-5.858-15.355-5.858-21.213 0l-18.689 18.689c-45.712 3.417-99.379-13.777-139.522-44.541v-20.353c0-8.284-6.716-15-15-15s-15 6.716-15 15v20.355c-40.143 30.762-93.81 47.953-139.523 44.54l-18.689-18.689c-5.857-5.858-15.355-5.858-21.213 0s-5.858 15.355 0 21.213l18.524 18.524c2.329 50.235-14.244 103.972-43.1 139.688h-21.63c-8.284 0-15 6.716-15 15s6.716 15 15 15h21.63c28.856 35.717 45.429 89.453 43.1 139.688l-15.992 15.991c-5.858 5.858-5.858 15.355 0 21.213 2.929 2.929 6.768 4.394 10.606 4.394s7.678-1.464 10.606-4.394l16.157-16.157c45.708-3.418 99.378 13.777 139.522 44.541v20.355c0 8.284 6.716 15 15 15s15-6.716 15-15v-20.354c40.144-30.763 93.81-47.957 139.523-44.54l18.689 18.689c2.929 2.929 6.768 4.394 10.606 4.394s7.678-1.464 10.606-4.394c5.858-5.858 5.858-15.355 0-21.213l-18.524-18.524c-2.33-50.236 14.243-103.973 43.1-139.688h21.629c8.284 0 15-6.716 15-15s-6.713-15.002-14.998-15.002zm-58.414 0h-54.984c-13.776-18.394-21.784-44.739-21.191-69.827l40.426-40.426c3.165 39.609 15.757 78.539 35.749 110.253zm-125.342-63.086-41.873 41.873v-56.601c13.276 7.01 27.563 12.03 41.873 14.728zm21.31 21.116c2.546 14.779 7.269 29.102 13.862 41.971h-55.832zm6.487-48.913c-22.884 1.04-49.178-7.354-69.67-22.151v-55.7c33.562 21.199 72.328 34.455 109.843 37.678zm-99.67 13.069v56.602l-41.873-41.873c14.308-2.7 28.596-7.72 41.873-14.729zm-21.213 77.814h-55.832c6.592-12.868 11.315-27.191 13.861-41.971zm0 30-41.971 41.971c-2.545-14.78-7.269-29.103-13.861-41.971zm21.213 21.213v56.604c-13.279-7.011-27.568-12.026-41.879-14.725zm30 56.604v-56.603l41.878 41.878c-14.311 2.698-28.599 7.713-41.878 14.725zm63.183-35.846-41.971-41.971h55.832c-6.592 12.868-11.315 27.191-13.861 41.971zm-93.183-240.705v55.7c-20.493 14.798-46.787 23.196-69.67 22.152l-40.173-40.173c37.514-3.224 76.282-16.481 109.843-37.679zm-131.467 58.481 40.426 40.426c.593 25.088-7.415 51.431-21.193 69.827h-54.982c19.992-31.714 32.584-70.644 35.749-110.253zm-35.749 140.253h54.983c13.777 18.395 21.785 44.739 21.192 69.827l-40.426 40.426c-3.165-39.608-15.757-78.538-35.749-110.253zm97.545 90.884c22.882-1.038 49.178 7.354 69.671 22.151v55.699c-33.562-21.199-72.331-34.453-109.846-37.675zm99.671 77.851v-55.699c20.494-14.798 46.794-23.195 69.67-22.152l40.176 40.176c-37.516 3.221-76.285 16.476-109.846 37.675zm131.466-58.481-40.426-40.426c-.593-25.091 7.416-51.437 21.191-69.827h54.984c-19.992 31.713-32.584 70.644-35.749 110.253z" fill="#454040"/><path d="m496.26 240.626h-21.63c-28.856-35.717-45.428-89.454-43.099-139.688l18.524-18.524c5.858-5.858 5.858-15.355 0-21.213-5.857-5.858-15.355-5.858-21.213 0l-18.689 18.689c-45.712 3.417-99.379-13.777-139.522-44.541v-20.354c0-8.253-6.666-14.945-14.908-14.995v511.251c8.241-.05 14.908-6.742 14.908-14.995v-20.354c40.144-30.763 93.81-47.957 139.523-44.54l18.689 18.689c2.929 2.929 6.768 4.394 10.606 4.394s7.678-1.464 10.606-4.394c5.858-5.858 5.858-15.355 0-21.213l-18.524-18.524c-2.33-50.236 14.243-103.973 43.1-139.688h21.629c8.284 0 15-6.716 15-15s-6.715-15-15-15zm-225.629-168.735c33.562 21.199 72.328 34.455 109.843 37.678l-40.173 40.173c-22.884 1.04-49.178-7.354-69.67-22.151zm21.213 168.735 41.971-41.971c2.546 14.779 7.269 29.102 13.862 41.971zm55.831 30c-6.592 12.868-11.315 27.191-13.861 41.971l-41.971-41.971zm-77.044-107.814c13.277 7.01 27.564 12.03 41.873 14.728l-41.873 41.873zm0 129.027 41.878 41.878c-14.31 2.698-28.599 7.714-41.878 14.725zm0 147.521v-55.7c20.494-14.798 46.794-23.195 69.67-22.152l40.176 40.176c-37.516 3.223-76.285 16.477-109.846 37.676zm131.466-58.481-40.426-40.426c-.593-25.091 7.416-51.437 21.191-69.827h54.984c-19.992 31.714-32.584 70.644-35.749 110.253zm-19.235-140.253c-13.776-18.394-21.784-44.739-21.191-69.827l40.426-40.426c3.166 39.609 15.757 78.539 35.749 110.253z" fill="#1e1205"/></g></svg>