<svg id="Capa_1" enable-background="new 0 0 512.369 512.369" height="512" viewBox="0 0 512.369 512.369" width="512" xmlns="http://www.w3.org/2000/svg"><g><g><g><g><path d="m361.763 512.369h-118.69c-25.07 0-48.775-7.959-66.748-22.412-18.93-15.222-29.355-35.75-29.355-57.805v-83.165c0-8.284 6.716-15 15-15s15 6.716 15 15v83.165c0 27.689 29.653 50.217 66.102 50.217h118.69c36.449 0 66.102-22.527 66.102-50.217v-66.182c0-8.284 6.716-15 15-15s15 6.716 15 15v66.182c0 22.055-10.425 42.583-29.355 57.805-17.971 14.453-41.677 22.412-66.746 22.412z" fill="#0d8ebc"/><path d="m442.865 350.971c-8.284 0-15 6.716-15 15v66.182c0 27.689-29.653 50.217-66.102 50.217h-118.69c-36.449 0-66.102-22.527-66.102-50.217v-83.165c0-8.247-6.657-14.935-14.89-14.994v141.506c4.007 5.202 8.767 10.053 14.245 14.458 17.973 14.453 41.678 22.412 66.748 22.412h118.69c25.07 0 48.775-7.959 66.748-22.412 18.93-15.222 29.355-35.75 29.355-57.805v-66.182c-.002-8.285-6.718-15-15.002-15z" fill="#0a617d"/></g><g><path d="m162.08 354.869c-19.29 0-34.927-15.637-34.927-34.927v-46.977h69.854v46.977c0 19.29-15.638 34.927-34.927 34.927z" fill="#0a617d"/><path d="m162.08 272.965v81.904c19.29 0 34.927-15.637 34.927-34.927v-46.977z" fill="#05303d"/></g></g><g><g><path d="m210.304 290.551h-96.448c-62.679 0-113.671-50.993-113.671-113.672v-134.074c0-8.284 6.716-15 15-15h81.567c8.284 0 15 6.716 15 15s-6.716 15-15 15h-66.567v119.074c0 46.137 37.535 83.672 83.671 83.672h96.448c46.137 0 83.671-37.535 83.671-83.672v-119.074h-57.045c-8.284 0-15-6.716-15-15s6.716-15 15-15h72.045c8.284 0 15 6.716 15 15v134.074c0 62.679-50.993 113.672-113.671 113.672z" fill="#e2dff4"/><path d="m308.975 27.805h-72.045c-8.284 0-15 6.716-15 15s6.716 15 15 15h57.045v119.074c0 46.137-37.535 83.672-83.671 83.672h-48.224v30h48.224c62.679 0 113.671-50.993 113.671-113.672v-134.074c0-8.284-6.716-15-15-15z" fill="#d5d3ea"/></g><g><path d="m184.229 42.717c0-23.554 19.163-42.717 42.718-42.717h27.994c7.726 0 13.989 6.263 13.989 13.989v57.457c0 7.726-6.263 13.989-13.989 13.989h-27.994c-23.555 0-42.718-19.164-42.718-42.718z" fill="#0a617d"/><path d="m101.213 85.435h-27.995c-7.726 0-13.989-6.263-13.989-13.989v-57.457c0-7.726 6.264-13.989 13.989-13.989h27.994c23.554 0 42.717 19.163 42.717 42.717s-19.162 42.718-42.716 42.718z" fill="#0d8ebc"/></g></g></g><g><g><path d="m442.348 374.284c-38.508 0-69.837-31.566-69.837-70.367 0-38.8 31.329-70.366 69.837-70.366s69.836 31.566 69.836 70.366c.001 38.801-31.328 70.367-69.836 70.367z" fill="#e2dff4"/><path d="m442.362 233.551v140.733c38.502-.008 69.823-31.571 69.823-70.367 0-38.795-31.321-70.358-69.823-70.366z" fill="#d5d3ea"/></g><g><path d="m442.344 318.92c-6.256 0-12.016-4.061-14.11-9.952-2.092-5.887-.266-12.685 4.6-16.648 4.87-3.966 11.822-4.478 17.217-1.266 5.365 3.194 8.258 9.669 7.002 15.796-1.417 6.921-7.615 12.07-14.709 12.07z" fill="#0d8ebc"/><path d="m450.052 291.053c-2.366-1.409-5.032-2.101-7.69-2.099v29.965c7.086-.009 13.276-5.155 14.692-12.07 1.255-6.126-1.638-12.601-7.002-15.796z" fill="#0a617d"/></g></g></g></svg>