<svg id="Capa_1" enable-background="new 0 0 511.91 511.91" height="512" viewBox="0 0 511.91 511.91" width="512" xmlns="http://www.w3.org/2000/svg"><g><g><g><path d="m4.394 507.516c-5.858-5.858-5.858-15.355 0-21.213l118.282-118.282c5.858-5.858 15.355-5.858 21.213 0s5.858 15.355 0 21.213l-118.282 118.282c-5.858 5.858-15.356 5.858-21.213 0z" fill="#fbf4f4"/><path d="m143.888 368.022-139.494 139.494c5.858 5.858 15.355 5.858 21.213 0l118.282-118.282c5.857-5.857 5.857-15.355-.001-21.212z" fill="#e2dff4"/></g><g><g><g><path d="m264.135 160.122 61.306-61.306 87.653 87.653-61.306 61.305-50.929-36.787z" fill="#fbf4f4"/><path d="m369.268 142.642-68.372 68.372 50.892 36.76 61.306-61.305z" fill="#e2dff4"/></g><g><path d="m264.135 160.122-88.376 88.376c-16.508 16.508-21.747 40.008-15.738 60.965l-37.294 37.294c-5.858 5.858-5.858 15.355 0 21.213l21.213 21.213c5.858 5.858 15.355 5.858 21.213 0l37.294-37.294c20.956 6.009 44.457.77 60.965-15.738l88.376-88.376z" fill="#e2dff4"/><path d="m307.962 203.948-174.628 174.628 10.606 10.606c5.858 5.858 15.355 5.858 21.213 0l37.294-37.294c20.956 6.009 44.457.77 60.965-15.738l88.376-88.376z" fill="#d5d3ea"/></g></g><g fill="#d5d3ea"><path d="m255.096 213.254-22.046-22.046-21.213 21.213 22.047 22.047c5.858 5.858 15.355 5.858 21.213 0 5.857-5.859 5.857-15.356-.001-21.214z"/><path d="m212.669 255.68-22.046-22.046-14.863 14.863c-2.157 2.157-4.117 4.436-5.889 6.81l21.586 21.586c5.858 5.858 15.355 5.858 21.213 0 5.857-5.857 5.857-15.355-.001-21.213z"/></g></g></g><g><g><path d="m358.661 132.035 87.718-87.718c5.858-5.858 27.071 15.355 21.213 21.213l-87.718 87.718c-5.857 5.858-27.071-15.355-21.213-21.213z" fill="#0a617d"/><path d="m461.379 50.531-96.505 96.505c5.303 5.303 12.071 9.142 15 6.213l87.718-87.718c2.929-2.929-.91-9.697-6.213-15z" fill="#05303d"/></g><g><path d="m486.303 105.455-79.848-79.848c-5.858-5.858-5.858-15.355 0-21.213s15.355-5.858 21.213 0l79.848 79.848c5.858 5.858 5.858 15.355 0 21.213s-15.355 5.858-21.213 0z" fill="#0d8ebc"/><path d="m507.516 84.242-39.924-39.924-21.213 21.213 39.924 39.924c5.858 5.858 15.355 5.858 21.213 0s5.858-15.356 0-21.213z" fill="#0a617d"/></g><g><path d="m416.63 211.217-115.937-115.937c-5.858-5.858-5.858-15.355 0-21.213s15.355-5.858 21.213 0l115.937 115.937c5.858 5.858 5.858 15.355 0 21.213s-15.355 5.858-21.213 0z" fill="#0d8ebc"/><path d="m437.843 190.004-57.969-57.969-21.213 21.213 57.969 57.969c5.858 5.858 15.355 5.858 21.213 0s5.858-15.355 0-21.213z" fill="#0a617d"/></g></g></g></svg>