<?xml version="1.0" encoding="iso-8859-1"?>
<!-- Generator: Adobe Illustrator 19.0.0, SVG Export Plug-In . SVG Version: 6.00 Build 0)  -->
<svg version="1.1" id="Layer_1" xmlns="http://www.w3.org/2000/svg" xmlns:xlink="http://www.w3.org/1999/xlink" x="0px" y="0px"
	 viewBox="0 0 373.626 373.626" style="enable-background:new 0 0 373.626 373.626;" xml:space="preserve">
<path style="fill:#A47D73;" d="M320.809,335.29L320.809,335.29c-86.838,29.861-181.162,29.861-268,0l0,0v-68.585
	c0-52.282,42.383-94.664,94.664-94.664h78.671c52.282,0,94.664,42.383,94.664,94.664v68.585H320.809z"/>
<path style="fill:#80635B;" d="M186.809,357.686c-45.291,0-90.581-7.465-134-22.396l0,0v-68.585
	c0-52.282,42.383-94.664,94.664-94.664h39.336V357.686z"/>
<path style="fill:#A47D73;" d="M301.619,29.734C301.619,13.312,288.307,0,271.885,0c-14.31,0-26.255,10.11-29.091,23.575
	c-16.351-7.945-35.505-12.518-55.985-12.518s-39.634,4.573-55.985,12.518C127.987,10.11,116.042,0,101.732,0
	C85.31,0,71.998,13.312,71.998,29.734c0,12.611,7.855,23.38,18.936,27.703C82.785,69.732,78.16,83.774,78.16,98.69
	c0,48.398,48.644,87.632,108.649,87.632s108.649-39.234,108.649-87.632c0-14.915-4.626-28.958-12.774-41.253
	C293.764,53.114,301.619,42.345,301.619,29.734z"/>
<path style="fill:#80635B;" d="M186.809,11.057c-20.48,0-39.634,4.573-55.985,12.518C127.987,10.11,116.042,0,101.732,0
	C85.31,0,71.998,13.312,71.998,29.734c0,12.611,7.855,23.38,18.936,27.703C82.785,69.732,78.16,83.774,78.16,98.69
	c0,48.398,48.644,87.632,108.649,87.632V11.057z"/>
<g>
	<g>
		<path style="fill:#E2EBD5;" d="M157.833,110.216c-6.089,0-11.025-4.936-11.025-11.025V80.005c0-6.089,4.936-11.025,11.025-11.025
			s11.025,4.936,11.025,11.025v19.186C168.858,105.28,163.922,110.216,157.833,110.216z"/>
		<path style="fill:#80635B;" d="M157.833,97.618c-2.369,0-4.289-1.92-4.289-4.289v-7.463c0-2.369,1.92-4.289,4.289-4.289
			s4.289,1.92,4.289,4.289v7.463C162.122,95.698,160.202,97.618,157.833,97.618z"/>
	</g>
	<g>
		<path style="fill:#E2EBD5;" d="M215.784,110.216c-6.089,0-11.025-4.936-11.025-11.025V80.005c0-6.089,4.936-11.025,11.025-11.025
			s11.025,4.936,11.025,11.025v19.186C226.809,105.28,221.873,110.216,215.784,110.216z"/>
		<path style="fill:#80635B;" d="M215.784,97.618c-2.369,0-4.289-1.92-4.289-4.289v-7.463c0-2.369,1.92-4.289,4.289-4.289
			s4.289,1.92,4.289,4.289v7.463C220.072,95.698,218.152,97.618,215.784,97.618z"/>
	</g>
</g>
<ellipse style="fill:#FAD0B0;" cx="186.809" cy="121.924" rx="43.643" ry="26.637"/>
<path style="fill:#E4BFA2;" d="M186.809,148.561c-24.103,0-43.643-11.926-43.643-26.637s19.54-26.637,43.643-26.637V148.561z"/>
<path style="fill:#C8F9EC;" d="M255.809,175.787v77.417h-138v-77.417c-7.072,2.332-13.775,5.474-20,9.318v135.516
	c0,5.523,4.477,10,10,10v30.525h158v-30.525c5.523,0,10-4.477,10-10V185.105C269.584,181.261,262.881,178.119,255.809,175.787z"/>
<path style="fill:#C9E4DF;" d="M186.809,253.204h-69v-77.417c-7.072,2.332-13.775,5.474-20,9.318v135.516c0,5.523,4.477,10,10,10
	v30.525h79V253.204z"/>
<g>
	
		<ellipse transform="matrix(-0.6384 -0.7697 0.7697 -0.6384 -121.3384 579.3007)" style="fill:#E4BFA2;" cx="75.405" cy="318.152" rx="61.456" ry="45.351"/>
	
		<ellipse transform="matrix(-0.6384 0.7697 -0.7697 -0.6384 733.493 291.7302)" style="fill:#FAD0B0;" cx="298.221" cy="318.158" rx="61.456" ry="45.351"/>
</g>
<g>
</g>
<g>
</g>
<g>
</g>
<g>
</g>
<g>
</g>
<g>
</g>
<g>
</g>
<g>
</g>
<g>
</g>
<g>
</g>
<g>
</g>
<g>
</g>
<g>
</g>
<g>
</g>
<g>
</g>
</svg>
