<svg id="Capa_1" enable-background="new 0 0 512 512" height="512" viewBox="0 0 512 512" width="512" xmlns="http://www.w3.org/2000/svg"><g><path d="m386 417h-34c-8.284 0-15-6.716-15-15s6.716-15 15-15h34c8.271 0 15-6.729 15-15v-148c0-8.271-6.729-15-15-15h-34c-8.284 0-15-6.716-15-15s6.716-15 15-15h34c24.813 0 45 20.187 45 45v148c0 24.813-20.187 45-45 45z" fill="#865240"/><path d="m335 79.5v64.5c0 8.28-6.72 15-15 15h-192c-8.28 0-15-6.72-15-15v-64.5s46.07-39.88 111-40.53c33.27-.35 71.49 9.62 111 40.53z" fill="#2e5292"/><path d="m320 159h-96v-120.03c33.27-.35 71.49 9.62 111 40.53v64.5c0 8.28-6.72 15-15 15z" fill="#20396f"/><path d="m367 174v293c0 24.81-20.19 45-45 45h-196c-24.81 0-45-20.19-45-45v-293c0-24.81 20.19-45 45-45h196c24.81 0 45 20.19 45 45z" fill="#bee75e"/><path d="m367 174v293c0 24.81-20.19 45-45 45h-98v-383h98c24.81 0 45 20.19 45 45z" fill="#57c126"/><path d="m335 45v34.5h-222v-34.5c0-24.81 20.19-45 45-45h132c24.81 0 45 20.19 45 45z" fill="#ffe278"/><path d="m224 79.5v-79.5h66c24.81 0 45 20.19 45 45v34.5z" fill="#ffb454"/><path d="m288 254v68c0 16.57-13.43 30-30 30h-68c-16.57 0-30-13.43-30-30v-68c0-16.57 13.43-30 30-30h68c16.57 0 30 13.43 30 30z" fill="#ffe278"/><path d="m258 352h-34v-128h34c16.57 0 30 13.43 30 30v68c0 16.57-13.43 30-30 30z" fill="#ffb454"/><path d="m367 432v35c0 24.81-20.19 45-45 45h-196c-24.81 0-45-20.19-45-45v-35z" fill="#bc8173"/><path d="m367 432v35c0 24.81-20.19 45-45 45h-98v-80z" fill="#865240"/></g></svg>