<svg id="Capa_1" enable-background="new 0 0 511.007 511.007" height="512" viewBox="0 0 511.007 511.007" width="512" xmlns="http://www.w3.org/2000/svg"><g><path d="m288.963 14.497c-18.472-19.255-48.307-19.403-66.92 0-8.73 9.11-13.54 21.01-13.54 33.51 0 25.92 21.08 47 47 47s47-21.08 47-47c0-12.5-4.81-24.4-13.54-33.51zm-33.46 50.51c-9.37 0-17-7.63-17-17 0-9.59 7.94-18 17-18s17 8.41 17 18c0 9.37-7.63 17-17 17z" fill="#2e5292"/><path d="m302.503 48.007c0 25.92-21.08 47-47 47v-30c9.37 0 17-7.63 17-17 0-9.59-7.94-18-17-18v-30c25.995 0 47 22.004 47 48z" fill="#20396f"/><path d="m463.503 287.007c0 121.361-103.068 217.185-223 208.46-107.906-7.768-193-98.654-193-208.46 0-110.121 85.417-199.798 193-207.46 120.2-8.745 223 86.517 223 207.46z" fill="#f9f9f9"/><path d="m463.503 287.007c0 114.732-92.975 209-208 209v-417c115.799 0 208 94.054 208 208z" fill="#e2dff4"/><path d="m413.183 129.327c-87.137-87.158-228.219-87.162-315.36 0-42.12 42.11-65.32 98.11-65.32 157.68 0 123.51 100.04 224 223 224s223-100.49 223-224c0-59.57-23.2-115.57-65.32-157.68zm-142.68 351.1v-57.42c0-8.28-6.72-15-15-15s-15 6.72-15 15v57.42c-94.51-7.34-170.17-83.41-177.43-178.42h56.43c8.28 0 15-6.72 15-15s-6.72-15-15-15h-56.42c7.3-94.49 82.93-170.12 177.42-177.42v56.42c0 8.28 6.72 15 15 15s15-6.72 15-15v-56.42c94.49 7.3 170.12 82.93 177.42 177.42h-56.42c-8.28 0-15 6.72-15 15s6.72 15 15 15h56.43c-7.26 95.01-82.92 171.08-177.43 178.42z" fill="#e2dff4"/><path d="m478.503 287.007c0 123.51-100.04 224-223 224v-103c8.28 0 15 6.72 15 15v57.42c94.51-7.34 170.17-83.41 177.43-178.42h-56.43c-8.28 0-15-6.72-15-15s6.72-15 15-15h56.42c-7.3-94.49-82.93-170.12-177.42-177.42v56.42c0 8.28-6.72 15-15 15v-102c123.225 0 223 99.728 223 223z" fill="#bebcdd"/><path d="m294.213 332.427-128 64c-5.819 2.896-12.784 1.726-17.32-2.81-4.56-4.57-5.69-11.54-2.81-17.32l64-128c4.58-9.139 16.79-11.139 24.03-3.9l64 64c7.236 7.236 5.245 19.447-3.9 24.03z" fill="#ff6378"/><path d="m294.213 332.427-128 64c-5.819 2.896-12.784 1.726-17.32-2.81l117.22-117.22 32 32c7.236 7.236 5.245 19.447-3.9 24.03z" fill="#e20059"/><path d="m364.923 197.717c-70.014 140.029-64.363 129.477-66.82 131.89-10.371-10.371-74.824-74.824-85.2-85.2 2.416-2.459-8.081 3.166 131.89-66.82 5.78-2.88 12.75-1.75 17.32 2.81 4.56 4.57 5.69 11.54 2.81 17.32z" fill="#b1d5f1"/><path d="m364.923 197.717c-70.014 140.029-64.363 129.477-66.82 131.89l-42.6-42.6 106.61-106.61c4.56 4.57 5.69 11.54 2.81 17.32z" fill="#989dec"/></g></svg>