<svg id="Capa_1" enable-background="new 0 0 512 512" height="512" viewBox="0 0 512 512" width="512" xmlns="http://www.w3.org/2000/svg"><g><path d="m469.417 233.292-32-64c-2.542-5.082-7.735-8.292-13.417-8.292h-41c-16.542 0-30 13.458-30 30v34c0 16.542 13.458 30 30 30h73c11.128 0 18.402-11.737 13.417-21.708z" fill="#989dec"/><path d="m512 272.6v80.4c0 16.57-13.43 30-30 30h-163s-9.95-15-63-15-63 15-63 15h-163c-16.57 0-30-13.43-30-30v-226c0-16.57 13.43-30 30-30h435c16.57 0 30 13.43 30 30v34.16c-.04 8.25-6.93 14.84-15.18 14.84h-95.82v64h87l33.58 19.66c4.59 2.69 7.42 7.61 7.42 12.94z" fill="#f9f9f9"/><path d="m512 272.6v80.4c0 16.57-13.43 30-30 30h-163s-9.95-15-63-15v-271h209c16.57 0 30 13.43 30 30v34.16c-.04 8.25-6.93 14.84-15.18 14.84h-95.82v64h87l33.58 19.66c4.59 2.69 7.42 7.61 7.42 12.94z" fill="#e2dff4"/><path d="m144 161h-64c-8.284 0-15 6.716-15 15v64c0 8.284 6.716 15 15 15h64c8.284 0 15-6.716 15-15v-64c0-8.284-6.716-15-15-15z" fill="#b1d5f1"/><path d="m319 176v207h-126v-207c0-8.28 6.72-15 15-15h96c8.28 0 15 6.72 15 15z" fill="#e2dff4"/><path d="m319 176v207h-63v-222h48c8.28 0 15 6.72 15 15z" fill="#bebcdd"/><path d="m240 272c0 8.28-6.72 15-15 15h-32v-30h32c8.28 0 15 6.72 15 15z" fill="#2e5292"/><circle cx="112" cy="368" fill="#2e5292" r="47"/><circle cx="400" cy="368" fill="#20396f" r="47"/><path d="m400 415c-25.916 0-47-21.084-47-47s21.084-47 47-47 47 21.084 47 47-21.084 47-47 47zm0-64c-9.374 0-17 7.626-17 17s7.626 17 17 17 17-7.626 17-17-7.626-17-17-17z" fill="#142349"/><path d="m112 415c-25.916 0-47-21.084-47-47s21.084-47 47-47 47 21.084 47 47-21.084 47-47 47zm0-64c-9.374 0-17 7.626-17 17s7.626 17 17 17 17-7.626 17-17-7.626-17-17-17z" fill="#20396f"/></g></svg>