<svg id="Capa_1" enable-background="new 0 0 512 512" height="512" viewBox="0 0 512 512" width="512" xmlns="http://www.w3.org/2000/svg"><g><path d="m437 0h-85l-35 17-35-17h-85c-8.284 0-15 6.716-15 15v180c0 8.284 6.716 15 15 15h240c8.284 0 15-6.716 15-15v-180c0-8.284-6.716-15-15-15z" fill="#ffc178"/><path d="m437 210c8.284 0 15-6.716 15-15v-180c0-8.284-6.716-15-15-15h-85l-35 17v193z" fill="#ff9d21"/><path d="m282 0v101.937c0 10.252 12.025 15.783 19.81 9.111l15.19-13.021 15.19 13.02c7.784 6.672 19.81 1.141 19.81-9.111v-101.936z" fill="#0d8ebc"/><path d="m317 98.027 15.19 13.02c7.784 6.672 19.81 1.141 19.81-9.111v-101.936h-35z" fill="#0a617d"/><path d="m467 180h-37.5l-30 17-30-17h-52.5c-8.284 0-15 6.716-15 15v160c0 8.284 6.716 15 15 15h150c8.284 0 15-6.716 15-15v-160c0-8.284-6.716-15-15-15z" fill="#ffc178"/><path d="m264.5 180-30 26-30-26h-67.5v190h180v-190z" fill="#ffe278"/><path d="m137 370c-8.284 0-15-6.716-15-15v-275c0-8.284 6.716-15 15-15s15 6.716 15 15v275c0 8.284-6.716 15-15 15z" fill="#ff3838"/><path d="m122 355v102c0 8.284 6.716 15 15 15h360c8.284 0 15-6.716 15-15v-102z" fill="#ff7d47"/><path d="m317 472h180c8.284 0 15-6.716 15-15v-102h-195z" fill="#ff3838"/><circle cx="417" cy="457" fill="#0a617d" r="55"/><circle cx="417" cy="457" fill="#e2dff4" r="25"/><circle cx="217" cy="457" fill="#0d8ebc" r="55"/><circle cx="217" cy="457" fill="#f6f9f9" r="25"/><path d="m107 20h-77c-16.569 0-30 13.431-30 30 0 16.569 13.431 30 30 30h122v-15c0-24.853-20.147-45-45-45z" fill="#0d8ebc"/><path d="m429.5 180h-60v61.315c0 7.987 8.901 12.751 15.547 8.32l14.453-9.635 14.453 9.635c6.646 4.43 15.547-.334 15.547-8.32z" fill="#0a617d"/><path d="m264.5 180h-60v61.315c0 7.987 8.901 12.751 15.547 8.32l14.453-9.635 14.453 9.635c6.646 4.43 15.547-.334 15.547-8.32z" fill="#0d8ebc"/></g></svg>