<svg id="Capa_1" enable-background="new 0 0 512 512" height="512" viewBox="0 0 512 512" width="512" xmlns="http://www.w3.org/2000/svg"><g><path d="m169.034 159c-8.284 0-15-6.716-15-15v-48c0-8.284 6.716-15 15-15s15 6.716 15 15v48c0 8.284-6.716 15-15 15z" fill="#ff6378"/><path d="m104.034 159c-8.284 0-15-6.716-15-15v-32c0-8.284 6.716-15 15-15s15 6.716 15 15v32c0 8.284-6.716 15-15 15z" fill="#bee75e"/><path d="m264.034 159c-8.284 0-15-6.716-15-15v-129c0-8.284 6.716-15 15-15s15 6.716 15 15v129c0 8.284-6.716 15-15 15z" fill="#2e5292"/><path d="m311.034 174v293c0 24.81-20.19 45-45 45h-164c-24.81 0-45-20.19-45-45v-293c0-24.81 20.19-45 45-45h164c24.81 0 45 20.19 45 45z" fill="#2e5292"/><path d="m311.034 174v293c0 24.81-20.19 45-45 45h-82v-383h82c24.81 0 45 20.19 45 45z" fill="#20396f"/><path d="m247.034 208v64c0 8.28-6.72 15-15 15h-96c-8.28 0-15-6.72-15-15v-64c0-8.28 6.72-15 15-15h96c8.28 0 15 6.72 15 15z" fill="#b1d5f1"/><path d="m247.034 208v64c0 8.28-6.72 15-15 15h-48v-94h48c8.28 0 15 6.72 15 15z" fill="#989dec"/><path d="m247.034 368c0 8.28-6.72 15-15 15h-96c-8.28 0-15-6.72-15-15s6.72-15 15-15h96c8.28 0 15 6.72 15 15z" fill="#20396f"/><path d="m247.034 368c0 8.28-6.72 15-15 15h-48v-30h48c8.28 0 15 6.72 15 15z" fill="#142349"/><path d="m231.034 432c0 8.28-6.72 15-15 15h-64c-8.28 0-15-6.72-15-15s6.72-15 15-15h64c8.28 0 15 6.72 15 15z" fill="#20396f"/><path d="m231.034 432c0 8.28-6.72 15-15 15h-32v-30h32c8.28 0 15 6.72 15 15z" fill="#142349"/><path d="m357.289 316.255c-13.245 0-20.082-16.131-10.606-25.606 19.149-19.149 19.152-50.145 0-69.297-5.858-5.857-5.858-15.355 0-21.213 5.858-5.857 15.356-5.857 21.213 0 30.873 30.872 30.878 80.846 0 111.723-2.93 2.928-6.769 4.393-10.607 4.393z" fill="#e20059"/><path d="m402.543 361.51c-13.243 0-20.084-16.13-10.606-25.606 44.058-44.059 44.058-115.748 0-159.807-5.858-5.857-5.858-15.355 0-21.213s15.355-5.859 21.213 0c55.755 55.756 55.755 146.477 0 202.232-2.929 2.929-6.768 4.394-10.607 4.394z" fill="#57c126"/></g></svg>