<svg id="Capa_1" enable-background="new 0 0 512 512" height="512" viewBox="0 0 512 512" width="512" xmlns="http://www.w3.org/2000/svg"><g><path d="m170.606 277.394c-7.349-7.35-19.798-5.167-24.199 4.263l-56 120c-2.667 5.716-1.474 12.49 2.986 16.95 4.444 4.445 11.214 5.663 16.95 2.986l120-56c9.418-4.395 11.623-16.84 4.263-24.199z" fill="#ff6378"/><path d="m365.593 281.657c-4.395-9.418-16.841-11.624-24.199-4.263l-64 64c-7.349 7.349-5.168 19.798 4.263 24.199l120 56c5.762 2.688 12.525 1.439 16.95-2.986 4.46-4.46 5.654-11.234 2.986-16.95z" fill="#e20059"/><path d="m341.394 234.606c7.352 7.352 19.799 5.165 24.199-4.263l56-120c2.667-5.716 1.474-12.49-2.986-16.95s-11.233-5.653-16.95-2.986l-120 56c-9.418 4.395-11.623 16.84-4.263 24.199z" fill="#e20059"/><path d="m230.343 146.407-120-56c-5.716-2.667-12.49-1.474-16.95 2.986s-5.654 11.234-2.986 16.95l56 120c4.402 9.431 16.853 11.611 24.199 4.263l64-64c7.35-7.349 5.169-19.797-4.263-24.199z" fill="#ff6378"/><path d="m512 256c0 6.32-3.96 11.96-9.9 14.11l-170.39 61.6-61.6 170.39c-2.15 5.94-7.79 9.9-14.11 9.9s-11.96-3.96-14.11-9.9l-61.6-170.39-170.39-61.6c-5.94-2.15-9.9-7.79-9.9-14.11s3.96-11.96 9.9-14.11l170.39-61.6 61.6-170.39c2.15-5.94 7.79-9.9 14.11-9.9s11.96 3.96 14.11 9.9l61.6 170.39 170.39 61.6c5.94 2.15 9.9 7.79 9.9 14.11z" fill="#b1d5f1"/><path d="m512 256c0 6.32-3.96 11.96-9.9 14.11l-170.39 61.6-61.6 170.39c-2.15 5.94-7.79 9.9-14.11 9.9v-512c6.32 0 11.96 3.96 14.11 9.9l61.6 170.39 170.39 61.6c5.94 2.15 9.9 7.79 9.9 14.11z" fill="#989dec"/><circle cx="256" cy="256" fill="#f9f9f9" r="47"/><path d="m303 256c0 25.92-21.08 47-47 47v-94c25.92 0 47 21.08 47 47z" fill="#e2dff4"/></g></svg>