<?xml version="1.0" encoding="iso-8859-1"?>
<!-- Generator: Adobe Illustrator 19.0.0, SVG Export Plug-In . SVG Version: 6.00 Build 0)  -->
<svg version="1.1" id="Layer_1" xmlns="http://www.w3.org/2000/svg" xmlns:xlink="http://www.w3.org/1999/xlink" x="0px" y="0px"
	 viewBox="0 0 297 297" style="enable-background:new 0 0 297 297;" xml:space="preserve">
<g>
	<path style="fill:#8E0E21;" d="M108.187,69.154V42.5c0-4.418-3.582-8-8-8h-16.52H67.478c-4.418,0-8,3.582-8,8v26.654
		c-15.386,10.76-24.532,28.271-24.532,47.105V289c0,4.418,3.582,8,8,8h40.722h41.051c4.418,0,8-3.582,8-8V116.26
		C132.717,97.425,123.572,79.914,108.187,69.154z"/>
	<path style="fill:#A91523;" d="M67.478,34.5c-4.418,0-8,3.582-8,8v26.654c-15.386,10.76-24.532,28.271-24.532,47.105V289
		c0,4.418,3.582,8,8,8h40.722V34.5H67.478z"/>
	<path style="fill:#8E0E21;" d="M108.187,69.154V42.5c0-4.418-3.582-8-8-8h-16.52V297h41.051c4.418,0,8-3.582,8-8V116.26
		C132.717,97.425,123.572,79.914,108.187,69.154z"/>
	<path style="fill:#E2DEDE;" d="M116.75,162.65H83.667H49.75c-4.418,0-8,3.582-8,8v40.199c0,4.418,3.582,8,8,8h33.917h33.083
		c4.418,0,8-3.582,8-8V170.65C124.75,166.232,121.168,162.65,116.75,162.65z"/>
	<path style="fill:#FFFFFF;" d="M49.75,162.65c-4.418,0-8,3.582-8,8v40.199c0,4.418,3.582,8,8,8h33.917V162.65H49.75z"/>
	<path style="fill:#E2DEDE;" d="M116.75,162.65H83.667v56.199h33.083c4.418,0,8-3.582,8-8V170.65
		C124.75,166.232,121.168,162.65,116.75,162.65z"/>
	<path style="fill:#660A1C;" d="M100.187,0h-16.52H67.478c-4.418,0-8,3.582-8,8v42.763h24.189h24.52V8
		C108.187,3.582,104.604,0,100.187,0z"/>
	<path style="fill:#720919;" d="M67.478,0c-4.418,0-8,3.582-8,8v42.763h24.189V0H67.478z"/>
	<path style="fill:#660A1C;" d="M108.187,8c0-4.418-3.582-8-8-8h-16.52v50.763h24.52V8z"/>
	<g>
		<path style="fill:#8C1324;" d="M207.167,175.5h-49.049c3.893,27.856,24.062,49.088,48.373,49.088c0.227,0,0.45-0.015,0.676-0.018
			c24.007-0.391,43.84-21.473,47.697-49.069L207.167,175.5L207.167,175.5z"/>
		<path style="fill:#A91523;" d="M158.117,175.5c3.893,27.856,24.062,49.088,48.373,49.088c0.227,0,0.45-0.015,0.676-0.018V175.5
			H158.117z"/>
		<path style="fill:#8C1324;" d="M254.863,175.5h-47.697v49.069C231.173,224.178,251.007,203.097,254.863,175.5z"/>
		<path style="fill:#A1BEB9;" d="M258.161,141.607c-0.89-2.647-3.37-4.431-6.162-4.431h-44.832h-46.185
			c-2.792,0-5.272,1.783-6.162,4.431c-2.583,7.691-3.894,15.794-3.894,24.082c0,3.524,0.253,7.126,0.753,10.707
			c0,0.001,0,0.002,0,0.002c3.99,28.543,23.089,50.026,46.812,54.014v47.614h-18.019c-4.418,0-8,3.582-8,8s3.582,8,8,8h26.694
			h25.342c4.418,0,8-3.582,8-8s-3.582-8-8-8H214.49v-47.615c23.723-3.988,42.821-25.471,46.811-54.012v-0.003
			c0.5-3.58,0.753-7.183,0.753-10.707C262.055,157.401,260.743,149.299,258.161,141.607z M207.167,218.071
			c-0.226,0.004-0.45,0.017-0.677,0.017c-18.683,0-34.825-14.787-40.451-36.088h41.128h39.775
			C241.384,203.042,225.561,217.718,207.167,218.071z"/>
		<path style="fill:#829995;" d="M258.161,141.607c-0.89-2.647-3.37-4.431-6.162-4.431h-44.832V182h39.775
			c-5.558,21.042-21.381,35.718-39.775,36.071v75.955h25.342c4.418,0,8-3.582,8-8s-3.582-8-8-8h-18.018v-47.615
			c23.723-3.988,42.821-25.471,46.811-54.012v-0.003c0.5-3.58,0.753-7.183,0.753-10.707
			C262.055,157.401,260.743,149.299,258.161,141.607z"/>
		<path style="fill:#A1BEB9;" d="M206.49,218.088c-18.683,0-34.825-14.787-40.451-36.088h41.128v-44.823h-46.185
			c-2.792,0-5.272,1.783-6.162,4.431c-2.583,7.691-3.894,15.794-3.894,24.082c0,3.524,0.253,7.126,0.753,10.707
			c0,0.001,0,0.002,0,0.002c3.99,28.543,23.089,50.026,46.812,54.014v47.614h-18.019c-4.418,0-8,3.582-8,8s3.582,8,8,8h26.694
			v-75.955C206.94,218.075,206.716,218.088,206.49,218.088z"/>
	</g>
</g>
<g>
</g>
<g>
</g>
<g>
</g>
<g>
</g>
<g>
</g>
<g>
</g>
<g>
</g>
<g>
</g>
<g>
</g>
<g>
</g>
<g>
</g>
<g>
</g>
<g>
</g>
<g>
</g>
<g>
</g>
</svg>
