<svg id="Layer_1" enable-background="new 0 0 512.679 512.679" height="512" viewBox="0 0 512.679 512.679" width="512" xmlns="http://www.w3.org/2000/svg"><g><path d="m191.799 131.125-58.569 253.357h246.219l-53.543-260.442c-3.84-18.68-15.464-34.665-31.774-43.696l-138.376-76.62c-4.096-2.268-8.84 1.684-7.351 6.122l34.666 103.307c4.966 14.801 14.198 27.682 26.459 36.92l57.368 43.224" fill="#665e66"/><path d="m325.906 124.04c-3.84-18.68-15.464-34.665-31.774-43.696l-32.646-18.076v322.215h117.963z" fill="#454045"/><path d="m437.255 498.616-27.235-108.187c-1.827-7.256-8.352-12.342-15.834-12.342h-275.289c-7.461 0-13.973 5.058-15.82 12.286l-27.652 108.243z" fill="#ffe470"/><path d="" style="fill:none;stroke:#000;stroke-width:30;stroke-linecap:round;stroke-linejoin:round;stroke-miterlimit:10"/><path d="m237.656 203.922c2.539 1.854 5.485 2.748 8.405 2.748 4.4 0 8.741-2.029 11.535-5.854 4.648-6.364 3.258-15.291-3.107-19.94l-51.02-37.46c-4.564-3.334-8.404-7.805-11.67-12.29l-7.723 33.39c.839.664 1.691 1.313 2.559 1.947z" fill="#544f57"/><path d="m394.186 378.087h-132.7v120.529h175.768l-27.234-108.187c-1.827-7.256-8.352-12.342-15.834-12.342z" fill="#ffd400"/><path d="m96.02 417.978-7.664 30h336.147l-7.553-30z" fill="#a20f59"/><g><g><path d="m465.382 509.616h-418.085c-26.08 0-47.297-21.218-47.297-47.297v-25.357c0-8.284 6.716-15 15-15s15 6.716 15 15v25.357c0 9.538 7.759 17.297 17.297 17.297h418.085c9.537 0 17.297-7.759 17.297-17.297v-25.357c0-8.284 6.716-15 15-15s15 6.716 15 15v25.357c0 26.079-21.217 47.297-47.297 47.297z" fill="#665e66"/></g></g><path d="m497.679 421.961c-8.284 0-15 6.716-15 15v25.357c0 9.538-7.76 17.297-17.297 17.297h-203.896v30h203.896c26.08 0 47.297-21.217 47.297-47.297v-25.357c0-8.284-6.716-15-15-15z" fill="#454045"/><path d="m261.486 447.978h163.017l-7.553-30h-155.464z" fill="#840d47"/></g></svg>