<?xml version="1.0" encoding="iso-8859-1"?>
<!-- Generator: Adobe Illustrator 19.0.0, SVG Export Plug-In . SVG Version: 6.00 Build 0)  -->
<svg version="1.1" id="Layer_1" xmlns="http://www.w3.org/2000/svg" xmlns:xlink="http://www.w3.org/1999/xlink" x="0px" y="0px"
	 viewBox="0 0 361.868 361.868" style="enable-background:new 0 0 361.868 361.868;" xml:space="preserve">
<g>
	<circle style="fill:#D7B59A;" cx="38.934" cy="180.934" r="38.934"/>
	<circle style="fill:#E4BFA2;" cx="322.934" cy="180.934" r="38.934"/>
</g>
<path style="fill:#FAD0B0;" d="M182.055,339.77c-87.582,0-158.836-71.253-158.836-158.836S94.473,22.098,182.055,22.098
	s158.836,71.254,158.836,158.836S269.637,339.77,182.055,339.77z"/>
<path style="fill:#E4BFA2;" d="M182.055,339.77c-87.582,0-158.836-71.253-158.836-158.836S94.473,22.098,182.055,22.098V339.77z"/>
<g>
	<path style="fill:#A47D73;" d="M133.223,92.095c-7.072,4.314-9.309,13.545-4.994,20.617c2.826,4.633,7.763,7.19,12.82,7.19
		c2.662,0,5.357-0.708,7.797-2.196c16.342-9.968,27.679-25.063,33.212-41.969c5.616-17.162,5.25-36.189-1.937-53.614
		c-10.881,0.131-21.501,1.36-31.756,3.583c0.2,0.405,0.411,0.806,0.651,1.199C162.634,49.232,155.55,78.476,133.223,92.095z"/>
	<path style="fill:#8A6A61;" d="M133.223,92.095c-7.072,4.314-9.309,13.545-4.994,20.617c2.826,4.633,7.763,7.19,12.82,7.19
		c2.662,0,5.357-0.708,7.797-2.196c16.342-9.968,27.679-25.063,33.212-41.969l0.342-47.324c-0.664-2.116-1.423-4.214-2.28-6.29
		c-10.881,0.131-21.501,1.36-31.756,3.583c0.2,0.405,0.411,0.806,0.651,1.199C162.634,49.232,155.55,78.476,133.223,92.095z"/>
	<path style="fill:#8A6A61;" d="M114.025,52.264c-0.524,2.168-1.863,4.002-3.769,5.165c-7.072,4.314-9.309,13.544-4.994,20.617
		c2.826,4.634,7.763,7.191,12.82,7.191c2.662,0,5.357-0.708,7.797-2.196c8.746-5.335,14.891-13.756,17.303-23.713
		c2.412-9.957,0.802-20.256-4.533-29.002c-0.395-0.648-0.844-1.241-1.316-1.806c-9.193,2.702-18.043,6.214-26.466,10.455
		c0.132,2.392,0.836,4.786,2.171,6.974C114.2,47.852,114.55,50.096,114.025,52.264z"/>
	<path style="fill:#A47D73;" d="M165.637,118.601c-7.072,4.314-9.309,13.545-4.994,20.617c2.826,4.633,7.763,7.19,12.82,7.19
		c2.662,0,5.357-0.708,7.797-2.196c39.339-23.997,58.705-70.422,49.379-114.505c-10.552-3.398-21.579-5.724-32.958-6.841
		c0.144,0.969,0.383,1.938,0.728,2.895C210.88,60.366,197.097,99.41,165.637,118.601z"/>
</g>
<g>
	<g>
		<g>
			<path style="fill:#F9EAE1;" d="M111.385,194.098v-17.233c0-8.219,6.663-14.882,14.882-14.882s14.882,6.663,14.882,14.882v17.233
				c0,8.219-6.663,14.882-14.882,14.882S111.385,202.317,111.385,194.098z"/>
		</g>
	</g>
	<g>
		<g>
			<path style="fill:#EFE0D8;" d="M111.385,194.098v-17.233c0-8.219,6.663-14.882,14.882-14.882v46.997
				C118.048,208.98,111.385,202.317,111.385,194.098z"/>
		</g>
	</g>
	<g>
		<g>
			<path style="fill:#F9EAE1;" d="M220.719,194.098v-17.233c0-8.219,6.663-14.882,14.882-14.882c8.219,0,14.882,6.663,14.882,14.882
				v17.233c0,8.219-6.663,14.882-14.882,14.882C227.382,208.98,220.719,202.317,220.719,194.098z"/>
		</g>
	</g>
</g>
<g>
	<g>
		<g>
			<path style="fill:#F9EAE1;" d="M111.385,194.098v-17.233c0-8.219,6.663-14.882,14.882-14.882s14.882,6.663,14.882,14.882v17.233
				c0,8.219-6.663,14.882-14.882,14.882S111.385,202.317,111.385,194.098z"/>
		</g>
	</g>
	<g>
		<g>
			<path style="fill:#EFE0D8;" d="M111.385,194.098v-17.233c0-8.219,6.663-14.882,14.882-14.882v46.997
				C118.048,208.98,111.385,202.317,111.385,194.098z"/>
		</g>
	</g>
	<g>
		<g>
			<path style="fill:#EFE0D8;" d="M220.719,194.098v-17.233c0-8.219,6.663-14.882,14.882-14.882v46.997
				C227.382,208.98,220.719,202.317,220.719,194.098z"/>
		</g>
	</g>
</g>
<path style="fill:#E27879;" d="M182.055,285.847c-16.269,0-31.727-7.044-42.411-19.327c-5.438-6.25-4.777-15.725,1.473-21.162
	c6.249-5.437,15.724-4.779,21.162,1.473c4.984,5.73,12.192,9.016,19.776,9.016s14.792-3.286,19.776-9.016
	c5.438-6.252,14.912-6.909,21.162-1.474c6.25,5.437,6.91,14.912,1.473,21.162C213.783,278.802,198.325,285.847,182.055,285.847z"/>
<path style="fill:#C4696A;" d="M182.055,285.847c-16.269,0-31.727-7.044-42.411-19.327c-5.438-6.25-4.777-15.725,1.473-21.162
	c6.249-5.437,15.724-4.779,21.162,1.473c4.984,5.73,12.192,9.016,19.776,9.016L182.055,285.847L182.055,285.847z"/>
<g>
</g>
<g>
</g>
<g>
</g>
<g>
</g>
<g>
</g>
<g>
</g>
<g>
</g>
<g>
</g>
<g>
</g>
<g>
</g>
<g>
</g>
<g>
</g>
<g>
</g>
<g>
</g>
<g>
</g>
</svg>
