<?xml version="1.0" encoding="iso-8859-1"?>
<!-- Generator: Adobe Illustrator 19.0.0, SVG Export Plug-In . SVG Version: 6.00 Build 0)  -->
<svg version="1.1" id="Layer_1" xmlns="http://www.w3.org/2000/svg" xmlns:xlink="http://www.w3.org/1999/xlink" x="0px" y="0px"
	 viewBox="0 0 394.844 394.844" style="enable-background:new 0 0 394.844 394.844;" xml:space="preserve">
<g>
	<path style="fill:#91C8F5;" d="M275.665,369.765H117.698c-7.096,0-12.849-5.753-12.849-12.849s5.753-12.849,12.849-12.849h157.966
		c7.096,0,12.849,5.753,12.849,12.849S282.761,369.765,275.665,369.765z"/>
	<path style="fill:#89B9DB;" d="M197.422,369.765h-79.723c-7.096,0-12.849-5.753-12.849-12.849s5.753-12.849,12.849-12.849h79.723
		V369.765z"/>
	<path style="fill:#91C8F5;" d="M261.956,249.392H136.734c-7.096,0-12.849-5.753-12.849-12.849s5.753-12.849,12.849-12.849h125.221
		c7.096,0,12.849,5.753,12.849,12.849S269.052,249.392,261.956,249.392z"/>
	<path style="fill:#89B9DB;" d="M197.422,249.392h-60.688c-7.096,0-12.849-5.753-12.849-12.849s5.753-12.849,12.849-12.849h60.688
		V249.392z"/>
	<path style="fill:#64879E;" d="M114.682,394.844c-0.515,0-1.035-0.031-1.559-0.094c-7.045-0.852-12.066-7.254-11.214-14.299
		l26.081-215.669c0.852-7.045,7.258-12.065,14.299-11.214c7.045,0.852,12.066,7.254,11.214,14.299l-26.081,215.669
		C126.633,390.057,121.089,394.844,114.682,394.844z"/>
	<path style="fill:#6689A1;" d="M280.162,394.844c-6.407,0-11.951-4.787-12.74-11.308l-26.081-215.669
		c-0.852-7.045,4.168-13.447,11.214-14.299c7.041-0.848,13.447,4.168,14.299,11.214l26.081,215.669
		c0.852,7.045-4.168,13.447-11.214,14.299C281.197,394.813,280.677,394.844,280.162,394.844z"/>
</g>
<path style="fill:#E27879;" d="M273.658,176.165H121.186c-7.096,0-12.849-5.753-12.849-12.849V12.849
	C108.337,5.753,114.09,0,121.186,0c7.096,0,12.849,5.753,12.849,12.849v137.617h139.623c7.096,0,12.849,5.753,12.849,12.849
	C286.507,170.412,280.755,176.165,273.658,176.165z"/>
<path style="fill:#C76B6B;" d="M197.422,176.165h-76.236c-7.096,0-12.849-5.753-12.849-12.849V12.849
	C108.337,5.753,114.09,0,121.186,0c7.096,0,12.849,5.753,12.849,12.849v137.617h63.387V176.165z"/>
<path style="fill:#A47D73;" d="M197.422,168.579c-7.096,0-12.849-5.753-12.849-12.849V90.262c0-7.096,5.753-12.849,12.849-12.849
	s12.849,5.753,12.849,12.849v65.468C210.271,162.827,204.518,168.579,197.422,168.579z"/>
<path style="fill:#80635B;" d="M197.422,168.579c-7.096,0-12.849-5.753-12.849-12.849V90.262c0-7.096,5.753-12.849,12.849-12.849
	V168.579z"/>
<path style="fill:#A47D73;" d="M159.089,168.579c-7.096,0-12.849-5.753-12.849-12.849V90.262c0-7.096,5.753-12.849,12.849-12.849
	s12.849,5.753,12.849,12.849v65.468C171.938,162.827,166.185,168.579,159.089,168.579z"/>
<path style="fill:#80635B;" d="M159.089,168.579c-7.096,0-12.849-5.753-12.849-12.849V90.262c0-7.096,5.753-12.849,12.849-12.849
	V168.579z"/>
<path style="fill:#D1B096;" d="M238.549,171.149c-7.096,0-12.849-5.753-12.849-12.849v-49.808c0-4.169-3.392-7.561-7.561-7.561
	h-90.433c-7.096,0-12.849-5.753-12.849-12.849s5.753-12.849,12.849-12.849h90.433c18.339,0,33.259,14.92,33.259,33.259V158.3
	C251.398,165.396,245.646,171.149,238.549,171.149z"/>
<path style="fill:#BFA28A;" d="M197.422,100.931h-69.716c-7.096,0-12.849-5.753-12.849-12.849s5.753-12.849,12.849-12.849h69.716
	V100.931z"/>
<g>
</g>
<g>
</g>
<g>
</g>
<g>
</g>
<g>
</g>
<g>
</g>
<g>
</g>
<g>
</g>
<g>
</g>
<g>
</g>
<g>
</g>
<g>
</g>
<g>
</g>
<g>
</g>
<g>
</g>
</svg>
