<?xml version="1.0" encoding="iso-8859-1"?>
<!-- Generator: Adobe Illustrator 19.0.0, SVG Export Plug-In . SVG Version: 6.00 Build 0)  -->
<svg version="1.1" id="Layer_1" xmlns="http://www.w3.org/2000/svg" xmlns:xlink="http://www.w3.org/1999/xlink" x="0px" y="0px"
	 viewBox="0 0 272.379 272.379" style="enable-background:new 0 0 272.379 272.379;" xml:space="preserve">
<g>
	<path style="fill:#6689A1;" d="M15,71.137c19.446,0,35.266,15.82,35.266,35.266v5.765h30v-5.765
		c0-10.983-2.739-21.333-7.551-30.425C61.759,55.279,40.005,41.137,15,41.137c-8.284,0-15,6.716-15,15S6.716,71.137,15,71.137z"/>
	<polyline style="fill:#82AFCF;" points="50.266,110.711 50.266,124.062 80.266,124.062 80.266,110.711 	"/>
	<path style="fill:#E2EBD5;" d="M272.379,122.605c-7.077-48.564-40.898-88.573-85.994-104.529
		c-11.998-4.245-24.599,4.596-24.599,17.323v89.813L272.379,122.605z"/>
	<path style="fill:#91C8F5;" d="M272.379,122.605H50.266v29.456c0,16.086,5.426,30.922,14.529,42.799
		c4.576-1.389,9.425-2.143,14.449-2.143c20.375,0,37.924,12.296,45.642,29.852h52.607c45.157-1.357,53.635-6.357,74.291-20.758
		c12.719-12.761,20.595-30.352,20.595-49.75V122.605z"/>
	<path style="fill:#89B9DB;" d="M161.785,122.605H50.266v29.456c0,16.086,5.426,30.922,14.529,42.799
		c4.576-1.389,9.425-2.143,14.449-2.143c20.375,0,37.924,12.296,45.642,29.852h36.899L161.785,122.605z"/>
	<path style="fill:#A47D73;" d="M126.534,218.993c0-20.062-16.322-36.384-36.385-36.384c-20.062,0-36.384,16.322-36.384,36.384
		c0,20.063,16.322,36.385,36.384,36.385C110.212,255.378,126.534,239.056,126.534,218.993z"/>
	<path style="fill:#83655D;" d="M90.15,182.61c-20.062,0-36.384,16.322-36.384,36.384c0,20.063,16.322,36.385,36.384,36.385V182.61z
		"/>
	<path style="fill:#80635B;" d="M106.765,218.993c0-9.161-7.453-16.614-16.615-16.614c-9.161,0-16.614,7.453-16.614,16.614
		s7.453,16.615,16.614,16.615C99.311,235.608,106.765,228.155,106.765,218.993z"/>
	<path style="fill:#69524B;" d="M90.15,202.379c-9.161,0-16.614,7.453-16.614,16.614s7.453,16.615,16.614,16.615V202.379z"/>
	<path style="fill:#A47D73;" d="M247.427,218.993c0-20.062-16.322-36.384-36.385-36.384c-20.062,0-36.384,16.322-36.384,36.384
		c0,20.063,16.322,36.385,36.384,36.385C231.105,255.378,247.427,239.056,247.427,218.993z"/>
	<path style="fill:#83655D;" d="M211.042,182.61c-20.062,0-36.384,16.322-36.384,36.384c0,20.063,16.322,36.385,36.384,36.385
		V182.61z"/>
	<path style="fill:#80635B;" d="M227.657,218.993c0-9.161-7.453-16.614-16.615-16.614c-9.161,0-16.614,7.453-16.614,16.614
		s7.453,16.615,16.614,16.615C220.204,235.608,227.657,228.155,227.657,218.993z"/>
	<path style="fill:#69524B;" d="M211.042,202.379c-9.161,0-16.614,7.453-16.614,16.614s7.453,16.615,16.614,16.615V202.379z"/>
</g>
<g>
</g>
<g>
</g>
<g>
</g>
<g>
</g>
<g>
</g>
<g>
</g>
<g>
</g>
<g>
</g>
<g>
</g>
<g>
</g>
<g>
</g>
<g>
</g>
<g>
</g>
<g>
</g>
<g>
</g>
</svg>
