<?xml version="1.0" encoding="iso-8859-1"?>
<!-- Generator: Adobe Illustrator 19.0.0, SVG Export Plug-In . SVG Version: 6.00 Build 0)  -->
<svg version="1.1" id="Layer_1" xmlns="http://www.w3.org/2000/svg" xmlns:xlink="http://www.w3.org/1999/xlink" x="0px" y="0px"
	 viewBox="0 0 300.39 300.39" style="enable-background:new 0 0 300.39 300.39;" xml:space="preserve">
<g>
	<path style="fill:#A47D73;" d="M287.505,7.47c-15.224-11.931-37.301-9.283-49.273,5.889l-13.885,17.069v34.927h1.831l30.313-37.264
		c0.045-0.055,0.089-0.11,0.133-0.166c3.976-5.073,11.336-5.964,16.408-1.989c5.098,3.996,12.473,3.103,16.469-1.997
		C293.497,18.84,292.604,11.467,287.505,7.47z"/>
	<path style="fill:#91C8F5;" d="M48.959,252.097h120.716c33.462,0,60.588-27.126,60.588-60.588V31.193
		c0-8.08-10.146-11.686-15.245-5.418L42.299,238.095C37.736,243.704,41.728,252.097,48.959,252.097z"/>
	<path style="fill:#89B9DB;" d="M129.862,130.456L42.299,238.095c-4.563,5.61-0.572,14.003,6.66,14.003h80.903V130.456z"/>
	<g>
		<circle style="fill:#A47D73;" cx="40.358" cy="268.422" r="31.967"/>
	</g>
	<g>
		<path style="fill:#8A6A61;" d="M40.358,300.39c-17.655,0-31.967-14.312-31.967-31.967s14.312-31.967,31.967-31.967V300.39z"/>
	</g>
	<g>
		<circle style="fill:#FAD0B0;" cx="40.358" cy="268.422" r="15.151"/>
	</g>
	<g>
		<path style="fill:#EBC5A7;" d="M40.358,283.574c-8.368,0-15.151-6.783-15.151-15.151s6.783-15.151,15.151-15.151V283.574z"/>
	</g>
	<g>
		<circle style="fill:#A47D73;" cx="190.26" cy="268.422" r="31.967"/>
	</g>
	<g>
		<path style="fill:#8A6A61;" d="M190.26,300.39c-17.655,0-31.967-14.312-31.967-31.967s14.312-31.967,31.967-31.967V300.39z"/>
	</g>
	<g>
		<circle style="fill:#FAD0B0;" cx="190.26" cy="268.422" r="15.151"/>
	</g>
	<g>
		<path style="fill:#EBC5A7;" d="M190.26,283.574c-8.368,0-15.151-6.783-15.151-15.151s6.783-15.151,15.151-15.151V283.574z"/>
	</g>
</g>
<g>
</g>
<g>
</g>
<g>
</g>
<g>
</g>
<g>
</g>
<g>
</g>
<g>
</g>
<g>
</g>
<g>
</g>
<g>
</g>
<g>
</g>
<g>
</g>
<g>
</g>
<g>
</g>
<g>
</g>
</svg>
