<svg id="Capa_1" enable-background="new 0 0 512 512" height="512" viewBox="0 0 512 512" width="512" xmlns="http://www.w3.org/2000/svg"><g><g><g><path d="m256 353.092c-8.284 0-15-6.723-15-15.016v-298.392c0-8.293 6.716-15.016 15-15.016s15 6.723 15 15.016v298.392c0 8.293-6.716 15.016-15 15.016z" fill="#a56032"/><path d="m256 24.668v328.423c8.284 0 15-6.723 15-15.016v-298.391c0-8.293-6.716-15.016-15-15.016z" fill="#854d29"/></g><g><g><path d="m257.778 512h-3.557c-16.568 0-30-13.431-30-30v-146.845c0-16.569 13.432-30 30-30h3.557c16.569 0 30 13.431 30 30v146.845c0 16.569-13.431 30-30 30z" fill="#854d29"/><path d="m257.778 305.155h-1.778v206.845h1.778c16.569 0 30-13.445 30-30.031v-146.782c0-16.586-13.431-30.032-30-30.032z" fill="#633a1e"/></g><g><g><path d="m287.778 399.89-63.557 63.623v18.455c0 6.759 2.232 12.995 5.996 18.014l57.561-57.622z" fill="#633a1e"/><path d="m256 431.702v42.47l31.778-31.811v-42.471z" fill="#4d2509"/></g><g><path d="m224.222 421.746 63.557-63.622v-22.937c0-5.6-1.536-10.839-4.202-15.326l-59.355 59.416z" fill="#633a1e"/><path d="m283.576 319.86-27.576 27.605v42.47l31.778-31.811v-22.937c0-5.601-1.536-10.839-4.202-15.327z" fill="#4d2509"/></g></g></g></g><g><g><g><path d="m256 63.297c-51.967 0-98.347-23.937-128.743-61.396-2.192-2.701-6.364-2.481-8.322.395-18.119 26.601-28.713 58.749-28.713 93.374s10.594 66.773 28.713 93.374c1.959 2.875 6.131 3.096 8.322.395 30.395-37.459 76.776-61.396 128.743-61.396s98.347 23.937 128.742 61.396c2.192 2.701 6.364 2.481 8.322-.395 18.119-26.601 28.714-58.749 28.714-93.374s-10.594-66.773-28.714-93.374c-1.958-2.875-6.13-3.096-8.322-.395-30.395 37.459-76.775 61.396-128.742 61.396z" fill="#e2e9ee"/><path d="m393.065 2.295c-1.958-2.875-6.13-3.096-8.322-.395-30.396 37.459-76.776 61.397-128.743 61.397v64.744c51.967 0 98.347 23.937 128.742 61.396 2.192 2.701 6.364 2.48 8.322-.395 18.119-26.601 28.714-58.748 28.714-93.374s-10.594-66.772-28.713-93.373z" fill="#bbd0d5"/></g><g><path d="m129.267 144.574c-5.961-15.472-9.045-31.998-9.045-48.905 0-16.906 3.084-33.432 9.045-48.905 35.097 29.912 79.712 46.564 126.733 46.564s91.636-16.651 126.733-46.563c5.961 15.473 9.045 31.998 9.045 48.905 0 16.906-3.084 33.432-9.045 48.905-35.097-29.913-79.711-46.566-126.733-46.566-47.021 0-91.636 16.653-126.733 46.565z" fill="#bbd0d5"/><path d="m382.733 46.764c-35.097 29.913-79.711 46.564-126.733 46.564v4.682c47.021 0 91.636 16.652 126.733 46.564 5.961-15.473 9.045-31.998 9.045-48.905 0-16.906-3.084-33.431-9.045-48.905z" fill="#82afbb"/></g></g><g><path d="m237.98 136.818h36.039c8.284 0 15-6.716 15-15v-52.298c0-8.284-6.716-15-15-15h-36.039c-8.284 0-15 6.716-15 15v52.298c0 8.284 6.716 15 15 15z" fill="#457899"/><path d="m274.02 54.52h-18.02v82.298h18.019c8.284 0 15-6.723 15-15.016v-52.267c.001-8.293-6.715-15.015-14.999-15.015z" fill="#2b495d"/></g></g></g></svg>