<svg id="Capa_1" enable-background="new 0 0 512.004 512.004" height="512" viewBox="0 0 512.004 512.004" width="512" xmlns="http://www.w3.org/2000/svg"><g><g><g><path d="m411.142 512.004c-103.427 0-206.854 0-310.281 0-99.321-152.65-99.321-359.354.001-512.004h101.749c69.511 0 135.85 5.915 205.361 5.915 99.32 152.65 102.492 353.439 3.17 506.089z" fill="#a56032"/><path d="m411.143 0c-51.714 0-103.427 0-155.141 0v512.004h155.141c99.321-152.65 99.321-359.354 0-512.004z" fill="#4d2509"/></g><g><path d="m202.61 512.004h106.783c99.321-152.65 99.321-359.354 0-512.004h-106.783c-99.321 152.65-99.321 359.354 0 512.004" fill="#854d29"/><path d="m309.394 0h-53.392v512.004h53.392c99.321-152.65 99.321-359.354 0-512.004z" fill="#633a1e"/></g></g><g><g><path d="m477.215 154.686h-442.426c-10.239 0-17.469-10.032-14.23-19.746l11.321-33.947c2.042-6.124 7.774-10.254 14.229-10.254h419.783c6.456 0 12.187 4.13 14.229 10.254l11.321 33.947c3.242 9.713-3.988 19.746-14.227 19.746z" fill="#e2e9ee"/><path d="m491.444 134.94-11.321-33.947c-2.042-6.124-7.774-10.254-14.23-10.254h-209.891v63.947h221.213c10.239 0 17.469-10.033 14.229-19.746z" fill="#a3c5cd"/></g><g><path d="m477.215 357.319h-442.426c-10.239 0-17.469 10.032-14.23 19.746l11.321 33.947c2.042 6.124 7.774 10.254 14.229 10.254h419.783c6.456 0 12.187-4.13 14.229-10.254l11.321-33.947c3.242-9.714-3.988-19.746-14.227-19.746z" fill="#e2e9ee"/><path d="m477.215 357.319h-221.213v63.947h209.892c6.456 0 12.187-4.13 14.23-10.254l11.321-33.947c3.239-9.714-3.991-19.746-14.23-19.746z" fill="#a3c5cd"/></g></g></g></svg>