<svg id="Capa_1" enable-background="new 0 0 512 512" height="512" viewBox="0 0 512 512" width="512" xmlns="http://www.w3.org/2000/svg"><g><path d="m455 384c0 8.28-6.72 15-15 15h-48c-8.28 0-15-6.72-15-15s6.72-15 15-15h9v-42h-290v42h9c8.28 0 15 6.72 15 15s-6.72 15-15 15h-48c-8.28 0-15-6.72-15-15s6.72-15 15-15h9v-129c0-8.28 6.72-15 15-15s15 6.72 15 15v57h290v-57c0-8.28 6.72-15 15-15s15 6.72 15 15v129h9c8.28 0 15 6.72 15 15z" fill="#0a789b"/><path d="m455 384c0 8.28-6.72 15-15 15h-48c-8.28 0-15-6.72-15-15s6.72-15 15-15h9v-42h-145v-30h145v-57c0-8.28 6.72-15 15-15s15 6.72 15 15v129h9c8.28 0 15 6.72 15 15z" fill="#08475e"/><path d="m447 128v112c0 8.28-6.72 15-15 15h-417c-8.28 0-15-6.72-15-15v-112c0-8.28 6.72-15 15-15h417c8.28 0 15 6.72 15 15z" fill="#ff7038"/><path d="m432 184v56c0 8.28-6.72 15-15 15h-402c-8.28 0-15-6.72-15-15v-56z" fill="#ff2929"/><path d="m192 113-32 142h-80l32-142z" fill="#ffdd54"/><path d="m96 184h80l-16 71h-80z" fill="#ffb454"/><path d="m352 113-32 142h-80l32-142z" fill="#ffdd54"/><path d="m256 184h80l-16 71h-80z" fill="#ffb454"/><path d="m512 128v112c0 8.28-6.72 15-15 15h-97l32-142h65c8.28 0 15 6.72 15 15z" fill="#ffdd54"/><path d="m512 184v56c0 8.28-6.72 15-15 15h-97l16-71z" fill="#ffb454"/></g></svg>