<svg id="Capa_1" enable-background="new 0 0 512 512" height="512" viewBox="0 0 512 512" width="512" xmlns="http://www.w3.org/2000/svg"><g><path d="m449 193h-386c-16.542 0-30 13.458-30 30v210c0 16.542 13.458 30 30 30h386c16.542 0 30-13.458 30-30v-210c0-16.542-13.458-30-30-30z" fill="#4a696f"/><path d="m449 193h-193v270h193c16.542 0 30-13.458 30-30v-210c0-16.542-13.458-30-30-30z" fill="#384949"/><path d="m160 49h-64c-8.284 0-15 6.716-15 15v88c0 8.284 6.716 15 15 15h64c8.284 0 15-6.716 15-15v-88c0-8.284-6.716-15-15-15z" fill="#fedb41"/><path d="m416 49h-64c-8.284 0-15 6.716-15 15v88c0 8.284 6.716 15 15 15h64c8.284 0 15-6.716 15-15v-88c0-8.284-6.716-15-15-15z" fill="#fc3"/><path d="m360 281h-9v-9c0-8.284-6.716-15-15-15s-15 6.716-15 15v9h-9c-8.284 0-15 6.716-15 15s6.716 15 15 15h9v9c0 8.284 6.716 15 15 15s15-6.716 15-15v-9h9c8.284 0 15-6.716 15-15s-6.716-15-15-15z" fill="#ff435b"/><path d="m200 311h-48c-8.284 0-15-6.716-15-15s6.716-15 15-15h48c8.284 0 15 6.716 15 15s-6.716 15-15 15z" fill="#8cd96b"/><path d="m482 121h-452c-16.542 0-30 13.458-30 30v42c0 16.542 13.458 30 30 30h452c16.542 0 30-13.458 30-30v-42c0-16.542-13.458-30-30-30z" fill="#384949"/><path d="m482 121h-226v102h226c16.542 0 30-13.458 30-30v-42c0-16.542-13.458-30-30-30z" fill="#293939"/><path d="m449 463h-386c-16.569 0-30-13.431-30-30v-64h446v64c0 16.569-13.431 30-30 30z" fill="#384949"/><path d="m256 463h193c16.569 0 30-13.431 30-30v-64h-223z" fill="#293939"/></g></svg>