<svg id="Capa_1" enable-background="new 0 0 512 512" height="512" viewBox="0 0 512 512" width="512" xmlns="http://www.w3.org/2000/svg"><g><path d="m31 75v67c0 8.284 6.716 30 15 30s15-6.716 15-15v-82z" fill="#524798"/><path d="m46 90c-24.813 0-45-20.187-45-45s20.187-45 45-45 45 20.187 45 45-20.187 45-45 45z" fill="#38336b"/><path d="m179.798 251.107-9.659-24.148c-9.624-24.059-25.679-45.136-46.776-60.182-22.697-16.186-49.514-24.766-77.31-24.777h-15.053v111.401c0 10.272 8.327 18.599 18.599 18.599h116.401c6.186 0 11.87-3.813 14.102-9.873 1.31-3.558 1.104-7.5-.304-11.02z" fill="#45f6ff"/><circle cx="46" cy="45" fill="#ffe196" r="15"/><path d="m461 377 19.885-15c-2.628-61.1-53.15-110-114.885-110h-40c-8.284 0-15 6.716-15 15v65h-112.967l-17.39-78.599c-.026-.117-.064.116-.093 0h-149.55v183.599c0 8.284 6.716 15 15 15h420c8.284 0 15-6.716 15-15v-45z" fill="#524798"/><path d="m336.606 256.394-31.82-31.82c-5.858-5.858-15.355-5.858-21.213 0-5.858 5.858-5.858 15.355 0 21.213l31.82 31.82c2.929 2.929 6.768 4.393 10.607 4.393s7.678-1.464 10.606-4.394c5.859-5.857 5.859-15.355 0-21.212z" fill="#524798"/><path d="m271 269.427c-3.839 0-7.677-1.464-10.607-4.394-5.858-5.858-5.858-15.355 0-21.213l42.427-42.426c5.858-5.858 15.356-5.858 21.213 0 5.858 5.858 5.858 15.355 0 21.213l-42.427 42.426c-2.928 2.929-6.768 4.394-10.606 4.394z" fill="#2ebeef"/><path d="m461 377 19.885-15c-2.628-61.1-53.15-110-114.885-110h-40c-8.284 0-15 6.716-15 15v65h-55v120h210c8.284 0 15-6.716 15-15v-45z" fill="#38336b"/><path d="m467 512h-422c-24.813 0-45-20.187-45-45s20.187-45 45-45h422c24.814 0 45 20.187 45 45s-20.186 45-45 45z" fill="#45f6ff"/><path d="m467 422h-211v90h211c24.814 0 45-20.187 45-45s-20.186-45-45-45z" fill="#2ebeef"/><path d="m421 362c-8.284 0-15 6.716-15 15s6.716 15 15 15h60v-30z" fill="#ffb454"/></g></svg>