<svg id="Capa_1" enable-background="new 0 0 512 512" height="512" viewBox="0 0 512 512" width="512" xmlns="http://www.w3.org/2000/svg"><g><path d="m416 512h-320c-30.327 0-55-24.673-55-55v-402c0-30.327 24.673-55 55-55h320c30.327 0 55 24.673 55 55v402c0 30.327-24.673 55-55 55z" fill="#453d81"/><g><path d="m416 0h-160v512h160c30.327 0 55-24.673 55-55v-402c0-30.327-24.673-55-55-55z" fill="#2e2654"/></g><path d="m96 30c-13.785 0-25 11.215-25 25v402c0 13.785 11.215 25 25 25h320c13.785 0 25-11.215 25-25v-402c0-13.785-11.215-25-25-25z" fill="#5e54ac"/><g><path d="m416 30h-160v452h160c13.785 0 25-11.215 25-25v-402c0-13.785-11.215-25-25-25z" fill="#453d81"/></g><g><g fill="#a4e9ff"><path d="m186 217h70v73.333h-70z"/><path d="m116 217h70v73.333h-70z"/><path d="m116 290.333h70v73.333h-70z"/></g><path d="m256 290.333h70v73.333h-70z" fill="#91bbff"/><path d="m186 290.333h70v73.333h-70z" fill="#a4e9ff"/><path d="m256 217h70v73.333h-70z" fill="#91bbff"/><path d="m326 217h70v73.333h-70z" fill="#91bbff"/><path d="m116 363.667h70v73.333h-70z" fill="#a4e9ff"/><path d="m326 363.667v73.333h70v-146.667h-70z" fill="#b7457d"/><path d="m256 363.667h70v73.333h-70z" fill="#91bbff"/><path d="m186 363.667h70v73.333h-70z" fill="#a4e9ff"/></g><path d="m396 202h-280c-8.284 0-15 6.716-15 15v220c0 8.284 6.716 15 15 15h280c8.284 0 15-6.716 15-15v-220c0-8.284-6.716-15-15-15zm-15 73.333h-40v-43.333h40zm-250 30h40v43.334h-40zm70 0h40v43.334h-40zm0-30v-43.333h40v43.333zm40 103.334v43.333h-40v-43.333zm30 0h40v43.333h-40zm40-30h-40v-43.334h40zm-40-73.334v-43.333h40v43.333zm-100-43.333v43.333h-40v-43.333zm-40 146.667h40v43.333h-40zm210 43.333v-116.667h40v116.667z" fill="#f2faff"/><path d="m396 452c8.284 0 15-6.716 15-15v-220c0-8.284-6.716-15-15-15h-140v250zm-55-220h40v43.333h-40zm0 73.333h40v116.667h-40zm-70-73.333h40v43.333h-40zm0 73.333h40v43.334h-40zm40 73.334v43.333h-40v-43.333z" fill="#c8eafa"/><path d="m396 172h-280c-8.284 0-15-6.716-15-15v-82c0-8.284 6.716-15 15-15h280c8.284 0 15 6.716 15 15v82c0 8.284-6.716 15-15 15z" fill="#f2faff"/><g><path d="m411 157v-82c0-8.284-6.716-15-15-15h-140v112h140c8.284 0 15-6.716 15-15z" fill="#c8eafa"/></g><path d="m131 90h250v52h-250z" fill="#a4e9ff"/><g><g><path d="m256 90h125v52h-125z" fill="#91bbff"/></g></g></g></svg>