<svg id="Capa_1" enable-background="new 0 0 512 512" height="512" viewBox="0 0 512 512" width="512" xmlns="http://www.w3.org/2000/svg"><g><g><g><g><g><path d="m256 136.006c-8.284 0-15-6.716-15-15v-106.006c0-8.284 6.716-15 15-15s15 6.716 15 15v106.006c0 8.284-6.716 15-15 15z" fill="#f5dfbb"/><path d="m256 0v136.006c8.284 0 15-6.716 15-15v-106.006c0-8.284-6.716-15-15-15z" fill="#edbdab"/></g><g><path d="m352.344 52.695h-48.104c-8.284 0-15-6.716-15-15s6.716-15 15-15h48.104c8.284 0 15 6.716 15 15s-6.716 15-15 15z" fill="#bd0055"/><g><path d="m315.875 30h-59.875c-8.284 0-15-6.716-15-15s6.716-15 15-15h59.875c8.284 0 15 6.716 15 15s-6.716 15-15 15z" fill="#de5958"/><path d="m315.875 0h-59.875v30h59.875c8.284 0 15-6.716 15-15s-6.716-15-15-15z" fill="#d9225b"/></g></g></g><g><g><path d="m319.668 347.759-63.668 9.127-63.668-9.127v-169.525l63.668-10.622 63.668 10.622z" fill="#fbf4f4"/><path d="m256 167.612v189.274l63.668-9.127v-169.525z" fill="#eae0db"/></g><g><path d="m256 178.234h-63.602l31.801-55.087 23.822-41.266c3.546-6.142 12.411-6.142 15.957 0l23.822 41.266 31.801 55.087z" fill="#de5958"/><path d="m287.801 123.147-23.822-41.266c-1.773-3.071-4.876-4.607-7.979-4.607v100.96h63.602z" fill="#d9225b"/></g><g><path d="m256 277.154c-8.284 0-15-6.716-15-15v-13.864c0-8.284 6.716-15 15-15s15 6.716 15 15v13.864c0 8.285-6.716 15-15 15z" fill="#c7bdb8"/><path d="m256 233.29v43.864c8.284 0 15-6.716 15-15v-13.864c0-8.284-6.716-15-15-15z" fill="#736e6e"/></g></g></g><g><g><path d="m383.516 512h-255.032l-10.622-92.455 10.622-71.786h255.032l10.622 69.965z" fill="#eae0db"/><path d="m383.516 347.759h-127.516v164.241h127.516l10.622-94.276z" fill="#c7bdb8"/></g><g><path d="m286.019 512h-60.038v-30.019c0-16.579 13.44-30.019 30.019-30.019 16.579 0 30.019 13.44 30.019 30.019z" fill="#a56032"/><path d="m256 451.962v60.038h30.019v-30.019c0-16.579-13.44-30.019-30.019-30.019z" fill="#854d29"/></g></g></g><g><g><path d="m497 241c-8.284 0-15 6.716-15 15v34.859h-30v-34.859c0-8.284-6.716-15-15-15s-15 6.716-15 15v34.859h-30v-34.859c0-8.284-6.716-15-15-15s-15 6.716-15 15l-.37 256h150.37v-213.184-7.957-34.859c0-8.284-6.716-15-15-15z" fill="#eae0db"/><path d="m437 381.246c-8.284 0-15-6.716-15-15v-13.864c0-8.284 6.716-15 15-15s15 6.716 15 15v13.864c0 8.284-6.716 15-15 15z" fill="#736e6e"/></g><g><path d="m150 256c0-8.284-6.716-15-15-15s-15 6.716-15 15v34.859h-30v-34.859c0-8.284-6.716-15-15-15s-15 6.716-15 15v34.859h-30v-34.859c0-8.284-6.716-15-15-15s-15 6.716-15 15v34.859 7.957 213.184h150.468z" fill="#fbf4f4"/><path d="m75 381.246c-8.284 0-15-6.716-15-15v-13.864c0-8.284 6.716-15 15-15s15 6.716 15 15v13.864c0 8.284-6.716 15-15 15z" fill="#c7bdb8"/></g></g></g></svg>