<svg id="Capa_1" enable-background="new 0 0 512 512" height="512" viewBox="0 0 512 512" width="512" xmlns="http://www.w3.org/2000/svg"><g><g><path d="m214.249 446.397c-5.314 0-10.462-2.829-13.184-7.823l-164.144-301.11c-3.966-7.273-1.283-16.385 5.99-20.35 7.276-3.966 16.386-1.283 20.35 5.99l164.145 301.11c3.966 7.273 1.283 16.385-5.99 20.35-2.281 1.244-4.741 1.833-7.167 1.833z" fill="#f4da90"/><g><g><g><path d="m270.843 75.129h33.788c8.284 0 15 6.716 15 15v346.132h-63.788v-346.132c0-8.284 6.716-15 15-15z" fill="#a56032"/><path d="m304.631 75.129h-16.894v361.133h31.894v-346.133c0-8.284-6.716-15-15-15z" fill="#854d29"/></g><g><path d="m470.764 249.291-11.556 31.75c-2.833 7.785-11.441 11.798-19.226 8.965l-362.876-132.078c-7.785-2.833-11.798-11.441-8.965-19.226l11.556-31.75c2.833-7.785 11.441-11.798 19.226-8.965l362.876 132.078c7.785 2.834 11.799 11.441 8.965 19.226z" fill="#c28459"/><path d="m461.799 230.065-174.062-63.354v67.882l152.245 55.413c7.785 2.833 16.392-1.18 19.226-8.965l11.556-31.75c2.834-7.785-1.18-16.392-8.965-19.226z" fill="#a56032"/></g></g><g><g><ellipse cx="96.748" cy="61.428" fill="#fbf4f4" rx="61.428" ry="61.428" transform="matrix(.869 -.496 .496 .869 -17.727 56.038)"/><path d="m140.379 18.188c-.086-.087-.176-.166-.263-.252l-86.863 86.863c23.892 23.962 62.682 24.096 86.733.26 24.098-23.881 24.273-62.774.393-86.871z" fill="#eae0db"/></g><g><path d="m27.158 130.392c32.153 32.444 82.139 36.472 118.717 11.943 7.821-5.244 8.914-16.328 2.286-23.016l-108.838-109.825c-6.628-6.688-17.721-5.695-23.036 2.078-24.858 36.356-21.282 86.376 10.871 118.82z" fill="#457899"/><path d="m148.161 119.319-54.467-54.961-66.281 66.281c32.161 32.212 81.978 36.161 118.461 11.696 7.822-5.244 8.915-16.328 2.287-23.016z" fill="#2b495d"/></g></g></g></g><g><g><path d="m224.106 299.347h63.788v286.823h-63.788z" fill="#854d29" transform="matrix(0 1 -1 0 698.759 186.759)"/><path d="m287.737 410.865h111.674v63.788h-111.674z" fill="#633a1e"/></g><g><g><ellipse cx="68.224" cy="443.776" fill="#457899" rx="68.224" ry="68.224" transform="matrix(.707 -.707 .707 .707 -293.814 178.221)"/><path d="m68.223 458.777c-5.83 0-11.265-3.52-13.662-8.828-2.627-5.817-1.209-12.895 3.51-17.22 4.467-4.094 11.09-5.063 16.565-2.507 6.014 2.808 9.503 9.566 8.367 16.095-1.234 7.094-7.559 12.46-14.78 12.46z" fill="#fbf4f4"/></g><g><ellipse cx="443.776" cy="443.776" fill="#2b495d" rx="68.224" ry="68.224" transform="matrix(.23 -.973 .973 .23 -90.087 773.721)"/><path d="m443.776 458.777c-6.29 0-12.038-4.089-14.135-10.005-2.128-6.003-.121-12.908 4.913-16.823 4.821-3.75 11.579-4.179 16.838-1.09 5.399 3.172 8.312 9.623 7.106 15.771-1.363 6.948-7.622 12.147-14.722 12.147z" fill="#eae0db"/></g></g></g></g></svg>