<svg id="Capa_1" enable-background="new 0 0 512.037 512.037" height="512" viewBox="0 0 512.037 512.037" width="512" xmlns="http://www.w3.org/2000/svg"><g><path d="m56 320.893c-8.284 0-15-6.716-15-15v-92.02c0-8.284 6.716-15 15-15s15 6.716 15 15v92.02c0 8.285-6.716 15-15 15z" fill="#08475e"/><path d="m368 256.893h-81.02c-8.284 0-15-6.716-15-15s6.716-15 15-15h81.02c8.284 0 15 6.716 15 15s-6.716 15-15 15z" fill="#05303d"/><path d="m312.04 228.503-28 48.5c-6.81 11.78-16.41 21.4-28.04 28.16-4.528 2.627-7.243 3.723-18.63 8.91-25.022 11.369-54.476 8.607-76.97-7.41l-118.54-84.45c-18.25-13.01-29.97-33.26-32.13-55.57l-1.97-20.29c-1.56-16.15 1.9-32.12 10.01-46.17l3-5.2c8.12-14.05 20.22-25.04 34.99-31.76l20.15-9.16c19.14-8.71 41.32-9.22 60.84-1.4 137.818 55.208 114.547 45.885 135.99 54.48 26.96 10.8 45.46 35.47 48.26 64.39l1.04 10.8c1.57 16.15-1.89 32.12-10 46.17z" fill="#0a789b"/><path d="m312.04 228.503-28 48.5c-6.81 11.78-16.41 21.4-28.04 28.16v-204.73l16.74 6.71c26.96 10.8 45.46 35.47 48.26 64.39l1.04 10.8c1.57 16.15-1.89 32.12-10 46.17z" fill="#08475e"/><path d="m510.36 299.074-49-96c-2.562-5.021-7.724-8.181-13.36-8.181h-80c-8.284 0-15 6.716-15 15v96c0 8.284 6.716 15 15 15h129c11.184 0 18.452-11.842 13.36-21.819z" fill="#e0eaef"/><path d="m511.99 305.893c0-2.33-.53-4.67-1.63-6.82l-49-96c-2.56-5.02-7.72-8.18-13.36-8.18h-80c-8.284 0-15 6.716-15 15v96h-324.818c-6.86 0-12.846 4.654-14.537 11.302l-13.185 51.838c-1.22 4.82.02 9.94 3.32 13.66l33 37.16c2.85 3.21 6.93 5.04 11.22 5.04h424c3.87 0 7.59-1.5 10.39-4.18l25-24c2.94-2.83 4.61-6.74 4.61-10.82 0-80.955.09-80-.01-80zm-128.99-15v-66h55.82l33.68 66z" fill="#ffdd54"/><path d="m511.99 305.893c0-2.33-.53-4.67-1.63-6.82l-49-96c-2.56-5.02-7.72-8.18-13.36-8.18h-80c-8.28 0-15 6.72-15 15v96h-97v119h216c3.87 0 7.59-1.5 10.39-4.18l25-24c2.94-2.83 4.61-6.74 4.61-10.82 0-80.955.09-80-.01-80zm-128.99-15v-66h55.82l33.68 66z" fill="#ffb454"/><path d="m201 354.893c-15.75 0-29.964 6.665-40 17.31-10.036-10.645-24.25-17.31-40-17.31-30.327 0-55 24.673-55 55s24.673 55 55 55c15.75 0 29.964-6.665 40-17.31 10.036 10.645 24.25 17.31 40 17.31 30.327 0 55-24.673 55-55s-24.673-55-55-55z" fill="#0a789b"/><g fill="#08475e"><circle cx="120" cy="409.893" r="24"/><circle cx="200" cy="409.893" r="24"/><circle cx="392" cy="409.893" r="55"/></g><circle cx="392" cy="409.893" fill="#05303d" r="24"/></g></svg>