<svg id="Layer_1" enable-background="new 0 0 512.651 512.651" height="512" viewBox="0 0 512.651 512.651" width="512" xmlns="http://www.w3.org/2000/svg"><g><circle cx="256.325" cy="256.325" fill="#fff4f4" r="241.325"/><path d="m497.651 256.325c0-133.28-108.045-241.325-241.326-241.325v482.65c133.281.001 241.326-108.044 241.326-241.325z" fill="#eee1dc"/><path d="m256.325 512.651c-68.467 0-132.835-26.663-181.249-75.076-48.413-48.414-75.076-112.783-75.076-181.25s26.663-132.835 75.076-181.249c48.414-48.413 112.782-75.076 181.249-75.076s132.836 26.663 181.25 75.076c48.414 48.414 75.076 112.783 75.076 181.25s-26.663 132.836-75.076 181.25c-48.414 48.412-112.783 75.075-181.25 75.075zm0-482.651c-60.454 0-117.289 23.542-160.036 66.289s-66.289 99.583-66.289 160.036 23.542 117.289 66.289 160.036c42.748 42.747 99.583 66.289 160.036 66.289s117.289-23.542 160.037-66.289c42.747-42.747 66.289-99.583 66.289-160.036s-23.542-117.289-66.289-160.036c-42.748-42.747-99.583-66.289-160.037-66.289z" fill="#ff9100"/><g fill="#0089ff"><circle cx="256.325" cy="73.973" r="15.099"/><circle cx="256.325" cy="438.763" r="15.099"/><circle cx="74.575" cy="256.325" r="15.099"/></g><circle cx="437.365" cy="256.325" fill="#295fcc" r="15.099"/><g><path d="m225.051 261.807c-1.386 0-2.795-.193-4.193-.6l-104.088-30.252c-7.955-2.312-12.529-10.635-10.217-18.59s10.636-12.53 18.59-10.218l104.088 30.251c7.955 2.312 12.529 10.635 10.217 18.59-1.905 6.558-7.896 10.819-14.397 10.819z" fill="#00337a"/></g><path d="m256.325 0v30c60.454 0 117.289 23.542 160.036 66.289s66.289 99.583 66.289 160.036-23.542 117.289-66.289 160.036-99.583 66.289-160.036 66.289v30c68.467 0 132.836-26.663 181.249-75.076 48.414-48.414 75.076-112.783 75.076-181.25s-26.663-132.836-75.076-181.25c-48.413-48.411-112.782-75.074-181.249-75.074z" fill="#ff5e00"/><path d="m271.425 73.973c0-8.339-6.76-15.099-15.099-15.099v30.199c8.339-.001 15.099-6.761 15.099-15.1z" fill="#295fcc"/><path d="m271.425 438.763c0-8.339-6.76-15.099-15.099-15.099v30.199c8.339-.001 15.099-6.761 15.099-15.1z" fill="#295fcc"/><path d="m294.901 235.123c-5.663-10.304-15-17.786-26.291-21.067-23.306-6.773-47.78 6.677-54.554 29.984-3.282 11.291-1.97 23.183 3.693 33.487 3.177 5.781 7.512 10.673 12.699 14.434l-14.568 51.63c-2.25 7.973 2.39 16.26 10.363 18.51 1.362.384 2.732.567 4.081.567 6.546 0 12.563-4.32 14.429-10.931l14.531-51.499c17.91-1.225 34.017-13.413 39.31-31.629 3.282-11.289 1.971-23.182-3.693-33.486zm-25.114 25.115c-2.157 7.423-9.954 11.705-17.375 9.549-3.595-1.045-6.569-3.428-8.373-6.709s-2.221-7.069-1.176-10.665c1.779-6.122 7.391-10.107 13.468-10.107 1.292 0 2.605.18 3.907.558 3.596 1.045 6.569 3.428 8.373 6.709s2.221 7.069 1.176 10.665z" fill="#ff405c"/><path d="m268.61 214.043c-4.094-1.19-8.222-1.743-12.285-1.741v29.991h.006c1.292 0 2.605.18 3.907.558 3.596 1.045 6.569 3.428 8.373 6.709s2.221 7.069 1.176 10.665c-1.778 6.119-7.389 10.092-13.462 10.096v40.391l2.959-10.487c17.91-1.225 34.017-13.413 39.31-31.629 3.282-11.291 1.97-23.183-3.693-33.487-5.663-10.303-15-17.785-26.291-21.066z" fill="#c1126b"/></g></svg>