<svg id="Capa_1" enable-background="new 0 0 512 512" height="512" viewBox="0 0 512 512" width="512" xmlns="http://www.w3.org/2000/svg"><g><g><path d="m500.629 211.272-229.639-57.158v-59.15c0-8.283-6.711-14.997-14.99-14.997-13.771 0-24.974-11.209-24.974-24.986 0-13.778 11.203-24.986 24.974-24.986s24.974 11.209 24.974 24.986c0 8.283 6.711 14.997 14.99 14.997s14.99-6.714 14.99-14.997c-.001-30.317-24.653-54.981-54.954-54.981s-54.953 24.664-54.953 54.981c0 25.117 16.928 46.339 39.963 52.884v46.249l-229.64 57.158c-6.68 1.663-11.37 7.665-11.37 14.554v60.689c0 8.283 6.711 14.997 14.99 14.997h482.02c8.278 0 14.99-6.714 14.99-14.997v-60.689c0-6.889-4.69-12.891-11.371-14.554zm-18.608 60.246h-452.042v-33.969l226.021-56.258 226.021 56.258z" fill="#eee3ca"/><g fill="#d5b97b"><path d="m256 29.994c13.771 0 24.974 11.209 24.974 24.986 0 8.283 6.711 14.997 14.99 14.997s14.99-6.714 14.99-14.997c-.001-30.316-24.653-54.98-54.954-54.98z"/><path d="m500.629 211.272-229.639-57.158v-59.15c0-8.283-6.711-14.997-14.99-14.997v101.324l226.021 56.258v33.969h-226.021v29.994h241.01c8.278 0 14.99-6.714 14.99-14.997v-60.689c0-6.889-4.69-12.891-11.371-14.554z"/></g></g><g><g><path d="m405.905 512h-299.809c-8.278 0-14.99-6.714-14.99-14.997v-246.186c0-8.283 6.711-14.997 14.99-14.997h299.809c8.278 0 14.99 6.714 14.99 14.997v246.186c0 8.283-6.711 14.997-14.99 14.997z" fill="#9cd6f4"/><path d="m405.905 235.82h-149.905v276.18h149.905c8.278 0 14.99-6.714 14.99-14.997v-246.186c0-8.283-6.711-14.997-14.99-14.997z" fill="#7fa6fb"/></g><g><path d="m350.934 235.82h29.979v276.18h-29.979z" fill="#2b495d"/><path d="m277.651 235.82h29.979v276.18h-29.979z" fill="#2b495d"/><g fill="#457899"><path d="m204.369 235.82h29.979v276.18h-29.979z"/><path d="m131.087 235.82h29.979v276.18h-29.979z"/></g></g></g></g></svg>