<svg id="Capa_1" enable-background="new 0 0 512 512" height="512" viewBox="0 0 512 512" width="512" xmlns="http://www.w3.org/2000/svg"><g><path d="m385.984 353.395h-34.018c-8.284 0-15-6.716-15-15s6.716-15 15-15h34.017c33.196-.002 60.204-21.674 60.204-59.774v-81.234h-50.648c-8.284 0-15-6.716-15-15s6.716-15 14.982-15.085h53.648c14.906.085 27.018 12.834 27.018 28.504v82.815c0 54.642-40.464 89.772-90.203 89.774zm63.203-171.008h.01z" fill="#2b495d"/><g><g><path d="m285.22 122.225h-54.911c-.944 0-1.709-.765-1.709-1.709v-91.352c0-16.107 13.057-29.164 29.164-29.164 16.107 0 29.165 13.057 29.165 29.164v91.351c0 .945-.765 1.71-1.709 1.71z" fill="#2b495d"/><path d="m257.764 0v122.225h27.456c.944 0 1.709-.765 1.709-1.709v-91.352c0-16.107-13.058-29.164-29.165-29.164z" fill="#182831"/></g><g><path d="m155.351 353.395-117.043-177.848c-6.564-9.974.59-23.246 12.53-23.246h58.229l29.524 84.828z" fill="#bbd0d5"/><g><g><g><path d="m109.067 152.301 122.45-83.037c14.503-7.948 32.026-8.096 46.662-.395l128.283 83.432-148.698 10z" fill="#457899"/><path d="m278.179 68.869c-6.416-3.376-13.387-5.242-20.414-5.605v99.038l148.698-10z" fill="#2b495d"/></g><g><path d="m360.178 353.395-102.414 10-102.413-10-46.284-201.094h297.395z" fill="#fbf4f4"/><path d="m257.764 152.301v211.094l102.414-10 46.284-201.094z" fill="#e2e9ee"/></g><g><path d="m155.351 353.395h204.827l49.707 138.539c3.506 9.772-3.736 20.066-14.119 20.066h-276.004c-10.382 0-17.625-10.293-14.119-20.066z" fill="#457899"/><path d="m409.885 491.934-49.707-138.539h-102.414v158.605h138.002c10.382 0 17.625-10.293 14.119-20.066z" fill="#2b495d"/></g></g><g><path d="m295.81 255.911c-8.284 0-15 6.716-15 15v82.484h30v-82.484c0-8.284-6.715-15-15-15z" fill="#a3c4ca"/><path d="m220.391 255.911c-8.284 0-15 6.716-15 15v82.484h30v-82.484c0-8.284-6.715-15-15-15z" fill="#bbd0d5"/></g></g></g></g></g></svg>