<svg id="Capa_1" enable-background="new 0 0 512 512" height="512" viewBox="0 0 512 512" width="512" xmlns="http://www.w3.org/2000/svg"><g><path d="m368 350h-224c-9.43 0-16.57-8.64-14.71-17.94 5.9-29.46 10.19-50.93 13.51-67.57.01 0 .01-.01.01-.01 47.85-66.85 26.82-134.14 26.82-134.14 3.71-18.54 8.33-41.63 14.25-71.21 6.85-34.26 37.18-59.13 72.12-59.13 35.31 0 65.33 25.06 72.12 59.14 1.56 7.81 3.44 17.2 5.56 27.78 0 0-25.48 56.04 24.13 120.65 9.33 46.65 18.58 92.9 24.9 124.49 1.85 9.26-5.24 17.94-14.71 17.94z" fill="#ff7038"/><path d="m368 350h-112v-350c35.31 0 65.33 25.06 72.12 59.14 1.56 7.81 3.44 17.2 5.56 27.78 0 0-25.48 56.04 24.13 120.65 9.33 46.65 18.58 92.9 24.9 124.49 1.85 9.26-5.24 17.94-14.71 17.94z" fill="#ff2929"/><path d="m424 447h-336c-9.795 0-16.887-9.209-14.56-18.6l24-97c1.66-6.7 7.66-11.4 14.56-11.4h288c6.9 0 12.9 4.7 14.56 11.4l24 97c2.339 9.44-4.808 18.6-14.56 18.6z" fill="#e0eaef"/><path d="m333.68 86.92c-15.98 4.23-147.887 39.142-164.05 43.42-2.753 13.796-24.647 123.282-26.82 134.14 130.637-34.578 93.881-24.849 215-56.91-5.819-29.055-15.98-79.926-24.13-120.65z" fill="#e0eaef"/><path d="m424 447h-168v-127h144c6.9 0 12.9 4.7 14.56 11.4l24 97c2.339 9.44-4.808 18.6-14.56 18.6z" fill="#cce0e5"/><path d="m357.81 207.57-101.81 26.95v-127.04l77.68-20.56c9.525 47.595 17.051 85.308 24.13 120.65z" fill="#cce0e5"/><path d="m487 432v65c0 8.28-6.72 15-15 15h-432c-8.28 0-15-6.72-15-15v-65c0-8.28 6.72-15 15-15h432c8.28 0 15 6.72 15 15z" fill="#ff7038"/><path d="m487 432v65c0 8.28-6.72 15-15 15h-216v-95h216c8.28 0 15 6.72 15 15z" fill="#ff2929"/></g></svg>