<svg id="Capa_1" enable-background="new 0 0 512 512" height="512" viewBox="0 0 512 512" width="512" xmlns="http://www.w3.org/2000/svg"><g><g><g><g><path d="m407.487 436.753c41.268-61.165 74.511-152.267 81.558-170.434 21.656-55.83-2.171-115.018-53.22-132.2-27.712-9.328-58.438-3.927-83.572 11.498-33.203-9.985-69.362.16-96.252 23.921-26.836-23.713-62.904-33.865-96.052-23.981-25.274-15.76-55.806-20.851-83.773-11.438-51.049 17.182-74.876 76.37-53.22 132.2 7.061 18.203 39.245 109.261 80.631 170.434z" fill="#2b495d"/></g><path d="m435.825 134.119c-27.712-9.328-58.437-3.927-83.572 11.498-33.203-9.985-69.362.16-96.252 23.921-.153-.135-.311-.264-.464-.399v267.613h151.951c41.268-61.165 74.511-152.267 81.558-170.434 21.655-55.829-2.173-115.017-53.221-132.199z" fill="#182831"/></g><g><g><path d="m335.308 436.753c37.516-60.297 66.347-141.041 72.944-158.05 21.656-55.83-2.171-115.018-53.22-132.2-33.952-11.428-71.39-1.391-99.033 23.035-27.643-24.426-65.081-34.463-99.033-23.035-51.048 17.182-74.876 76.37-53.22 132.2 6.503 16.764 34.603 96.358 71.331 158.05z" fill="#457899"/></g><path d="m355.033 146.502c-33.952-11.428-71.39-1.391-99.033 23.035-.153-.135-.311-.264-.464-.398v267.613h79.772c37.516-60.297 66.347-141.041 72.944-158.05 21.656-55.829-2.171-115.017-53.219-132.2z" fill="#2b495d"/></g></g><g><g><g><path d="m501.15 174.448c-12.259-26.16-33.757-45.531-60.536-54.545-28.931-9.738-61.581-6.192-90.53 9.637-26.229-6.022-54.526-1.707-79.54 11.704v-25.95-52.775h14.353c8.288 0 15.006-6.716 15.006-15s-6.719-15-15.006-15h-14.353v-17.519c0-8.284-6.719-15-15.007-15s-15.006 6.716-15.006 15v17.519h-14.354c-8.288 0-15.006 6.716-15.006 15s6.719 15 15.006 15h14.354v52.775 25.459c-24.697-12.976-52.507-17.126-78.334-11.273-28.744-15.922-61.491-19.446-90.81-9.577-26.779 9.014-48.277 28.385-60.536 54.545-13.778 29.402-14.466 64.865-1.887 97.294.685 1.767 1.612 4.234 2.765 7.305 10.98 29.228 39.707 105.688 76.654 161.944v55.716h335.234v-57.139c37.379-57.555 67.334-136.142 77.39-162.527.821-2.153 1.5-3.935 2.028-5.298 12.58-32.431 11.892-67.892-1.885-97.295zm-384.236 255.431c-.269-.52-.562-1.032-.898-1.529-36.292-53.644-65.278-130.803-76.19-159.85-1.201-3.196-2.166-5.765-2.88-7.604-9.632-24.83-9.237-51.701 1.082-73.723 8.749-18.671 23.997-32.464 42.935-38.838 13.812-4.648 28.786-5.128 43.438-1.661-13.873 10.169-25.114 23.842-32.76 40.158-13.778 29.403-14.465 64.865-1.885 97.294.718 1.853 1.706 4.488 2.945 7.793 9.06 24.176 31.853 84.986 61.146 137.96zm123.616 0h-52.135c-.138-.267-.266-.536-.422-.797-31.899-53.582-57.522-121.95-67.168-147.688-1.29-3.441-2.319-6.185-3.067-8.115-9.631-24.83-9.237-51.701 1.082-73.723 8.749-18.671 23.997-32.465 42.935-38.839 25.495-8.582 55.09-2.607 78.775 15.52zm81.454 0h-51.441v-252.935c23.836-18.684 53.877-24.918 79.7-16.226 18.938 6.374 34.186 20.167 42.935 38.838 10.32 22.022 10.714 48.893 1.083 73.723-.67 1.728-1.565 4.1-2.672 7.032-9.853 26.114-36.026 95.483-69.025 148.52-.212.343-.397.695-.58 1.048zm153.069-168.982c-.545 1.406-1.246 3.242-2.092 5.462-10.081 26.449-40.759 106.937-77.916 162.007-.332.492-.621.999-.888 1.514h-37.282c30.28-52.809 53.539-114.447 62.796-138.981 1.065-2.824 1.927-5.109 2.572-6.773 12.579-32.429 11.891-67.891-1.887-97.294-7.608-16.236-18.778-29.854-32.557-40.006 14.703-3.504 29.613-3.077 43.236 1.509 18.938 6.374 34.186 20.167 42.935 38.839 10.32 22.021 10.715 48.892 1.083 73.723z" fill="#f4da90"/></g><path d="m501.15 174.448c-12.259-26.16-33.757-45.531-60.536-54.545-28.931-9.738-61.581-6.192-90.53 9.637-26.229-6.022-54.526-1.707-79.54 11.704v-25.95-52.775h14.353c8.288 0 15.006-6.716 15.006-15s-6.719-15-15.006-15h-14.353v-17.519c0-8.284-6.719-15-15.007-15h-.001v496.706h168.081v-57.139c37.379-57.555 67.334-136.142 77.39-162.527.821-2.153 1.5-3.935 2.028-5.298 12.58-32.43 11.892-67.891-1.885-97.294zm-179.166 255.431h-51.441v-252.935c23.836-18.684 53.877-24.918 79.7-16.226 18.938 6.374 34.186 20.167 42.935 38.838 10.32 22.022 10.715 48.893 1.083 73.723-.67 1.728-1.565 4.1-2.672 7.032-9.853 26.114-36.026 95.483-69.025 148.52-.212.343-.397.695-.58 1.048zm153.069-168.982c-.545 1.406-1.246 3.242-2.092 5.462-10.081 26.449-40.759 106.937-77.916 162.007-.332.492-.621.999-.888 1.514h-37.282c30.28-52.809 53.539-114.447 62.796-138.981 1.065-2.824 1.927-5.109 2.572-6.773 12.579-32.429 11.891-67.891-1.887-97.294-7.608-16.236-18.778-29.854-32.557-40.006 14.703-3.504 29.613-3.077 43.236 1.509 18.938 6.374 34.186 20.167 42.935 38.839 10.32 22.021 10.715 48.892 1.083 73.723z" fill="#e7aa60"/></g><g><g><path d="m421.627 512h-331.254c-8.288 0-15.006-6.716-15.006-15s6.719-15 15.006-15h331.253c8.288 0 15.006 6.716 15.006 15s-6.718 15-15.005 15z" fill="#e7aa60"/></g><path d="m421.627 482h-166.091v30h166.091c8.288 0 15.006-6.716 15.006-15s-6.719-15-15.006-15z" fill="#e48d3c"/></g></g></g></svg>