<svg id="Capa_1" enable-background="new 0 0 512 512" height="512" viewBox="0 0 512 512" width="512" xmlns="http://www.w3.org/2000/svg"><g><path d="m271 404.27v32.46l10.29-5.15c7.41-3.7 16.42-.7 20.13 6.71 3.7 7.41.7 16.42-6.71 20.13l-23.71 11.85v26.73c0 8.28-6.72 15-15 15s-15-6.72-15-15v-11.73l-10.29 5.15c-7.451 3.71-16.438.661-20.13-6.71-3.7-7.41-.7-16.42 6.71-20.13l23.71-11.85v-32.46l-10.29 5.15c-7.451 3.71-16.438.661-20.13-6.71-3.7-7.41-.7-16.42 6.71-20.13l23.71-11.85v-29.46l-10.29 5.15c-7.451 3.71-16.438.661-20.13-6.71-3.7-7.41-.7-16.42 6.71-20.13l23.71-11.85v-66.73c0-8.28 6.72-15 15-15s15 6.72 15 15v51.73l10.29-5.15c7.41-3.7 16.42-.7 20.13 6.71 3.7 7.41.7 16.42-6.71 20.13l-23.71 11.85v29.46l10.29-5.15c7.41-3.7 16.42-.7 20.13 6.71 3.7 7.41.7 16.42-6.71 20.13z" fill="#0a789b"/><path d="m271 404.27v32.46l10.29-5.15c7.41-3.7 16.42-.7 20.13 6.71 3.7 7.41.7 16.42-6.71 20.13l-23.71 11.85v26.73c0 8.28-6.72 15-15 15v-271c8.28 0 15 6.72 15 15v51.73l10.29-5.15c7.41-3.7 16.42-.7 20.13 6.71 3.7 7.41.7 16.42-6.71 20.13l-23.71 11.85v29.46l10.29-5.15c7.41-3.7 16.42-.7 20.13 6.71 3.7 7.41.7 16.42-6.71 20.13z" fill="#08475e"/><path d="m343 143.51v32.49c0 52.38-39.03 95-87 95s-87-42.62-87-95v-32.49c0-8.28 6.72-15 15-15h144c8.28 0 15 6.72 15 15z" fill="#ff7038"/><path d="m343 143.51v32.49c0 52.38-39.03 95-87 95v-142.49h72c8.28 0 15 6.72 15 15z" fill="#ff2929"/><path d="m448 95h-64c-8.284 0-15-6.716-15-15s6.716-15 15-15h64c8.284 0 15 6.716 15 15s-6.716 15-15 15z" fill="#9d9bdf"/><path d="m128 95h-64c-8.284 0-15-6.716-15-15s6.716-15 15-15h64c8.284 0 15 6.716 15 15s-6.716 15-15 15z" fill="#9d9bdf"/><path d="m399 80c0 43.56-35.44 79-79 79h-128c-43.56 0-79-35.44-79-79 0-43.674 35.336-80 79-80h128c43.672 0 79 36.336 79 80z" fill="#ffdd54"/><path d="m399 80c0 43.56-35.44 79-79 79h-64v-159h64c43.672 0 79 36.336 79 80z" fill="#ffb454"/><path d="m295 80c0 8.28-6.72 15-15 15h-49c-8.28 0-15-6.72-15-15s6.72-15 15-15h49c8.28 0 15 6.72 15 15z" fill="#0a789b"/><path d="m295 80c0 8.28-6.72 15-15 15h-24v-30h24c8.28 0 15 6.72 15 15z" fill="#08475e"/></g></svg>