<svg id="Capa_1" enable-background="new 0 0 512 512" height="512" viewBox="0 0 512 512" width="512" xmlns="http://www.w3.org/2000/svg"><g><g><g><path d="m41.264 132.717h429.472v336.69h-429.472z" fill="#457899"/><path d="m256 132.717h214.736v336.69h-214.736z" fill="#2b495d"/></g><g><g><g><path d="m256 257.352c-8.284 0-15-6.716-15-15v-23.258c0-8.284 6.716-15 15-15s15 6.716 15 15v23.258c0 8.284-6.716 15-15 15z" fill="#eee3ca"/><path d="m256 204.094v53.258c8.284 0 15-6.716 15-15v-23.258c0-8.284-6.716-15-15-15z" fill="#d5b97b"/></g><g><path d="m279.599 219.094h-47.198c-7.126 0-13.269-5.014-14.696-11.996l-17.548-85.846h111.686l-17.548 85.846c-1.427 6.982-7.57 11.996-14.696 11.996z" fill="#9cd6f4"/><path d="m256 121.251v97.843h23.599c7.126 0 13.269-5.014 14.696-11.996l17.548-85.847z" fill="#7fa6fb"/></g></g><g><g><path d="m256 352.505c-8.284 0-15-6.716-15-15v-20.618c0-8.284 6.716-15 15-15s15 6.716 15 15v20.618c0 8.284-6.716 15-15 15z" fill="#eee3ca"/><path d="m256 301.887v50.618c8.284 0 15-6.716 15-15v-20.618c0-8.284-6.716-15-15-15z" fill="#d5b97b"/></g><g><path d="m340.908 432.191h-25.065c-8.284 0-15-6.716-15-15s6.716-15 15-15h25.065c8.393 0 15.221-6.828 15.221-15.221v-10.318c0-8.393-6.828-15.221-15.221-15.221h-25.065c-8.284 0-15-6.716-15-15s6.716-15 15-15h25.065c24.935 0 45.221 20.286 45.221 45.221v10.318c0 24.935-20.286 45.221-45.221 45.221z" fill="#4372f7"/><g><g><path d="m256 455.359c-42.255 0-76.509-34.254-76.509-76.509v-19.418l76.509-10 76.509 10v19.418c0 42.254-34.254 76.509-76.509 76.509z" fill="#9cd6f4"/><path d="m256 349.432v105.927c42.255 0 76.509-34.254 76.509-76.508v-19.418z" fill="#7fa6fb"/></g><g><path d="m317.509 330.431h-123.018c-8.284 0-15 6.716-15 15v14h153.018v-14c0-8.284-6.716-15-15-15z" fill="#fbf4f4"/><path d="m317.509 330.431h-61.509v29h76.509v-14c0-8.284-6.716-15-15-15z" fill="#e2e9ee"/></g></g></g></g></g></g><g><g><path d="m497 512h-482c-8.284 0-15-6.716-15-15v-30.081c0-8.284 6.716-15 15-15h482c8.284 0 15 6.716 15 15v30.081c0 8.284-6.716 15-15 15z" fill="#e2e9ee"/><path d="m497 451.919h-241v60.081h241c8.284 0 15-6.716 15-15v-30.081c0-8.284-6.716-15-15-15z" fill="#a3c4ca"/></g><g><g><path d="m497 152.26h-482c-8.284 0-15-6.716-15-15v-122.26c0-8.284 6.716-15 15-15h482c8.284 0 15 6.716 15 15v122.26c0 8.285-6.716 15-15 15z" fill="#e2e9ee"/><path d="m497 0h-241v152.26h241c8.284 0 15-6.716 15-15v-122.26c0-8.284-6.716-15-15-15z" fill="#a3c4ca"/></g><g fill="#f9ef60"><path d="m376.41 101.74c-6.285 0-11.98-4.054-14.115-9.947-2.129-5.878-.23-12.691 4.605-16.644 4.86-3.973 11.827-4.478 17.218-1.27 5.371 3.197 8.232 9.665 7.002 15.79-1.392 6.93-7.638 12.071-14.71 12.071z"/><path d="m436.41 101.74c-6.415 0-12.205-4.226-14.235-10.294-1.991-5.951.098-12.728 5.057-16.558 4.538-3.505 10.793-4.1 15.918-1.537 5.769 2.885 9.103 9.41 8.065 15.775-1.17 7.175-7.526 12.614-14.805 12.614z"/></g></g></g></g></svg>