<svg id="Capa_1" enable-background="new 0 0 512.005 512.005" height="512" viewBox="0 0 512.005 512.005" width="512" xmlns="http://www.w3.org/2000/svg"><g><path d="m510.815 250.167c-39.475-93.355-111.147-161.661-200.7-205.62-70.61-34.67-129.59-43.06-132.07-43.4-12.696-1.745-21.636 12.325-14.59 23.07.18.29 18.49 28.44 31.24 61.15 8.66 22.239 20.53 62.21 2.7 80.029-6.8 6.801-14.69 9.71-24.86 9.141-48.46-2.7-121.68-81.681-145.81-111.891-4.55-5.699-12.54-7.3-18.94-3.79-6.39 3.511-9.34 11.12-6.97 18.021.33.939 32.19 94.76 32.19 179.13s-31.86 178.19-32.19 179.12c-2.37 6.899.57 14.51 6.97 18.02 6.39 3.521 14.39 1.92 18.94-3.779 24.13-30.21 97.35-109.19 145.81-111.891 10.16-.569 18.06 2.34 24.86 9.141 17.83 17.819 5.96 57.79-2.7 80.029-12.75 32.71-31.06 60.86-31.24 61.141-7.015 10.719 1.775 24.773 14.59 23.08 2.48-.341 61.46-8.73 132.07-43.4 89.552-43.958 161.224-112.263 200.7-205.62 1.586-3.735 1.587-7.947 0-11.681z" fill="#2e51bc"/><path d="m512.005 256.007c0 1.99-.4 3.98-1.19 5.84-39.475 93.355-111.147 161.661-200.7 205.62-70.61 34.67-129.59 43.06-132.07 43.4-12.829 1.695-21.594-12.378-14.59-23.08.18-.28 18.49-28.431 31.24-61.141 8.66-22.239 20.53-62.21 2.7-80.029-6.8-6.801-14.7-9.71-24.86-9.141-48.46 2.7-121.68 81.681-145.81 111.891-4.55 5.699-12.55 7.3-18.94 3.779-6.4-3.51-9.34-11.12-6.97-18.02.33-.93 32.19-94.75 32.19-179.12h479z" fill="#1e347b"/><path d="m341.945 346.457c3.892 9.859-3.375 20.54-13.95 20.54-5.95 0-11.57-3.561-13.92-9.42-.69-1.74-17.07-43.351-17.07-101.57s16.38-99.83 17.07-101.57c3.08-7.689 11.81-11.439 19.5-8.359 7.68 3.08 11.43 11.79 8.37 19.479-.13.311-10.62 27.23-13.94 66.82v47.26c3.32 39.589 13.81 66.509 13.94 66.82z" fill="#1e347b"/><path d="m333.545 365.927c-7.567 3.037-16.354-.58-19.47-8.35-.69-1.74-17.07-43.351-17.07-101.57h31v23.63c3.32 39.59 13.81 66.51 13.94 66.82 3.04 7.7-.71 16.42-8.4 19.47z" fill="#002659"/><path d="m373.395 218.616c-8.896-8.927-3.516-24.202 9.13-25.54 8.628-.877 16.48 5.952 16.48 14.931 0 13.179-15.892 20.07-25.61 10.609z" fill="#fff"/></g></svg>