<svg id="Capa_1" enable-background="new 0 0 512 512" height="512" viewBox="0 0 512 512" width="512" xmlns="http://www.w3.org/2000/svg"><g><path d="m382 0c-20.085 0-38.068 9.16-50 23.518-11.932-14.358-29.915-23.518-50-23.518-8.284 0-15 6.716-15 15s6.716 15 15 15c19.299 0 35 15.701 35 35v40c0 8.284 6.716 15 15 15s15-6.716 15-15v-40c0-19.299 15.701-35 35-35 8.284 0 15-6.716 15-15s-6.716-15-15-15z" fill="#3aafff"/><path d="m347 105v-40c0-19.299 15.701-35 35-35 8.284 0 15-6.716 15-15s-6.716-15-15-15c-20.085 0-38.068 9.16-50 23.518v96.482c8.284 0 15-6.716 15-15z" fill="#008adf"/><path d="m387 60c-22.294 0-42.172 10.489-55 26.777-12.828-16.288-32.706-26.777-55-26.777-38.598 0-70 31.402-70 70 0 8.284 6.716 15 15 15s15-6.716 15-15c0-22.056 17.944-40 40-40s40 17.944 40 40v55c0 8.284 6.716 15 15 15s15-6.716 15-15v-55c0-22.056 17.944-40 40-40s40 17.944 40 40c0 8.284 6.716 15 15 15s15-6.716 15-15c0-38.598-31.402-70-70-70z" fill="#3aafff"/><path d="m347 185v-55c0-22.056 17.944-40 40-40s40 17.944 40 40c0 8.284 6.716 15 15 15s15-6.716 15-15c0-38.598-31.402-70-70-70-22.294 0-42.172 10.489-55 26.777v113.223c8.284 0 15-6.716 15-15z" fill="#008adf"/><path d="m372 320h-80c-8.284 0-15-6.716-15-15v-60c0-8.284 6.716-15 15-15h80c8.284 0 15 6.716 15 15v60c0 8.284-6.716 15-15 15z" fill="#00429b"/><path d="m372 230h-40v90h40c8.284 0 15-6.716 15-15v-60c0-8.284-6.716-15-15-15z" fill="#00337a"/><path d="m217 185c0 41.355 33.645 75 75 75h80c41.355 0 75-33.645 75-75z" fill="#ebe1dc"/><path d="m332 260h40c41.355 0 75-33.645 75-75h-115z" fill="#dcc8be"/><path d="m382 360h-100c-8.284 0-15 6.716-15 15v122h130v-122c0-8.284-6.716-15-15-15z" fill="#00429b"/><path d="m382 360h-50v137h65v-122c0-8.284-6.716-15-15-15z" fill="#00337a"/><path d="m182 305c0 46.869 38.131 85 85 85h130c46.869 0 85-38.131 85-85z" fill="#ebe1dc"/><path d="m332 390h65c46.869 0 85-38.131 85-85h-150z" fill="#dcc8be"/><path d="m85 420c-8.284 0-15 6.716-15 15v62h30v-62c0-8.284-6.716-15-15-15z" fill="#9d5e4a"/><path d="m100 497v-62c0-8.284-6.716-15-15-15v77z" fill="#734536"/><path d="m155 450h-140c-5.593 0-10.722-3.112-13.305-8.073s-2.191-10.947 1.016-15.529l42-60c2.808-4.01 7.395-6.398 12.289-6.398h56c4.895 0 9.481 2.388 12.289 6.398l42 60c3.208 4.582 3.599 10.568 1.016 15.529s-7.712 8.073-13.305 8.073z" fill="#14cd6e"/><path d="m125.289 366.398c-2.807-4.01-7.394-6.398-12.289-6.398h-28v90h70c5.593 0 10.722-3.112 13.305-8.073s2.191-10.947-1.016-15.529z" fill="#00a084"/><path d="m145 390h-120c-5.404 0-10.391-2.907-13.053-7.609s-2.589-10.474.191-15.108l60-100c2.711-4.518 7.593-7.283 12.862-7.283s10.151 2.765 12.862 7.283l60 100c2.78 4.634 2.854 10.405.191 15.108s-7.649 7.609-13.053 7.609z" fill="#beda4b"/><path d="m145 390c5.404 0 10.391-2.907 13.053-7.609s2.589-10.474-.191-15.108l-60-100c-2.711-4.518-7.593-7.283-12.862-7.283v130z" fill="#14cd6e"/><path d="m462 200h-260c-8.284 0-15-6.716-15-15s6.716-15 15-15h260c8.284 0 15 6.716 15 15s-6.716 15-15 15z" fill="#f5f0eb"/><path d="m462 170h-130v30h130c8.284 0 15-6.716 15-15s-6.716-15-15-15z" fill="#ebe1dc"/><path d="m497 320h-330c-8.284 0-15-6.716-15-15s6.716-15 15-15h330c8.284 0 15 6.716 15 15s-6.716 15-15 15z" fill="#f5f0eb"/><path d="m497 290h-165v30h165c8.284 0 15-6.716 15-15s-6.716-15-15-15z" fill="#ebe1dc"/><path d="m497 512h-482c-8.284 0-15-6.716-15-15s6.716-15 15-15h482c8.284 0 15 6.716 15 15s-6.716 15-15 15z" fill="#beda4b"/><path d="m496.971 482h-240.971v30h240.971c8.301 0 15.029-6.716 15.029-15s-6.729-15-15.029-15z" fill="#14cd6e"/></g></svg>