<svg id="Capa_1" enable-background="new 0 0 512 512" height="512" viewBox="0 0 512 512" width="512" xmlns="http://www.w3.org/2000/svg"><g><g><path d="m256 272c-8.291 0-15-6.709-15-15v-91c0-24.814 20.186-45 45-45 8.262 0 15-6.724 15-15v-91c0-8.291 6.709-15 15-15s15 6.709 15 15v91c0 24.814-20.186 45-45 45-8.262 0-15 6.724-15 15v91c0 8.291-6.709 15-15 15z" fill="#f0f7ff"/></g><g><g><path d="m406 512c-27.686 0-53.086-15.205-66.299-39.683l-42.685-80.317h-82.031l-42.656 80.244c-13.243 24.551-38.643 39.756-66.329 39.756-41.367 0-75-33.647-75-75v-120c0-57.891 47.109-105 105-105 27.451 0 53.76 10.854 73.213 30h93.574c19.453-19.146 45.762-30 73.213-30 57.891 0 105 47.109 105 105v120c0 41.353-33.633 75-75 75z" fill="#9df"/></g></g><path d="m256 392h41.016l42.686 80.317c13.212 24.478 38.612 39.683 66.298 39.683 41.367 0 75-33.647 75-75v-120c0-57.891-47.109-105-105-105-27.451 0-53.76 10.854-73.213 30h-46.787z" fill="#66b3ff"/><g id="Game_Pad_1_"><g><path d="m406 302h-15v-15c0-8.291-6.709-15-15-15s-15 6.709-15 15v15h-15c-8.291 0-15 6.709-15 15s6.709 15 15 15h15v15c0 8.291 6.709 15 15 15s15-6.709 15-15v-15h15c8.291 0 15-6.709 15-15s-6.709-15-15-15z" fill="#dfe7f4"/><circle cx="136" cy="317" fill="#f0f7ff" r="45"/></g></g><path d="m271 302h-30c-8.291 0-15 6.709-15 15s6.709 15 15 15h30c8.291 0 15-6.709 15-15s-6.709-15-15-15z" fill="#f0f7ff"/><path d="m256 332h15c8.291 0 15-6.709 15-15s-6.709-15-15-15h-15z" fill="#dfe7f4"/></g></svg>