<svg id="Capa_1" enable-background="new 0 0 512 512" height="512" viewBox="0 0 512 512" width="512" xmlns="http://www.w3.org/2000/svg"><g><path d="m207 113h-64c-8.284 0-15 6.716-15 15v337c0 25.916 21.084 47 47 47s47-21.084 47-47v-337c0-8.284-6.716-15-15-15z" fill="#e27a4e"/><path d="m87 0h-32c-8.284 0-15 6.716-15 15v225c0 8.284 6.716 15 15 15h32c68.891 0 135-55.615 135-127 0-71.372-66.087-128-135-128z" fill="#4d5788"/><path d="m55 0c-30.327 0-55 24.673-55 55v145c0 30.327 24.673 55 55 55s55-24.673 55-55v-145c0-30.327-24.673-55-55-55z" fill="#667197"/><path d="m369 113h-64c-8.284 0-15 6.716-15 15v337c0 25.916 21.084 47 47 47s47-21.084 47-47v-337c0-8.284-6.716-15-15-15z" fill="#dc455b"/><path d="m457 0h-32c-33.624 0-67.652 13.586-93.36 37.273-55.493 51.132-55.591 130.355.067 181.016 25.633 23.33 59.637 36.711 93.293 36.711h32c8.284 0 15-6.716 15-15v-225c0-8.284-6.716-15-15-15z" fill="#313a6b"/><path d="m457 0c-30.327 0-55 24.673-55 55v145c0 30.327 24.673 55 55 55s55-24.673 55-55v-145c0-30.327-24.673-55-55-55z" fill="#4d5788"/></g></svg>