<svg id="Capa_1" enable-background="new 0 0 512 512" height="512" viewBox="0 0 512 512" width="512" xmlns="http://www.w3.org/2000/svg"><g id="Jump_rope_1_"><path d="m436 210c-8.284 0-15 6.716-15 15v120 17c0 66.168-53.832 120-120 120-.033 0-.065-.001-.098-.001 36.466-27.389 60.098-70.985 60.098-119.999v-17c0-57.897-47.103-105-105-105s-105 47.103-105 105v17c0 49.014 23.632 92.61 60.098 119.999-.033 0-.065.001-.098.001-66.168 0-120-53.832-120-120v-17-120c0-8.284-6.716-15-15-15s-15 6.716-15 15v120 17c0 82.71 67.29 150 150 150 15.672 0 30.788-2.42 45-6.899 14.212 4.479 29.328 6.899 45 6.899 82.71 0 150-67.29 150-150v-17-120c0-8.284-6.716-15-15-15zm-255 152v-17c0-41.355 33.645-75 75-75s75 33.645 75 75v17c0 50.262-31.065 93.398-75 111.236-43.935-17.838-75-60.974-75-111.236z" fill="#5e79bc"/><path d="m331 345v17c0 50.262-31.065 93.398-75 111.236v31.864c14.212 4.479 29.328 6.899 45 6.899 82.71 0 150-67.29 150-150v-17-119.999c0-8.284-6.716-15-15-15s-15 6.716-15 15v120 17c0 66.168-53.832 120-120 120-.033 0-.065-.001-.098-.001 36.466-27.389 60.098-70.985 60.098-119.999v-17c0-57.897-47.103-105-105-105v30c41.355 0 75 33.645 75 75z" fill="#47568c"/><path d="m91 210h-30c-16.569 0-30-13.431-30-30v-165c0-8.284 6.716-15 15-15h60c8.284 0 15 6.716 15 15v165c0 16.569-13.431 30-30 30z" fill="#9df"/><path d="m106 240h-60c-8.284 0-15-6.716-15-15v-45h90v45c0 8.284-6.716 15-15 15z" fill="#66b3ff"/><path d="m451 210h-30c-16.569 0-30-13.431-30-30v-165c0-8.284 6.716-15 15-15h60c8.284 0 15 6.716 15 15v165c0 16.569-13.431 30-30 30z" fill="#66b3ff"/><path d="m466 240h-60c-8.284 0-15-6.716-15-15v-45h90v45c0 8.284-6.716 15-15 15z" fill="#4895ff"/></g></svg>