<svg id="Capa_1" enable-background="new 0 0 512 512" height="512" viewBox="0 0 512 512" width="512" xmlns="http://www.w3.org/2000/svg"><g><path d="m135.208 432.503h-70.71v30h70.71c8.284 0 15-6.716 15-15s-6.716-15-15-15z" fill="#4f2e26"/><path d="m36.213 390.076c-8.284 0-15 6.716-15 15v70.711h30v-70.711c0-8.284-6.716-15-15-15z" fill="#9d5e4a"/><path d="m15 512c-3.839 0-7.678-1.465-10.606-4.394-5.858-5.857-5.858-15.355 0-21.213l112.305-112.305c5.857-5.857 15.355-5.857 21.213 0s5.858 15.355 0 21.213l-112.306 112.305c-2.928 2.929-6.767 4.394-10.606 4.394z" fill="#9d5e4a"/><path d="m15 512c3.839 0 7.678-1.465 10.606-4.394l112.305-112.305c5.858-5.857 5.858-15.355 0-21.213l-133.518 133.518c2.929 2.929 6.768 4.394 10.607 4.394z" fill="#734536"/><path d="m180.337 211.454-84.853 84.854c-11.357 11.357-14.772 29.235-9.368 49.051 4.683 17.169 15.543 34.906 30.581 49.943 15.038 15.038 32.775 25.898 49.944 30.581 6.168 1.682 12.146 2.51 17.8 2.51 12.511 0 23.429-4.055 31.251-11.877l84.853-84.854z" fill="#ebe1dc"/><path d="m166.642 425.882c6.168 1.682 12.146 2.51 17.8 2.51 12.511 0 23.429-4.055 31.251-11.877l84.853-84.854-60.104-60.104-123.744 123.745c15.038 15.038 32.775 25.898 49.944 30.58z" fill="#dcc8be"/><path d="m269.294 343.539c-5.653 0-11.632-.827-17.799-2.509-17.169-4.683-34.906-15.543-49.944-30.581s-25.898-32.774-30.581-49.944c-5.404-19.815-1.99-37.693 9.367-49.051 11.358-11.357 29.236-14.77 49.051-9.367 17.169 4.683 34.907 15.543 49.944 30.581s25.898 32.774 30.581 49.943c5.404 19.815 1.99 37.693-9.368 49.051-7.822 7.823-18.739 11.877-31.251 11.877z" fill="#f5f0eb"/><path d="m251.495 341.03c6.167 1.682 12.146 2.509 17.799 2.509 12.512 0 23.429-4.054 31.251-11.877 11.357-11.357 14.772-29.235 9.368-49.051-4.683-17.169-15.543-34.905-30.581-49.943l-77.781 77.781c15.037 15.038 32.775 25.898 49.944 30.581z" fill="#ebe1dc"/><path d="m247.513 279.487c-3.839 0-7.678-1.465-10.606-4.394-5.858-5.857-5.858-15.355 0-21.213l63.64-63.64c5.857-5.857 15.355-5.857 21.213 0s5.858 15.355 0 21.213l-63.64 63.64c-2.93 2.929-6.769 4.394-10.607 4.394z" fill="#9d5e4a"/><path d="m247.513 279.487c3.839 0 7.678-1.465 10.606-4.394l63.64-63.64c5.858-5.857 5.858-15.355 0-21.213l-84.853 84.853c2.929 2.929 6.768 4.394 10.607 4.394z" fill="#734536"/><path d="m364.185 27.606-84.853 84.853c-11.357 11.357-14.772 29.235-9.368 49.051 4.683 17.17 15.543 34.907 30.581 49.944 15.038 15.038 32.775 25.898 49.944 30.581 6.167 1.682 12.146 2.509 17.799 2.509 12.512 0 23.429-4.054 31.251-11.877l84.853-84.853z" fill="#ebe1dc"/><path d="m350.49 242.035c6.167 1.682 12.146 2.509 17.799 2.509 12.512 0 23.429-4.054 31.251-11.877l84.853-84.853-60.104-60.104-123.743 123.744c15.037 15.038 32.774 25.898 49.944 30.581z" fill="#dcc8be"/><path d="m453.142 159.691c-5.654 0-11.632-.827-17.799-2.509-17.169-4.683-34.907-15.543-49.944-30.581s-25.899-32.775-30.581-49.944c-5.404-19.815-1.99-37.693 9.368-49.051 11.357-11.357 29.234-14.773 49.051-9.367 17.169 4.683 34.906 15.543 49.944 30.581 15.038 15.037 25.898 32.774 30.581 49.943 5.404 19.815 1.99 37.693-9.368 49.051-7.823 7.823-18.74 11.877-31.252 11.877z" fill="#f5f0eb"/><path d="m435.343 157.182c6.167 1.682 12.146 2.509 17.799 2.509 12.512 0 23.429-4.054 31.251-11.877 11.357-11.357 14.772-29.235 9.368-49.051-4.683-17.169-15.543-34.906-30.581-49.943l-77.781 77.781c15.037 15.038 32.774 25.899 49.944 30.581z" fill="#ebe1dc"/><path d="m431.36 95.639c-3.839 0-7.678-1.465-10.606-4.394-5.858-5.857-5.858-15.355 0-21.213l65.64-65.64c5.857-5.857 15.355-5.857 21.213 0s5.858 15.355 0 21.213l-65.64 65.64c-2.929 2.929-6.768 4.394-10.607 4.394z" fill="#9d5e4a"/><path d="m431.36 95.639c3.839 0 7.678-1.465 10.606-4.394l65.64-65.64c5.858-5.857 5.858-15.355 0-21.213l-86.853 86.853c2.929 2.929 6.768 4.394 10.607 4.394z" fill="#734536"/></g></svg>