<svg id="Capa_1" enable-background="new 0 0 512 512" height="512" viewBox="0 0 512 512" width="512" xmlns="http://www.w3.org/2000/svg"><g><path d="m231 407c-8.284 0-15-6.716-15-15s6.716-15 15-15c35.841 0 65-29.159 65-65 0-8.284 6.716-15 15-15s15 6.716 15 15c0 52.383-42.617 95-95 95z" fill="#283758"/><path d="m231.79 503c-35.826 0-66.256-25.27-73.42-59.7-31.248-146.516-29.37-137.006-29.37-139.3 0-8.564 7.172-15.423 15.76-14.98 6.26.32 39.73 2.16 83.18 7.31 6.4.76 11.6 5.53 12.91 11.84 5.479 26.319-.408-1.938 30.46 146.21 5.238 25.037-13.878 48.62-39.52 48.62z" fill="#425796"/><path d="m159 304v-192c0-8.28-6.72-15-15-15h-69c-41.35 0-75 33.65-75 75v72c0 41.35 33.65 75 75 75h69c8.28 0 15-6.72 15-15z" fill="#dd5958"/><path d="m159 304v-96h-159v36c0 41.35 33.65 75 75 75h69c8.28 0 15-6.72 15-15z" fill="#d8225b"/><path d="m432 375.44v-334.89l-21.29 9.83c-52.282 24.132-113.971 31.055-171.01 37.71-17.879 2.048-56.458 6.897-96.46 8.93l-14.24-.02v222h15c1.66 0 166.97.58 266.71 46.62z" fill="#eef4ff"/><path d="m432 375.44v-167.44h-303v111h15c1.66 0 166.97.58 266.71 46.62z" fill="#d9e6fc"/><path d="m512 352v-288c0-30.33-24.67-55-55-55s-55 24.67-55 55v288c0 30.33 24.67 55 55 55s55-24.67 55-55z" fill="#dd5958"/><path d="m512 352v-144h-110v144c0 30.33 24.67 55 55 55s55-24.67 55-55z" fill="#d8225b"/></g></svg>