<svg id="Capa_1" enable-background="new 0 0 512.186 512.186" height="512" viewBox="0 0 512.186 512.186" width="512" xmlns="http://www.w3.org/2000/svg"><g><g fill="#2b495d"><path d="m445.337 466.446h-46.607c-8.284 0-15-6.716-15-15v-50.402h76.607v50.402c0 8.285-6.716 15-15 15z"/><path d="m121.803 466.446h-46.607c-8.284 0-15-6.716-15-15v-50.402h76.607v50.402c0 8.285-6.716 15-15 15z"/></g><g><g><g><path d="m383.545 417.685h-368.545c-8.284 0-15-6.716-15-15v-341.945c0-8.284 6.716-15 15-15h368.545l10 185.973z" fill="#457899"/><path d="m383.731 45.74h-186.958v371.945h186.958l9.814-185.973z" fill="#2b495d"/></g><g><g><g><path d="m317.822 361.789h-242.099c-8.284 0-15-6.716-15-15v-230.153c0-8.284 6.716-15 15-15h242.099c8.284 0 15 6.716 15 15v230.152c0 8.285-6.716 15.001-15 15.001z" fill="#2b495d"/><path d="m317.822 101.636h-121.049v260.152h121.049c8.284 0 15-6.716 15-15v-230.152c0-8.284-6.716-15-15-15z" fill="#182831"/></g><g><path d="m96.696 126.442h200.152v210.542h-200.152z" fill="#e2e9ee" transform="matrix(0 1 -1 0 428.485 34.94)"/><path d="m196.773 131.636h105.271v200.152h-105.271z" fill="#bbd0d5"/></g></g><g><g fill="#fbf4f4"><path d="m230.71 247.956c-8.284 0-15-6.716-15-15 0-2.177-.166-2.443-1.747-4.995-2.49-4.015-6.253-10.082-6.253-20.806s3.763-16.791 6.253-20.806c1.582-2.552 1.747-2.818 1.747-4.995 0-8.284 6.716-15 15-15s15 6.716 15 15c0 10.724-3.763 16.791-6.252 20.806-1.582 2.552-1.748 2.818-1.748 4.995s.165 2.443 1.748 4.995c2.49 4.015 6.252 10.082 6.252 20.806 0 8.284-6.716 15-15 15z"/><path d="m170.71 247.956c-8.284 0-15-6.716-15-15 0-2.177-.166-2.443-1.747-4.995-2.49-4.015-6.253-10.082-6.253-20.806s3.763-16.791 6.253-20.806c1.582-2.552 1.747-2.818 1.747-4.995 0-8.284 6.716-15 15-15s15 6.716 15 15c0 10.724-3.763 16.791-6.252 20.806-1.582 2.552-1.748 2.818-1.748 4.995s.165 2.443 1.748 4.995c2.49 4.015 6.252 10.082 6.252 20.806 0 8.284-6.716 15-15 15z"/></g><g><path d="m225.936 273.26h-58.326c-10.176 0-17.399 9.917-14.277 19.602l12.548 38.927h61.783l12.548-38.927c3.122-9.685-4.101-19.602-14.276-19.602z" fill="#de5958"/><path d="m225.936 273.26h-29.163v58.529h30.892l12.548-38.927c3.121-9.685-4.102-19.602-14.277-19.602z" fill="#d9225b"/></g></g></g></g><g><path d="m383.731 417.685h113.455c8.284 0 15-6.716 15-15v-341.945c0-8.284-6.716-15-15-15h-113.455z" fill="#182831"/><g><path d="m449.186 300.671c-6.174 0-11.848-3.943-14.027-9.707-2.174-5.751-.528-12.461 4.094-16.532 4.9-4.316 12.232-4.961 17.796-1.528 5.393 3.328 8.176 9.902 6.759 16.086-1.543 6.734-7.693 11.681-14.622 11.681z" fill="#f9ef60"/><path d="m449.186 360.671c-6.272 0-11.997-4.06-14.115-9.951-2.118-5.893-.243-12.68 4.605-16.648 4.851-3.97 11.837-4.483 17.216-1.265 5.368 3.211 8.237 9.658 7.004 15.795-1.39 6.917-7.648 12.069-14.71 12.069z" fill="#f9ef60"/><path d="m449.186 203.034c-8.284 0-15-6.716-15-15v-69.326c0-8.284 6.716-15 15-15s15 6.716 15 15v69.326c0 8.284-6.716 15-15 15z" fill="#ddf1f8"/></g></g></g></g></svg>