<svg id="Capa_1" enable-background="new 0 0 512 512" height="512" viewBox="0 0 512 512" width="512" xmlns="http://www.w3.org/2000/svg"><g><path d="m431 106v376c0 16.54-13.46 30-30 30h-290c-16.54 0-30-13.46-30-30v-178c0-8.28 6.72-15 15-15h17v-98h-17c-8.28 0-15-6.72-15-15v-64h207v-112h38c3.98 0 7.79 1.58 10.61 4.39 35.12 35.12 54.72 55.74 90 91 2.81 2.82 4.39 6.63 4.39 10.61z" fill="#7fa6fb"/><path d="m431 106v376c0 16.54-13.46 30-30 30h-145v-400h32v-112h38c3.98 0 7.79 1.58 10.61 4.39 35.12 35.12 54.72 55.74 90 91 2.81 2.82 4.39 6.63 4.39 10.61z" fill="#6693fb"/><path d="m160 0h-64c-8.284 0-15 6.716-15 15v112h79c8.284 0 15-6.716 15-15v-97c0-8.284-6.716-15-15-15z" fill="#f3d652"/><path d="m224 0h-79v127h94v-112c0-8.284-6.716-15-15-15z" fill="#e9bc3e"/><path d="m303 0v112c0 8.28-6.72 15-15 15h-79v-127z" fill="#e58f22"/><path d="m303 0v112c0 8.28-6.72 15-15 15h-32v-127z" fill="#e27a4e"/><path d="m431 417v65c0 16.569-13.431 30-30 30h-290c-16.569 0-30-13.431-30-30v-65z" fill="#667197"/><path d="m431 417v65c0 16.569-13.431 30-30 30h-145v-95z" fill="#4d5788"/></g></svg>