<svg id="Capa_1" enable-background="new 0 0 512 512" height="512" viewBox="0 0 512 512" width="512" xmlns="http://www.w3.org/2000/svg"><g><path d="m389.97 481.55c-86.453 39.609-177.254 41.548-267.94 0-77.261-35.395-101.337-132.148-54.28-199.29l105.62-145.43-47.14-63.09c-24.345-29.275-3.538-73.74 34.62-73.74 4.18 0 8.17 1.74 11.01 4.81.13.14 16.3 17 43.89 25.62 12.84-20.88 34.43-28.3 35.51-28.66 3.099-1.026 6.379-1.027 9.48 0 1.08.36 22.67 7.78 35.51 28.66 27.59-8.62 43.76-25.48 43.94-25.67 2.84-3.07 6.78-4.76 10.96-4.76 38.227 0 58.921 44.518 34.62 73.74l-47.14 63.09 105.62 145.43c47.059 67.146 22.977 163.897-54.28 199.29z" fill="#985e33"/><path d="m389.97 481.55c-44.09 20.2-89.16 30.45-133.97 30.45v-511c1.6 0 3.2.26 4.74.77 1.08.36 22.67 7.78 35.51 28.66 27.59-8.62 43.76-25.48 43.94-25.67 2.84-3.07 6.78-4.76 10.96-4.76 38.227 0 58.921 44.518 34.62 73.74l-47.14 63.09c109.982 151.436 105.623 145.43 105.84 145.74 47.469 69.048 21.318 164.246-54.5 198.98z" fill="#7d4a3b"/><path d="m488.31 239.67c.181 8.361-6.518 15.33-15.01 15.33-8.13 0-14.81-6.5-14.99-14.67-.49-22.64-6.56-53.66-32.71-72.85-37.13-27.259-98.574-19.112-143.27-8.23 3.27 12.61 9.77 27.79 22.67 37.46 6.63 4.97 7.97 14.37 3 21-4.992 6.65-14.381 7.952-21 3-16.41-12.31-25.72-29.47-31-44.98-5.28 15.51-14.59 32.67-31 44.98-6.608 4.944-16.001 3.66-21-3-4.97-6.63-3.63-16.03 3-21 12.9-9.67 19.4-24.85 22.67-37.46-44.755-10.893-106.155-19.018-143.27 8.23-26.15 19.19-32.22 50.21-32.71 72.85-.18 8.28-7 14.83-15.33 14.67-8.28-.18-14.85-7.04-14.67-15.33.91-41.53 16.87-75.76 44.95-96.37 39.86-29.26 102.89-32 187.36-8.14 84.48-23.86 147.5-21.12 187.36 8.14 28.08 20.61 44.04 54.84 44.95 96.37z" fill="#ffcbbc"/><path d="m488.31 239.67c.181 8.361-6.518 15.33-15.01 15.33-8.13 0-14.81-6.5-14.99-14.67-.49-22.64-6.56-53.66-32.71-72.85-37.13-27.259-98.574-19.112-143.27-8.23 3.27 12.61 9.77 27.79 22.67 37.46 6.63 4.97 7.97 14.37 3 21-4.992 6.65-14.381 7.952-21 3-16.41-12.31-25.72-29.47-31-44.98v-40.57c84.48-23.86 147.5-21.12 187.36 8.14 28.08 20.61 44.04 54.84 44.95 96.37z" fill="#ffbca7"/><path d="m271.02 405.01v2.99c0 8.7-6.92 15.15-15 15.15-8.277 0-15-6.72-15-15v-1.44c-6.92-1.21-13.23-3.8-21.21-9.02-7.1-4.65-8.77-14.12-4.33-20.91 4.53-6.93 13.83-8.88 20.76-4.34 7.819 5.113 10.173 5.09 19.76 5.09 9.59-.11 13.41-7.65 14.16-12.11.9-5.35-1.39-9.65-7.51-11.82-11.309-3.979-24.898-9.185-34.28-16.55-20.62-16.17-14.39-53.2 12.65-63.03v-2.02c0-8.715 6.939-15.15 15-15.15 8.28 0 15 6.72 15 15v1.26c7.65 2.23 13.54 5.98 16.91 9.08-.11.12-.12.07-.02.16 6.05 5.6 6.45 15.05.87 21.14-5.59 6.1-15.05 6.52-21.16.96-3.973-2.949-9.922-4.075-15.98-2.22-3.55 1.07-5.47 4.87-5.49 8.27.01 1.57.46 2.58.74 2.8 6.121 4.813 18.322 9.248 25.75 11.87 39.31 13.89 34.95 66.62-1.62 79.84z" fill="#ffb454"/><g fill="#ff8659"><path d="m271.02 405.01v2.99c0 8.7-6.92 15.15-15 15.15-.1 0-.02 1.009-.02-45.62 9.59-.11 13.41-7.65 14.16-12.11.9-5.35-1.39-9.65-7.51-11.82-2.16-.76-4.39-1.56-6.65-2.41v-32.6c5.09 2.38 11.03 4.6 16.64 6.58 39.31 13.89 34.95 66.62-1.62 79.84z"/><path d="m256 301.39c0-45.594-.08-44.54.02-44.54 8.28 0 15 6.72 15 15v1.26c7.65 2.23 13.54 5.98 16.91 9.08-.11.12-.12.07-.02.16 6.05 5.6 6.45 15.05.87 21.14-5.59 6.1-15.05 6.52-21.16.96-2.95-2.19-7.08-3.43-11.62-3.06z"/></g></g></svg>