<svg id="Capa_1" enable-background="new 0 0 512 512" height="512" viewBox="0 0 512 512" width="512" xmlns="http://www.w3.org/2000/svg"><g><path d="m335 367v105c0 8.28-6.72 15-15 15h-128c-8.28 0-15-6.72-15-15v-105c0-8.28 6.72-15 15-15h128c8.28 0 15 6.72 15 15z" fill="#dfe5f2"/><path d="m335 367v105c0 8.28-6.72 15-15 15h-64v-135h64c8.28 0 15 6.72 15 15z" fill="#c7cdde"/><path d="m502 65v277c0 16.54-13.46 30-30 30h-432c-16.54 0-30-13.46-30-30v-277c0-16.54 13.46-30 30-30h432c16.54 0 30 13.46 30 30z" fill="#9cd6f4"/><path d="m502 65v277c0 16.54-13.46 30-30 30h-216v-337h216c16.54 0 30 13.46 30 30z" fill="#7fa6fb"/><path d="m482 25h-452c-16.54 0-30 13.46-30 30v297c0 16.54 13.46 30 30 30h452c16.54 0 30-13.46 30-30v-297c0-16.54-13.46-30-30-30zm0 327h-452v-297h452c.02 337.008.1 297 0 297z" fill="#f1f6ff"/><path d="m512 55v297c0 16.54-13.46 30-30 30h-226v-30h226.02l-.02-297h-226v-30h226c16.54 0 30 13.46 30 30z" fill="#dfe5f2"/><path d="m431 471c0 8.28-6.72 15-15 15h-320c-8.28 0-15-6.72-15-15s6.72-15 15-15h320c8.28 0 15 6.72 15 15z" fill="#f1f6ff"/><path d="m431 471c0 8.28-6.72 15-15 15h-160v-30h160c8.28 0 15 6.72 15 15z" fill="#dfe5f2"/></g></svg>