<svg id="Capa_1" enable-background="new 0 0 511 511" height="512" viewBox="0 0 511 511" width="512" xmlns="http://www.w3.org/2000/svg"><g id="Mouse_toy_1_"><g><path d="m398.441 421.357c8.283 0 16.379 1.333 19.141 9.144 2.269 6.417 3.418 13.146 3.418 19.999 0 33.084-26.916 60-60 60s-60-26.916-60-60c0-6.853 1.149-13.582 3.418-19.999 2.759-7.81 10.855-9.144 19.141-9.144z" fill="#47568c"/></g><path d="m181 .5c-17.908 0-33.997 7.896-45 20.377-11.003-12.481-27.092-20.377-45-20.377-33.084 0-60 26.916-60 60s26.916 60 60 60c10.925 0 21.167-2.949 30-8.072v114.136c0 8.284 6.716 15 15 15s15-6.716 15-15v-114.136c8.833 5.123 19.075 8.072 30 8.072 33.084 0 60-26.916 60-60s-26.916-60-60-60zm-90 90c-16.542 0-30-13.458-30-30s13.458-30 30-30 30 13.458 30 30-13.458 30-30 30zm90 0c-16.542 0-30-13.458-30-30s13.458-30 30-30 30 13.458 30 30-13.458 30-30 30z" fill="#5e79bc"/><path d="m181 .5c-17.908 0-33.997 7.896-45 20.377v220.686c8.284 0 15-6.716 15-15v-114.135c8.833 5.123 19.075 8.072 30 8.072 33.084 0 60-26.916 60-60s-26.916-60-60-60zm0 90c-16.542 0-30-13.458-30-30s13.458-30 30-30 30 13.458 30 30-13.458 30-30 30z" fill="#47568c"/><g><path d="m375 447.5h-300c-41.355 0-75-33.645-75-75v-45c0-66.168 53.832-120 120-120 14.109 0 27.932 2.429 41.081 7.221l138.971 50.632c3.514 1.28 6.422 3.826 8.156 7.14l80.083 153.053c2.433 4.65 2.259 10.233-.459 14.722s-7.584 7.232-12.832 7.232z" fill="#f66"/></g><path d="m308.208 272.493c-1.734-3.313-4.643-5.859-8.156-7.14l-138.971-50.632c-8.133-2.964-16.524-5.021-25.081-6.161v238.94h239c5.248 0 10.114-2.743 12.832-7.232s2.892-10.072.459-14.722z" fill="#e30a6c"/><g><path d="m466 450.5h-90c-41.355 0-75-33.645-75-75-18.707-14.055-30-36.271-30-60 0-41.355 33.645-75 75-75 41.353 0 74.996 33.644 75 74.996l71.983 53.989c11.282 8.462 18.017 21.926 18.017 36.015 0 24.813-20.187 45-45 45z" fill="#ff9580"/></g><circle cx="346" cy="315.5" fill="#e30a6c" r="15"/><circle cx="136" cy="435.5" fill="#5e79bc" r="75"/><path d="m136 360.5v150c41.355 0 75-33.645 75-75s-33.645-75-75-75z" fill="#47568c"/><circle cx="136" cy="435.5" fill="#f0f7ff" r="45"/><path d="m136 390.5v90c24.813 0 45-20.187 45-45s-20.187-45-45-45z" fill="#dfe7f4"/><g><circle cx="136" cy="435.5" fill="#5e79bc" r="15"/></g><path d="m136 420.5v30c8.284 0 15-6.716 15-15s-6.716-15-15-15z" fill="#47568c"/></g></svg>