<svg id="Capa_1" enable-background="new 0 0 512.058 512.058" height="512" viewBox="0 0 512.058 512.058" width="512" xmlns="http://www.w3.org/2000/svg"><g><path d="m488.976 275.482c-75.489 48.044-131.325-10.707-133.665-13.232-4.287-4.624-11.007-6.076-16.819-3.629-5.812 2.446-9.474 8.265-9.164 14.563 1.649 33.512 6.951 81.469 22.845 119.621 2.202 5.284 7.219 8.855 12.934 9.204 47.339 2.887 87.427-15.816 116.463-52.832 21.613-27.552 29.59-55.856 29.919-57.047 3.644-13.198-10.946-24.01-22.513-16.648z" fill="#4880fa"/><path d="m173.567 258.621c-5.812-2.445-12.533-.995-16.819 3.63-2.34 2.525-58.17 61.277-133.664 13.231-11.548-7.348-26.164 3.426-22.513 16.648.329 1.191 8.307 29.496 29.919 57.047 29.507 37.615 69.873 55.675 116.462 52.832 5.714-.349 10.732-3.919 12.933-9.204 15.895-38.152 21.197-86.109 22.846-119.621.31-6.298-3.352-12.118-9.164-14.563z" fill="#6aa6fb"/><path d="m507.74 437.207c-7.75 7.94-74.92 74.76-142.66 74.76-34.689.12-62.068-17.345-81.93-46.57-12.939-19.031-41.308-19.037-54.23 0-19.526 28.716-46.526 46.57-81.94 46.57-67.75.01-134.91-66.82-142.64-74.75-5.2-5.33-5.72-13.69-1.19-19.6 4.52-5.92 12.68-7.64 19.18-4.02 50.638 28.165 87.395 21.577 109.86-32.33 17.062-40.946 21.74-99.493 21.21-143.67-4.54-2.25-7.81-6.72-8.31-12.08l-11.76-126.92c-.17-1.83 0-3.67.5-5.44 7.21-25.63 22.65-48.89 43.47-65.5 70.692-56.403 178.927-22.229 201.74 65.94.956 3.714 1.597-6.823-12.08 132.01-.52 5.3-3.76 9.72-8.25 11.96-.446 53.942 7.337 156.738 52.85 185.06 19.4 12.07 45.7 9.03 78.17-9.03 6.51-3.62 14.7-1.91 19.22 4.01 4.52 5.93 4 14.27-1.21 19.6z" fill="#93c5ec"/><path d="m507.74 437.207c-7.75 7.94-74.92 74.76-142.66 74.76-34.689.12-62.068-17.345-81.93-46.57-6.16-9.06-16.05-14.25-27.12-14.25v-451.01c58.4-.01 108.66 38 123.01 93.46.956 3.714 1.597-6.823-12.08 132.01-.52 5.3-3.76 9.72-8.25 11.96-.446 53.942 7.337 156.738 52.85 185.06 19.4 12.07 45.7 9.03 78.17-9.03 6.51-3.62 14.7-1.91 19.22 4.01 4.52 5.93 4 14.27-1.21 19.6z" fill="#6aa6fb"/><circle cx="160.03" cy="160.137" fill="#f9f9f9" r="64"/><path d="m160.03 239.137c-43.561 0-79-35.439-79-79s35.439-79 79-79 79 35.439 79 79-35.44 79-79 79zm0-128c-27.019 0-49 21.981-49 49s21.981 49 49 49 49-21.981 49-49-21.982-49-49-49z" fill="#6aa6fb"/><path d="m168.03 175.137c-8.224 0-15-6.72-15-15 0-8.914 7.797-15.817 16.48-14.93 8.549.896 14.262 8.492 13.45 16.41-.819 7.888-7.425 13.52-14.93 13.52z" fill="#393f3f"/><circle cx="352.03" cy="160.137" fill="#f9f9f9" r="64"/><path d="m352.03 239.137c-43.561 0-79-35.439-79-79s35.439-79 79-79 79 35.439 79 79-35.44 79-79 79zm0-128c-27.019 0-49 21.981-49 49s21.981 49 49 49 49-21.981 49-49-21.982-49-49-49z" fill="#4880fa"/><path d="m344.03 175.137c-8.218 0-15-6.714-15-15 0-8.589 7.354-15.767 16.48-14.93 7.878.825 14.169 7.602 13.45 16.41-.819 7.882-7.419 13.52-14.93 13.52z" fill="#393f3f"/></g></svg>