<svg id="Capa_1" enable-background="new 0 0 512 512" height="512" viewBox="0 0 512 512" width="512" xmlns="http://www.w3.org/2000/svg"><g><path d="m220.757 91.527c-4.636 0-9.208-2.142-12.143-6.179l-44.745-61.524c-4.873-6.699-3.392-16.081 3.308-20.953 6.7-4.874 16.081-3.393 20.954 3.309l44.745 61.524c4.873 6.699 3.392 16.081-3.308 20.953-2.664 1.938-5.752 2.87-8.811 2.87z" fill="#f9f9f9"/><path d="m291.243 91.527c-3.06 0-6.146-.933-8.811-2.87-6.7-4.872-8.181-14.254-3.308-20.953l44.745-61.524c4.872-6.7 14.253-8.182 20.954-3.309 6.7 4.872 8.181 14.254 3.308 20.953l-44.745 61.524c-2.935 4.037-7.507 6.179-12.143 6.179z" fill="#e2dff4"/><path d="m437.003 512c-6.027 0-11.711-3.658-14.003-9.619l-20-52c-2.974-7.732.883-16.411 8.615-19.385 7.733-2.977 16.411.883 19.385 8.615l20 52c2.974 7.732-.883 16.411-8.615 19.385-1.771.682-3.592 1.004-5.382 1.004z" fill="#4f4540"/><path d="m74.997 512c-1.791 0-3.61-.322-5.381-1.004-7.732-2.974-11.589-11.652-8.615-19.385l20-52c2.974-7.732 11.654-11.591 19.385-8.615 7.732 2.974 11.589 11.652 8.615 19.385l-20 52c-2.293 5.961-7.978 9.619-14.004 9.619z" fill="#6b5c59"/><path d="m316 140h-120c-8.284 0-15-6.716-15-15 0-41.355 33.645-75 75-75s75 33.645 75 75c0 8.284-6.716 15-15 15z" fill="#6b5c59"/><g><path d="m256 50v90h60c8.284 0 15-6.716 15-15 0-41.355-33.645-75-75-75z" fill="#4f4540"/></g><path d="m437 460h-362c-41.355 0-75-33.645-75-75v-200c0-41.355 33.645-75 75-75h362c41.355 0 75 33.645 75 75v200c0 41.355-33.645 75-75 75z" fill="#9d5e4a"/><g><path d="m437 110h-181v350h181c41.355 0 75-33.645 75-75v-200c0-41.355-33.645-75-75-75z" fill="#6b5c59"/></g><path d="m357 400h-282c-8.284 0-15-6.716-15-15v-200c0-8.284 6.716-15 15-15h282c8.284 0 15 6.716 15 15v200c0 8.284-6.716 15-15 15z" fill="#acceff"/><path d="m457 210h-30c-8.284 0-15-6.716-15-15s6.716-15 15-15h30c8.284 0 15 6.716 15 15s-6.716 15-15 15z" fill="#e2dff4"/><path d="m457 270h-30c-8.284 0-15-6.716-15-15s6.716-15 15-15h30c8.284 0 15 6.716 15 15s-6.716 15-15 15z" fill="#e2dff4"/><circle cx="442" cy="315" fill="#ffc178" r="15"/><circle cx="442" cy="375" fill="#ffc178" r="15"/><g><g><path d="m357 170h-101v230h101c8.284 0 15-6.716 15-15v-200c0-8.284-6.716-15-15-15z" fill="#989dec"/></g></g></g></svg>