<svg id="Capa_1" enable-background="new 0 0 512 512" height="512" viewBox="0 0 512 512" width="512" xmlns="http://www.w3.org/2000/svg"><g><g><path d="m286.26 368.377h-60.52v-349.726c0-10.3 8.35-18.651 18.651-18.651h23.218c10.301 0 18.651 8.351 18.651 18.651z" fill="#eee3ca"/><path d="m267.609 0h-11.609v368.377h30.26v-349.726c0-10.3-8.35-18.651-18.651-18.651z" fill="#d5b97b"/></g><g><g><path d="m292.522 352.197c4.07-6.565 6.426-14.303 6.426-22.595 0-23.719-19.228-42.948-42.948-42.948s-42.948 19.228-42.948 42.948c0 8.292 2.356 16.03 6.426 22.595-41.415 14.953-71.02 54.605-71.02 101.176l107.542 10 107.542-10c0-46.571-29.605-86.224-71.02-101.176z" fill="#d9225b"/><path d="m292.522 352.197c4.07-6.565 6.426-14.303 6.426-22.595 0-23.719-19.228-42.948-42.948-42.948v176.718l107.542-10c0-46.57-29.605-86.223-71.02-101.175z" fill="#bd0055"/></g><g><path d="m112.808 481.74c0-16.712 13.548-30.26 30.26-30.26h225.864c16.712 0 30.26 13.548 30.26 30.26 0 16.712-13.548 30.26-30.26 30.26h-225.864c-16.712 0-30.26-13.548-30.26-30.26z" fill="#de5958"/><path d="m368.932 451.479h-112.932v60.521h112.932c16.712 0 30.26-13.548 30.26-30.26 0-16.712-13.548-30.261-30.26-30.261z" fill="#d9225b"/></g></g></g></svg>