<svg id="Capa_1" enable-background="new 0 0 512 512" height="512" viewBox="0 0 512 512" width="512" xmlns="http://www.w3.org/2000/svg"><g><path d="m156 0h-70-70c-8.284 0-15 6.716-15 15v72.5 72.5c0 8.284 6.716 15 15 15h70 70c8.284 0 15-6.716 15-15v-72.5-72.5c0-8.284-6.716-15-15-15z" fill="#ffe196"/><g><g><path d="m171 87.5h-85v-87.5h70c8.284 0 15 6.716 15 15z" fill="#ffb454"/></g><g><path d="m156 175h-70v-87.5h85v72.5c0 8.284-6.716 15-15 15z" fill="#ff8659"/></g><g><path d="m86 175h-70c-8.284 0-15-6.716-15-15v-72.5h85z" fill="#ffb454"/></g></g><path d="m426 424.5h-85v87.5h85 70c8.284 0 15-6.716 15-15v-72.5z" fill="#ffb454"/><g><path d="m426 512h-85v-87.5h85z" fill="#ffe196"/></g><g><path d="m496 512h-70v-87.5h85v72.5c0 8.284-6.716 15-15 15z" fill="#ffb454"/></g><path d="m186 337c-8.284 0-15 6.716-15 15v72.5h-85-70c-8.284 0-15 6.716-15 15v57.5c0 8.284 6.716 15 15 15h70 85 85v-87.5-87.5z" fill="#ff6378"/><g><g><path d="m171 512h-85v-87.5h85z" fill="#d0004f"/></g><g><path d="m256 512h-85v-87.5h85z" fill="#a2003d"/></g><g><path d="m256 424.5h-85v-72.5c0-8.284 6.716-15 15-15h70z" fill="#d0004f"/></g></g><path d="m341 249.5h-70c-8.284 0-15 6.716-15 15v72.5 87.5 87.5h85v-87.5-87.5h85v-87.5z" fill="#f9f9f9"/><g><path d="m341 424.5h-85v-87.5h85z" fill="#e4e4ff"/></g><g><g><path d="m426 337h-85v-87.5h85z" fill="#e4e4ff"/></g></g><path d="m496 162h-55c-8.284 0-15 6.716-15 15v72.5 87.5h-85v87.5h85 85v-87.5-87.5-72.5c0-8.284-6.716-15-15-15z" fill="#45f6ff"/><g><path d="m511 424.5h-85v-87.5h85z" fill="#2ebeef"/></g><g><path d="m511 337h-85v-87.5h85z" fill="#0d8ebc"/></g><g><g><path d="m511 249.5h-85v-72.5c0-8.284 6.716-15 15-15h55c8.284 0 15 6.716 15 15z" fill="#2ebeef"/></g></g></g></svg>