<svg id="Capa_1" enable-background="new 0 0 512 512" height="512" viewBox="0 0 512 512" width="512" xmlns="http://www.w3.org/2000/svg"><g><g><path d="m184.805 200.299-75-87.598c-4.072-3.926-14.59-4.819-20.303.864l-21.299 21.285c-5.859 5.859-15.352 5.859-21.211 0l-42.597-42.598c-5.859-5.859-5.859-15.352 0-21.211l21.299-21.299c19.775-19.79 46.084-30.688 74.063-30.688.088 0 .146 0 .234.015 28.037.044 54.375 11.06 74.18 31.011l32.637 32.666c2.813 2.813 4.395 6.636 4.395 10.605v97.192c0 6.284-3.896 11.895-9.785 14.063-5.931 2.198-12.56.443-16.613-4.307z" fill="#ff9580"/></g><g><path d="m497 342.946c-8.291 0-15-6.709-15-15 0-34.043-47.783-45.249-48.252-45.366l-5.537-1.157c-5.068-1.055-9.199-4.644-10.986-9.478-4.248-11.455-11.221-21.724-20.186-29.678-3.193-2.842-5.039-6.929-5.039-11.221v-8.101c0-33.091 26.924-60 60-60s60 26.909 60 60v105c0 8.292-6.709 15.001-15 15.001z" fill="#f66"/></g><path d="m452 297.946v145.199c-19.799 9.3-48.9 19.501-89.7 26.4-1.034-3.095-.3-18.348-.3-21.599 0-41.4-33.6-75-75-75h-15l-15-21-15 21h-27.499c-32.1 0-60.599 20.4-71.1 51-1.61 4.911-11.893 36.316-13.799 41.398-41.7-9-69.001-21.599-84.901-30.599l4.499-13.801c3.301-9.901 6.901-20.099 10.501-30.3 23.099-66.599 49.2-140.999 32.401-195-7.5 7.5-13.801 14.101-13.801 14.101-17.1 17.1-47.1 17.1-63.9 0-17.701-17.401-17.701-46.201 0-63.6l22.2-21.901 31.8-31.8c16.8-17.1 46.5-17.1 63.3 0l79.501 92.401 6.899 8.101h1.8l38.299 35.4 43.801-35.4h45c26.1 0 51 9.6 70.201 26.999 12.299 11.1 22.2 25.501 28.2 41.7 4.197 11.701 6.598 24 6.598 36.301z" fill="#ffe14d"/><path d="m256.993 351.956.007-.011 15 21h15c41.4 0 75 33.6 75 75 0 3.25-.734 18.503.3 21.599 40.8-6.899 69.901-17.1 89.7-26.4v-145.198c0-12.301-2.401-24.6-6.599-36.301-6-16.199-15.901-30.601-28.2-41.7-19.201-17.399-44.101-26.999-70.201-26.999h-45l-43.801 35.4-1.207-1.139v124.749z" fill="#fb3"/><g id="Rocking_Horse_3_"><g><path d="m257 492.946c-184.102 0-249.768-61.758-252.404-64.395-5.859-5.859-5.859-15.352 0-21.211 5.859-5.83 15.322-5.845 21.123-.088.879.85 61.828 55.693 231.281 55.693 169.893 0 228.896-55.137 229.482-55.693 5.947-5.728 15.41-5.625 21.182.22 5.771 5.874 5.771 15.264-.059 21.079-2.636 2.637-66.503 64.395-250.605 64.395z" fill="#9df"/></g></g><path d="m256.993 492.946h.007c184.102 0 247.969-61.758 250.605-64.395 5.83-5.815 5.83-15.205.059-21.079-5.771-5.845-15.234-5.947-21.182-.22-.586.557-59.59 55.693-229.482 55.693-.002 0-.005 0-.007 0z" fill="#66b3ff"/><path d="m257 282.946c-8.401 0-15 6.599-15 15v75h30v-75c0-8.401-6.599-15-15-15z" fill="#5e79bc"/><path d="m256.993 372.946h15.007v-75c0-8.401-6.599-15-15-15-.002 0-.005.002-.007.002z" fill="#47568c"/><path d="m437 450.641h.293zm-208.259-257.695c-6.751 0-13.163-2.961-17.54-8.101v98.101c0 8.284 6.716 15 15 15h60.799c8.284 0 15-6.716 15-15v-90z" fill="#5e79bc"/><path d="m256.993 297.946h30.007c8.284 0 15-6.716 15-15v-90h-45.007z" fill="#47568c"/></g></svg>