<svg id="Capa_1" enable-background="new 0 0 512 512" height="512" viewBox="0 0 512 512" width="512" xmlns="http://www.w3.org/2000/svg"><g><g><g><path d="m244.787 329.085c-8.284 0-15-6.703-15-14.971v-90.642c0-7.267 5.228-13.484 12.398-14.744l186.187-32.723v-101.284h-30.146c-8.284 0-15-6.703-15-14.971s6.716-14.971 15-14.971h45.146c8.284 0 15 6.703 15 14.971v128.82c0 7.267-5.228 13.484-12.398 14.744l-186.187 32.723v78.077c0 8.268-6.716 14.971-15 14.971z" fill="#e2e9ee"/><path d="m443.372 44.78h-45.146c-8.284 0-15 6.703-15 14.971s6.716 14.971 15 14.971h30.146v101.284l-183.004 32.164v120.887c8.013-.307 14.419-6.869 14.419-14.941v-78.077l186.187-32.723c7.17-1.26 12.398-7.477 12.398-14.744v-128.822c0-8.268-6.716-14.97-15-14.97z" fill="#bbd0d5"/></g><g><path d="m245.368 512c-20.267 0-36.697-16.43-36.697-36.697v-179.851c0-8.284 6.716-15 15-15h43.394c8.284 0 15 6.716 15 15v179.851c0 20.267-16.43 36.697-36.697 36.697z" fill="#457899"/><path d="m267.065 280.452h-21.697v231.548c20.267 0 36.697-16.398 36.697-36.625v-179.952c0-8.268-6.716-14.971-15-14.971z" fill="#2b495d"/></g></g><g><g><path d="m385.656 118.173h-88.818l-14.773-9.256-27.653 9.256h-69.217l-12.583-11.046-29.843 11.046h-65.931l-23.21-19.178v-87.018c0-6.587 5.4-11.977 12-11.977h87.188l10.23 7.478 32.196-7.478h65.932l12.577 11.058 29.849-11.058h69.216l6.658 17.025 18.182.527v88.645c0 6.587-5.4 11.976-12 11.976z" fill="#fbf4f4"/><path d="m379.474 17.025-6.658-17.025h-69.216l-29.849 11.058-12.577-11.058h-35.532v118.173h28.77l27.653-9.256 14.773 9.256h88.818c6.6 0 12-5.39 12-11.977v-88.644z" fill="#e2e9ee"/></g><g><path d="m296.838 118.173 100.818-100.621v-5.575c0-6.587-5.4-11.977-12-11.977h-12.84l-118.404 118.173z" fill="#bbd0d5"/><path d="m152.816 0-99.188 98.995v7.202c0 6.587 5.4 11.977 12 11.977h11.21l118.404-118.174z" fill="#e2e9ee"/><g><path d="m142.77 118.173h42.426l118.404-118.173h-42.426z" fill="#e2e9ee"/><path d="m225.642 77.806 77.958-77.806h-42.426l-35.532 35.463z" fill="#bbd0d5"/></g></g></g></g></svg>