<svg id="Capa_1" enable-background="new 0 0 512 512" height="512" viewBox="0 0 512 512" width="512" xmlns="http://www.w3.org/2000/svg"><g><path d="m256 512c-85.468 0-155-69.532-155-155 0-61.073 36.041-116.643 91.819-141.57 1.926-.86 4.011-1.306 6.12-1.306h114.121c2.109 0 4.194.445 6.12 1.306 55.779 24.927 91.82 80.497 91.82 141.57 0 85.468-69.532 155-155 155z" fill="#c6def0"/><path d="m319.181 215.43c-1.926-.86-4.011-1.306-6.12-1.306h-57.061v297.876c85.468 0 155-69.532 155-155 0-61.073-36.041-116.643-91.819-141.57z" fill="#a0c8e6"/><path d="m347.85 77.98c15.145 20.127 23.15 43.994 23.15 69.02 0 63.411-51.589 115-115 115s-115-51.589-115-115c0-25.026 8.005-48.893 23.15-69.02z" fill="#e4eff8"/><path d="m256 77.98v184.02c63.411 0 115-51.589 115-115 0-25.026-8.005-48.893-23.15-69.02z" fill="#c6def0"/><path d="m161.676 83.011 19.864-72c1.795-6.505 7.712-11.011 14.46-11.011h120c6.748 0 12.665 4.506 14.46 11.011l19.864 72z" fill="#ff4632"/><path d="m316 0h-60v83.011h94.324l-19.864-72c-1.795-6.505-7.712-11.011-14.46-11.011z" fill="#f50f00"/><path d="m376 102h-240c-8.284 0-15-6.716-15-15s6.716-15 15-15h240c8.284 0 15 6.716 15 15s-6.716 15-15 15z" fill="#ff645a"/><path d="m376 72h-120v30h120c8.284 0 15-6.716 15-15s-6.716-15-15-15z" fill="#ff4632"/><circle cx="256" cy="297" fill="#647882" r="15"/><circle cx="256" cy="357" fill="#647882" r="15"/><circle cx="256" cy="417" fill="#647882" r="15"/><circle cx="291" cy="137" fill="#465a64" r="15"/><g fill="#c6def0"><circle cx="481" cy="32" r="15"/><circle cx="431" cy="102" r="15"/><circle cx="481" cy="292" r="15"/></g><circle cx="71" cy="302" fill="#e4eff8" r="15"/><circle cx="31" cy="122" fill="#e4eff8" r="15"/><circle cx="101" cy="32" fill="#e4eff8" r="15"/><circle cx="451" cy="422" fill="#c6def0" r="15"/><circle cx="41" cy="442" fill="#e4eff8" r="15"/><circle cx="221" cy="137" fill="#647882" r="15"/><path d="m271 297c0-8.284-6.716-15-15-15v30c8.284 0 15-6.716 15-15z" fill="#465a64"/><path d="m271 357c0-8.284-6.716-15-15-15v30c8.284 0 15-6.716 15-15z" fill="#465a64"/><path d="m271 417c0-8.284-6.716-15-15-15v30c8.284 0 15-6.716 15-15z" fill="#465a64"/><path d="m490.607 202.16c-1.881-8.067-9.948-13.083-18.015-11.2l-29.216 6.815 1.638-29.957c.452-8.271-5.887-15.344-14.158-15.796-8.317-.473-15.345 5.888-15.797 14.159l-2.457 44.933-73.92 88.094c-5.325 6.346-4.498 15.808 1.849 21.132 2.811 2.358 6.231 3.51 9.634 3.51 4.28 0 8.531-1.822 11.498-5.358l73.921-88.095 43.823-10.223c8.069-1.881 13.083-9.946 11.2-18.014z" fill="#8e7d78"/><path d="m173.317 299.209-73.92-88.094-2.457-44.933c-.451-8.272-7.498-14.628-15.797-14.159-8.271.452-14.61 7.524-14.158 15.796l1.638 29.957-29.216-6.815c-8.065-1.882-16.133 3.133-18.015 11.2-1.883 8.067 3.132 16.133 11.2 18.015l43.823 10.223 73.921 88.095c2.967 3.536 7.217 5.358 11.498 5.358 3.402 0 6.824-1.151 9.634-3.51 6.347-5.325 7.175-14.787 1.849-21.133z" fill="#aca09b"/></g></svg>