<svg id="Capa_1" enable-background="new 0 0 512 512" height="512" viewBox="0 0 512 512" width="512" xmlns="http://www.w3.org/2000/svg"><g><path d="m480.83 327.37-48.64 13.033-105.064-60.659c.953-2.846 1.757-5.759 2.365-8.744h42.509v5c0 8.284 6.716 15 15 15s15-6.716 15-15v-5h22.58c6.192 17.459 22.865 30 42.42 30 24.813 0 45-20.187 45-45s-20.187-45-45-45c-19.555 0-36.228 12.541-42.42 30h-22.58v-5c0-8.284-6.716-15-15-15s-15 6.716-15 15v5h-42.509c-.608-2.985-1.413-5.898-2.365-8.744l105.064-60.659 48.64 13.033c1.3.349 2.605.515 3.892.515 6.622 0 12.684-4.42 14.479-11.122 2.144-8.002-2.605-16.227-10.607-18.371l-40.151-10.758 10.759-40.152c2.144-8.002-2.605-16.227-10.607-18.371-7.99-2.144-16.226 2.604-18.371 10.607l-13.032 48.639-105.094 60.676c-2.001-2.255-4.134-4.388-6.389-6.389l21.283-36.863 4.33 2.5c2.362 1.364 4.941 2.013 7.486 2.013 5.184 0 10.226-2.69 13.004-7.503 4.143-7.174 1.685-16.349-5.49-20.49l-4.33-2.5 11.292-19.558c2.704.5 5.429.757 8.143.757 15.562 0 30.721-8.072 39.046-22.491 12.404-21.489 5.015-49.065-16.473-61.471-21.487-12.406-49.063-5.018-61.471 16.471-9.777 16.934-7.253 37.644 4.771 51.736l-11.29 19.556-4.33-2.5c-7.175-4.144-16.349-1.685-20.49 5.49-4.143 7.174-1.685 16.349 5.49 20.49l4.33 2.5-21.266 36.833c-2.846-.953-5.759-1.757-8.744-2.365v-121.296l35.606-35.606c5.858-5.857 5.858-15.355 0-21.213-5.857-5.857-15.355-5.857-21.213 0l-29.393 29.393-29.394-29.394c-5.857-5.857-15.355-5.857-21.213 0s-5.858 15.355 0 21.213l35.607 35.607v121.296c-2.985.608-5.898 1.413-8.744 2.365l-21.266-36.833 4.33-2.5c7.175-4.142 9.633-13.316 5.49-20.49-4.142-7.175-13.316-9.633-20.49-5.49l-4.33 2.5-11.29-19.556c12.023-14.092 14.548-34.802 4.771-51.736-12.406-21.49-39.983-28.879-61.471-16.471-21.488 12.406-28.877 39.982-16.471 61.471 8.325 14.421 23.481 22.491 39.046 22.491 2.714 0 5.438-.258 8.143-.758l11.292 19.558-4.33 2.5c-7.175 4.142-9.633 13.316-5.49 20.49 2.778 4.812 7.82 7.503 13.004 7.503 2.545 0 5.124-.648 7.486-2.013l4.33-2.5 21.283 36.863c-2.255 2.001-4.388 4.134-6.389 6.389l-105.094-60.676-13.033-48.639c-2.145-8.003-10.373-12.746-18.371-10.607-8.002 2.145-12.751 10.369-10.607 18.371l10.759 40.152-40.151 10.758c-8.002 2.145-12.751 10.369-10.607 18.371 1.796 6.702 7.856 11.122 14.479 11.122 1.285 0 2.592-.167 3.892-.515l48.64-13.033 105.064 60.659c-.953 2.846-1.757 5.759-2.365 8.744h-42.51v-5c0-8.284-6.716-15-15-15s-15 6.716-15 15v5h-22.58c-6.192-17.459-22.865-30-42.42-30-24.813 0-45 20.187-45 45s20.187 45 45 45c19.555 0 36.228-12.541 42.42-30h22.58v5c0 8.284 6.716 15 15 15s15-6.716 15-15v-5h42.509c.608 2.985 1.413 5.898 2.365 8.744l-105.064 60.66-48.64-13.033c-7.99-2.142-16.226 2.604-18.371 10.607-2.144 8.002 2.605 16.227 10.607 18.371l40.151 10.758-10.759 40.152c-2.144 8.002 2.605 16.227 10.607 18.371 1.3.349 2.605.515 3.892.515 6.622 0 12.684-4.42 14.479-11.122l13.032-48.639 105.094-60.676c2.001 2.255 4.134 4.388 6.389 6.389l-21.283 36.863-4.33-2.5c-7.175-4.144-16.349-1.686-20.49 5.49-4.143 7.174-1.685 16.349 5.49 20.49l4.33 2.5-11.29 19.555c-18.215-3.367-37.413 4.802-47.19 21.737-12.406 21.488-5.018 49.064 16.471 61.471 7.069 4.082 14.794 6.021 22.425 6.021 15.562 0 30.721-8.072 39.046-22.491 9.777-16.934 7.253-37.644-4.771-51.736l11.29-19.556 4.33 2.5c2.362 1.364 4.941 2.013 7.486 2.013 5.184 0 10.226-2.69 13.004-7.503 4.143-7.174 1.685-16.349-5.49-20.49l-4.33-2.5 21.266-36.833c2.846.953 5.759 1.757 8.744 2.365v121.296l-35.606 35.606c-5.858 5.857-5.858 15.355 0 21.213 5.857 5.857 15.355 5.857 21.213 0l29.394-29.394 29.394 29.394c2.928 2.928 6.767 4.393 10.606 4.393s7.678-1.465 10.606-4.394c5.858-5.857 5.858-15.355 0-21.213l-35.606-35.606v-121.297c2.985-.608 5.898-1.413 8.744-2.365l21.266 36.833-4.33 2.5c-7.175 4.142-9.633 13.316-5.49 20.49 2.778 4.812 7.82 7.503 13.004 7.503 2.545 0 5.124-.648 7.486-2.013l4.33-2.5 11.29 19.556c-12.023 14.092-14.548 34.802-4.771 51.736 8.325 14.421 23.481 22.491 39.046 22.491 7.629 0 15.356-1.939 22.425-6.021 21.488-12.406 28.877-39.982 16.471-61.471-9.777-16.935-28.975-25.104-47.19-21.736l-11.29-19.555 4.33-2.5c7.175-4.142 9.633-13.316 5.49-20.49-4.143-7.175-13.315-9.633-20.49-5.49l-4.33 2.5-21.283-36.863c2.255-2.001 4.388-4.134 6.389-6.389l105.094 60.676 13.032 48.639c1.796 6.702 7.856 11.122 14.479 11.122 1.285 0 2.592-.167 3.892-.515 8.002-2.145 12.751-10.369 10.607-18.371l-10.759-40.152 40.151-10.758c8.002-2.145 12.751-10.369 10.607-18.371-2.143-8.002-10.37-12.746-18.37-10.606zm-13.83-86.37c8.271 0 15 6.729 15 15s-6.729 15-15 15-15-6.729-15-15 6.729-15 15-15zm-118.49-175.232c2.775-4.807 7.827-7.497 13.016-7.497 2.543 0 5.118.646 7.475 2.007 7.163 4.136 9.626 13.327 5.49 20.49-4.135 7.163-13.326 9.628-20.49 5.49-7.164-4.135-9.627-13.327-5.491-20.49zm-211 15c-4.136-7.163-1.673-16.354 5.49-20.49 2.356-1.36 4.932-2.007 7.475-2.007 5.188 0 10.24 2.69 13.016 7.497 4.136 7.163 1.673 16.354-5.49 20.49-7.165 4.135-16.356 1.673-20.491-5.49zm-92.51 190.232c-8.271 0-15-6.729-15-15s6.729-15 15-15 15 6.729 15 15-6.729 15-15 15zm118.49 175.231c-4.135 7.163-13.325 9.627-20.49 5.49-7.163-4.136-9.626-13.327-5.49-20.49 2.775-4.807 7.827-7.497 13.016-7.497 2.543 0 5.118.646 7.475 2.007 7.162 4.136 9.625 13.327 5.489 20.49zm211-15c4.136 7.163 1.673 16.354-5.49 20.49-7.165 4.134-16.354 1.673-20.49-5.49s-1.673-16.354 5.49-20.49c2.356-1.36 4.932-2.007 7.475-2.007 5.187 0 10.24 2.691 13.015 7.497zm-118.49-130.231c-24.813 0-45-20.187-45-45s20.187-45 45-45 45 20.187 45 45-20.187 45-45 45z" fill="#e4eff8"/><path d="m467 211c-19.555 0-36.228 12.541-42.42 30h-22.58v-5c0-8.284-6.716-15-15-15s-15 6.716-15 15v5h-42.509c-.608-2.985-1.413-5.898-2.365-8.744l105.064-60.659 48.64 13.033c1.3.349 2.605.515 3.892.515 6.622 0 12.684-4.42 14.479-11.122 2.144-8.002-2.605-16.227-10.607-18.371l-40.151-10.758 10.759-40.152c2.144-8.002-2.605-16.227-10.607-18.371-7.99-2.144-16.226 2.604-18.371 10.607l-13.032 48.639-105.094 60.676c-2.001-2.255-4.134-4.388-6.389-6.389l21.283-36.863 4.33 2.5c2.362 1.364 4.941 2.013 7.486 2.013 5.184 0 10.226-2.69 13.004-7.503 4.143-7.174 1.685-16.349-5.49-20.49l-4.33-2.5 11.292-19.558c2.704.5 5.429.757 8.143.757 15.562 0 30.721-8.072 39.046-22.491 12.404-21.489 5.015-49.065-16.473-61.471-21.487-12.406-49.063-5.018-61.471 16.471-9.777 16.934-7.253 37.644 4.771 51.736l-11.29 19.556-4.33-2.5c-7.175-4.144-16.349-1.685-20.49 5.49-4.143 7.174-1.685 16.349 5.49 20.49l4.33 2.5-21.266 36.833c-2.846-.953-5.759-1.757-8.744-2.365v-121.296l35.606-35.606c5.858-5.857 5.858-15.355 0-21.213-5.857-5.857-15.355-5.857-21.213 0l-29.393 29.393v177.213c24.813 0 45 20.187 45 45s-20.187 45-45 45v177.213l29.394 29.394c2.928 2.928 6.767 4.393 10.606 4.393s7.678-1.465 10.606-4.394c5.858-5.857 5.858-15.355 0-21.213l-35.606-35.606v-121.297c2.985-.608 5.898-1.413 8.744-2.365l21.266 36.833-4.33 2.5c-7.175 4.142-9.633 13.316-5.49 20.49 2.778 4.812 7.82 7.503 13.004 7.503 2.545 0 5.124-.648 7.486-2.013l4.33-2.5 11.29 19.556c-12.023 14.092-14.548 34.802-4.771 51.736 8.325 14.421 23.481 22.491 39.046 22.491 7.629 0 15.356-1.939 22.425-6.021 21.488-12.406 28.877-39.982 16.471-61.471-9.777-16.935-28.975-25.104-47.19-21.736l-11.29-19.555 4.33-2.5c7.175-4.142 9.633-13.316 5.49-20.49-4.143-7.175-13.315-9.633-20.49-5.49l-4.33 2.5-21.283-36.863c2.255-2.001 4.388-4.134 6.389-6.389l105.094 60.676 13.032 48.639c1.796 6.702 7.856 11.122 14.479 11.122 1.285 0 2.592-.167 3.892-.515 8.002-2.145 12.751-10.369 10.607-18.371l-10.759-40.152 40.151-10.758c8.002-2.145 12.751-10.369 10.607-18.371-2.145-8.003-10.371-12.747-18.371-10.607l-48.64 13.033-105.064-60.659c.953-2.846 1.757-5.759 2.365-8.744h42.51v5c0 8.284 6.716 15 15 15s15-6.716 15-15v-5h22.58c6.192 17.459 22.865 30 42.42 30 24.813 0 45-20.187 45-45s-20.187-44.999-45-44.999zm-118.49-145.232c2.775-4.807 7.827-7.497 13.016-7.497 2.543 0 5.118.646 7.475 2.007 7.163 4.136 9.626 13.327 5.49 20.49-4.135 7.163-13.326 9.628-20.49 5.49-7.164-4.135-9.627-13.327-5.491-20.49zm5.49 359.973c2.356-1.36 4.932-2.007 7.475-2.007 5.188 0 10.24 2.69 13.016 7.497 4.136 7.163 1.673 16.354-5.49 20.49-7.165 4.134-16.354 1.673-20.49-5.49s-1.674-16.354 5.489-20.49zm113-154.741c-8.271 0-15-6.729-15-15s6.729-15 15-15 15 6.729 15 15-6.729 15-15 15z" fill="#c6def0"/></g></svg>