<svg id="Capa_1" enable-background="new 0 0 512 512" height="512" viewBox="0 0 512 512" width="512" xmlns="http://www.w3.org/2000/svg"><g><path d="m451 284.299v2.701l-195 30-195-30c0-40.501 27.299-73.2 64.799-80.4 39.002-7.8 85.201-26.4 85.201-69.6l45-30 45 30c0 43.2 46.199 61.8 85.201 69.6 37.5 7.2 64.799 39.899 64.799 77.699z" fill="#5e79bc"/><path d="m386.201 206.6c-39.002-7.8-85.201-26.4-85.201-69.6l-45-30v210l195-30v-2.701c0-37.8-27.299-70.499-64.799-77.699z" fill="#47568c"/><g id="Spinning_Top_2_"><g><g><path d="m451 287c0 61.199-51.899 91.199-97.5 117.9-42.299 24.9-82.5 48.299-82.5 92.1 0 8.399-6 14.399-14.399 15h-1.201c-8.4-.601-14.4-6.601-14.4-15 0-43.801-40.201-67.2-82.5-92.1-45.601-26.7-97.5-56.7-97.5-117.9h135l60 18.9 60-18.9z" fill="#fabe2c"/></g></g></g><path d="m256 305.9v206.1h.601c8.399-.601 14.399-6.601 14.399-15 0-43.801 40.201-67.2 82.5-92.1 45.601-26.7 97.5-56.7 97.5-117.9h-135z" fill="#ff884d"/><path d="m316 287c0 99.899-54.3 131.7-59.399 225h-1.201c-5.1-93.001-59.4-124.801-59.4-225z" fill="#ffe14d"/><path d="m256 512h.601c5.099-93.3 59.399-125.101 59.399-225h-60z" fill="#fb3"/><path d="m301 45v92h-90v-92c0-24.901 20.099-45 45-45s45 20.099 45 45z" fill="#ff9580"/><path d="m256 0v137h45v-92c0-24.901-20.099-45-45-45z" fill="#f66"/></g></svg>