<svg id="Layer_1" enable-background="new 0 0 512 512" height="512" viewBox="0 0 512 512" width="512" xmlns="http://www.w3.org/2000/svg"><g><path d="m277.514 379.064c-5.657-5.662-13.499-8.91-21.514-8.91s-15.856 3.248-21.514 8.91c-6.359 6.359-15.876 5.385-21.343-.082-5.782-5.782-5.728-15.445.277-21.278 11.391-11.319 26.503-17.55 42.58-17.55s31.189 6.23 42.58 17.55c5.976 5.806 6.111 15.419.16 21.369-8.558 8.559-18.577 2.641-21.226-.009z" fill="#ff4a4a"/><path d="m277.514 379.064c2.65 2.65 12.668 8.567 21.227.009 5.951-5.951 5.816-15.563-.16-21.369-11.391-11.319-26.503-17.55-42.58-17.55v30c8.014 0 15.855 3.248 21.513 8.91z" fill="#ff1f3d"/><path d="m480.934 311.167c-8.284 0-15-6.716-15-15v-160.683c0-27.157-22.094-49.251-49.251-49.251-8.284 0-15.008-6.716-15.008-15s6.708-15 14.992-15c43.715 0 79.267 35.552 79.267 79.251v160.683c0 8.284-6.716 15-15 15z" fill="#ff1f3d"/><path d="m360.434 455.767h40.166c61.427 0 111.4-49.974 111.4-111.4v-48.199c0-8.284-6.716-15-15-15h-136.566c-48.213 0-87.3 39.004-87.3 87.3 0 48.213 39.004 87.299 87.3 87.299z" fill="#ff4a4a"/><path d="m482 311.167v33.199c0 44.885-36.516 81.4-81.4 81.4h-40.166c-31.643 0-57.3-25.6-57.3-57.3 0-31.645 25.6-57.3 57.3-57.3h121.566z" fill="#2e2654"/><path d="m31.066 311.167c-8.284 0-15-6.716-15-15v-160.683c0-43.699 35.552-79.251 79.251-79.251 8.284 0 15.008 6.716 15.008 15s-6.708 15-14.992 15c-27.173 0-49.267 22.094-49.267 49.251v160.683c0 8.284-6.715 15-15 15z" fill="#ff4a4a"/><path d="m151.566 455.767h-40.166c-61.427 0-111.4-49.974-111.4-111.4v-48.199c0-8.284 6.716-15 15-15h136.566c48.213 0 87.3 39.004 87.3 87.3 0 48.213-39.004 87.299-87.3 87.299z" fill="#ff5c5c"/><path d="m30 311.167v33.199c0 44.885 36.516 81.4 81.4 81.4h40.166c31.643 0 57.3-25.6 57.3-57.3 0-31.645-25.6-57.3-57.3-57.3h-121.566z" fill="#38336b"/><path d="m59.588 407.1c8.017 6.633 17.322 11.76 27.478 14.948l99.193-99.194c-8.678-6.608-19.302-10.788-30.879-11.547z" fill="#544dc8"/><path d="m322.711 411.595c7.994 6.995 17.94 11.81 28.926 13.5l113.924-113.928h-42.425z" fill="#3d38be"/></g></svg>