<svg id="Capa_1" enable-background="new 0 0 512 512" height="512" viewBox="0 0 512 512" width="512" xmlns="http://www.w3.org/2000/svg"><g><g><path d="m165 112h-100c-8.284 0-15-6.716-15-15v-62c0-19.299 15.701-35 35-35h60c19.299 0 35 15.701 35 35v62c0 8.284-6.716 15-15 15z" fill="#00429b"/><path d="m145 0h-30v112h50c8.284 0 15-6.716 15-15v-62c0-19.299-15.701-35-35-35z" fill="#00337a"/><g><path d="m0 392v75c0 24.813 20.187 45 45 45h140c24.813 0 45-20.187 45-45v-75l-50-95 50-95v-55c0-35.841-29.159-65-65-65h-100c-35.841 0-65 29.159-65 65v55l50 95z" fill="#f5f0eb"/></g><path d="m165 82h-50v430h70c24.813 0 45-20.187 45-45v-75l-50-95 50-95v-55c0-35.841-29.159-65-65-65z" fill="#ebe1dc"/><path d="m215.606 257.607c9.281-9.281 14.394-21.622 14.394-34.749v-20.858h-230v20.858c0 13.127 5.112 25.468 14.394 34.749 3.615 3.615 5.606 8.422 5.606 13.535v51.716c0 5.113-1.991 9.92-5.606 13.535-9.282 9.281-14.394 21.622-14.394 34.749v20.858h230v-20.858c0-13.127-5.112-25.468-14.394-34.749-3.615-3.615-5.606-8.422-5.606-13.535v-51.716c0-5.113 1.991-9.92 5.606-13.535z" fill="#ffde46"/><path d="m115 392h115v-20.858c0-13.127-5.112-25.468-14.394-34.749-3.615-3.615-5.606-8.422-5.606-13.535v-51.716c0-5.113 1.991-9.92 5.606-13.535 9.281-9.281 14.394-21.622 14.394-34.749v-20.858h-115z" fill="#ff9d21"/></g><path d="m477 462h-40c-8.284 0-15-6.716-15-15s6.716-15 15-15h40c2.757 0 5-2.243 5-5v-60c0-2.757-2.243-5-5-5h-40c-8.284 0-15-6.716-15-15s6.716-15 15-15h40c19.299 0 35 15.701 35 35v60c0 19.299-15.701 35-35 35z" fill="#ebe1dc"/><path d="m397 512h-80c-30.327 0-55-24.673-55-55v-140c0-8.284 6.716-15 15-15h160c8.284 0 15 6.716 15 15v140c0 30.327-24.673 55-55 55z" fill="#00429b"/><path d="m437 302h-80v210h40c30.327 0 55-24.673 55-55v-140c0-8.284-6.716-15-15-15z" fill="#00337a"/><path d="m357 272c-8.284 0-15-6.716-15-15v-80c0-8.284 6.716-15 15-15s15 6.716 15 15v80c0 8.284-6.716 15-15 15z" fill="#f5f0eb"/><path d="m372 257v-80c0-8.284-6.716-15-15-15v110c8.284 0 15-6.716 15-15z" fill="#ebe1dc"/><path d="m417 272c-8.284 0-15-6.716-15-15v-40c0-8.284 6.716-15 15-15s15 6.716 15 15v40c0 8.284-6.716 15-15 15z" fill="#ebe1dc"/><path d="m297 272c-8.284 0-15-6.716-15-15v-40c0-8.284 6.716-15 15-15s15 6.716 15 15v40c0 8.284-6.716 15-15 15z" fill="#f5f0eb"/></g></svg>