<svg id="Capa_1" enable-background="new 0 0 512 512" height="512" viewBox="0 0 512 512" width="512" xmlns="http://www.w3.org/2000/svg"><g><path d="m15 15h482v482h-482z" fill="#e4e4ff" transform="matrix(-1 0 0 -1 512 512)"/><g><path d="m256 15h241v482h-241z" fill="#b7b4e7"/></g><path d="m497 0h-482c-8.284 0-15 6.716-15 15v482c0 8.284 6.716 15 15 15h482c8.284 0 15-6.716 15-15v-482c0-8.284-6.716-15-15-15zm-306.333 321.333v-130.666h130.666v130.667h-130.666zm130.666 30v130.667h-130.666v-130.667zm-291.333-160.666h130.667v130.667h-130.667zm160.667-30v-130.667h130.666v130.667zm160.666 30h130.667v130.667h-130.667zm130.667-30h-130.667v-130.667h130.667zm-321.333-130.667v130.667h-130.667v-130.667zm-130.667 321.333h130.667v130.667h-130.667zm321.333 130.667v-130.667h130.667v130.667z" fill="#f9f9f9"/><path d="m497 0h-241v30h65.333v130.667h-65.333v30h65.333v130.667h-65.333v30h65.333v130.666h-65.333v30h241c8.284 0 15-6.716 15-15v-482c0-8.284-6.716-15-15-15zm-15 482h-130.667v-130.667h130.667zm0-160.667h-130.667v-130.666h130.667zm0-160.666h-130.667v-130.667h130.667z" fill="#e4e4ff"/><path d="m256 141c-24.814 0-45-20.187-45-45s20.186-45 45-45 45 20.187 45 45-20.186 45-45 45zm0-60c-8.271 0-15 6.729-15 15s6.729 15 15 15c8.272 0 15-6.729 15-15s-6.728-15-15-15z" fill="#ff6378"/><path d="m416 461c-24.814 0-45-20.187-45-45s20.186-45 45-45 45 20.187 45 45-20.186 45-45 45zm0-60c-8.272 0-15 6.729-15 15s6.728 15 15 15 15-6.729 15-15-6.728-15-15-15z" fill="#d0004f"/><path d="m96 301c-24.813 0-45-20.187-45-45s20.187-45 45-45 45 20.187 45 45-20.187 45-45 45zm0-60c-8.271 0-15 6.729-15 15s6.729 15 15 15 15-6.729 15-15-6.729-15-15-15z" fill="#ff6378"/><g><path d="m437.213 96 10.607-10.607c5.858-5.858 5.858-15.355 0-21.213-5.857-5.857-15.355-5.858-21.213 0l-10.607 10.607-10.606-10.607c-5.856-5.858-15.354-5.857-21.213 0-5.858 5.858-5.858 15.355 0 21.213l10.606 10.607-10.607 10.607c-5.858 5.858-5.858 15.355 0 21.213 2.929 2.929 6.768 4.393 10.606 4.393s7.678-1.464 10.606-4.394l10.608-10.606 10.606 10.607c2.929 2.929 6.768 4.394 10.606 4.394s7.678-1.465 10.606-4.393c5.858-5.858 5.858-15.355 0-21.213z" fill="#38336b"/><g fill="#524798"><path d="m127.819 384.18c-5.857-5.857-15.355-5.858-21.213.001l-10.606 10.606-10.606-10.607c-5.856-5.857-15.354-5.858-21.213-.001-5.858 5.858-5.858 15.355 0 21.213l10.606 10.608-10.607 10.607c-5.858 5.858-5.858 15.355 0 21.213 2.929 2.929 6.767 4.393 10.606 4.393s7.678-1.464 10.606-4.394l10.608-10.606 10.606 10.607c2.929 2.929 6.768 4.394 10.606 4.394s7.678-1.465 10.606-4.393c5.858-5.858 5.858-15.355 0-21.213l-10.605-10.608 10.607-10.607c5.858-5.858 5.858-15.355-.001-21.213z"/><path d="m287.819 224.18c-5.857-5.857-15.355-5.858-21.213.001l-10.606 10.606-10.606-10.607c-5.857-5.858-15.355-5.857-21.213-.001-5.858 5.858-5.858 15.355 0 21.213l10.606 10.608-10.607 10.607c-5.858 5.858-5.858 15.355 0 21.213 2.929 2.929 6.768 4.393 10.606 4.393 3.839 0 7.678-1.464 10.607-4.394l10.607-10.606 10.606 10.607c2.929 2.929 6.768 4.394 10.606 4.394s7.678-1.465 10.606-4.393c5.858-5.858 5.858-15.355 0-21.213l-10.605-10.608 10.607-10.607c5.858-5.858 5.858-15.355-.001-21.213z"/></g></g><g><g><path d="m301 96c0-24.813-20.186-45-45-45v30c8.272 0 15 6.729 15 15s-6.728 15-15 15v30c24.814 0 45-20.187 45-45z" fill="#d0004f"/><path d="m277.213 292.213c3.838 0 7.678-1.465 10.606-4.393 5.858-5.858 5.858-15.355 0-21.213l-10.606-10.607 10.607-10.607c5.858-5.858 5.858-15.355 0-21.213-5.857-5.857-15.355-5.858-21.213.001l-10.607 10.606v42.426l10.606 10.607c2.929 2.929 6.768 4.393 10.607 4.393z" fill="#38336b"/></g></g></g></svg>