<svg id="Capa_1" enable-background="new 0 0 512 512" height="512" viewBox="0 0 512 512" width="512" xmlns="http://www.w3.org/2000/svg"><g><g><g><path d="m356.138 247.019h-237.114c-8.284 0-15-6.716-15-15v-141.872c-22.316-2.767-39.646-21.849-39.646-44.901 0-24.949 20.297-45.246 45.246-45.246h255.914c24.949 0 45.246 20.297 45.246 45.246 0 23.053-17.33 42.135-39.647 44.901v141.871c.001 8.285-6.715 15.001-14.999 15.001z" fill="#d5b97b"/><path d="m365.538 0h-127.957v247.019h118.557c8.284 0 15-6.716 15-15v-141.872c22.316-2.767 39.647-21.849 39.647-44.901-.001-24.949-20.298-45.246-45.247-45.246z" fill="#cda550"/></g><g><path d="m109.624 30c-8.406 0-15.246 6.84-15.246 15.246 0 8.407 6.84 15.246 15.246 15.246h9.4c8.284 0 15 6.716 15 15v141.526h207.113v-141.526c0-8.284 6.716-15 15-15h9.4c8.406 0 15.246-6.839 15.246-15.246 0-8.406-6.84-15.246-15.246-15.246z" fill="#eee3ca"/><path d="m365.538 30h-127.957v187.019h103.557v-141.527c0-8.284 6.716-15 15-15h9.4c8.406 0 15.246-6.839 15.246-15.246 0-8.406-6.84-15.246-15.246-15.246z" fill="#d5b97b"/></g></g><g><g><path d="m362.581 512c-8.284 0-15-6.716-15-15v-21.502c0-8.284 6.716-15 15-15s15 6.716 15 15v21.502c0 8.284-6.716 15-15 15z" fill="#2b495d"/><path d="m112.581 512c-8.284 0-15-6.716-15-15v-21.502c0-8.284 6.716-15 15-15s15 6.716 15 15v21.502c0 8.284-6.716 15-15 15z" fill="#457899"/></g><path d="m460.432 271h-26.838c-8.284 0-15-6.716-15-15s6.716-15 15-15h26.838c8.284 0 15 6.716 15 15s-6.716 15-15 15z" fill="#2b495d"/><g><g><path d="m423.594 483.371h-372.026c-8.284 0-15-6.716-15-15v-245.661c0-30.77 25.032-55.802 55.802-55.802h290.422c30.77 0 55.802 25.032 55.802 55.802v245.661c0 8.284-6.716 15-15 15z" fill="#9cd6f4"/><path d="m382.792 166.908h-145.211v316.463h186.013c8.284 0 15-6.716 15-15v-245.661c0-30.77-25.032-55.802-55.802-55.802z" fill="#7fa6fb"/></g><g fill="#fbf4f4"><path d="m120.801 317.27c-6.285 0-11.981-4.064-14.115-9.952-2.128-5.871-.239-12.703 4.605-16.648 4.867-3.963 11.82-4.482 17.217-1.27 5.372 3.197 8.236 9.675 7.002 15.801-1.392 6.918-7.642 12.069-14.709 12.069z"/><path d="m120.801 257.27c-6.285 0-11.981-4.064-14.115-9.952-2.128-5.871-.239-12.703 4.605-16.647 4.867-3.963 11.82-4.483 17.217-1.27 5.372 3.197 8.236 9.675 7.002 15.8-1.392 6.918-7.642 12.069-14.709 12.069z"/></g></g></g></g></svg>