<svg id="Capa_1" enable-background="new 0 0 512.031 512.031" height="512" viewBox="0 0 512.031 512.031" width="512" xmlns="http://www.w3.org/2000/svg"><g><path d="m356.997 397.96-288 113c-12.118 4.767-24.183-7.215-19.47-19.38l112-289c3.93-10.103 16.925-12.844 24.6-5.19l176 176c7.638 7.659 4.909 20.648-5.13 24.57z" fill="#ffdd54"/><path d="m356.997 397.96-288 113c-5.538 2.178-11.845.87-16.06-3.33l221.71-221.72 87.48 87.48c7.638 7.659 4.909 20.648-5.13 24.57z" fill="#ffb454"/><path d="m321.956 141.561c-5.857-5.857-15.355-5.857-21.213 0l-47.833 47.833c-2.813 2.812-4.394 6.628-4.394 10.606v89.787l-27.606 27.606c-5.858 5.857-5.858 15.355 0 21.213 5.859 5.858 15.355 5.858 21.213 0l32-32c2.813-2.812 4.394-6.628 4.394-10.606v-89.787l43.439-43.439c5.858-5.858 5.858-15.356 0-21.213z" fill="#05303d"/><path d="m463.517 55c0 14.69-5.72 28.5-16.11 38.89l-68.88 68.88c-21.426 21.446-56.339 21.461-77.78 0-21.531-21.557-21.375-56.405 0-77.78l68.88-68.88c10.39-10.39 24.2-16.11 38.89-16.11 30.376 0 55 24.596 55 55z" fill="#9d9bdf"/><path d="m447.407 93.89-68.88 68.88c-20.6 20.619-55.204 22.509-78.38-.61l146.65-146.65c23.456 23.485 20.994 57.995.61 78.38z" fill="#5e69e2"/></g></svg>