<svg id="Capa_1" enable-background="new 0 0 512.037 512.037" height="512" viewBox="0 0 512.037 512.037" width="512" xmlns="http://www.w3.org/2000/svg"><g><path d="m367.64 267.711h-339.7c-12.46-5.16-13.73-18.38-6.58-25.58l91.88-92.37c12.56-12.57 32.96-12.57 45.49-.03.84.84 2.2.84 3.04 0l40-40c12.53-12.54 32.93-12.54 45.46 0 12.887 12.99-7.44-7.491 131.42 132.41 9.203 9.297 3.044 25.57-11.01 25.57z" fill="#0a789b"/><path d="m367.64 267.711h-111.64v-149.14l122.65 123.57c9.203 9.297 3.044 25.57-11.01 25.57z" fill="#08475e"/><path d="m510.36 245.892-49-96c-2.562-5.021-7.724-8.181-13.36-8.181h-80c-8.284 0-15 6.716-15 15v96c0 8.284 6.716 15 15 15h129c11.184 0 18.452-11.842 13.36-21.819z" fill="#e0eaef"/><path d="m511.99 252.711c0-2.33-.53-4.67-1.63-6.82l-49-96c-2.56-5.02-7.72-8.18-13.36-8.18h-80c-8.28 0-15 6.72-15 15v96h-336.48l-16.06 63.14c-1.22 4.82.02 9.94 3.32 13.66l33 37.16c2.85 3.21 6.93 5.04 11.22 5.04h424c3.87 0 7.59-1.5 10.39-4.18l25-24c2.94-2.83 4.61-6.74 4.61-10.82 0-80.955.09-80-.01-80zm-128.99-15v-66h55.82l33.68 66z" fill="#ffdd54"/><path d="m511.99 252.711c0-2.33-.53-4.67-1.63-6.82l-49-96c-2.56-5.02-7.72-8.18-13.36-8.18h-80c-8.28 0-15 6.72-15 15v96h-97v119h216c3.87 0 7.59-1.5 10.39-4.18l25-24c2.94-2.83 4.61-6.74 4.61-10.82 0-80.955.09-80-.01-80zm-128.99-15v-66h55.82l33.68 66z" fill="#ffb454"/><path d="m201 301.711c-15.75 0-29.964 6.665-40 17.31-10.036-10.645-24.25-17.31-40-17.31-30.327 0-55 24.673-55 55s24.673 55 55 55c15.75 0 29.964-6.665 40-17.31 10.036 10.645 24.25 17.31 40 17.31 30.327 0 55-24.673 55-55s-24.673-55-55-55z" fill="#0a789b"/><g fill="#08475e"><circle cx="120" cy="356.711" r="24"/><circle cx="200" cy="356.711" r="24"/><circle cx="392" cy="356.711" r="55"/></g><circle cx="392" cy="356.711" fill="#05303d" r="24"/></g></svg>