<svg id="Capa_1" enable-background="new 0 0 512.037 512.037" height="512" viewBox="0 0 512.037 512.037" width="512" xmlns="http://www.w3.org/2000/svg"><g><path d="m72 262.519c-25.916 0-47-21.084-47-47 0-20.674 13.416-38.272 32-44.546v-43.454c0-8.284 6.716-15 15-15s15 6.716 15 15v56c0 8.284-6.716 15-15 15-9.374 0-17 7.626-17 17s7.626 17 17 17c5.142 0 10.636-2.277 13.671-5.667 5.527-6.172 15.01-6.693 21.181-1.168 6.171 5.526 6.695 15.01 1.168 21.181-8.777 9.802-22.242 15.654-36.02 15.654z" fill="#08475e"/><path d="m319 199.589v56c0 8.29-6.72 15-15 15h-56c-3.21 0-6.34-1.03-8.92-2.94l-192-142c-5.45-4.03-7.52-11.22-5.04-17.53l20-51c3.392-8.66 13.746-12.159 21.69-7.38 79.708 47.893 148.311 89.112 228 137 4.51 2.71 7.27 7.59 7.27 12.85z" fill="#0a789b"/><path d="m319 199.589v56c0 8.29-6.72 15-15 15h-48v-117.34l55.73 33.49c4.51 2.71 7.27 7.59 7.27 12.85z" fill="#08475e"/><path d="m383 257.279v62.24c0 8.28-6.71 15-15 15-134.991.024-93.61.015-184 .04-13.334 0-20.039-16.182-10.61-25.61l51.67-51.67z" fill="#ffb454"/><path d="m383 257.279v62.24c0 8.28-6.71 15-15 15l-112 .02v-77.26z" fill="#ff7038"/><ellipse cx="71.964" cy="87.555" fill="#9d9bdf" rx="55.037" ry="55.036" transform="matrix(.707 -.707 .707 .707 -40.833 76.53)"/><path d="m510.36 313.699-49-96c-2.562-5.021-7.724-8.181-13.36-8.181h-80c-8.284 0-15 6.716-15 15v96c0 8.284 6.716 15 15 15h129c11.184.001 18.452-11.842 13.36-21.819z" fill="#e0eaef"/><path d="m511.99 320.519c0-2.33-.53-4.67-1.63-6.82l-49-96c-2.56-5.02-7.72-8.18-13.36-8.18h-80c-8.284 0-15 6.716-15 15v96h-324.818c-6.86 0-12.846 4.654-14.537 11.302l-13.185 51.837c-1.22 4.82.02 9.94 3.32 13.66l33 37.16c2.85 3.21 6.93 5.04 11.22 5.04h424c3.87 0 7.59-1.5 10.39-4.18l25-24c2.94-2.83 4.61-6.74 4.61-10.82 0-80.955.09-79.999-.01-79.999zm-128.99-15v-66h55.82l33.68 66z" fill="#ffdd54"/><path d="m511.99 320.519c0-2.33-.53-4.67-1.63-6.82l-49-96c-2.56-5.02-7.72-8.18-13.36-8.18h-80c-8.28 0-15 6.72-15 15v96h-97v119h216c3.87 0 7.59-1.5 10.39-4.18l25-24c2.94-2.83 4.61-6.74 4.61-10.82 0-80.956.09-80-.01-80zm-128.99-15v-66h55.82l33.68 66z" fill="#ffb454"/><path d="m201 369.519c-15.75 0-29.964 6.665-40 17.31-10.036-10.645-24.25-17.31-40-17.31-30.327 0-55 24.673-55 55s24.673 55 55 55c15.75 0 29.964-6.665 40-17.31 10.036 10.645 24.25 17.31 40 17.31 30.327 0 55-24.673 55-55s-24.673-55-55-55z" fill="#0a789b"/><g fill="#08475e"><circle cx="120" cy="424.519" r="24"/><circle cx="200" cy="424.519" r="24"/><circle cx="392" cy="424.519" r="55"/></g><circle cx="392" cy="424.519" fill="#05303d" r="24"/></g></svg>