<svg id="Layer_1" enable-background="new 0 0 510.504 510.504" height="512" viewBox="0 0 510.504 510.504" width="512" xmlns="http://www.w3.org/2000/svg"><g><path d="m348.639 113.846h-186.049v-95.34c0-10.221 8.285-18.506 18.505-18.506h149.038c10.22 0 18.506 8.285 18.506 18.506z" fill="#fff4f4"/><path d="m329.598 0h-74.346v113.846h93.387v-94.805c0-10.516-8.525-19.041-19.041-19.041z" fill="#eee1dc"/><path d="m259.118 510.504h-7.732c-73.793 0-133.615-59.821-133.615-133.615v-268.269c0-5.344 4.332-9.676 9.676-9.676h255.609c5.344 0 9.676 4.332 9.676 9.676v268.269c.001 73.793-59.821 133.615-133.614 133.615z" fill="#7affe4"/><path d="m382.776 98.944h-127.162v411.555c75.761-.196 137.118-61.669 137.118-137.476v-264.123c.001-5.499-4.457-9.956-9.956-9.956z" fill="#00ecce"/><path d="m314.268 203.351c-8.524 0-15.434 6.91-15.434 15.434v32.263c0 1.717-1.397 3.115-3.114 3.115h-25.742v-57.416c0-8.524-6.91-15.434-15.434-15.434s-15.434 6.91-15.434 15.434v105.166h-23.831c-1.717 0-3.114-1.398-3.114-3.115v-33.487c0-8.524-6.91-15.434-15.434-15.434s-15.434 6.91-15.434 15.434v33.487c0 18.738 15.245 33.983 33.982 33.983h23.831v55.085c0 8.524 6.91 15.434 15.434 15.434s15.434-6.91 15.434-15.434v-102.835h25.742c18.738 0 33.982-15.245 33.982-33.983v-32.263c0-8.524-6.91-15.434-15.434-15.434z" fill="#0089ff"/><path d="m287.016 73.946c8.524 0 15.434-6.91 15.434-15.434v-58.512h-30.868v58.512c0 8.524 6.91 15.434 15.434 15.434z" fill="#002659"/><path d="m224.213 73.946c8.524 0 15.434-6.91 15.434-15.434v-58.512h-30.868v58.512c0 8.524 6.91 15.434 15.434 15.434z" fill="#00337a"/><path d="m314.268 203.315c-8.524 0-15.434 6.91-15.434 15.434v32.263c0 1.717-1.397 3.115-3.114 3.115h-25.742v-57.416c0-8.284-6.533-15.025-14.725-15.398v221.916c8.192-.373 14.725-7.114 14.725-15.398v-102.836h25.742c18.738 0 33.982-15.245 33.982-33.983v-32.263c0-8.524-6.91-15.434-15.434-15.434z" fill="#004db6"/></g></svg>