<svg id="Capa_1" enable-background="new 0 0 512 512" height="512" viewBox="0 0 512 512" width="512" xmlns="http://www.w3.org/2000/svg"><g><path d="m300 1.5-14.848 36.379-15.152-37.879h-45l-45 56.25-45-56.25h-45l-15.152 37.879-14.848-36.379c-34.2 6.899-60 37.199-60 73.5 0 36.299 25.8 66.599 60 73.5l14.848-36.379 15.152 37.879h45l45-56.25 45 56.25h45l15.152-37.879 14.848 36.379c34.2-6.901 60-37.202 60-73.5 0-36.301-25.8-66.601-60-73.5z" fill="#ffe14d"/><path d="m60 148.5 14.848-36.379 15.152 37.879h45l45-56.25 45 56.25h45l15.152-37.879 14.848 36.379c34.2-6.901 60-37.202 60-73.5h-360c0 36.299 25.8 66.599 60 73.5z" fill="#fb3"/><g fill="#ff9580"><path d="m60 1.5v147 48.5c0 8.399 6.599 15 15 15s15-6.601 15-15v-47-150h-15c-5.099 0-10.201.599-15 1.5z"/><path d="m285 0h-15v150 47c0 8.399 6.599 15 15 15s15-6.601 15-15v-48.5-147c-4.799-.901-9.901-1.5-15-1.5z"/></g><path d="m285 212c8.401 0 15-6.601 15-15v-48.5-73.5h-30v75 47c0 8.399 6.599 15 15 15z" fill="#f66"/><path d="m75 212c8.401 0 15-6.601 15-15v-47-75h-30v73.5 48.5c0 8.399 6.599 15 15 15z" fill="#f66"/><g><path d="m255 392h-80.01c-8.291 0-15-6.709-15-15s6.709-15 15-15h70.752l25.84-51.709c3.721-7.397 12.744-10.371 20.127-6.709 7.412 3.706 10.4 12.715 6.709 20.127l-30 60c-2.549 5.083-7.734 8.291-13.418 8.291z" fill="#fb3"/></g><g><g><path d="m104.092 512c-18.633 0-35.596-8.657-46.553-23.745-11.045-15.19-14.004-34.146-8.203-52.002l41.426-124.014c2.051-6.108 7.793-10.239 14.238-10.239h90c10.274 0 17.456 10.094 14.238 19.746l-50.39 150.894c-7.735 23.51-29.737 39.36-54.756 39.36z" fill="#f66"/></g></g><g><path d="m497 302h-60c-8.284 0-15-6.716-15-15v-75c0-16.569 13.431-30 30-30h45c8.284 0 15 6.716 15 15v90c0 8.284-6.716 15-15 15z" fill="#ffe14d"/></g><path d="m422 257v30c0 8.284 6.716 15 15 15h60c8.284 0 15-6.716 15-15v-30z" fill="#fb3"/><g><path d="m437 332h-357.577c-39.219 0-75.036-28.136-79.021-67.153-4.581-44.857 30.642-82.847 74.598-82.847h377v135c0 8.284-6.716 15-15 15z" fill="#9df"/></g><path d="m.445 257c-.004 2.62-.315 5.169-.042 7.846 3.984 39.018 39.8 67.154 79.019 67.154h357.578c8.284 0 15-6.716 15-15v-60z" fill="#66b3ff"/><g id="_Water_Gun_2_"><g><path d="m135 0v150h90v-150z" fill="#fabe2c"/></g></g><path d="m135 75h90v75h-90z" fill="#ff884d"/></g></svg>