<svg id="Capa_1" enable-background="new 0 0 512 512" height="512" viewBox="0 0 512 512" width="512" xmlns="http://www.w3.org/2000/svg"><g><g><path d="m354.579 512h-197.158c-56.37 0-103.272-42.35-109.098-98.509l-30.321-292.272c-3.205-30.895 6.866-61.846 27.629-84.917 20.764-23.071 50.458-36.302 81.469-36.302h257.8c31.011 0 60.705 13.231 81.469 36.302s30.834 54.022 27.629 84.917l-30.322 292.271c-5.825 56.16-52.727 98.51-109.097 98.51z" fill="#457899"/><path d="m466.369 36.302c-20.764-23.071-50.458-36.302-81.469-36.302h-128.9v512h98.579c56.37 0 103.272-42.35 109.098-98.509l30.322-292.271c3.204-30.896-6.866-61.847-27.63-84.918z" fill="#2b495d"/></g><g><g><g><path d="m313.67 200.187c-3.839 0-7.678-1.467-10.606-4.401-25.951-25.992-68.176-25.992-94.127 0-5.857 5.868-15.355 5.868-21.213 0l-61.127-61.227c-5.857-5.867-5.857-15.381.001-21.247 71.353-71.47 187.453-71.47 258.806 0 5.858 5.867 5.858 15.38 0 21.247l-61.127 61.227c-2.929 2.934-6.768 4.401-10.607 4.401z" fill="#fbf4f4"/><path d="m385.403 113.312c-35.676-35.736-82.54-53.603-129.403-53.603v116.582c17.044 0 34.088 6.498 47.064 19.494 2.929 2.934 6.768 4.401 10.606 4.401 3.839 0 7.678-1.467 10.607-4.401l61.127-61.227c5.857-5.866 5.857-15.38-.001-21.246z" fill="#e2e9ee"/></g><g><path d="m256 114.881c-8.284 0-15 6.727-15 15.024v48.103c9.862-2.269 20.138-2.269 30 0v-48.103c0-8.298-6.716-15.024-15-15.024z" fill="#de5958"/><path d="m256 114.881v61.426c5.034 0 10.069.567 15 1.702v-48.103c0-8.299-6.716-15.025-15-15.025z" fill="#d9225b"/></g></g><g><g><g fill="#182831"><path d="m384.55 438.929c-6.29 0-11.982-4.05-14.119-9.959-2.128-5.885-.236-12.715 4.599-16.675 4.858-3.979 11.833-4.486 17.221-1.272 5.376 3.207 8.237 9.684 6.999 15.826-1.398 6.935-7.625 12.08-14.7 12.08z"/><path d="m324.55 438.929c-6.287 0-11.983-4.052-14.119-9.959-2.134-5.901-.226-12.704 4.609-16.675 4.85-3.983 11.828-4.483 17.211-1.272 5.376 3.207 8.237 9.684 6.999 15.826-1.398 6.936-7.625 12.08-14.7 12.08z"/><path d="m384.55 378.831c-6.29 0-11.984-4.054-14.119-9.963-2.133-5.901-.226-12.7 4.609-16.671 4.851-3.984 11.827-4.484 17.211-1.272 5.376 3.207 8.23 9.676 6.999 15.816-1.392 6.94-7.623 12.09-14.7 12.09z"/><path d="m324.55 378.831c-6.26 0-12.024-4.049-14.12-9.963-2.099-5.922-.247-12.681 4.61-16.671 4.851-3.984 11.827-4.484 17.211-1.272 5.376 3.207 8.23 9.676 6.999 15.816-1.392 6.94-7.623 12.09-14.7 12.09z"/><path d="m384.55 318.733c-6.286 0-11.983-4.053-14.119-9.959-2.134-5.902-.226-12.704 4.609-16.675 4.85-3.984 11.827-4.484 17.211-1.272 5.376 3.207 8.237 9.684 6.999 15.826-1.397 6.934-7.627 12.08-14.7 12.08z"/><path d="m324.55 318.733c-6.256 0-12.023-4.047-14.12-9.959-2.101-5.923-.247-12.685 4.61-16.675 4.85-3.984 11.827-4.484 17.211-1.272 5.387 3.213 8.222 9.678 6.999 15.826-1.379 6.936-7.64 12.08-14.7 12.08z"/></g><g fill="#2b495d"><path d="m187.45 438.929c-6.255 0-12.016-4.05-14.11-9.959-2.094-5.908-.261-12.693 4.6-16.675 4.858-3.979 11.829-4.485 17.217-1.272 5.364 3.198 8.254 9.691 7.003 15.826-1.416 6.939-7.622 12.08-14.71 12.08z"/><path d="m127.45 438.929c-6.255 0-12.016-4.05-14.11-9.959-2.094-5.908-.261-12.693 4.6-16.675 4.858-3.979 11.833-4.486 17.221-1.272 5.363 3.199 8.25 9.692 6.999 15.826-1.417 6.941-7.619 12.08-14.71 12.08z"/><path d="m187.45 378.831c-6.256 0-12.017-4.053-14.11-9.963-2.092-5.908-.261-12.689 4.6-16.671 4.859-3.98 11.828-4.485 17.217-1.272 5.368 3.2 8.248 9.68 7.003 15.816-1.41 6.943-7.618 12.09-14.71 12.09z"/><path d="m127.45 378.831c-6.256 0-12.017-4.053-14.11-9.963-2.092-5.907-.259-12.691 4.6-16.671s11.828-4.485 17.217-1.272c5.365 3.199 8.248 9.68 7.003 15.816-1.411 6.945-7.617 12.09-14.71 12.09z"/><path d="m187.45 318.733c-6.253 0-12.017-4.052-14.11-9.959s-.259-12.694 4.6-16.675c4.858-3.98 11.829-4.485 17.217-1.272 5.366 3.199 8.255 9.688 7.003 15.826-1.416 6.939-7.621 12.08-14.71 12.08z"/><path d="m127.45 318.733c-6.253 0-12.017-4.052-14.11-9.959-2.094-5.908-.261-12.693 4.6-16.675 4.858-3.98 11.829-4.485 17.217-1.272 5.365 3.199 8.255 9.689 7.003 15.826-1.416 6.938-7.622 12.08-14.71 12.08z"/></g></g><g><path d="m256 268.656c-8.284 0-15 6.727-15 15.025v228.319h30v-228.319c0-8.298-6.716-15.025-15-15.025z" fill="#2b495d"/><path d="m256 268.656v243.344h15v-228.319c0-8.298-6.716-15.025-15-15.025z" fill="#182831"/></g></g></g></g></svg>