<svg id="Layer_1" enable-background="new 0 0 511.82 511.82" height="512" viewBox="0 0 511.82 511.82" width="512" xmlns="http://www.w3.org/2000/svg"><g><circle cx="243.503" cy="257.816" fill="#e6f7ff" r="121.538"/><path d="m244.027 136.292v243.062c66.882-.283 121.015-54.583 121.015-121.531s-54.133-121.249-121.015-121.531z" fill="#ade1f9"/><path d="m175.497 367.599v126.878c0 9.578 7.765 17.343 17.343 17.343h101.327c9.578 0 17.343-7.765 17.343-17.343v-126.893z" fill="#00337a"/><path d="m311.51 148.143v-130.8c0-9.578-7.765-17.343-17.343-17.343h-101.327c-9.578 0-17.343 7.765-17.343 17.343v130.922z" fill="#00337a"/><g><path d="m389.854 272.816h-24.848c-8.284 0-15-6.716-15-15s6.716-15 15-15h24.848c8.284 0 15 6.716 15 15s-6.715 15-15 15z" fill="#002659"/></g><path d="m243.503 394.354c-75.287 0-136.538-61.25-136.538-136.538s61.25-136.538 136.538-136.538 136.538 61.25 136.538 136.538-61.25 136.538-136.538 136.538zm0-243.075c-58.745 0-106.538 47.792-106.538 106.538s47.792 106.538 106.538 106.538 106.538-47.792 106.538-106.538-47.793-106.538-106.538-106.538z" fill="#ff405c"/><g><path d="m209.401 311.417c-3.529 0-7.072-1.238-9.925-3.758-6.208-5.484-6.796-14.964-1.312-21.173l30.317-34.322-.218-57.497c-.031-8.284 6.659-15.025 14.943-15.057h.059c8.258 0 14.967 6.678 14.999 14.943l.24 63.206c.014 3.677-1.323 7.231-3.758 9.987l-34.097 38.601c-2.965 3.357-7.096 5.07-11.248 5.07z" fill="#00337a"/></g><path d="m244.027 148.265 67.483-.06v-130.801c0-9.578-7.765-17.343-17.343-17.343h-50.14z" fill="#002659"/><path d="m244.027 511.82h50.14c9.578 0 17.343-7.765 17.343-17.343v-126.467l-67.483.008z" fill="#002659"/><path d="m244.027 121.279v30c58.505.284 106.015 47.961 106.015 106.531s-47.51 106.247-106.015 106.531v30c75.047-.284 136.015-61.419 136.015-136.531s-60.968-136.247-136.015-136.531z" fill="#c1126b"/><circle cx="243.503" cy="75.467" fill="#145481" r="15.099"/><g fill="#002659"><path d="m244.027 60.367v30.146c8.095-.278 14.576-6.91 14.576-15.073 0-8.162-6.482-14.795-14.576-15.073z"/><path d="m244.027 179.611v100.232l10.719-12.135c2.435-2.756 3.771-6.31 3.758-9.987l-.24-63.206c-.031-8.007-6.335-14.506-14.237-14.904z"/></g></g></svg>